<svg width="119" height="119" viewBox="0 0 119 119" fill="none" xmlns="http://www.w3.org/2000/svg">
<g id="6450150_3297113 1">
<g id="Floor">
<path id="Floor_5_" d="M59.5 105.022C90.8091 105.022 116.19 90.3683 116.19 72.292C116.19 54.2157 90.8091 39.562 59.5 39.562C28.1909 39.562 2.80981 54.2157 2.80981 72.292C2.80981 90.3683 28.1909 105.022 59.5 105.022Z" fill="#F5F5F5"/>
</g>
<g id="Shadows">
<path id="Shadow_11_" d="M10.5398 60.5649L78.6716 99.9008L110.404 81.5801L42.2723 42.2441L10.5398 60.5649Z" fill="#E0E0E0"/>
<path id="Shadow_1_" d="M16.3792 77.8692C18.9398 77.8692 21.0156 76.6708 21.0156 75.1924C21.0156 73.7141 18.9398 72.5156 16.3792 72.5156C13.8185 72.5156 11.7427 73.7141 11.7427 75.1924C11.7427 76.6708 13.8185 77.8692 16.3792 77.8692Z" fill="#E0E0E0"/>
<path id="Shadow_12_" d="M85.2114 57.0476C91.1905 57.0476 96.0375 54.2491 96.0375 50.797C96.0375 47.3449 91.1905 44.5464 85.2114 44.5464C79.2323 44.5464 74.3853 47.3449 74.3853 50.797C74.3853 54.2491 79.2323 57.0476 85.2114 57.0476Z" fill="#E0E0E0"/>
</g>
<g id="Ball_1_">
<g id="Ball">
<path id="Vector" d="M94.8605 49.1362C100.19 43.8067 100.19 35.1659 94.8605 29.8364C89.531 24.5069 80.8902 24.5069 75.5607 29.8364C70.2312 35.1659 70.2312 43.8067 75.5607 49.1362C80.8902 54.4657 89.531 54.4657 94.8605 49.1362Z" fill="#FF6000"/>
<path id="Vector_2" opacity="0.3" d="M94.8605 49.1362C100.19 43.8067 100.19 35.1659 94.8605 29.8364C89.531 24.5069 80.8902 24.5069 75.5607 29.8364C70.2312 35.1659 70.2312 43.8067 75.5607 49.1362C80.8902 54.4657 89.531 54.4657 94.8605 49.1362Z" fill="black"/>
<path id="Vector_3" opacity="0.1" d="M81.7521 27.9294C80.4785 28.553 79.2183 29.7035 79.3406 31.1162C79.4066 31.8783 79.8802 32.558 80.4733 33.0407C81.0664 33.5234 81.7754 33.838 82.4749 34.1472C84.8689 35.2046 87.2632 36.2623 89.6572 37.3197C90.3641 37.632 91.0819 37.9473 91.8466 38.0575C92.6113 38.1677 93.4426 38.0482 94.0452 37.5648C95.022 36.7816 95.1167 35.3236 94.8806 34.0941C93.7456 28.1762 87.0026 25.3581 81.7521 27.9294Z" fill="white"/>
<g id="Group" opacity="0.2">
<path id="Vector_4" d="M78.9222 28.8994C79.0545 29.558 79.6131 30.0844 80.4956 30.3824C81.381 30.6813 82.4696 30.7011 83.5118 30.4916C84.554 30.2824 85.5507 29.844 86.2521 29.2267C86.9511 28.6114 87.2634 27.9098 87.1313 27.2515C87.0104 26.6484 86.5277 26.1581 85.7699 25.8506C85.4786 25.839 85.1854 25.8375 84.8912 25.8447C85.0954 25.8825 85.2942 25.9306 85.482 25.9939C86.2805 26.2633 86.7836 26.7267 86.8981 27.2981C87.0128 27.8696 86.7277 28.491 86.095 29.0477C84.7489 30.2324 82.2711 30.7301 80.5718 30.1565C79.7733 29.8871 79.2704 29.4237 79.1557 28.8523C79.041 28.2808 79.3261 27.6594 79.9587 27.1025C80.1496 26.9345 80.365 26.7822 80.5958 26.6429C80.3045 26.7472 80.0189 26.8619 79.7383 26.9845C79.086 27.5854 78.7942 28.262 78.9222 28.8994Z" fill="black"/>
<path id="Vector_5" d="M72.7347 45.0139C72.7275 44.9974 72.7197 44.9815 72.7128 44.9648V44.9653C72.7199 44.9815 72.7275 44.9974 72.7347 45.0139Z" fill="black"/>
<path id="Vector_6" d="M97.4558 33.4565C97.4765 33.4984 97.4977 33.5403 97.5179 33.5824C97.4977 33.5403 97.4765 33.4987 97.4558 33.4565Z" fill="black"/>
<path id="Vector_7" d="M72.9006 45.3799C72.9318 45.4449 72.9647 45.5086 72.9968 45.5731C72.9644 45.5089 72.9316 45.4449 72.9006 45.3799Z" fill="black"/>
<path id="Vector_8" d="M98.1574 43.7988C97.6899 44.6592 96.9909 45.506 96.0801 46.3081C91.6278 50.2241 83.4373 51.8685 77.8186 49.9745C76.6679 49.5856 75.6956 49.0741 74.9319 48.4601C75.1823 48.7461 75.4426 49.0222 75.7149 49.2854C76.3118 49.6379 76.9887 49.9452 77.742 50.1984C80.588 51.1587 84.0842 51.2216 87.4326 50.5492C90.781 49.8769 93.9821 48.4696 96.2369 46.4851C96.8319 45.9599 97.341 45.4158 97.7544 44.8598C97.9036 44.5128 98.0372 44.1584 98.1574 43.7988Z" fill="black"/>
<path id="Vector_9" d="M95.7536 42.2154C91.071 46.3381 82.4511 48.0685 76.5401 46.0729C74.2934 45.3166 72.7035 44.1158 71.9346 42.6267C71.9981 42.8956 72.0676 43.1617 72.1459 43.4233C73.0379 44.6497 74.5112 45.6405 76.4642 46.2995C79.4558 47.3084 83.1327 47.376 86.6537 46.6691C90.1749 45.9622 93.5404 44.4805 95.9109 42.3951C97.4598 41.0307 98.4366 39.5482 98.7833 38.0706C98.7548 37.8012 98.7167 37.5309 98.6717 37.2603C98.5368 38.9303 97.5315 40.6515 95.7536 42.2154Z" fill="black"/>
<path id="Vector_10" d="M98.8429 40.1846C98.84 40.2393 98.8357 40.2941 98.8322 40.3488C98.8357 40.2941 98.8402 40.2395 98.8429 40.1846Z" fill="black"/>
<path id="Vector_11" d="M93.2299 28.4453C93.2708 28.4748 93.312 28.5043 93.3524 28.5343C93.312 28.5041 93.2708 28.4748 93.2299 28.4453Z" fill="black"/>
<path id="Vector_12" d="M76.4832 38.064C78.9802 38.9068 82.0485 38.9627 84.9878 38.3725C87.9267 37.7822 90.7365 36.5463 92.7145 34.8053C94.3489 33.3668 95.2178 31.7675 95.2323 30.2205C95.1521 30.1338 95.0688 30.0503 94.9865 29.9658C95.0721 31.5207 94.2291 33.1553 92.5574 34.6266C88.658 38.0585 81.4816 39.4999 76.5593 37.8384C74.4492 37.1263 73.0405 35.9439 72.5193 34.4766C72.4759 34.5864 72.4312 34.6956 72.3905 34.8065C73.0012 36.2281 74.4202 37.3681 76.4832 38.064Z" fill="black"/>
<path id="Vector_13" d="M71.6254 38.1943C72.2232 39.9265 73.8656 41.3128 76.3159 42.1392C79.105 43.0819 82.5305 43.1442 85.8137 42.485C89.0946 41.8262 92.2331 40.446 94.4422 38.4999C96.3864 36.7899 97.3639 34.8763 97.2453 33.0468C97.1456 32.8605 97.0414 32.6772 96.9338 32.4966C97.3141 34.4139 96.3728 36.4824 94.2853 38.3228C89.924 42.1599 81.897 43.7716 76.3925 41.9152C73.7571 41.0256 72.0909 39.4833 71.6991 37.5686C71.6699 37.7754 71.6446 37.9832 71.6249 38.1922C71.6249 38.1926 71.6251 38.1934 71.6254 38.1943Z" fill="black"/>
<path id="Vector_14" d="M71.5782 38.8467C71.5823 38.7581 71.588 38.6694 71.594 38.5811C71.5882 38.6696 71.5825 38.7579 71.5782 38.8467Z" fill="black"/>
<path id="Vector_15" d="M92.8436 28.1747C92.8036 28.1478 92.7639 28.1207 92.7239 28.0942C92.7639 28.1207 92.8036 28.1475 92.8436 28.1747Z" fill="black"/>
<path id="Vector_16" d="M77.6542 33.9814C79.5625 34.6254 81.9077 34.6681 84.1537 34.217C86.4 33.766 88.5467 32.8216 90.0585 31.491C91.4303 30.2839 92.0998 28.9273 91.9744 27.6363C91.8882 27.5871 91.8026 27.5369 91.7152 27.4893C91.913 28.7514 91.2747 30.1037 89.9014 31.3123C86.9352 33.9236 81.475 35.0196 77.7303 33.7558C75.9972 33.1708 74.886 32.1698 74.5813 30.9293C74.519 31.0067 74.4595 31.0862 74.3988 31.1649C74.7815 32.4042 75.9227 33.3971 77.6542 33.9814Z" fill="black"/>
<path id="Vector_17" d="M73.4685 32.5357C73.5002 32.4826 73.5325 32.4303 73.5647 32.3774C73.5325 32.4303 73.4999 32.4826 73.4685 32.5357Z" fill="black"/>
<path id="Vector_18" d="M73.8919 31.8657C73.8591 31.9145 73.8272 31.9638 73.7948 32.0128C73.8269 31.9635 73.8591 31.9145 73.8919 31.8657Z" fill="black"/>
</g>
<path id="Vector_19" opacity="0.1" d="M81.7333 47.3003C73.6049 44.1789 72.3906 38.1821 73.0323 33.3461L73.0285 33.3438C71.6988 35.9767 71.2056 39.056 71.8313 42.1724C73.315 49.562 80.5081 54.3496 87.8978 52.8662C93.883 51.6645 98.1603 46.7167 98.782 40.9531C98.1577 45.1416 89.8567 50.4198 81.7333 47.3003Z" fill="black"/>
</g>
</g>
<g id="Mat_1_">
<g id="Mat">
<path id="Vector_20" d="M10.5398 58.853L78.6716 98.1889L110.404 79.8682L42.2723 40.5322L10.5398 58.853Z" fill="#FFA066"/>
<path id="Vector_21" opacity="0.05" d="M81.634 84.6093C82.3385 84.7433 83.1351 84.734 83.776 85.0853C84.1159 85.2717 84.6728 85.7838 84.966 86.0373C86.2822 87.1749 87.5109 87.6628 89.25 87.7033C90.7549 87.7383 94.2325 86.7477 94.254 84.7933C94.2723 83.575 92.9136 82.8788 91.7852 82.4187C85.3963 79.8146 79.7067 75.5175 75.4534 70.0851C73.86 68.05 72.3958 65.7954 70.1722 64.4774C68.7551 63.6375 67.1272 63.2412 65.5369 62.8121C56.8742 60.4752 48.5613 56.8454 40.9586 52.0804C42.3669 49.3101 43.35 46.3241 43.8632 43.2589C42.0118 42.6113 40.2201 44.2121 38.3939 44.9278C36.9647 45.4878 35.5348 45.4669 34.1068 45.2467L28.0443 48.747C28.2951 49.6378 28.6995 50.5032 28.977 51.3916C29.3987 52.7428 29.4435 54.4173 28.3889 55.3612C27.7818 55.9046 26.9409 56.0826 26.1417 56.2407C25.0271 56.4608 23.9126 56.6812 22.798 56.9013C21.8448 57.0898 20.7472 57.3909 20.3757 58.2889C19.9213 59.387 20.8871 60.5575 21.9001 61.1789C23.7874 62.3368 26.037 62.7104 28.1171 63.4694C32.9937 65.2487 36.8105 69.0874 41.3528 71.6007C44.4982 73.3412 47.9987 74.4367 51.5749 74.7999C55.2791 75.1762 59.0571 74.7773 62.7118 75.4894C65.5828 76.0487 68.5071 76.8334 71.3222 77.6809C72.8359 78.1367 74.3276 78.72 75.6714 79.5623C76.3473 79.9859 76.984 80.475 77.549 81.0391C78.0957 81.5846 78.4669 82.2898 78.9437 82.8978C79.6917 83.8522 80.5014 84.3939 81.634 84.6093Z" fill="black"/>
<path id="Vector_22" d="M10.5398 58.853V59.4713L78.6716 98.807V98.189L10.5398 58.853Z" fill="#FFA066"/>
<path id="Vector_23" d="M78.6716 98.1889L110.404 79.8682V80.4865L78.6716 98.807V98.1889Z" fill="#FFA066"/>
</g>
</g>
<g id="Bottle">
<g id="Water">
<g id="XMLID_1136_">
<path id="Vector_24" d="M19.6428 69.4712C19.5386 69.0047 19.2987 68.5063 19.1004 68.0706C19.0771 68.0196 19.0523 67.9687 19.0264 67.9178C18.593 67.0619 18.5956 66.0492 19.0652 65.2127C19.0814 65.1839 19.0973 65.1551 19.113 65.1265C19.4055 64.5953 19.5314 64.139 19.5324 63.534C19.5343 63.0726 19.232 62.3824 18.6235 62.0285C18.4914 61.9504 18.3498 61.8821 18.2015 61.8235C17.9275 61.7129 17.7431 61.4523 17.7443 61.1555L17.7476 60.331L15.108 60.3208L15.1049 61.1452C15.1037 61.442 14.9171 61.7012 14.6424 61.8097C14.4937 61.8673 14.3516 61.9344 14.219 62.0113C13.6078 62.3607 13.3001 63.0485 13.2984 63.5098C13.2944 64.1148 13.417 64.572 13.7052 65.1055C13.7197 65.1324 13.7345 65.1593 13.7495 65.1862C14.215 66.0278 14.2114 67.0424 13.7716 67.8975C13.7454 67.9485 13.7204 67.9992 13.6969 68.0496C13.4953 68.4837 13.2497 68.9802 13.1435 69.446C13.0409 69.8977 13.0164 70.383 13.0145 70.8663L12.9995 74.7067C12.9976 75.2058 13.3244 75.7046 13.9803 76.0864C14.5165 76.3982 15.1908 76.585 15.8879 76.6433C16.2044 76.6707 16.5262 76.6719 16.8411 76.6471C17.537 76.5907 18.2055 76.4108 18.7408 76.105C19.3998 75.7284 19.7304 75.2322 19.7323 74.7348L19.743 71.9571C19.7444 71.611 19.758 71.2493 19.7594 70.8875C19.7609 70.4056 19.7418 69.922 19.6428 69.4712Z" fill="#FF8033"/>
<path id="Vector_25" opacity="0.3" d="M19.6428 69.4712C19.5386 69.0047 19.2987 68.5063 19.1004 68.0706C19.0771 68.0196 19.0523 67.9687 19.0264 67.9178C18.593 67.0619 18.5956 66.0492 19.0652 65.2127C19.0814 65.1839 19.0973 65.1551 19.113 65.1265C19.4055 64.5953 19.5314 64.139 19.5324 63.534C19.5343 63.0726 19.232 62.3824 18.6235 62.0285C18.4914 61.9504 18.3498 61.8821 18.2015 61.8235C17.9275 61.7129 17.7431 61.4523 17.7443 61.1555L17.7476 60.331L15.108 60.3208L15.1049 61.1452C15.1037 61.442 14.9171 61.7012 14.6424 61.8097C14.4937 61.8673 14.3516 61.9344 14.219 62.0113C13.6078 62.3607 13.3001 63.0485 13.2984 63.5098C13.2944 64.1148 13.417 64.572 13.7052 65.1055C13.7197 65.1324 13.7345 65.1593 13.7495 65.1862C14.215 66.0278 14.2114 67.0424 13.7716 67.8975C13.7454 67.9485 13.7204 67.9992 13.6969 68.0496C13.4953 68.4837 13.2497 68.9802 13.1435 69.446C13.0409 69.8977 13.0164 70.383 13.0145 70.8663L12.9995 74.7067C12.9976 75.2058 13.3244 75.7046 13.9803 76.0864C14.5165 76.3982 15.1908 76.585 15.8879 76.6433C16.2044 76.6707 16.5262 76.6719 16.8411 76.6471C17.537 76.5907 18.2055 76.4108 18.7408 76.105C19.3998 75.7284 19.7304 75.2322 19.7323 74.7348L19.743 71.9571C19.7444 71.611 19.758 71.2493 19.7594 70.8875C19.7609 70.4056 19.7418 69.922 19.6428 69.4712Z" fill="black"/>
<path id="Vector_26" opacity="0.1" d="M19.0652 65.2125C19.0813 65.1837 19.0973 65.1549 19.113 65.1264C19.3646 64.6692 19.4924 64.2672 19.5238 63.7788C19.4629 63.9699 19.3781 64.1548 19.2734 64.3243C18.9709 64.8141 18.5299 65.2011 18.0839 65.5652C17.6317 65.9344 17.129 66.3542 17.0729 66.9352C17.0186 67.4976 17.4151 68.0085 17.8664 68.3484C18.3176 68.6883 18.8455 68.9277 19.251 69.3211C19.4279 69.4925 19.575 69.6895 19.7109 69.8954C19.6937 69.7519 19.6728 69.6096 19.6425 69.4711C19.5383 69.0046 19.2984 68.5062 19.1001 68.0704C19.0768 68.0195 19.0521 67.9688 19.0261 67.9176C18.593 67.062 18.5956 66.0493 19.0652 65.2125Z" fill="black"/>
<g id="Group_2">
<path id="XMLID_1142_" d="M14.6617 61.2406L14.6601 61.6845C14.6572 61.9489 14.8319 62.2159 15.1827 62.4208C15.8808 62.8273 17.0153 62.8316 17.7181 62.4306C17.8926 62.3304 18.0251 62.2142 18.1127 62.0893C18.2003 61.966 18.2441 61.8339 18.2448 61.7016L18.2465 61.2508C18.2467 61.2108 18.2434 61.1709 18.2332 61.1306C18.1906 60.906 18.0209 60.6877 17.7257 60.5161C17.7169 60.5109 17.7084 60.5056 17.6996 60.5021C16.9979 60.1096 15.8824 60.1103 15.1901 60.5061C14.8935 60.6756 14.7205 60.8924 14.676 61.1149C14.6655 61.1573 14.662 61.1989 14.6617 61.2406Z" fill="#FFCFB3"/>
<path id="XMLID_327_" opacity="0.1" d="M14.6617 61.2406L14.6601 61.6845C14.6572 61.9489 14.8319 62.2159 15.1827 62.4208C15.8808 62.8273 17.0153 62.8316 17.7181 62.4306C17.8926 62.3304 18.0251 62.2142 18.1127 62.0893C18.2003 61.966 18.2441 61.8339 18.2448 61.7016L18.2465 61.2508C18.2467 61.2108 18.2434 61.1709 18.2332 61.1306C18.1906 60.906 18.0209 60.6877 17.7257 60.5161C17.7169 60.5109 17.7084 60.5056 17.6996 60.5021C16.9979 60.1096 15.8824 60.1103 15.1901 60.5061C14.8935 60.6756 14.7205 60.8924 14.676 61.1149C14.6655 61.1573 14.662 61.1989 14.6617 61.2406Z" fill="black"/>
<path id="XMLID_1141_" opacity="0.2" d="M17.7194 61.9805C18.421 61.5793 18.4236 60.9238 17.7251 60.5171C17.0266 60.1101 15.8918 60.1058 15.1902 60.5073C14.4885 60.9088 14.4859 61.564 15.1844 61.9708C15.8827 62.3775 17.0178 62.3818 17.7194 61.9805Z" fill="black"/>
<path id="XMLID_1137_" d="M14.6643 60.7231L14.6633 60.9902C14.6631 61.0321 14.6664 61.0737 14.6767 61.1156C14.7193 61.3386 14.8906 61.5566 15.186 61.7284C15.4985 61.9107 15.8983 62.0114 16.3055 62.0305C16.812 62.0566 17.3325 61.9595 17.7216 61.7365C17.8961 61.6363 18.027 61.5219 18.1162 61.3969C18.1774 61.3119 18.2162 61.2215 18.2338 61.1311C18.2443 61.0911 18.2481 61.0492 18.2481 61.0092L18.2493 60.7334C18.2505 60.467 18.0775 60.2019 17.7283 59.9987C17.6969 59.981 17.6657 59.9637 17.6329 59.9477C16.9293 59.5917 15.8626 59.605 15.1929 59.9887C14.8404 60.1914 14.6636 60.457 14.6643 60.7231Z" fill="#FFCFB3"/>
<path id="XMLID_297_" opacity="0.1" d="M14.6643 60.7231L14.6633 60.9902C14.6631 61.0321 14.6664 61.0737 14.6767 61.1156C14.7193 61.3386 14.8906 61.5566 15.186 61.7284C15.4985 61.9107 15.8983 62.0114 16.3055 62.0305C16.812 62.0566 17.3325 61.9595 17.7216 61.7365C17.8961 61.6363 18.027 61.5219 18.1162 61.3969C18.1774 61.3119 18.2162 61.2215 18.2338 61.1311C18.2443 61.0911 18.2481 61.0492 18.2481 61.0092L18.2493 60.7334C18.2505 60.467 18.0775 60.2019 17.7283 59.9987C17.6969 59.981 17.6657 59.9637 17.6329 59.9477C16.9293 59.5917 15.8626 59.605 15.1929 59.9887C14.8404 60.1914 14.6636 60.457 14.6643 60.7231Z" fill="black"/>
<path id="Vector_27" d="M14.6642 60.7143C14.662 61.2834 15.4627 61.748 16.4528 61.7518C17.4426 61.7556 18.247 61.2974 18.2492 60.7284C18.2513 60.1593 17.4507 59.6947 16.4609 59.6909C15.4708 59.6871 14.6663 60.1453 14.6642 60.7143Z" fill="#FFCFB3"/>
</g>
</g>
<path id="XMLID_1134_" d="M15.8394 59.6574L15.8358 60.5856C15.8358 60.6001 15.837 60.6146 15.8406 60.6289C15.8553 60.7062 15.9148 60.7817 16.0172 60.8412C16.1255 60.9043 16.264 60.9392 16.4051 60.9459C16.5805 60.9549 16.7612 60.9214 16.8959 60.844C16.9563 60.8093 17.0018 60.7695 17.0327 60.7262C17.0539 60.6967 17.0672 60.6655 17.0734 60.6341C17.077 60.6203 17.0784 60.6058 17.0784 60.592L17.082 59.6607C17.0825 59.5684 17.0225 59.4765 16.9016 59.406C16.8906 59.4001 16.8799 59.3939 16.8685 59.3884C16.6248 59.2651 16.2552 59.2697 16.0229 59.4027C15.9003 59.4732 15.8391 59.5653 15.8394 59.6574Z" fill="#993A00"/>
<path id="Vector_28" d="M15.8394 59.6542C15.8386 59.8515 16.1161 60.0124 16.4591 60.0138C16.8021 60.0152 17.081 59.8563 17.0817 59.6592C17.0824 59.4621 16.8049 59.301 16.462 59.2998C16.1188 59.2984 15.8401 59.4571 15.8394 59.6542Z" fill="#FF6000"/>
<path id="Vector_29" opacity="0.5" d="M16.2399 59.6562C16.2396 59.7262 16.3382 59.7833 16.4598 59.7837C16.5816 59.7842 16.6804 59.7278 16.6809 59.6578C16.6811 59.5879 16.5826 59.5308 16.4607 59.5303C16.3391 59.5298 16.2401 59.5862 16.2399 59.6562Z" fill="#4D1D00"/>
</g>
</g>
<g id="Character">
<g id="Character_9_">
<path id="Vector_30" d="M46.3619 53.1413C46.3619 53.1413 48.006 39.776 47.6345 34.8943C47.4441 32.3911 46.2332 31.8234 44.3825 31.9662C42.5318 32.109 31.9406 37.7375 31.9406 37.7375L33.4383 41.3796L42.2609 38.6119C42.2609 38.6119 41.3642 43.8117 41.1566 44.8004C40.9493 45.789 40.5155 47.1192 40.1713 48.3116C40.0023 48.8975 39.7672 49.6601 39.7672 50.0295C39.7672 50.8989 46.3619 53.1413 46.3619 53.1413Z" fill="#FFA8A7"/>
<path id="Vector_31" d="M42.2608 38.6118C43.4877 38.3693 44.715 37.6475 45.1001 37.0698C45.1001 37.0698 44.9076 37.964 43.8728 38.6118C42.8379 39.2597 42.1018 39.5293 42.1018 39.5293L42.2608 38.6118Z" fill="#F28F8F"/>
<path id="Vector_32" d="M63.0315 52.9049C62.8473 52.2237 61.6525 51.5069 58.0916 50.9095C54.5306 50.3121 51.2919 50.9138 51.2743 51.3298C51.2567 51.7458 52.152 54.5687 56.2571 55.0812C60.3619 55.5936 63.4068 54.3986 63.0315 52.9049Z" fill="#263238"/>
<g id="Character_8_">
<path id="Vector_33" d="M52.3207 58.6905C52.3207 58.6905 50.0002 43.6382 50.3341 40.5647C50.679 37.3907 51.8835 35.9173 53.9008 35.7104C56.5402 37.2441 57.9456 40.9065 59.6337 44.5131C61.3219 48.1195 63.15 55.8681 63.2466 59.568C63.3427 63.2504 60.4175 65.9055 57.1017 66.3877C53.7856 66.8699 52.3207 58.6905 52.3207 58.6905Z" fill="#FFA8A7"/>
<path id="Vector_34" d="M55.9677 46.9068C54.1318 45.371 53.9309 43.4739 53.9309 43.4739L57.2405 42.3188L59.4804 44.1819C59.5025 44.23 59.5249 44.2778 59.547 44.3259C59.5758 44.3883 59.6046 44.4509 59.6339 44.5132C59.6979 44.6501 59.7621 44.7948 59.8266 44.9433C59.8452 44.9859 59.8635 45.0299 59.8821 45.0732C59.9314 45.1891 59.9809 45.3081 60.0301 45.4302C60.0468 45.4716 60.0637 45.5123 60.0804 45.5545C60.1458 45.7192 60.2113 45.8877 60.2767 46.0621C60.2774 46.0643 60.2781 46.0664 60.2791 46.0683C60.3438 46.2416 60.4086 46.4205 60.4731 46.6026C60.4866 46.6412 60.5004 46.6802 60.514 46.7192C60.5711 46.8827 60.6282 47.0489 60.6851 47.2181C60.6934 47.2428 60.7018 47.2673 60.7101 47.2923C60.8443 47.6957 60.9769 48.1146 61.1068 48.5449C61.1137 48.5678 61.1207 48.5909 61.1276 48.6139C61.1911 48.8253 61.2539 49.0388 61.316 49.2551C61.3165 49.2565 61.3168 49.258 61.3172 49.2592C61.3141 49.2585 58.2375 48.8058 55.9677 46.9068Z" fill="#F28F8F"/>
<path id="Vector_35" d="M53.2137 35.8398C54.4742 35.3409 56.0104 36.5057 56.8213 37.0253C58.4702 38.0817 68.5549 45.9412 70.9064 47.7826C71.4164 48.0908 71.9353 48.3881 72.4631 48.6696L69.6926 53.0015C69.4593 52.351 69.0966 51.7984 68.6471 51.3262C66.1333 49.5322 61.2636 48.5537 58.137 47.3354C55.701 46.3868 55.191 45.8503 54.3697 44.4585C53.7321 43.3775 51.4632 36.664 53.2137 35.8398Z" fill="#FFA8A7"/>
<path id="Vector_36" d="M52.2698 58.7728L51.274 51.3296C51.274 51.3296 52.168 53.3831 56.7749 53.9219C61.3819 54.4607 63.1479 53.681 63.0312 52.9047C63.0312 52.9047 64.2348 57.5635 63.7688 60.5918C63.3028 63.6201 58.683 66.8424 58.683 66.8424L52.2698 58.7728Z" fill="#37474F"/>
<path id="Vector_37" opacity="0.15" d="M54.3104 59.7839C53.8873 59.7922 53.4903 59.8101 53.1133 59.8343L58.2343 66.2777H59.4303C60.7574 65.2227 63.4213 62.8536 63.7693 60.5921C64.1108 58.3718 63.5553 55.2771 63.2342 53.7827C63.4177 55.497 59.5757 59.6808 54.3104 59.7839Z" fill="black"/>
<g id="Group_3">
<path id="Vector_38" d="M77.3788 42.3775C75.7218 42.0688 74.9383 43.2695 74.3231 44.261C73.7079 45.2525 72.6816 47.0751 72.2228 47.3824C71.7639 47.6896 71.4983 47.3764 70.8535 47.876C70.2088 48.3756 69.7207 49.2935 69.9227 49.6434C70.1248 49.9933 70.4004 50.4704 70.4004 50.4704C70.4004 50.4704 69.6295 50.3217 68.9174 51.0297C68.2053 51.7378 68.5749 51.8637 68.9776 52.2676C69.3803 52.6715 70.3233 54.5 71.271 54.9991C71.271 54.9991 73.8214 54.2335 75.6721 51.341C77.5228 48.4484 77.3788 42.3775 77.3788 42.3775Z" fill="#FF6000"/>
<path id="Vector_39" d="M71.791 55.3815C71.504 55.3172 71.0928 55.0466 71.2279 54.4904C71.3631 53.9342 71.8465 52.9077 72.4879 51.9995C73.1293 51.0913 74.3291 49.3898 74.5319 48.4469C74.7349 47.5039 75.1695 44.8916 75.8806 43.7937C76.5917 42.6956 77.3241 42.0637 78.2649 42.4172C79.2057 42.7706 76.2414 49.8028 75.3734 50.9913C74.5052 52.1799 71.791 55.3815 71.791 55.3815Z" fill="#37474F"/>
<path id="Vector_40" d="M72.3384 55.2299C74.6825 53.9799 75.4553 52.7652 76.1386 51.1915C76.8219 49.6179 78.4493 48.1477 78.8673 46.7271C79.2852 45.3067 79.3304 41.6622 77.718 42.5455C76.1055 43.4287 75.7721 46.6864 75.064 48.5692C74.3555 50.4521 70.0394 56.4559 72.3384 55.2299Z" fill="#263238"/>
</g>
<path id="Vector_41" d="M58.2493 59.0863C59.321 58.924 61.38 59.3659 63.249 61.9744C65.256 64.7757 65.6323 69.6644 64.3712 70.06C64.3712 70.06 61.4526 69.7151 59.4491 68.6677C57.4454 67.6207 54.0753 60.5241 58.2493 59.0863Z" fill="#263238"/>
<g id="XMLID_336_">
<path id="Vector_42" d="M92.4764 82.4016C89.3679 81.1799 86.8244 79.0819 84.6174 76.736C82.8477 74.3303 75.2607 64.0368 73.9429 62.5881C73.4757 62.074 72.3395 60.7516 70.7758 60.4194C65.239 59.2432 54.989 59.4067 54.989 59.4067L51.0482 58.7432L43.1907 66.1354C44.2738 67.2888 45.6335 68.2946 47.6196 69.3308C49.6057 70.3673 51.7572 71.1177 54.6554 70.8726C60.4578 70.3818 63.9336 68.7423 67.0449 68.0156C67.9434 67.8057 68.8766 67.613 69.583 69.0883C70.2822 70.5451 70.3469 71.3034 72.4383 72.872C75.1224 74.886 79.5497 77.1377 81.4887 79.5413C81.795 80.1168 81.9956 80.7467 82.0456 81.436C82.2284 83.964 84.3516 83.4683 86.0638 84.5683C86.9943 85.1662 87.6883 85.8944 88.8122 86.1434C89.8087 86.3643 90.913 86.3221 91.9014 86.086C92.8141 85.8683 94.1234 85.21 94.573 84.3203C95.1682 83.1429 93.3677 82.7519 92.4764 82.4016Z" fill="#FFA8A7"/>
</g>
<g id="XMLID_328_">
<path id="Vector_43" d="M92.4764 82.4016C89.3679 81.1799 86.8244 79.0819 84.6174 76.736C82.8477 74.3303 75.2607 64.0368 73.9429 62.5881C73.4757 62.074 72.3395 60.7516 70.7758 60.4194C65.239 59.2432 54.989 59.4067 54.989 59.4067L51.0482 58.7432L43.1907 66.1354C44.2738 67.2888 45.6335 68.2946 47.6196 69.3308C49.6057 70.3673 51.7572 71.1177 54.6554 70.8726C60.4578 70.3818 63.9336 68.7423 67.0449 68.0156C67.9434 67.8057 68.8766 67.613 69.583 69.0883C70.2822 70.5451 70.3469 71.3034 72.4383 72.872C75.1224 74.886 79.5497 77.1377 81.4887 79.5413C81.795 80.1168 81.9956 80.7467 82.0456 81.436C82.2284 83.964 84.3516 83.4683 86.0638 84.5683C86.9943 85.1662 87.6883 85.8944 88.8122 86.1434C89.8087 86.3643 90.913 86.3221 91.9014 86.086C92.8141 85.8683 94.1234 85.21 94.573 84.3203C95.1682 83.1429 93.3677 82.7519 92.4764 82.4016Z" fill="#FFA8A7"/>
</g>
<path id="Vector_44" d="M72.2655 71.6757C71.6595 71.0476 71.2504 70.2382 70.9522 69.4183C70.7011 68.7281 70.5026 68.035 70.1325 67.3939C69.1658 65.7193 62.7607 67.8532 59.9152 68.7243C59.7555 68.9675 59.0898 69.6789 58.8511 70.2706C62.2911 69.5689 64.7663 68.5477 67.0447 68.0158C67.9432 67.8058 68.8766 67.6131 69.583 69.0884C70.2822 70.5452 70.347 71.3035 72.4383 72.8721C73.529 73.6906 74.9077 74.5484 76.2903 75.4394C74.7461 74.2404 73.5811 73.0392 72.2655 71.6757Z" fill="#F28F8F"/>
<path id="Vector_45" d="M51.6587 58.7432C51.6587 58.7432 57.2931 59.0181 58.2494 59.0864C58.2494 59.0864 56.13 59.6597 58.7097 64.8729C61.2901 70.0882 64.3712 70.0601 64.3712 70.0601C60.3272 71.3536 58.2239 72.8075 53.0665 72.2004C46.9192 71.3124 43.1907 66.7095 43.1907 66.7095L51.6587 58.7432Z" fill="#455A64"/>
<path id="Vector_46" opacity="0.15" d="M64.3562 70.0596C64.3539 70.0596 64.3529 70.0596 64.3498 70.0594C64.3253 70.0586 64.2779 70.0558 64.2099 70.0479C64.2085 70.0477 64.2073 70.0477 64.2058 70.0475C63.7467 69.9937 62.3823 69.6955 60.8507 68.0647C59.6976 68.375 58.4491 68.6523 57.1686 68.8398C52.5712 69.5136 49.1219 68.7025 43.9839 65.9634L43.1907 66.7095C43.1907 66.7095 46.0036 70.1793 50.7691 71.6744C50.9485 71.7308 51.1308 71.7844 51.3155 71.8348C51.3169 71.8353 51.3184 71.8358 51.3198 71.836C51.4928 71.8831 51.6685 71.9272 51.846 71.9688C51.8615 71.9724 51.8765 71.9767 51.892 71.98C52.0552 72.0176 52.2211 72.0517 52.3882 72.0843C52.4177 72.09 52.4463 72.0966 52.4758 72.1023C52.67 72.1388 52.8668 72.1718 53.0662 72.2006C53.3887 72.2385 53.6991 72.2685 53.9987 72.2908C54.2984 72.3132 54.5873 72.328 54.867 72.3361C55.0067 72.3401 55.144 72.3423 55.2792 72.3427C55.4144 72.3432 55.5472 72.342 55.6781 72.3394C56.0708 72.3311 56.4447 72.3085 56.804 72.2732C57.0437 72.2497 57.2769 72.2206 57.5049 72.1864C58.075 72.1009 58.6124 71.9836 59.136 71.8432C59.3454 71.787 59.5527 71.727 59.759 71.664C60.275 71.5064 60.7848 71.3288 61.3079 71.1401C61.5171 71.0647 61.7285 70.9873 61.9432 70.9088C62.6943 70.6337 63.4861 70.3431 64.3708 70.0601C64.3712 70.0601 64.3651 70.0598 64.3562 70.0596Z" fill="black"/>
<g id="Group_4">
<path id="Vector_47" d="M32.8229 51.6426C30.5324 52.4384 28.3685 53.8264 30.1913 57.8948C32.8229 63.7682 44.676 70.2906 50.77 71.676C47.6672 66.9945 50.2507 62.0317 52.2699 58.773L51.7379 54.7965C51.7379 54.7965 49.9099 53.919 46.882 51.5781C43.8542 49.2373 42.6094 48.604 38.0929 49.9749C34.998 50.914 32.8229 51.6426 32.8229 51.6426Z" fill="#FF6000"/>
<path id="Vector_48" opacity="0.05" d="M42.0961 64.917C35.865 61.3408 33.9063 58.1683 31.4618 55.1143L29.8632 57.0663C29.9067 57.1927 29.9546 57.3219 30.0064 57.454C30.0093 57.4612 30.0117 57.4681 30.0145 57.4755C30.0686 57.6118 30.1271 57.7513 30.1914 57.8946C31.3426 60.4643 34.259 63.1579 37.686 65.4915C38.1755 65.825 38.6756 66.151 39.1823 66.468C39.4355 66.6266 39.6907 66.7832 39.947 66.9371C41.741 68.0155 43.5955 68.978 45.3536 69.7636C47.3628 70.6616 49.2464 71.329 50.7698 71.6755C50.0351 70.5669 49.6222 69.4426 49.442 68.329C47.2698 67.6704 44.9481 66.5537 42.0961 64.917Z" fill="black"/>
<path id="Vector_49" d="M31.1024 52.4386C31.1024 52.4386 23.4178 48.331 22.2014 47.7781L28.9166 43.829L27.4902 40.124C27.4902 40.124 17.4847 43.6769 15.595 44.6986C14.599 45.2372 14.1739 45.6835 14.1718 46.4501C14.1682 47.7274 15.3882 49.3841 17.0718 50.8195C20.6549 53.874 25.5151 56.716 30.2482 59.323C31.333 60.1279 32.4618 61.1397 32.4618 61.1397C33.708 61.7549 35.5177 55.9998 31.1024 52.4386Z" fill="#FFA8A7"/>
<g id="Group_5">
<g id="XMLID_267_">
<g id="XMLID_302_">
<path id="Vector_50" d="M38.2969 38.1633C37.2973 35.8426 34.6057 34.7718 32.285 35.7714C29.9645 36.771 28.8935 39.4625 29.8931 41.783C29.9252 41.858 29.964 41.9277 29.9999 42.0001L28.8373 44.5274L27.1216 41.3642C27.1194 40.8482 26.7286 40.4043 26.2188 40.3605C25.6902 40.3151 25.2383 40.7163 25.2095 41.2568L26.5213 41.3699C26.2948 41.5241 26.042 41.7692 25.8916 42.1596C25.5781 42.974 26.6637 44.6331 28.1183 46.0894C28.1183 46.0894 30.177 48.9952 30.6766 49.4031C31.1761 49.811 31.8047 49.7175 31.8047 49.7175L31.9285 43.9993C33.1158 44.6371 34.5707 44.7497 35.905 44.1752C38.2255 43.1756 39.2965 40.484 38.2969 38.1633Z" fill="#263238"/>
<path id="XMLID_326_" d="M29.8498 45.5195C29.6586 45.7839 29.0791 45.4479 28.6188 45.2527C28.1588 45.0575 26.9281 45.0499 26.8805 46.3608C26.8319 47.6967 28.4453 48.7389 29.3707 48.6437C30.9653 48.4795 30.7879 47.4878 30.7879 47.4878L33.1411 52.6652C35.8521 54.152 40.8972 51.8153 37.8701 50.3461L37.2018 48.8058C37.2018 48.8058 38.278 48.5107 38.8576 48.1473C39.822 47.5425 40.1206 46.4475 39.9524 45.1944C39.682 43.1814 39.2486 41.6489 37.2999 38.3005C35.1641 34.6305 30.6435 36.53 28.8711 39.108C27.0989 41.6856 29.8498 45.5195 29.8498 45.5195Z" fill="#FFA8A7"/>
<path id="XMLID_315_" d="M30.0361 45.9521C29.9079 46.0104 29.0644 45.4059 28.6189 45.2527C28.0015 45.0401 26.9993 41.1386 26.9993 41.1386C26.9993 41.1386 26.1817 40.4136 26.6311 39.1056C27.0002 38.0305 28.3616 37.3137 29.3043 36.8372C31.0034 35.9785 32.9045 34.9991 33.7385 33.1991C33.8039 33.0578 33.9008 32.8947 34.0567 32.8926C34.1547 32.8912 34.2399 32.9578 34.3094 33.0268C34.7238 33.4383 34.8918 34.0407 34.9337 34.6233C34.9378 34.6786 34.9501 34.7469 35.0032 34.7628C35.0525 34.7776 35.0991 34.735 35.132 34.6952C35.304 34.4862 35.4364 34.2449 35.5204 33.9876C35.6358 33.6335 36.2282 34.5348 36.2772 34.6588C36.5735 35.4068 36.5016 36.366 36.1451 37.0783C35.7731 37.8216 35.008 38.285 34.3101 38.6919C32.751 39.6011 30.0849 40.4662 29.7139 40.5693C29.2086 40.7095 29.306 41.2159 29.593 42.5901C29.8448 43.7961 30.4672 45.7565 30.0361 45.9521Z" fill="#263238"/>
<path id="XMLID_306_" d="M37.202 48.8051C37.202 48.8051 34.4162 49.3939 33.4254 49.3125C32.7624 49.258 32.1038 48.9525 31.8361 48.6899C31.8361 48.6899 32.2818 49.3092 33.0294 49.7179C33.9438 50.2177 37.4664 49.4189 37.4664 49.4189L37.202 48.8051Z" fill="#F28F8F"/>
</g>
<g id="XMLID_268_">
<path id="XMLID_278_" d="M32.8504 41.5593L32.0155 42.4618C31.7675 42.2183 31.7535 41.8187 31.9841 41.5693C32.2145 41.3201 32.6024 41.3156 32.8504 41.5593Z" fill="#263238"/>
<path id="XMLID_272_" d="M35.5177 46.1792L36.7432 46.1206C36.7691 46.4678 36.5156 46.7627 36.1772 46.7789C35.8388 46.7949 35.5434 46.5264 35.5177 46.1792Z" fill="#F28F8F"/>
<path id="XMLID_271_" d="M37.892 40.1241L36.6915 39.818C36.7641 39.4808 37.0918 39.2758 37.4234 39.3603C37.7549 39.4446 37.9648 39.7866 37.892 40.1241Z" fill="#263238"/>
<path id="XMLID_270_" d="M35.3523 41.9868L36.1632 44.9068L37.5907 44.0415L35.3523 41.9868Z" fill="#F28F8F"/>
</g>
</g>
<path id="Vector_51" d="M33.092 43.2953C33.092 43.5902 33.3312 43.8294 33.6261 43.8294C33.921 43.8294 34.1602 43.5902 34.1602 43.2953C34.1602 43.0004 33.921 42.7612 33.6261 42.7612C33.3312 42.7612 33.092 43.0004 33.092 43.2953Z" fill="#263238"/>
<path id="Vector_52" d="M36.9517 41.7851C36.9517 42.0692 37.182 42.2996 37.4662 42.2996C37.7504 42.2996 37.9808 42.0692 37.9808 41.7851C37.9808 41.5009 37.7504 41.2705 37.4662 41.2705C37.182 41.2707 36.9517 41.5011 36.9517 41.7851Z" fill="#263238"/>
</g>
</g>
<g id="XMLID_14381_">
<path id="XMLID_14738_" d="M81.7352 81.9722C81.5332 82.1104 81.8469 82.9822 82.0301 83.1957C82.2131 83.4092 82.7444 83.7914 83.3986 83.9666C84.0531 84.1418 85.2355 84.6927 85.9814 85.3182C86.5114 85.7626 87.8116 86.6341 89.2175 86.9459C90.6234 87.2577 92.2451 86.8583 93.6621 86.0191C95.147 85.1397 95.0087 84.2989 94.8057 83.7365L81.7352 81.9722Z" fill="#37474F"/>
<path id="XMLID_14772_" d="M84.9489 77.0835C85.4173 77.59 88.0136 80.1494 90.0019 80.8022C91.5827 81.3213 93.643 81.8154 94.5441 82.7807C95.4816 83.7849 94.0862 85.0698 92.1622 85.8069C90.1585 86.5745 88.7974 85.9545 87.4672 85.2864C86.5318 84.8168 85.1533 83.8639 84.4612 83.475C83.7694 83.0861 82.4854 82.8816 81.9499 82.3121C81.6557 81.9994 81.4434 81.1202 81.3151 80.3546C81.1975 79.652 80.7265 78.9946 80.9676 78.9573L81.3565 79.3823C83.1684 79.7174 85.0534 78.0464 84.9489 77.0835Z" fill="#FF6000"/>
</g>
</g>
<path id="Vector_53" d="M22.2017 47.7783C21.2166 48.3243 19.6294 48.9081 18.5548 49.0497C18.5548 49.0497 20.5738 49.5659 22.9866 48.1644L22.2017 47.7783Z" fill="#F28F8F"/>
</g>
</g>
</g>
</svg>
