<svg width="158" height="158" viewBox="0 0 158 158" fill="none" xmlns="http://www.w3.org/2000/svg">
<g id="7069793_3297247 1">
<g id="Floor">
<path id="Floor_9_" d="M79.3552 144.39C120.984 144.39 154.73 124.565 154.73 100.109C154.73 75.6534 120.984 55.8281 79.3552 55.8281C37.7268 55.8281 3.98035 75.6534 3.98035 100.109C3.98035 124.565 37.7268 144.39 79.3552 144.39Z" fill="#F5F5F5"/>
</g>
<g id="Shadows">
<path id="Shadow_14_" d="M29.5324 117.316C31.3968 117.683 33.3528 117.587 35.2257 117.962C36.5119 118.22 37.7424 118.696 38.964 119.173C40.058 119.601 41.1511 120.03 42.2432 120.462C42.4609 120.548 45.0767 121.451 45.0767 121.576C49.5039 123.224 53.9961 125.596 58.866 125.312C60.0144 125.245 61.127 124.699 61.8835 123.833C62.64 122.966 63.0303 121.79 62.9421 120.643C62.8707 119.715 62.5016 118.799 62.6375 117.879C63.0018 115.407 65.2694 115.663 67.0928 116.085C68.1571 116.331 69.2081 116.632 70.2474 116.966C72.9833 117.847 75.8659 118.669 78.0415 120.648C79.442 121.922 80.7907 122.428 82.6839 122.64C84.0038 122.789 85.3032 122.871 86.5678 123.309C87.8151 123.742 88.899 124.573 90.053 125.212C93.1795 126.942 97.2907 126.708 100.201 124.635C100.69 124.286 101.192 123.776 101.096 123.183C100.865 121.755 98.4722 121.464 97.4588 120.863C95.6266 119.775 93.7881 118.7 91.9354 117.648C88.2303 115.544 84.48 113.521 80.688 111.579C76.635 109.503 72.5251 107.516 68.244 105.964C66.1343 105.2 63.7299 104.556 61.7135 105.541C60.0874 106.335 59.4459 107.841 58.3901 109.181C57.4086 110.426 56.1348 111.714 54.691 112.414C53.5408 112.971 52.2341 113.101 50.9572 113.159C46.7209 113.349 42.4798 112.838 38.3102 112.066C36.5444 111.738 34.7628 111.362 32.9704 111.472C31.0492 111.589 27.9012 112.083 26.8521 113.937C26.6862 114.23 26.5307 114.54 26.495 114.875C26.4368 115.421 26.7152 115.964 27.1219 116.332C27.5286 116.701 28.0497 116.919 28.5749 117.079C28.8906 117.175 29.2101 117.252 29.5324 117.316Z" fill="#E0E0E0"/>
<path id="Shadow_9_" d="M125.271 101.662C129.039 101.662 132.094 99.898 132.094 97.7226C132.094 95.5472 129.039 93.7837 125.271 93.7837C121.503 93.7837 118.448 95.5472 118.448 97.7226C118.448 99.898 121.503 101.662 125.271 101.662Z" fill="#E0E0E0"/>
<path id="Shadow_15_" d="M119.988 122.781L118.874 122.138C118.118 121.702 118.118 120.994 118.874 120.558L121.356 119.125L112.371 113.937L109.888 115.37C109.133 115.807 107.907 115.807 107.152 115.37L106.037 114.727C105.282 114.29 105.282 113.583 106.037 113.147L113.569 108.798C114.325 108.362 115.55 108.362 116.306 108.798L117.42 109.441C118.176 109.878 118.176 110.585 117.42 111.021L114.679 112.604L123.664 117.792L126.405 116.209C127.161 115.773 128.386 115.773 129.142 116.209L130.256 116.853C131.012 117.289 131.012 117.996 130.256 118.433L122.724 122.781C121.969 123.218 120.743 123.218 119.988 122.781Z" fill="#E0E0E0"/>
</g>
<g id="Plants">
<g id="Plants_6_">
<g id="XMLID_1491_">
<path id="XMLID_1509_" d="M139.061 78.756L136.051 77.018C136.051 77.018 135.313 70.571 135.804 65.5782C136.494 58.5624 141.025 50.1204 146.43 52.103C151.835 54.0856 143.952 61.2307 142.197 67.1816C140.442 73.1322 139.061 78.756 139.061 78.756Z" fill="#FF6000"/>
<path id="XMLID_1508_" opacity="0.15" d="M139.061 78.756L136.051 77.018C136.051 77.018 135.313 70.571 135.804 65.5782C136.494 58.5624 141.025 50.1204 146.43 52.103C151.835 54.0856 143.952 61.2307 142.197 67.1816C140.442 73.1322 139.061 78.756 139.061 78.756Z" fill="black"/>
<path id="XMLID_1506_" d="M137.478 78.0241C137.48 78.0241 137.482 78.0241 137.484 78.0241C137.585 78.0206 137.664 77.9366 137.66 77.8357C137.132 62.2465 144.892 54.4047 144.97 54.3276C145.042 54.2568 145.043 54.1414 144.972 54.07C144.901 53.9983 144.786 53.9973 144.714 54.0681C144.635 54.1468 136.762 62.1012 137.296 77.8487C137.299 77.9467 137.38 78.0241 137.478 78.0241Z" fill="white"/>
</g>
<g id="XMLID_1480_">
<path id="XMLID_1489_" d="M140.954 79.8401L138.812 78.6033C138.812 78.6033 138.447 74.1793 140.616 68.8051C142.504 64.1264 147.19 60.245 149.546 61.0606C151.903 61.8762 151.844 63.5472 150.695 65.3C149.546 67.0526 142.557 71.2307 140.954 79.8401Z" fill="#FF6000"/>
<path id="XMLID_1487_" d="M139.824 79.3701H139.825C139.926 79.3695 140.007 79.288 140.006 79.1872C139.964 69.3305 149.219 62.6686 149.313 62.6022C149.394 62.5441 149.414 62.4307 149.356 62.3482C149.298 62.2663 149.185 62.2458 149.102 62.3049C149.007 62.3722 139.598 69.1444 139.642 79.1888C139.642 79.2889 139.724 79.3701 139.824 79.3701Z" fill="white"/>
</g>
</g>
<g id="Plants_7_">
<g id="XMLID_1999_">
<g id="XMLID_2004_">
<path id="XMLID_2005_" d="M24.0814 75.9702L26.6198 74.5036C26.6198 74.5036 28.1306 68.2266 27.5286 62.5784C26.6821 54.6373 21.4551 51.6492 19.4672 52.334C17.4795 53.0188 16.9038 55.3297 20.1927 60.0593C22.1333 62.8498 24.5169 68.662 24.0814 75.9702Z" fill="#FF6000"/>
</g>
<g id="XMLID_2002_" opacity="0.15">
<path id="XMLID_2003_" d="M24.0814 75.9702L26.6198 74.5036C26.6198 74.5036 28.1306 68.2266 27.5286 62.5784C26.6821 54.6373 21.4551 51.6492 19.4672 52.334C17.4795 53.0188 16.9038 55.3297 20.1927 60.0593C22.1333 62.8498 24.5169 68.662 24.0814 75.9702Z" fill="black"/>
</g>
<g id="XMLID_2000_">
<path id="XMLID_2001_" d="M25.1334 72.8864C25.1252 72.8861 25.1173 72.8848 25.109 72.8836C25.0136 72.8652 24.9507 72.7733 24.969 72.6778C26.3604 65.3533 23.8017 57.1227 20.6332 53.6979C20.5672 53.6268 20.5716 53.515 20.643 53.4492C20.7144 53.3842 20.826 53.3876 20.8917 53.459C24.1181 56.9464 26.7266 65.3113 25.3148 72.7436C25.2983 72.8305 25.2196 72.8905 25.1334 72.8864Z" fill="white"/>
</g>
</g>
<g id="XMLID_1991_">
<g id="XMLID_1996_">
<path id="XMLID_1998_" d="M17.4325 79.8103C17.0315 80.0145 15.9653 79.1016 15.6679 78.8797C15.1592 78.4999 14.7575 77.9779 14.5025 77.3977C14.2058 76.7224 14.1584 76.0123 14.2984 75.289C14.3711 74.9139 14.4953 74.5508 14.6191 74.1893C14.7408 73.8345 14.8624 73.4796 14.9841 73.1247C15.1042 72.7746 15.2258 72.4121 15.1974 72.0431C15.1402 71.2995 14.5104 70.7487 13.9366 70.2722C13.302 69.7451 12.6482 69.0588 12.6969 68.1695C12.7345 67.4835 13.1219 66.8638 13.5744 66.3465C14.0269 65.8292 14.5556 65.3789 14.9686 64.8297C15.266 64.4344 15.5061 63.9645 15.4859 63.47C15.4733 63.1628 15.3611 62.8683 15.2284 62.5912C14.9433 61.9962 14.5559 61.4447 14.3704 60.8115C14.1853 60.1782 14.2551 59.4059 14.7632 58.9853C15.1803 58.6399 15.7751 58.6188 16.3129 58.6816C16.8106 58.7398 17.2868 58.9897 17.7112 59.2545C19.0839 60.1109 19.8053 61.8243 21.2734 62.504C21.8397 62.7662 22.4705 62.849 23.0649 63.0386C23.6593 63.2282 24.2581 63.567 24.509 64.1383C25.0038 65.2649 23.9146 66.5674 24.2423 67.753C24.5324 68.8025 25.5154 69.248 26.0318 70.2065C26.2577 70.6258 26.2906 71.0989 26.2271 71.571C26.1193 72.3698 25.9721 72.9525 25.5423 73.8253C25.1871 74.5464 24.1863 75.9096 24.1863 75.9096C24.1863 75.9096 17.4938 79.7791 17.4325 79.8103Z" fill="#FF6000"/>
</g>
<g id="XMLID_1994_">
<path id="XMLID_1995_" d="M21.3177 77.7854C21.3155 77.7854 21.313 77.785 21.313 77.785C21.2138 77.7759 21.1427 77.6899 21.1512 77.5932C21.7939 70.6267 18.893 62.7532 16.6141 60.3934C16.5467 60.3235 16.5483 60.212 16.6185 60.1443C16.6886 60.077 16.7999 60.0792 16.8675 60.1488C19.1923 62.5561 22.1535 70.5607 21.5023 77.6255C21.4931 77.7203 21.4113 77.7901 21.3177 77.7854Z" fill="white"/>
</g>
<g id="XMLID_1992_">
<path id="XMLID_1993_" d="M20.6257 69.1956C20.6086 69.1946 20.5913 69.1914 20.5742 69.1851C18.3663 68.3787 15.5767 68.1155 15.5492 68.1129C15.4522 68.1038 15.3811 68.0181 15.3899 67.9214C15.3988 67.8247 15.4762 67.7521 15.5814 67.7622C15.6098 67.765 18.4434 68.032 20.6949 68.8546C20.7862 68.8878 20.8333 68.9889 20.7998 69.0802C20.7726 69.1542 20.7009 69.199 20.6257 69.1956Z" fill="white"/>
</g>
</g>
</g>
</g>
<g id="Dumbbell_2_">
<g id="Dumbbell_1_">
<g id="XMLID_480_">
<path id="XMLID_485_" d="M115.409 104.699C114.816 102.763 112.397 101.161 110.134 101.794L110.135 101.795C109.81 101.883 109.469 102.026 109.117 102.23C106.923 103.495 105.145 106.576 105.145 109.11C105.145 109.583 105.207 110.004 105.322 110.367L105.321 110.367C105.914 112.303 108.333 113.895 110.596 113.261L110.595 113.261C110.919 113.172 111.26 113.029 111.611 112.826C113.805 111.56 115.583 108.479 115.583 105.946C115.583 105.477 115.522 105.059 115.409 104.699Z" fill="#455A64"/>
<path id="XMLID_483_" d="M111.611 112.827C113.805 111.56 115.583 108.48 115.583 105.947C115.583 103.414 113.805 102.386 111.611 103.651C109.417 104.917 107.639 107.997 107.639 110.531C107.639 113.066 109.417 114.093 111.611 112.827Z" fill="#37474F"/>
<path id="XMLID_482_" d="M111.611 106.462C112.455 105.974 113.139 106.369 113.139 107.344C113.139 108.318 112.455 109.503 111.611 109.99C110.767 110.477 110.083 110.082 110.083 109.108C110.083 108.134 110.767 106.949 111.611 106.462Z" fill="#455A64"/>
<path id="Vector" d="M112.134 107.924C112.134 108.257 111.901 108.662 111.612 108.831C111.477 108.909 111.353 108.921 111.26 108.877C111.246 108.871 111.234 108.863 111.222 108.855C111.138 108.794 111.088 108.682 111.088 108.528C111.088 108.194 111.322 107.789 111.611 107.62C111.746 107.542 111.868 107.53 111.961 107.574L111.999 107.596C112.084 107.655 112.134 107.767 112.134 107.924Z" fill="#37474F"/>
</g>
<path id="Vector_2" d="M120.526 112.769C120.526 113.102 120.293 113.508 120.004 113.674C119.919 113.724 119.845 113.744 119.777 113.744C119.715 113.744 119.658 113.726 119.602 113.694L111.261 108.877C111.247 108.871 111.235 108.863 111.223 108.855C111.138 108.794 111.088 108.682 111.088 108.528C111.088 108.194 111.323 107.789 111.612 107.62C111.746 107.542 111.869 107.53 111.961 107.574L111.999 107.596L120.341 112.411C120.459 112.48 120.526 112.582 120.526 112.769Z" fill="#FAFAFA"/>
<g id="XMLID_475_">
<path id="XMLID_479_" d="M128.714 112.378C128.122 110.442 125.703 108.841 123.44 109.474L123.441 109.475C123.116 109.563 122.775 109.706 122.422 109.909C120.228 111.175 118.45 114.255 118.45 116.789C118.45 117.263 118.512 117.684 118.628 118.047L118.627 118.046C119.219 119.982 121.639 121.575 123.901 120.941L123.9 120.941C124.225 120.852 124.565 120.709 124.917 120.506C127.111 119.24 128.889 116.159 128.889 113.626C128.889 113.157 128.828 112.739 128.714 112.378Z" fill="#455A64"/>
<path id="XMLID_478_" d="M124.917 120.506C127.11 119.24 128.889 116.16 128.889 113.626C128.889 111.093 127.11 110.066 124.917 111.331C122.723 112.597 120.945 115.677 120.945 118.211C120.944 120.745 122.723 121.773 124.917 120.506Z" fill="#37474F"/>
<path id="XMLID_476_" d="M124.916 114.141C125.76 113.654 126.444 114.049 126.444 115.023C126.444 115.998 125.76 117.182 124.916 117.669C124.073 118.157 123.389 117.762 123.389 116.788C123.389 115.813 124.073 114.628 124.916 114.141Z" fill="#455A64"/>
<path id="Vector_3" d="M125.439 115.603C125.439 115.936 125.206 116.342 124.917 116.51C124.783 116.589 124.658 116.601 124.566 116.556C124.552 116.55 124.54 116.543 124.528 116.534C124.443 116.474 124.393 116.362 124.393 116.207C124.393 115.874 124.628 115.468 124.917 115.3C125.052 115.221 125.174 115.209 125.266 115.254L125.304 115.276C125.389 115.334 125.439 115.446 125.439 115.603Z" fill="#37474F"/>
</g>
<path id="Vector_4" d="M126.704 116.333C126.704 116.667 126.471 117.072 126.182 117.239C126.098 117.289 126.023 117.309 125.955 117.309C125.893 117.309 125.837 117.291 125.78 117.259L124.566 116.556C124.552 116.55 124.54 116.542 124.528 116.534C124.443 116.473 124.393 116.361 124.393 116.207C124.393 115.873 124.628 115.468 124.917 115.299C125.052 115.221 125.174 115.209 125.266 115.253L125.304 115.275L126.519 115.976C126.638 116.045 126.704 116.147 126.704 116.333Z" fill="#FAFAFA"/>
<path id="Vector_5" d="M126.704 116.33C126.704 116.664 126.471 117.069 126.182 117.237C126.047 117.316 125.923 117.328 125.831 117.284C125.817 117.278 125.804 117.27 125.792 117.262C125.708 117.201 125.658 117.089 125.658 116.934C125.658 116.601 125.892 116.196 126.182 116.027C126.316 115.949 126.439 115.937 126.531 115.981L126.569 116.003C126.654 116.061 126.704 116.174 126.704 116.33Z" fill="#E0E0E0"/>
</g>
</g>
<g id="Bottle">
<g id="Water_1_">
<g id="XMLID_498_">
<path id="Vector_6" d="M130.073 89.3039C129.92 88.6173 129.567 87.8842 129.275 87.243C129.241 87.1681 129.204 87.0932 129.166 87.018C128.529 85.7584 128.532 84.2682 129.223 83.0374C129.247 82.995 129.271 82.9527 129.294 82.9106C129.724 82.1289 129.91 81.4577 129.911 80.5672C129.913 79.8881 129.469 78.8725 128.573 78.3517C128.379 78.237 128.17 78.1365 127.952 78.0502C127.549 77.8872 127.278 77.5039 127.279 77.0672L127.284 75.854L123.4 75.8389L123.395 77.052C123.394 77.4887 123.119 77.8701 122.714 78.03C122.496 78.1147 122.287 78.2136 122.091 78.3267C121.192 78.8409 120.739 79.853 120.737 80.5318C120.731 81.4223 120.911 82.0947 121.335 82.88C121.357 82.9195 121.378 82.959 121.4 82.9988C122.085 84.2369 122.08 85.7303 121.433 86.9886C121.394 87.0635 121.358 87.1381 121.323 87.2127C121.026 87.8513 120.665 88.5819 120.508 89.2673C120.357 89.9322 120.321 90.646 120.319 91.3576L120.297 97.0087C120.294 97.743 120.775 98.4771 121.74 99.0386C122.529 99.4972 123.521 99.7724 124.547 99.8583C125.013 99.8985 125.486 99.9004 125.949 99.8637C126.974 99.7806 127.957 99.5158 128.745 99.0658C129.715 98.5116 130.201 97.7816 130.204 97.0494L130.219 92.962C130.221 92.4526 130.242 91.9204 130.243 91.388C130.247 90.6792 130.219 89.9675 130.073 89.3039Z" fill="#FF6000"/>
<path id="Vector_7" opacity="0.3" d="M130.073 89.3039C129.92 88.6173 129.567 87.8842 129.275 87.243C129.241 87.1681 129.204 87.0932 129.166 87.018C128.529 85.7584 128.532 84.2682 129.223 83.0374C129.247 82.995 129.271 82.9527 129.294 82.9106C129.724 82.1289 129.91 81.4577 129.911 80.5672C129.913 79.8881 129.469 78.8725 128.573 78.3517C128.379 78.237 128.17 78.1365 127.952 78.0502C127.549 77.8872 127.278 77.5039 127.279 77.0672L127.284 75.854L123.4 75.8389L123.395 77.052C123.394 77.4887 123.119 77.8701 122.714 78.03C122.496 78.1147 122.287 78.2136 122.091 78.3267C121.192 78.8409 120.739 79.853 120.737 80.5318C120.731 81.4223 120.911 82.0947 121.335 82.88C121.357 82.9195 121.378 82.959 121.4 82.9988C122.085 84.2369 122.08 85.7303 121.433 86.9886C121.394 87.0635 121.358 87.1381 121.323 87.2127C121.026 87.8513 120.665 88.5819 120.508 89.2673C120.357 89.9322 120.321 90.646 120.319 91.3576L120.297 97.0087C120.294 97.743 120.775 98.4771 121.74 99.0386C122.529 99.4972 123.521 99.7724 124.547 99.8583C125.013 99.8985 125.486 99.9004 125.949 99.8637C126.974 99.7806 127.957 99.5158 128.745 99.0658C129.715 98.5116 130.201 97.7816 130.204 97.0494L130.219 92.962C130.221 92.4526 130.242 91.9204 130.243 91.388C130.247 90.6792 130.219 89.9675 130.073 89.3039Z" fill="black"/>
<path id="Vector_8" opacity="0.1" d="M129.223 83.0377C129.247 82.9953 129.271 82.953 129.294 82.911C129.664 82.2382 129.852 81.6466 129.898 80.9277C129.809 81.209 129.684 81.4811 129.53 81.7304C129.085 82.4512 128.436 83.0206 127.78 83.5565C127.114 84.0997 126.375 84.7175 126.292 85.5723C126.212 86.3999 126.795 87.1517 127.46 87.6519C128.123 88.1521 128.9 88.5045 129.497 89.0831C129.757 89.3352 129.974 89.6253 130.174 89.9284C130.149 89.717 130.118 89.5078 130.073 89.3039C129.92 88.6173 129.567 87.8842 129.275 87.243C129.241 87.1681 129.204 87.0932 129.167 87.0183C128.529 85.7591 128.532 84.2688 129.223 83.0377Z" fill="black"/>
<g id="Group">
<path id="XMLID_521_" d="M122.744 77.1931L122.741 77.8459C122.737 78.2352 122.994 78.628 123.511 78.9295C124.538 79.5277 126.207 79.534 127.242 78.944C127.498 78.7964 127.693 78.6255 127.822 78.4419C127.951 78.2605 128.016 78.0662 128.017 77.8715L128.019 77.2082C128.02 77.1494 128.014 77.0904 127.999 77.0313C127.936 76.7007 127.687 76.3797 127.253 76.1269C127.24 76.1193 127.227 76.1114 127.214 76.1063C126.182 75.5287 124.54 75.5299 123.522 76.1123C123.085 76.3617 122.83 76.6808 122.765 77.0082C122.749 77.0701 122.744 77.1318 122.744 77.1931Z" fill="#FF6000"/>
<path id="XMLID_520_" opacity="0.1" d="M122.744 77.1931L122.741 77.8459C122.737 78.2352 122.994 78.628 123.511 78.9295C124.538 79.5277 126.207 79.534 127.242 78.944C127.498 78.7964 127.693 78.6255 127.822 78.4419C127.951 78.2605 128.016 78.0662 128.017 77.8715L128.019 77.2082C128.02 77.1494 128.014 77.0904 127.999 77.0313C127.936 76.7007 127.687 76.3797 127.253 76.1269C127.24 76.1193 127.227 76.1114 127.214 76.1063C126.182 75.5287 124.54 75.5299 123.522 76.1123C123.085 76.3617 122.83 76.6808 122.765 77.0082C122.749 77.0701 122.744 77.1318 122.744 77.1931Z" fill="black"/>
<path id="XMLID_519_" opacity="0.2" d="M127.243 78.2817C128.275 77.6911 128.279 76.7266 127.251 76.1281C126.223 75.5293 124.553 75.523 123.521 76.1136C122.489 76.7042 122.485 77.6686 123.513 78.2671C124.54 78.866 126.21 78.8723 127.243 78.2817Z" fill="black"/>
<path id="XMLID_504_" d="M122.747 76.4316L122.745 76.8244C122.745 76.8861 122.75 76.9474 122.765 77.009C122.828 77.337 123.08 77.658 123.514 77.9108C123.974 78.1791 124.563 78.3273 125.162 78.3551C125.907 78.3937 126.673 78.2509 127.245 77.9229C127.502 77.7753 127.695 77.6072 127.826 77.4233C127.916 77.2981 127.973 77.1651 127.999 77.032C128.014 76.9733 128.02 76.9117 128.02 76.8529L128.022 76.4471C128.023 76.0553 127.769 75.665 127.255 75.3661C127.209 75.3405 127.163 75.3146 127.114 75.2912C126.079 74.7673 124.51 74.7869 123.524 75.3516C123.006 75.6489 122.746 76.0398 122.747 76.4316Z" fill="#FF6000"/>
<path id="XMLID_502_" opacity="0.1" d="M122.747 76.4316L122.745 76.8244C122.745 76.8861 122.75 76.9474 122.765 77.009C122.828 77.337 123.08 77.658 123.514 77.9108C123.974 78.1791 124.563 78.3273 125.162 78.3551C125.907 78.3937 126.673 78.2509 127.245 77.9229C127.502 77.7753 127.695 77.6072 127.826 77.4233C127.916 77.2981 127.973 77.1651 127.999 77.032C128.014 76.9733 128.02 76.9117 128.02 76.8529L128.022 76.4471C128.023 76.0553 127.769 75.665 127.255 75.3661C127.209 75.3405 127.163 75.3146 127.114 75.2912C126.079 74.7673 124.51 74.7869 123.524 75.3516C123.006 75.6489 122.746 76.0398 122.747 76.4316Z" fill="black"/>
<path id="Vector_9" d="M122.746 76.4182C122.743 77.2556 123.921 77.9391 125.378 77.9448C126.835 77.9505 128.018 77.2761 128.022 76.4387C128.025 75.6013 126.847 74.9178 125.39 74.9121C123.933 74.9065 122.75 75.5808 122.746 76.4182Z" fill="#FF6000"/>
</g>
</g>
<path id="XMLID_489_" d="M124.477 74.8627L124.471 76.2288C124.471 76.2499 124.473 76.2714 124.478 76.2926C124.5 76.4064 124.587 76.5176 124.738 76.6051C124.897 76.698 125.101 76.7495 125.309 76.759C125.567 76.7723 125.833 76.723 126.031 76.6092C126.12 76.558 126.187 76.4999 126.232 76.4361C126.264 76.3928 126.283 76.3466 126.292 76.3005C126.298 76.2803 126.3 76.2588 126.3 76.2382L126.305 74.8678C126.306 74.7319 126.217 74.5966 126.039 74.493C126.023 74.4841 126.007 74.4753 125.991 74.4671C125.632 74.2857 125.088 74.2923 124.746 74.4879C124.566 74.5913 124.476 74.7268 124.477 74.8627Z" fill="#FF6000"/>
<path id="XMLID_487_" opacity="0.1" d="M124.477 74.8627L124.471 76.2288C124.471 76.2499 124.473 76.2714 124.478 76.2926C124.5 76.4064 124.587 76.5176 124.738 76.6051C124.897 76.698 125.101 76.7495 125.309 76.759C125.567 76.7723 125.833 76.723 126.031 76.6092C126.12 76.558 126.187 76.4999 126.232 76.4361C126.264 76.3928 126.283 76.3466 126.292 76.3005C126.298 76.2803 126.3 76.2588 126.3 76.2382L126.305 74.8678C126.306 74.7319 126.217 74.5966 126.039 74.493C126.023 74.4841 126.007 74.4753 125.991 74.4671C125.632 74.2857 125.088 74.2923 124.746 74.4879C124.566 74.5913 124.476 74.7268 124.477 74.8627Z" fill="black"/>
<path id="Vector_10" d="M124.477 74.858C124.475 75.1481 124.884 75.3851 125.389 75.387C125.894 75.3889 126.304 75.1553 126.305 74.8649C126.306 74.5748 125.897 74.3378 125.393 74.3359C124.888 74.3341 124.478 74.5679 124.477 74.858Z" fill="#FF6000"/>
<path id="Vector_11" opacity="0.5" d="M125.066 74.86C125.065 74.963 125.21 75.0471 125.389 75.0477C125.569 75.0483 125.714 74.9655 125.715 74.8625C125.715 74.7595 125.57 74.6754 125.391 74.6748C125.211 74.6742 125.066 74.757 125.066 74.86Z" fill="#FF6000"/>
<path id="Vector_12" opacity="0.3" d="M125.066 74.86C125.065 74.963 125.21 75.0471 125.389 75.0477C125.569 75.0483 125.714 74.9655 125.715 74.8625C125.715 74.7595 125.57 74.6754 125.391 74.6748C125.211 74.6742 125.066 74.757 125.066 74.86Z" fill="black"/>
</g>
</g>
<g id="Speech_Bubble">
<g id="Speach_Bubble_8_">
<g id="Group_2">
<path id="XMLID_1504_" d="M107.372 21.6774L84.4486 34.9156C84.2533 35.0284 84.095 35.3027 84.095 35.528V45.0602C84.095 45.2858 84.2542 45.5585 84.4505 45.6691L85.7173 46.3792C85.9139 46.4901 86.2315 46.4885 86.4264 46.3757L109.35 33.1375C109.545 33.0247 109.703 32.7504 109.703 32.5251V22.993C109.703 22.7673 109.544 22.4946 109.348 22.384L108.081 21.674C107.885 21.5631 107.567 21.5646 107.372 21.6774Z" fill="#FF6000"/>
<path id="XMLID_1502_" d="M86.073 46.1713V36.6392C86.073 36.4136 86.2313 36.1396 86.4266 36.0268L109.35 22.7886C109.545 22.6758 109.703 22.7671 109.703 22.9927V32.5249C109.703 32.7505 109.545 33.0248 109.35 33.1373L86.4266 46.3755C86.2313 46.4883 86.073 46.3969 86.073 46.1713Z" fill="#FF6000"/>
<path id="XMLID_1501_" opacity="0.2" d="M86.4266 46.3757C86.2382 46.485 85.8944 46.4888 85.7168 46.3798L84.4506 45.6681C84.2547 45.5588 84.0945 45.2861 84.0945 45.0605V35.5274C84.0945 35.4098 84.1387 35.2806 84.2073 35.1665L86.1772 36.2911C86.1118 36.4005 86.0726 36.5263 86.0726 36.6391V46.1706C86.073 46.3772 86.2183 46.4964 86.4266 46.3757Z" fill="black"/>
<path id="XMLID_1495_" opacity="0.4" d="M109.699 22.9287C109.671 22.7508 109.526 22.687 109.349 22.7881L86.4272 36.0269C86.3293 36.0841 86.2411 36.1805 86.1773 36.2914L84.2054 35.1668C84.2693 35.0606 84.354 34.9693 84.4488 34.9152L107.372 21.6764C107.567 21.5636 107.884 21.562 108.081 21.6733L109.347 22.3833C109.526 22.4844 109.674 22.718 109.699 22.9287Z" fill="white"/>
</g>
<g id="Group_3">
<path id="XMLID_1494_" d="M83.1256 42.9596C82.9035 42.8272 81.2407 41.8913 81.187 41.86C81.0236 41.7604 80.9648 41.5187 81.1168 41.3553L84.1255 38.8652L86.0727 39.9722L83.0656 42.4638C82.9187 42.6206 82.9771 42.8519 83.1256 42.9596Z" fill="#FF6000"/>
<path id="XMLID_1493_" opacity="0.1" d="M83.1256 42.9596C82.9035 42.8272 81.2407 41.8913 81.187 41.86C81.0236 41.7604 80.9648 41.5187 81.1168 41.3553L84.1255 38.8652L86.0727 39.9722L83.0656 42.4638C82.9187 42.6206 82.9771 42.8519 83.1256 42.9596Z" fill="black"/>
<path id="XMLID_1492_" d="M86.073 39.9727L83.065 42.4631C82.8611 42.6817 83.0106 42.9816 83.2672 43.0053L86.073 42.6773V39.9727Z" fill="#FF6000"/>
</g>
<g id="Group_4">
<path id="Vector_13" d="M87.8729 39.0878C87.8536 39.0549 87.847 39.0104 87.8527 38.9535C87.858 38.8969 87.8729 38.8445 87.8979 38.7961L88.7798 37.0834C88.8016 37.0414 88.8285 36.9921 88.8601 36.9349C88.8914 36.878 88.9277 36.8376 88.9688 36.8139L89.4693 36.525C89.4997 36.5077 89.5256 36.5121 89.5474 36.5383C89.5692 36.5645 89.5802 36.6044 89.5802 36.6578V41.3696C89.5802 41.423 89.5695 41.4755 89.5474 41.5273C89.5256 41.5788 89.4997 41.6133 89.4693 41.6307L88.9318 41.941C88.9018 41.9583 88.8756 41.9539 88.8541 41.9277C88.8323 41.9015 88.8215 41.8613 88.8215 41.8079V38.6204L88.333 39.5586C88.3087 39.607 88.2808 39.6364 88.2508 39.6462C88.2208 39.6566 88.1962 39.6452 88.1772 39.6124L87.8729 39.0878Z" fill="#FAFAFA"/>
<path id="Vector_14" d="M91.0237 40.5365C91.0237 40.5899 91.013 40.6423 90.9912 40.6942C90.9694 40.7457 90.9435 40.7801 90.9134 40.7975L90.3756 41.1078C90.3456 41.1252 90.3197 41.1208 90.2979 41.0945C90.2761 41.0683 90.265 41.0282 90.265 40.9751V40.0198C90.265 39.9661 90.2758 39.914 90.2979 39.8621C90.3197 39.8109 90.3456 39.7762 90.3756 39.7588L90.9134 39.4482C90.9435 39.4308 90.9694 39.4359 90.9912 39.4618C91.013 39.4883 91.0237 39.5281 91.0237 39.5815V40.5365Z" fill="#FAFAFA"/>
<path id="Vector_15" d="M92.4062 39.7381C92.4062 39.7915 92.3954 39.8439 92.3736 39.8958C92.3518 39.9473 92.3259 39.9817 92.2959 39.9991L91.7581 40.3094C91.728 40.3268 91.7021 40.322 91.6803 40.2958C91.6585 40.2696 91.6475 40.2298 91.6475 40.1764V39.2211C91.6475 39.1674 91.6582 39.1149 91.6803 39.0631C91.7021 39.0119 91.728 38.9772 91.7581 38.9598L92.2959 38.6495C92.3259 38.6321 92.3518 38.6368 92.3736 38.6627C92.3954 38.6893 92.4062 38.7291 92.4062 38.7825V39.7381Z" fill="#FAFAFA"/>
<path id="Vector_16" d="M93.789 38.9397C93.789 38.9931 93.7779 39.0456 93.7561 39.0971C93.7343 39.1486 93.7084 39.183 93.6784 39.2004L93.1409 39.5107C93.1109 39.5281 93.0849 39.5237 93.0631 39.4971C93.0413 39.4709 93.0303 39.4311 93.0303 39.3777V38.4224C93.0303 38.3687 93.0413 38.3166 93.0631 38.2647C93.0849 38.2136 93.1109 38.1788 93.1409 38.1614L93.6784 37.8511C93.7084 37.8337 93.7343 37.8385 93.7561 37.8647C93.7779 37.8912 93.789 37.9307 93.789 37.9845V38.9397Z" fill="#FAFAFA"/>
<path id="Vector_17" d="M96.6897 33.9974C96.6897 34.1383 96.6817 34.2793 96.665 34.4202C96.6486 34.5608 96.6204 34.7046 96.5809 34.8512C96.5411 34.9982 96.4893 35.1511 96.4248 35.3097C96.361 35.4684 96.282 35.6355 96.1891 35.8106L95.6149 36.9153L96.6448 36.3206C96.6748 36.3032 96.7007 36.3077 96.7225 36.3339C96.7443 36.3604 96.7554 36.4003 96.7554 36.4533V37.2266C96.7554 37.28 96.7443 37.3325 96.7225 37.3843C96.7007 37.4358 96.6748 37.4702 96.6448 37.4876L94.4786 38.7383C94.4483 38.7557 94.4223 38.7513 94.4005 38.7251C94.3787 38.6988 94.3677 38.6587 94.3677 38.6056V37.9784C94.3677 37.9006 94.3765 37.8178 94.3945 37.7297C94.4122 37.6418 94.4426 37.5581 94.4865 37.4797L95.7135 35.2105C95.8093 35.0288 95.8693 34.8787 95.894 34.7599C95.9183 34.6411 95.9306 34.533 95.9306 34.436C95.9306 34.4022 95.9271 34.3567 95.9205 34.2995C95.9135 34.2426 95.8981 34.1911 95.8734 34.1443C95.8488 34.0979 95.814 34.0656 95.7691 34.048C95.7239 34.0303 95.663 34.0435 95.5865 34.0875C95.5097 34.1317 95.4478 34.1908 95.3997 34.2647C95.352 34.3387 95.3147 34.412 95.2888 34.4853C95.2626 34.5586 95.2436 34.6294 95.2313 34.697C95.219 34.765 95.2101 34.8152 95.2044 34.8474C95.1909 34.9236 95.1697 34.9808 95.1409 35.0193C95.1125 35.0579 95.0787 35.0879 95.0408 35.11L94.5361 35.4014C94.5111 35.4159 94.4903 35.4121 94.4723 35.3906C94.4543 35.3695 94.4457 35.3369 94.4457 35.293C94.4483 35.0873 94.4729 34.8699 94.5194 34.6411C94.5661 34.4126 94.6363 34.1883 94.7308 33.9686C94.8252 33.7487 94.9428 33.5474 95.0834 33.3638C95.224 33.1802 95.3906 33.0336 95.5818 32.923C95.7625 32.8187 95.9218 32.7738 96.0599 32.789C96.1983 32.8042 96.3136 32.8642 96.4068 32.9685C96.4997 33.0728 96.5702 33.2143 96.6182 33.3932C96.6659 33.5724 96.6897 33.7737 96.6897 33.9974Z" fill="#FAFAFA"/>
<path id="Vector_18" d="M98.109 36.4452C98.109 36.4986 98.0983 36.5514 98.0762 36.6029C98.0544 36.6544 98.0285 36.6888 97.9985 36.7062L97.4606 37.0165C97.4306 37.0339 97.4047 37.0295 97.3829 37.0032C97.3611 36.977 97.3503 36.9369 97.3503 36.8838V35.9285C97.3503 35.8748 97.3611 35.8227 97.3829 35.7705C97.4047 35.7193 97.4306 35.6846 97.4606 35.6672L97.9985 35.3569C98.0285 35.3395 98.0544 35.3445 98.0762 35.3705C98.098 35.397 98.109 35.4365 98.109 35.4902V36.4452Z" fill="#FAFAFA"/>
<path id="Vector_19" d="M99.4916 35.6474C99.4916 35.7008 99.4809 35.7533 99.4588 35.8048C99.437 35.8563 99.411 35.8908 99.381 35.9081L98.8432 36.2184C98.8132 36.2358 98.7873 36.2314 98.7655 36.2052C98.7437 36.1789 98.7329 36.1388 98.7329 36.0857V35.1305C98.7329 35.0767 98.7437 35.0246 98.7655 34.9728C98.7873 34.9216 98.8132 34.8868 98.8432 34.8694L99.381 34.5591C99.411 34.5417 99.437 34.5465 99.4588 34.5724C99.4806 34.5989 99.4916 34.6384 99.4916 34.6922V35.6474Z" fill="#FAFAFA"/>
<path id="Vector_20" d="M100.874 34.8491C100.874 34.9025 100.863 34.9549 100.841 35.0068C100.819 35.0583 100.793 35.0927 100.763 35.1101L100.226 35.4204C100.196 35.4378 100.17 35.4334 100.148 35.4071C100.126 35.3809 100.115 35.3411 100.115 35.2877V34.3324C100.115 34.2787 100.126 34.2262 100.148 34.1744C100.17 34.1232 100.196 34.0885 100.226 34.0711L100.763 33.7608C100.793 33.7434 100.819 33.7481 100.841 33.7744C100.863 33.8009 100.874 33.8404 100.874 33.8941V34.8491Z" fill="#FAFAFA"/>
<path id="Vector_21" d="M103.627 28.3507C103.657 28.3333 103.683 28.3378 103.705 28.364C103.727 28.3902 103.738 28.4304 103.738 28.4834V29.2567C103.738 29.3101 103.729 29.3641 103.71 29.4188C103.69 29.4738 103.673 29.5202 103.656 29.5591L103.16 30.7353C103.373 30.7097 103.547 30.7735 103.68 30.9271C103.815 31.0803 103.882 31.347 103.882 31.7262C103.882 32.2758 103.775 32.7507 103.562 33.1511C103.348 33.5514 103.05 33.8621 102.667 34.0833C102.47 34.197 102.296 34.2561 102.144 34.2615C101.993 34.2666 101.864 34.2308 101.76 34.1547C101.656 34.0785 101.577 33.9705 101.52 33.8302C101.464 33.6899 101.435 33.5309 101.432 33.3521C101.432 33.3084 101.441 33.2658 101.459 33.2238C101.477 33.182 101.498 33.1536 101.522 33.1394L102.039 32.8411C102.097 32.8079 102.141 32.8057 102.171 32.8344C102.201 32.8635 102.234 32.8939 102.271 32.9261C102.308 32.9583 102.356 32.9804 102.415 32.9924C102.474 33.0048 102.558 32.9795 102.667 32.9163C102.799 32.8404 102.907 32.7387 102.993 32.611C103.079 32.484 103.122 32.3352 103.122 32.1645C103.122 31.9945 103.079 31.8953 102.993 31.8672C102.907 31.8394 102.799 31.8627 102.667 31.9386L102.327 32.1351C102.296 32.1525 102.27 32.1484 102.249 32.1219C102.227 32.0956 102.216 32.0558 102.216 32.0021V31.3758C102.216 31.3221 102.225 31.2683 102.245 31.2134C102.264 31.1584 102.283 31.1085 102.302 31.0636L102.737 30.0322L101.666 30.6506C101.636 30.668 101.61 30.6632 101.588 30.637C101.566 30.6108 101.555 30.5709 101.555 30.5175V29.7443C101.555 29.6909 101.566 29.6384 101.588 29.5869C101.61 29.5354 101.636 29.501 101.666 29.4836L103.627 28.3507Z" fill="#FAFAFA"/>
<path id="Vector_22" d="M105.236 32.3309C105.236 32.3843 105.225 32.4371 105.203 32.4886C105.181 32.5401 105.155 32.5746 105.125 32.5919L104.588 32.9022C104.558 32.9196 104.532 32.9152 104.51 32.889C104.488 32.8627 104.477 32.8226 104.477 32.7695V31.8143C104.477 31.7605 104.488 31.7084 104.51 31.6563C104.532 31.6051 104.558 31.5703 104.588 31.5529L105.125 31.2426C105.155 31.2252 105.181 31.2303 105.203 31.2562C105.225 31.2827 105.236 31.3222 105.236 31.376V32.3309Z" fill="#FAFAFA"/>
<path id="Vector_23" d="M106.618 31.5327C106.618 31.5861 106.607 31.6386 106.585 31.6901C106.564 31.7416 106.538 31.776 106.508 31.7934L105.97 32.1037C105.94 32.1211 105.914 32.1164 105.892 32.0901C105.871 32.0639 105.86 32.0238 105.86 31.9707V31.0154C105.86 30.9617 105.871 30.9096 105.892 30.8577C105.914 30.8066 105.94 30.7718 105.97 30.7544L106.508 30.4438C106.538 30.4264 106.564 30.4315 106.585 30.4574C106.607 30.4839 106.618 30.5234 106.618 30.5771V31.5327Z" fill="#FAFAFA"/>
<path id="Vector_24" d="M108.001 30.7348C108.001 30.7882 107.99 30.8407 107.968 30.8925C107.946 30.944 107.92 30.9784 107.89 30.9958L107.352 31.3061C107.322 31.3235 107.296 31.3191 107.275 31.2929C107.253 31.2666 107.242 31.2268 107.242 31.1734V30.2182C107.242 30.1644 107.253 30.112 107.275 30.0602C107.296 30.009 107.322 29.9742 107.352 29.9568L107.89 29.6465C107.92 29.6291 107.946 29.6339 107.968 29.6601C107.99 29.6866 108.001 29.7261 108.001 29.7799V30.7348Z" fill="#FAFAFA"/>
</g>
</g>
</g>
<g id="Character">
<g id="Character_5_">
<g id="Group_5" opacity="0.3">
<g id="Group_6">
<path id="Vector_25" d="M47.3402 87.7566C47.3248 87.755 47.3096 87.7525 47.2944 87.7481L45.4856 87.2361C45.3529 87.1985 45.2758 87.0608 45.3137 86.9284C45.351 86.7956 45.4926 86.7198 45.6215 86.7562L47.4303 87.2681C47.563 87.3057 47.6401 87.4435 47.6022 87.5762C47.5697 87.6931 47.4575 87.767 47.3402 87.7566Z" fill="black"/>
</g>
<g id="Group_7">
<path id="Vector_26" d="M45.4847 89.1579C45.3823 89.1487 45.292 89.076 45.2657 88.9705C45.2316 88.8368 45.3128 88.7012 45.4462 88.6674L47.2685 88.2067C47.4025 88.1735 47.5378 88.2538 47.5713 88.3875C47.6054 88.5211 47.5242 88.6567 47.3908 88.6905L45.5685 89.1512C45.5403 89.1582 45.5122 89.1604 45.4847 89.1579Z" fill="black"/>
</g>
<g id="Group_8">
<path id="Vector_27" d="M46.4012 90.8391C46.3436 90.8337 46.288 90.8088 46.2451 90.7645C46.149 90.6656 46.1512 90.508 46.2501 90.4119L47.5982 89.1017C47.6964 89.0054 47.8551 89.0085 47.9505 89.1068C48.0466 89.2057 48.0444 89.3634 47.9454 89.4595L46.5974 90.7696C46.5434 90.8221 46.471 90.8454 46.4012 90.8391Z" fill="black"/>
</g>
<g id="Group_9">
<path id="Vector_28" d="M48.0355 91.837C48.02 91.8354 48.0048 91.8329 47.9897 91.8285C47.857 91.7909 47.7802 91.6531 47.8178 91.5207L48.3297 89.7119C48.367 89.5792 48.5067 89.5024 48.6375 89.5397C48.7702 89.5773 48.847 89.7151 48.8094 89.8478L48.2975 91.6566C48.2646 91.7738 48.1527 91.8474 48.0355 91.837Z" fill="black"/>
</g>
</g>
<g id="Group_10">
<path id="Vector_29" d="M97.4004 63.7742C97.4535 63.7435 92.8842 66.3821 92.8842 66.3821L82.9656 67.8158C82.9656 67.8158 75.7165 56.9397 74.607 55.2295C73.4976 53.519 72.202 52.425 69.1962 52.4272L69.764 61.1043C69.8579 61.3846 75.854 68.7701 79.8071 72.7903C81.2029 74.2098 82.0608 74.5709 84.2453 73.9655C89.818 72.4212 96.5633 67.843 97.1145 66.6947C97.828 65.2082 97.3473 63.8048 97.4004 63.7742Z" fill="#FFA8A7"/>
<g id="Dumbbell">
<g id="XMLID_446_">
<path id="XMLID_473_" d="M95.5407 58.2742C96.1329 56.3381 98.5522 54.7366 100.815 55.3702L100.814 55.3708C101.139 55.459 101.48 55.6021 101.833 55.8053C104.027 57.0709 105.805 60.1512 105.805 62.6852C105.805 63.1589 105.742 63.5795 105.627 63.9426L105.628 63.9423C105.036 65.8784 102.616 67.4707 100.354 66.8372L100.355 66.8369C100.03 66.7484 99.6895 66.6052 99.3381 66.4024C97.1441 65.1358 95.366 62.0555 95.366 59.5224C95.366 59.0528 95.4273 58.6354 95.5407 58.2742Z" fill="#455A64"/>
<path id="XMLID_472_" d="M99.3385 66.4024C97.1448 65.1359 95.3663 62.0555 95.3663 59.5225C95.3663 56.9894 97.1448 55.9618 99.3385 57.227C101.532 58.4926 103.311 61.573 103.311 64.107C103.311 66.6413 101.532 67.6689 99.3385 66.4024Z" fill="#37474F"/>
<path id="XMLID_447_" d="M99.3384 60.0373C98.4947 59.5501 97.8105 59.9451 97.8105 60.9193C97.8105 61.8935 98.4947 63.0782 99.3384 63.5655C100.182 64.0527 100.866 63.6577 100.866 62.6835C100.866 61.7093 100.182 60.5246 99.3384 60.0373Z" fill="#455A64"/>
<path id="Vector_30" d="M98.8154 61.4992C98.8154 61.8326 99.0483 62.238 99.3375 62.4064C99.4721 62.4848 99.5966 62.4968 99.6889 62.4526C99.7028 62.4466 99.7151 62.4387 99.7271 62.4305C99.8115 62.3704 99.8617 62.2579 99.8617 62.1034C99.8617 61.77 99.6269 61.3646 99.3378 61.1962C99.2032 61.1178 99.0809 61.1058 98.9886 61.15L98.9504 61.1721C98.8657 61.2303 98.8154 61.3428 98.8154 61.4992Z" fill="#37474F"/>
</g>
<path id="Vector_31" d="M90.4237 66.3444C90.4237 66.6778 90.6566 67.0832 90.9457 67.2498C91.0301 67.3 91.1044 67.3199 91.1726 67.3199C91.2349 67.3199 91.2911 67.3019 91.3474 67.2697L99.6888 62.4526C99.7027 62.4466 99.7151 62.4387 99.7271 62.4305C99.8114 62.3704 99.8617 62.2579 99.8617 62.1034C99.8617 61.77 99.6269 61.3646 99.3377 61.1962C99.2031 61.1178 99.0808 61.1058 98.9886 61.15L98.9503 61.1721L90.6086 65.9874C90.4901 66.0553 90.4237 66.1577 90.4237 66.3444Z" fill="#FAFAFA"/>
<g id="XMLID_427_">
<path id="XMLID_445_" d="M82.2355 65.9539C82.8277 64.0178 85.2473 62.4163 87.5096 63.0499L87.5086 63.0505C87.8338 63.1386 88.1751 63.2818 88.5274 63.485C90.7214 64.7506 92.4995 67.8309 92.4995 70.3649C92.4995 70.8386 92.4373 71.2592 92.3219 71.6223L92.3226 71.622C91.7304 73.5581 89.3108 75.1504 87.0485 74.5169L87.0495 74.5165C86.7249 74.4281 86.3843 74.2849 86.0329 74.082C83.8392 72.8155 82.0608 69.7351 82.0608 67.2021C82.0608 66.7325 82.1218 66.3148 82.2355 65.9539Z" fill="#455A64"/>
<path id="XMLID_444_" d="M86.0329 74.0821C83.8392 72.8156 82.0608 69.7352 82.0608 67.2021C82.0608 64.6691 83.8392 63.6415 86.0329 64.9067C88.2269 66.1723 90.005 69.2527 90.005 71.7867C90.0053 74.321 88.2266 75.3486 86.0329 74.0821Z" fill="#37474F"/>
<path id="XMLID_430_" d="M86.0329 67.717C85.1892 67.2298 84.505 67.6248 84.505 68.599C84.505 69.5732 85.1892 70.7579 86.0329 71.2452C86.8766 71.7324 87.5607 71.3374 87.5607 70.3632C87.5607 69.389 86.8766 68.204 86.0329 67.717Z" fill="#455A64"/>
<path id="Vector_32" d="M85.5103 69.1787C85.5103 69.5118 85.7431 69.9175 86.0323 70.086C86.1669 70.1643 86.2914 70.1763 86.3837 70.1321C86.3979 70.1261 86.4099 70.1182 86.4219 70.11C86.5063 70.0496 86.5565 69.9374 86.5565 69.7826C86.5565 69.4492 86.3217 69.0438 86.0326 68.8754C85.898 68.797 85.7757 68.785 85.6834 68.8292L85.6452 68.8513C85.5605 68.9098 85.5103 69.022 85.5103 69.1787Z" fill="#37474F"/>
</g>
<path id="Vector_33" d="M84.2452 69.9093C84.2452 70.2427 84.4781 70.6481 84.7673 70.8147C84.8516 70.8649 84.9259 70.8848 84.9942 70.8848C85.0564 70.8848 85.1127 70.8668 85.1689 70.8346L86.3833 70.1321C86.3975 70.1261 86.4095 70.1182 86.4215 70.11C86.5059 70.0496 86.5561 69.9374 86.5561 69.7826C86.5561 69.4492 86.3214 69.0438 86.0322 68.8754C85.8976 68.797 85.7753 68.785 85.683 68.8292L85.6448 68.8513L84.4304 69.5519C84.3116 69.6205 84.2452 69.7229 84.2452 69.9093Z" fill="#FAFAFA"/>
<path id="Vector_34" d="M84.2452 69.9059C84.2452 70.2393 84.4781 70.6447 84.7673 70.8132C84.9019 70.8915 85.0261 70.9036 85.1187 70.8593C85.1326 70.8533 85.1449 70.8454 85.1569 70.8372C85.2413 70.7772 85.2915 70.6647 85.2915 70.5101C85.2915 70.1768 85.0567 69.7713 84.7676 69.6029C84.633 69.5245 84.5107 69.5125 84.4184 69.5568L84.3802 69.5789C84.2955 69.637 84.2452 69.7492 84.2452 69.9059Z" fill="#E0E0E0"/>
</g>
<path id="Vector_35" d="M94.5078 68.93C96.425 67.4647 98.2644 67.4767 97.9323 63.897C97.651 62.3034 97.2605 62.2045 95.7149 61.6048C95.0377 61.3419 94.1434 61.144 93.5949 61.7631C93.5301 61.8364 93.4729 61.9176 93.3961 61.9786C93.2492 62.0955 93.0523 62.1217 92.8665 62.1492C92.5126 62.2017 92.1343 62.2883 91.8989 62.5575C91.7197 62.7623 91.6502 63.0445 91.4739 63.2514C91.3222 63.4297 91.1048 63.5371 90.9275 63.6901C90.6497 63.9299 90.4762 64.2901 90.475 64.6573C90.4731 65.126 90.7401 65.4255 91.0577 65.7279L92.0231 65.1705C92.419 64.8981 93.2346 65.8686 92.8842 66.3824C92.329 67.1964 94.5078 68.93 94.5078 68.93Z" fill="#FFA8A7"/>
</g>
<g id="XMLID_751_">
<path id="Vector_36" d="M72.1662 76.1221C72.7793 73.6418 72.9562 67.4517 72.9562 67.4517L55.0118 67.9895C55.0118 67.9895 55.7617 70.9864 55.9902 71.9C56.2186 72.8135 56.2468 74.5699 56.2468 74.5699C56.2468 74.5699 57.9879 77.795 63.1498 78.3647C68.312 78.9345 72.1662 76.1221 72.1662 76.1221Z" fill="#FFA8A7"/>
<path id="XMLID_752_" d="M72.9562 67.4516C72.9764 67.6478 72.8525 69.5227 72.8525 69.5227C70.5574 71.4538 63.1968 72.4311 55.4798 69.8605L53.8423 63.543C53.8423 63.543 59.3991 61.1041 55.6463 52.9203L59.6801 52.6075L66.8428 52.4268C68.5812 52.4268 69.1958 52.4268 69.1958 52.4268C70.2891 53.4579 72.388 55.7527 74.0394 58.8356C74.9779 60.5868 76.1737 63.1508 72.9562 67.4516Z" fill="#455A64"/>
<path id="Vector_37" d="M62.8126 67.5079C59.5808 66.6832 58.7693 64.6608 58.5396 63.1787C58.5396 63.1787 57.9291 67.5079 62.5506 68.5169C67.4224 69.5802 69.4258 65.7225 69.4258 65.7225C69.4258 65.7225 66.7126 68.5033 62.8126 67.5079Z" fill="#37474F"/>
</g>
<g id="Group_11">
<g id="Group_12">
<g id="Group_13">
<path id="Vector_38" d="M35.2944 115.684C34.3524 116.377 32.1619 116.542 30.2302 115.639C28.2985 114.736 27.5009 112.177 27.8611 110.176C28.2972 107.753 29.4952 106.427 29.8004 104.969C30.106 103.511 29.7894 101.487 30.2599 100.19C30.7073 98.9573 31.6841 98.3301 32.4725 98.0153C33.1187 97.7572 33.8515 97.8359 34.4507 98.1898L35.0207 98.5263L35.2944 115.684Z" fill="#263238"/>
</g>
<g id="Group_14">
<path id="Vector_39" d="M37.555 106.442L36.0572 110.933C36.0572 110.933 37.0033 114.139 36.4714 114.99C35.6837 116.251 34.2974 116.477 31.9618 115.764C29.2916 114.95 28.6606 112.534 28.7923 110.655C28.98 107.981 31.4537 105.966 31.1712 103.394C31.0331 102.137 31.2056 100.717 31.8964 99.6325C32.6709 98.4168 33.9428 98.1887 35.2615 98.5868C36.3912 98.9278 37.3841 99.6382 38.34 100.306C38.6073 100.493 38.8787 100.683 39.0807 100.939C39.2573 101.163 39.3745 101.428 39.4602 101.7C39.6337 102.25 39.6839 102.837 39.61 103.409C39.5404 103.946 39.1988 104.259 38.8794 104.683C38.4379 105.269 37.9965 105.855 37.555 106.442Z" fill="#37474F"/>
</g>
<path id="Vector_40" d="M44.0112 104.313C43.9183 104.278 39.3426 101.351 38.8484 101.132C38.3542 100.912 37.1445 100.597 35.9706 103.311C35.1342 105.244 36.3381 105.957 36.3381 105.957L41.6924 109.148L44.0112 104.313Z" fill="#FFA8A7"/>
<path id="Vector_41" d="M36.0576 110.933C35.4164 110.6 34.0608 110.148 32.9358 110.236C32.5813 110.264 32.3063 109.936 32.4166 109.597L32.4195 109.588C32.4811 109.4 32.6495 109.268 32.8473 109.252C33.5716 109.196 35.3292 109.175 36.4959 110.135C36.8014 110.776 36.0576 110.933 36.0576 110.933Z" fill="#FF6000"/>
<path id="Vector_42" d="M36.6062 108.881C35.983 108.515 34.6523 107.993 33.5245 108.023C33.169 108.032 32.9115 107.691 33.0392 107.359L33.0426 107.349C33.1141 107.164 33.2891 107.041 33.4876 107.036C34.2137 107.017 35.9701 107.087 37.0855 108.106C37.357 108.762 36.6062 108.881 36.6062 108.881Z" fill="#FF6000"/>
</g>
<g id="Group_15">
<path id="XMLID_426_" d="M83.2398 116.17L89.1816 113.813C89.082 112.282 88.7035 110.238 89.0959 106.216L82.3553 104.933V111.683L83.2398 116.17Z" fill="#FFA8A7"/>
<g id="Group_16">
<path id="XMLID_425_" d="M100.197 121.389C100.369 121.748 100.319 122.42 100.115 122.847C99.9119 123.273 97.6841 124.53 94.6796 124.327C91.6751 124.124 89.6116 122.914 88.4658 122.155C87.3203 121.397 86.1274 121.255 84.6396 121.17C83.1516 121.084 81.1978 120.343 80.8714 119.647C80.5449 118.951 80.9207 117.752 80.9207 117.752L100.197 121.389Z" fill="#263238"/>
<path id="XMLID_424_" d="M88.0716 112.011C88.15 111.995 88.229 111.978 88.3092 111.962C88.44 111.936 88.5759 111.91 88.7055 111.941C88.8527 111.976 88.9738 112.079 89.0765 112.191C89.3997 112.542 89.5944 112.989 89.844 113.396C90.4738 114.424 91.796 115.274 93.2401 116.051C94.2216 116.579 95.1835 116.988 96.1969 117.444C97.2305 117.909 98.6029 118.193 99.4116 118.738C100.591 119.533 100.743 121.53 99.3996 122.318C98.2408 122.998 95.1914 123.735 91.9932 122.829C90.251 122.336 88.3171 120.475 86.0305 120.295C84.5763 120.182 81.8265 119.773 80.8905 118.669C80.5445 118.179 81.0065 116.627 81.386 115.286C81.7999 113.824 81.9532 111.244 82.4379 111.373C82.4379 111.373 82.3065 111.738 82.4955 111.933C82.6746 112.118 83.3528 112.519 83.548 112.686C83.9077 112.993 84.1285 113.427 84.3523 113.843C84.4493 114.023 84.5643 114.216 84.7653 114.291C85.0105 114.383 85.1938 114.228 85.4083 114.13C85.6779 114.006 85.9926 113.983 86.277 114.068C86.2492 113.778 86.1977 113.491 86.1238 113.209C86.0997 113.118 86.0735 113.022 86.1023 112.933C86.1314 112.842 86.2107 112.778 86.2884 112.723C86.8493 112.33 87.4285 112.15 88.0716 112.011Z" fill="#37474F"/>
<path id="XMLID_423_" d="M91.8821 115.26C91.8821 115.26 91.6732 114.702 90.8083 114.541C90.1466 114.418 88.978 114.906 88.2516 115.504C87.9542 115.749 87.9928 116.214 88.3299 116.401C88.5306 116.511 88.7764 116.482 88.9496 116.332C89.4258 115.917 90.4936 115.164 91.8821 115.26Z" fill="#FF6000"/>
<path id="XMLID_422_" d="M93.933 116.408C93.933 116.408 93.5054 115.74 92.6604 115.753C92.6604 115.753 90.9325 115.803 89.8632 116.8C89.5905 117.054 89.6091 117.487 89.9362 117.666C90.1305 117.773 90.3675 117.745 90.5328 117.597C91.0147 117.167 91.9807 116.262 93.933 116.408Z" fill="#FF6000"/>
<path id="XMLID_415_" d="M96.197 117.444C96.197 117.444 95.7205 116.839 94.8755 116.852C94.8755 116.852 93.2655 116.912 92.1964 117.909C91.9237 118.163 91.9424 118.596 92.2694 118.776C92.4638 118.882 92.7008 118.854 92.866 118.706C93.3479 118.276 94.2448 117.298 96.197 117.444Z" fill="#FF6000"/>
</g>
</g>
<path id="Vector_43" d="M87.3011 82.273C82.7839 81.2589 71.9915 79.003 71.9915 79.003L72.1663 76.122C68.2618 78.1438 60.0366 77.5725 56.2468 74.5698L55.648 77.6249C55.648 77.6249 53.5254 80.0695 51.9366 83.2127C51.0701 84.927 49.6212 87.6032 51.0628 93.8379C51.9094 97.4994 53.0391 107.141 53.0391 107.141L41.9908 103.066C41.9908 103.066 41.0339 103.227 40.2386 105.299C39.7671 106.527 39.592 107.705 40.0885 108.315C44.1323 111.508 50.6865 116.727 57.3092 119.654C61.7304 121.348 64.0846 117.627 64.301 116.25C65.1302 110.973 66.0902 94.0171 66.0902 94.0171L80.8515 93.5456C80.3636 96.3454 82.3551 107.285 82.3551 107.285C82.3551 107.285 85.9932 108.862 89.0084 107.247C89.0084 107.247 91.0248 94.6564 91.2173 90.4586C91.4321 85.7755 91.6733 83.2545 87.3011 82.273Z" fill="#FF6000"/>
<path id="Vector_44" opacity="0.15" d="M80.8514 93.5452C80.8518 92.7896 81.3533 90.1497 83.0631 88.7451C83.0631 88.7451 80.72 89.1648 79.6469 93.5834L80.8514 93.5452Z" fill="black"/>
<path id="Vector_45" opacity="0.15" d="M53.039 107.141C53.039 107.141 53.3398 111.305 54.151 113.332C54.151 113.332 52.1552 109.729 51.927 106.731L53.039 107.141Z" fill="black"/>
<path id="Vector_46" opacity="0.15" d="M71.989 79.0028L72.1637 76.1231C68.2589 78.143 60.0391 77.5717 56.249 74.5713C56.2481 74.5709 56.2474 74.5706 56.2465 74.5703L55.648 77.6248L55.6467 77.6263C55.6761 77.657 58.1096 80.1705 64.436 80.4985C70.8015 80.8284 71.989 79.0028 71.989 79.0028Z" fill="black"/>
<path id="Vector_47" opacity="0.15" d="M66.0905 94.017C66.0905 94.017 66.191 89.2618 62.2205 85.7754C62.2205 85.7754 65.6219 87.3418 66.7579 92.3558C66.7579 92.3558 69.2932 91.179 70.6065 87.6452C70.6065 87.6452 70.2023 91.179 68.1676 93.1862L74.303 93.7544L66.0905 94.017Z" fill="black"/>
</g>
<g id="Group_17">
<g id="Group_18">
<path id="Vector_48" d="M64.1009 30.1045C58.6462 30.1045 54.2244 34.5263 54.2244 39.9811C54.2244 45.4359 58.6462 49.8577 64.1009 49.8577C69.5557 49.8577 73.9775 45.4359 73.9775 39.9811C73.9775 34.5263 69.5557 30.1045 64.1009 30.1045Z" fill="#263238"/>
<path id="Vector_49" d="M53.8003 36.1215C54.1565 36.1057 54.5142 36.1253 54.8668 36.1815C54.9863 36.2008 55.1155 36.2299 55.1904 36.325C55.2438 36.3929 55.2593 36.4824 55.2701 36.568C55.3361 37.0935 55.3134 37.6999 55.1219 38.2001C54.9819 38.5654 54.5474 38.7531 54.2724 39.0192C53.2044 40.0538 53.1197 41.7706 53.5393 43.197C53.959 44.6235 54.7904 45.8909 55.3516 47.2681C55.9213 48.6657 56.1871 50.3058 55.4145 51.6794C55.1149 52.2122 54.5679 52.6151 54.633 53.2689C54.7101 54.0434 55.3848 54.7844 55.6771 55.4904C56.0149 56.3063 56.0929 57.2139 56.0032 58.0923C55.8929 59.175 55.521 60.25 54.8213 61.083C53.7953 62.3049 52.0725 62.8965 50.512 62.5628C50.1863 62.493 49.8611 62.3827 49.6004 62.1747C49.134 61.8028 48.9497 61.1917 48.6976 60.651C47.8832 58.9054 46.1667 57.6341 45.6463 55.7795C45.0961 53.8178 46.0391 51.7509 47.1956 50.0732C47.736 49.2895 48.3395 48.5191 48.6037 47.6046C48.9605 46.3681 48.6492 45.0529 48.5674 43.7687C48.4877 42.5154 48.6325 41.2486 48.9924 40.0456C49.2534 39.1734 49.6544 38.1685 50.3345 37.5438C51.2739 36.6814 52.5281 36.1777 53.8003 36.1215Z" fill="#263238"/>
</g>
<g id="Group_19">
<g id="XMLID_747_">
<path id="XMLID_748_" d="M70.2915 34.625C71.3738 35.2706 72.7035 38.0049 72.5474 43.7252C72.4153 48.5732 70.8388 49.7642 70.0481 50.1065C69.2578 50.4484 67.7369 50.2322 66.258 49.9794L66.246 52.8892C66.246 52.8892 68.2811 55.2724 68.1468 56.6066C68.0128 57.9404 65.1871 58.2441 63.2791 56.9327C61.3711 55.6213 59.7696 53.074 59.7696 53.074L59.8306 46.3834C59.8306 46.3834 58.9562 47.2255 57.4852 45.9286C56.2709 44.858 55.8676 43.059 56.8213 42.0987C57.775 41.1384 59.5298 41.4083 60.1972 42.786C60.1972 42.786 62.5564 42.8821 65.7057 41.1687C68.8552 39.4551 70.0747 36.5039 70.2915 34.625Z" fill="#FFA8A7"/>
</g>
<g id="XMLID_745_">
<path id="XMLID_746_" d="M67.1393 42.4846C67.1554 42.8341 66.896 43.1292 66.5594 43.1438C66.2229 43.1583 65.9372 42.8869 65.9211 42.5374C65.905 42.1879 66.1644 41.893 66.501 41.8785C66.8375 41.8637 67.1232 42.1354 67.1393 42.4846Z" fill="#263238"/>
</g>
<g id="XMLID_743_" opacity="0.5">
<path id="XMLID_744_" d="M67.2851 46.5952L68.6992 47.0528C68.5797 47.4576 68.1667 47.6832 67.7761 47.5571C67.3856 47.4304 67.166 47 67.2851 46.5952Z" fill="#F28F8F"/>
</g>
<g id="XMLID_728_">
<path id="XMLID_729_" d="M72.146 40.6331L70.9161 39.773C71.1427 39.4216 71.6019 39.3293 71.9416 39.5669C72.2806 39.8046 72.3726 40.2821 72.146 40.6331Z" fill="#263238"/>
</g>
<g id="XMLID_726_">
<path id="XMLID_727_" d="M71.8557 42.0635C71.8718 42.413 71.612 42.7078 71.2758 42.7227C70.9393 42.7372 70.6536 42.4658 70.6378 42.1163C70.6217 41.7668 70.8811 41.4716 71.2173 41.4571C71.5539 41.4426 71.8395 41.714 71.8557 42.0635Z" fill="#263238"/>
</g>
<g id="XMLID_724_" opacity="0.5">
<path id="XMLID_725_" d="M68.9807 41.7021L69.0629 45.3728L70.9968 44.7825L68.9807 41.7021Z" fill="#F28F8F"/>
</g>
<g id="XMLID_722_" opacity="0.5">
<path id="XMLID_723_" d="M66.2583 49.9791C64.7001 49.768 61.4962 48.8333 61.0013 47.563C61.0013 47.563 61.1647 48.3606 62.1193 49.186C63.0743 50.011 66.2545 50.9496 66.2545 50.9496L66.2583 49.9791Z" fill="#F28F8F"/>
</g>
</g>
</g>
<g id="Group_20">
<path id="Vector_50" d="M55.6467 52.9204C52.5875 53.1369 51.3254 53.5271 49.6225 57.3052C48.0906 60.7041 44.4246 69.4924 43.5073 71.4535C42.5903 73.4146 42.418 74.2005 43.1834 76.2501C43.8075 77.9214 48.9776 87.5249 49.5423 88.9248C50.1069 90.3244 50.3578 91.7401 51.3213 93.3713C52.2845 95.0028 53.8083 96.5938 55.0116 96.9708C56.797 97.5304 59.1076 96.7515 59.1882 95.6758C59.2687 94.6002 56.5685 92.7983 55.8379 90.4069C55.8379 90.4069 56.6399 90.9406 57.3661 91.2373C58.0919 91.534 58.8987 91.4699 59.1404 91.0585C59.3825 90.647 58.6566 90.3961 58.0111 89.7553C57.6258 89.3729 56.943 88.5153 56.0711 87.7562C55.4818 87.2434 54.512 87.0917 54.0784 86.5299C53.8421 86.2297 52.7806 83.6277 51.9837 81.3105C50.9965 78.4406 49.698 74.6173 49.698 74.6173L55.0116 63.5428C55.0116 63.5428 59.1901 59.3987 55.6467 52.9204Z" fill="#FFA8A7"/>
<g id="Group_21">
<path id="Vector_51" d="M49.5423 88.9247C49.5423 88.9247 50.7668 86.4504 54.0788 86.53L53.2038 84.5825C53.2038 84.5825 49.9705 84.8113 48.6069 86.999L49.5423 88.9247Z" fill="#37474F"/>
<path id="Vector_52" d="M49.1862 86.8226L49.9067 87.8319C50.1272 88.1409 50.5519 88.2066 50.8556 87.9782L52.1269 87.022C52.4302 86.7938 52.5036 86.3539 52.2903 86.0395L51.6298 85.0656C51.4165 84.7512 50.9937 84.6763 50.6856 84.8978L49.3451 85.8613C49.0367 86.0831 48.9656 86.5135 49.1862 86.8226Z" fill="#263238"/>
<path id="Vector_53" d="M48.9475 86.7982L49.668 87.8075C49.8886 88.1165 50.3133 88.1822 50.6169 87.9538L51.8882 86.9975C52.1916 86.7694 52.2649 86.3295 52.0516 86.0151L51.3912 85.0412C51.1779 84.7268 50.755 84.6519 50.4469 84.8734L49.1068 85.8369C48.7981 86.059 48.727 86.4891 48.9475 86.7982Z" fill="#455A64"/>
<path id="Vector_54" d="M51.9119 86.4654C51.8987 86.5959 51.8329 86.7141 51.7318 86.79L50.4609 87.7462C50.3705 87.8144 50.2605 87.8422 50.1506 87.8255C50.0412 87.8087 49.9448 87.749 49.8788 87.6571L49.1583 86.6478C49.0976 86.5624 49.0701 86.4579 49.0809 86.3539C49.0935 86.2313 49.158 86.1197 49.2579 86.048L50.5983 85.0842C50.6896 85.0182 50.7996 84.9929 50.9083 85.0122C51.0173 85.0314 51.1125 85.0937 51.1763 85.1872L51.8367 86.1608C51.8964 86.2483 51.923 86.3567 51.9119 86.4654Z" fill="#FF6000"/>
</g>
</g>
</g>
</g>
</g>
</svg>
