<svg width="58" height="48" viewBox="0 0 58 48" fill="none" xmlns="http://www.w3.org/2000/svg">
<g id="barbel" clip-path="url(#clip0_1_7704)">
<g id="Layer 2">
<g id="Layer 12">
<path id="Vector" d="M24.9237 0.717063L21.9321 3.78809L54.0018 36.7092L56.9934 33.6382L24.9237 0.717063Z" fill="#858585"/>
<path id="Vector_2" d="M36.7368 12.41L33.3423 15.8945L42.6716 25.4715L46.066 21.987L36.7368 12.41Z" fill="#2C3E50"/>
<path id="Vector_3" d="M53.9847 17.5789L38.3607 33.6177L40.9065 36.2311L56.5305 20.1923L53.9847 17.5789Z" fill="#383838"/>
<path id="Vector_4" d="M53.9927 17.5745L38.3688 33.6133L39.6417 34.92L55.2656 18.8812L53.9927 17.5745Z" fill="#1F1F1F"/>
<path id="Vector_5" d="M55.5109 21.2437L41.9386 35.1763L44.1514 37.4478L57.7237 23.5152L55.5109 21.2437Z" fill="#383838"/>
<path id="Vector_6" d="M55.5055 21.2461L41.9332 35.1787L43.0933 36.3696L56.6656 22.437L55.5055 21.2461Z" fill="#1F1F1F"/>
<path id="Vector_7" d="M56.2588 25.013L45.6083 35.9463L47.3431 37.7271L57.9936 26.7939L56.2588 25.013Z" fill="#383838"/>
<path id="Vector_8" d="M56.2639 25.0155L45.6134 35.9487L46.4835 36.8419L57.134 25.9086L56.2639 25.0155Z" fill="#1F1F1F"/>
<path id="Vector_9" d="M55.1335 29.7313L50.1761 34.8203L51.7874 36.4744L56.7448 31.3854L55.1335 29.7313Z" fill="#2B2B2B"/>
<path id="Vector_10" d="M54.7643 32.2728L55.3263 32.8498L56.5189 31.6257L55.9568 31.0487C55.8798 30.9687 55.7881 30.9053 55.6871 30.862C55.586 30.8187 55.4776 30.7964 55.3681 30.7964C55.2586 30.7964 55.1502 30.8187 55.0492 30.862C54.9481 30.9053 54.8565 30.9687 54.7795 31.0487C54.6983 31.1269 54.6333 31.2211 54.5885 31.3257C54.5436 31.4303 54.5197 31.5431 54.5183 31.6574C54.5169 31.7717 54.538 31.8851 54.5802 31.9909C54.6225 32.0966 54.6851 32.1925 54.7643 32.2728Z" fill="#0F0F0F"/>
<path id="Vector_11" d="M51.4222 35.7036L51.9767 36.2806L53.1692 35.0876L52.6071 34.5184C52.5301 34.4385 52.4384 34.375 52.3374 34.3317C52.2363 34.2884 52.1279 34.2661 52.0184 34.2661C51.909 34.2661 51.8005 34.2884 51.6995 34.3317C51.5985 34.375 51.5068 34.4385 51.4298 34.5184C51.2784 34.676 51.193 34.8881 51.1915 35.1094C51.1901 35.3307 51.2729 35.5439 51.4222 35.7036Z" fill="#0F0F0F"/>
<path id="Vector_12" d="M53.1085 33.973L53.6705 34.55L54.863 33.3258L54.301 32.7488C54.224 32.6689 54.1323 32.6055 54.0313 32.5622C53.9302 32.5189 53.8218 32.4966 53.7123 32.4966C53.6028 32.4966 53.4944 32.5189 53.3934 32.5622C53.2923 32.6055 53.2006 32.6689 53.1236 32.7488C53.0425 32.8271 52.9775 32.9213 52.9326 33.0259C52.8878 33.1305 52.8639 33.2433 52.8625 33.3576C52.8611 33.4719 52.8821 33.5853 52.9244 33.6911C52.9667 33.7968 53.0293 33.8927 53.1085 33.973Z" fill="#0F0F0F"/>
<path id="Vector_13" d="M38.3325 1.50126L22.7086 17.54L25.2544 20.1534L40.8783 4.11466L38.3325 1.50126Z" fill="#383838"/>
<path id="Vector_14" d="M39.6027 2.80644L23.9788 18.8452L25.2517 20.1519L40.8756 4.11314L39.6027 2.80644Z" fill="#1F1F1F"/>
<path id="Vector_15" d="M35.093 0.278801L21.5208 14.2114L23.7336 16.483L37.3058 2.55037L35.093 0.278801Z" fill="#383838"/>
<path id="Vector_16" d="M36.1456 1.36279L22.5734 15.2954L23.7335 16.4863L37.3057 2.55371L36.1456 1.36279Z" fill="#1F1F1F"/>
<path id="Vector_17" d="M31.8937 -0.0006608L21.2432 10.9326L22.978 12.7135L33.6285 1.7802L31.8937 -0.0006608Z" fill="#383838"/>
<path id="Vector_18" d="M32.7663 0.890454L22.1158 11.8237L22.9859 12.7169L33.6364 1.78364L32.7663 0.890454Z" fill="#1F1F1F"/>
<path id="Vector_19" d="M27.419 1.29239L22.4617 6.38135L24.0729 8.0354L29.0303 2.94644L27.419 1.29239Z" fill="#2B2B2B"/>
<path id="Vector_20" d="M26.5846 3.32175L26.0225 2.74476L27.1922 1.55957L27.7543 2.13657C27.9079 2.29821 27.9938 2.51507 27.9938 2.74086C27.9938 2.96665 27.9079 3.1835 27.7543 3.34515C27.5943 3.49737 27.383 3.57998 27.1649 3.57562C26.9467 3.57126 26.7387 3.48026 26.5846 3.32175Z" fill="#0F0F0F"/>
<path id="Vector_21" d="M23.2122 6.75234L22.6501 6.17534L23.8426 4.95117L24.4047 5.52817C24.4825 5.60721 24.5443 5.70132 24.5865 5.80504C24.6287 5.90877 24.6504 6.02006 24.6504 6.13246C24.6504 6.24486 24.6287 6.35615 24.5865 6.45987C24.5443 6.5636 24.4825 6.65771 24.4047 6.73675C24.3285 6.82007 24.2367 6.88676 24.1348 6.93282C24.0329 6.97888 23.923 7.00337 23.8116 7.00483C23.7003 7.00628 23.5898 6.98467 23.4868 6.94129C23.3838 6.89791 23.2904 6.83364 23.2122 6.75234Z" fill="#0F0F0F"/>
<path id="Vector_22" d="M24.906 5.02138L24.3439 4.44439L25.5364 3.22021L26.0985 3.79721C26.2521 3.95886 26.338 4.17571 26.338 4.4015C26.338 4.62729 26.2521 4.84415 26.0985 5.00579C26.0212 5.08722 25.9291 5.15221 25.8273 5.19707C25.7255 5.24192 25.6162 5.26575 25.5054 5.2672C25.3947 5.26865 25.2847 5.24769 25.1819 5.20551C25.079 5.16333 24.9853 5.10076 24.906 5.02138Z" fill="#0F0F0F"/>
<path id="Vector_23" d="M3.68251 10.9861L0.690918 14.0571L32.7606 46.9783L35.7522 43.9072L3.68251 10.9861Z" fill="#858585"/>
<path id="Vector_24" d="M15.4933 22.6742L12.0989 26.1587L21.4281 35.7356L24.8225 32.2511L15.4933 22.6742Z" fill="#2C3E50"/>
<path id="Vector_25" d="M32.7412 27.8431L17.1172 43.8818L19.6631 46.4952L35.287 30.4565L32.7412 27.8431Z" fill="#383838"/>
<path id="Vector_26" d="M32.7439 27.844L17.1199 43.8828L18.3928 45.1895L34.0168 29.1507L32.7439 27.844Z" fill="#1F1F1F"/>
<path id="Vector_27" d="M34.2696 31.5127L20.6973 45.4453L22.9101 47.7169L36.4824 33.7843L34.2696 31.5127Z" fill="#383838"/>
<path id="Vector_28" d="M34.2675 31.5151L20.6952 45.4478L21.8553 46.6387L35.4276 32.706L34.2675 31.5151Z" fill="#1F1F1F"/>
<path id="Vector_29" d="M35.0176 35.2825L24.3671 46.2158L26.1019 47.9967L36.7524 37.0634L35.0176 35.2825Z" fill="#383838"/>
<path id="Vector_30" d="M35.0226 35.2845L24.3721 46.2178L25.2422 47.111L35.8927 36.1777L35.0226 35.2845Z" fill="#1F1F1F"/>
<path id="Vector_31" d="M33.8901 40.0136L28.9327 45.1025L30.544 46.7566L35.5013 41.6676L33.8901 40.0136Z" fill="#2B2B2B"/>
<path id="Vector_32" d="M33.5194 42.5419L34.0815 43.1189L35.274 41.8947L34.7119 41.3255C34.6349 41.2456 34.5432 41.1821 34.4422 41.1388C34.3411 41.0955 34.2327 41.0732 34.1232 41.0732C34.0137 41.0732 33.9053 41.0955 33.8043 41.1388C33.7032 41.1821 33.6116 41.2456 33.5346 41.3255C33.4546 41.4036 33.3906 41.4974 33.3464 41.6013C33.3023 41.7052 33.2788 41.8171 33.2774 41.9304C33.2759 42.0438 33.2966 42.1562 33.3382 42.2612C33.3798 42.3663 33.4414 42.4617 33.5194 42.5419Z" fill="#0F0F0F"/>
<path id="Vector_33" d="M30.1773 46.0039L30.7394 46.5731L31.9015 45.3255L31.347 44.7563C31.2694 44.6762 31.1771 44.6126 31.0754 44.5692C30.9737 44.5258 30.8647 44.5034 30.7546 44.5034C30.6444 44.5034 30.5354 44.5258 30.4337 44.5692C30.3321 44.6126 30.2397 44.6762 30.1621 44.7563C30.0803 44.8376 30.0155 44.9351 29.9718 45.0429C29.928 45.1508 29.9062 45.2667 29.9076 45.3835C29.909 45.5003 29.9337 45.6156 29.98 45.7223C30.0264 45.829 30.0935 45.9248 30.1773 46.0039Z" fill="#0F0F0F"/>
<path id="Vector_34" d="M31.9015 44.2416L32.4636 44.8186L33.6561 43.5944L33.094 43.0174C33.0171 42.9375 32.9254 42.874 32.8243 42.8307C32.7233 42.7874 32.6149 42.7651 32.5054 42.7651C32.3959 42.7651 32.2875 42.7874 32.1864 42.8307C32.0854 42.874 31.9937 42.9375 31.9167 43.0174C31.8356 43.0956 31.7706 43.1899 31.7257 43.2945C31.6809 43.3991 31.657 43.5119 31.6556 43.6262C31.6542 43.7405 31.6752 43.8539 31.7175 43.9596C31.7597 44.0653 31.8223 44.1612 31.9015 44.2416Z" fill="#0F0F0F"/>
<path id="Vector_35" d="M17.0837 11.7781L1.45972 27.8169L4.00552 30.4303L19.6295 14.3915L17.0837 11.7781Z" fill="#383838"/>
<path id="Vector_36" d="M18.3615 13.076L2.73755 29.1147L4.01045 30.4214L19.6344 14.3827L18.3615 13.076Z" fill="#1F1F1F"/>
<path id="Vector_37" d="M13.8442 10.5483L0.271912 24.481L2.48472 26.7525L16.057 12.8199L13.8442 10.5483Z" fill="#383838"/>
<path id="Vector_38" d="M14.8968 11.6401L1.32452 25.5728L2.48464 26.7637L16.0569 12.831L14.8968 11.6401Z" fill="#1F1F1F"/>
<path id="Vector_39" d="M10.6524 10.2689L0.00195312 21.2021L1.73675 22.983L12.3872 12.0497L10.6524 10.2689Z" fill="#383838"/>
<path id="Vector_40" d="M11.5174 11.16L0.866943 22.0933L1.73703 22.9864L12.3875 12.0532L11.5174 11.16Z" fill="#1F1F1F"/>
<path id="Vector_41" d="M6.17774 11.5614L1.2204 16.6504L2.83167 18.3044L7.78901 13.2155L6.17774 11.5614Z" fill="#2B2B2B"/>
<path id="Vector_42" d="M5.3169 13.5907L4.75482 13.0137L5.94733 11.7896L6.5094 12.3665C6.58726 12.4456 6.64906 12.5397 6.69124 12.6434C6.73343 12.7471 6.75515 12.8584 6.75515 12.9708C6.75515 13.0832 6.73343 13.1945 6.69124 13.2983C6.64906 13.402 6.58726 13.4961 6.5094 13.5751C6.43319 13.6584 6.3414 13.7251 6.2395 13.7712C6.13761 13.8173 6.02771 13.8418 5.91638 13.8432C5.80505 13.8447 5.69458 13.8231 5.59158 13.7797C5.48857 13.7363 5.39515 13.672 5.3169 13.5907Z" fill="#0F0F0F"/>
<path id="Vector_43" d="M1.96726 17.0214L1.41278 16.4522L2.60529 15.228L3.15977 15.7972C3.23785 15.8769 3.29982 15.9717 3.3421 16.0761C3.38438 16.1804 3.40615 16.2924 3.40615 16.4054C3.40615 16.5185 3.38438 16.6304 3.3421 16.7348C3.29982 16.8391 3.23785 16.9339 3.15977 17.0136C3.0825 17.0954 2.99011 17.1607 2.88801 17.2054C2.78591 17.2502 2.67613 17.2736 2.56511 17.2744C2.45408 17.2751 2.34403 17.2531 2.24138 17.2097C2.13873 17.1662 2.04554 17.1022 1.96726 17.0214Z" fill="#0F0F0F"/>
<path id="Vector_44" d="M3.66107 15.2904L3.099 14.7134L4.29151 13.4893L4.85358 14.0663C4.93143 14.1453 4.99324 14.2394 5.03542 14.3431C5.0776 14.4469 5.09932 14.5581 5.09932 14.6705C5.09932 14.7829 5.0776 14.8942 5.03542 14.998C4.99324 15.1017 4.93143 15.1958 4.85358 15.2748C4.77737 15.3582 4.68557 15.4248 4.58368 15.4709C4.48178 15.517 4.37189 15.5415 4.26056 15.5429C4.14923 15.5444 4.03876 15.5228 3.93575 15.4794C3.83275 15.436 3.73933 15.3717 3.66107 15.2904Z" fill="#0F0F0F"/>
</g>
</g>
</g>
<defs>
<clipPath id="clip0_1_7704">
<rect width="58" height="48" fill="white"/>
</clipPath>
</defs>
</svg>
