<svg width="20" height="57" viewBox="0 0 20 57" fill="none" xmlns="http://www.w3.org/2000/svg">
<g id="water-bottle" clip-path="url(#clip0_1_7596)">
<g id="Layer 2">
<g id="Layer 5">
<path id="Vector" d="M17.0213 13.8677H2.97872C2.18872 13.8677 1.43107 14.1732 0.872448 14.7171C0.313829 15.261 0 15.9986 0 16.7678L0 53.678C-1.15625e-06 54.1139 0.0883082 54.5455 0.259872 54.9481C0.431435 55.3508 0.682883 55.7165 0.999817 56.0243C1.31675 56.3322 1.69295 56.5762 2.10686 56.7423C2.52078 56.9084 2.96429 56.9934 3.41199 56.9924H16.5648C17.4677 56.9924 18.3335 56.6432 18.972 56.0217C19.6104 55.4001 19.9691 54.5571 19.9691 53.678V16.7678C19.9711 16.0032 19.6622 15.2689 19.1098 14.7255C18.5574 14.1821 17.8065 13.8736 17.0213 13.8677Z" fill="#4292A6"/>
<path id="Vector_2" d="M17.0213 9.92822H2.73889V13.8678H17.0213V9.92822Z" fill="#333333"/>
<path id="Vector_3" d="M12.325 5.17529H7.44297C6.67143 5.17529 5.93149 5.4737 5.38593 6.00485C4.84037 6.53601 4.53387 7.25642 4.53387 8.00759V9.92843H15.2341V8.00759C15.2341 7.25642 14.9276 6.53601 14.382 6.00485C13.8365 5.4737 13.0965 5.17529 12.325 5.17529Z" fill="#474747"/>
<path id="Vector_4" d="M9.89553 8.46466e-05C9.71403 -0.000908134 9.53411 0.0330405 9.36613 0.0999785C9.19815 0.166916 9.04542 0.265523 8.91672 0.390129C8.78801 0.514735 8.68588 0.662882 8.61619 0.82605C8.54649 0.989219 8.51062 1.16419 8.51062 1.34091V5.17506H11.2882V1.34091C11.2882 1.16355 11.2521 0.987958 11.1819 0.824293C11.1117 0.660627 11.0089 0.512142 10.8794 0.387436C10.7498 0.26273 10.5962 0.164282 10.4273 0.0977919C10.2584 0.0313021 10.0777 -0.0019081 9.89553 8.46466e-05Z" fill="#474747"/>
<path id="Vector_5" d="M11.2727 3.93994H8.49518V5.17531H11.2727V3.93994Z" fill="#2E2E2E"/>
<path id="Vector_6" d="M16.2863 54.055C16.1281 54.056 15.9714 54.0265 15.825 53.9683C15.6786 53.9101 15.5455 53.8242 15.4333 53.7157C15.3211 53.6072 15.2321 53.4781 15.1713 53.336C15.1106 53.1938 15.0793 53.0414 15.0793 52.8874V35.9991C15.066 35.8374 15.0872 35.6747 15.1416 35.5214C15.196 35.368 15.2825 35.2273 15.3955 35.1081C15.5085 34.9889 15.6456 34.8937 15.7983 34.8286C15.9509 34.7636 16.1158 34.73 16.2824 34.73C16.449 34.73 16.6139 34.7636 16.7665 34.8286C16.9192 34.8937 17.0563 34.9889 17.1693 35.1081C17.2824 35.2273 17.3688 35.368 17.4232 35.5214C17.4776 35.6747 17.4988 35.8374 17.4855 35.9991V52.8874C17.4865 53.041 17.4562 53.1933 17.3963 53.3354C17.3364 53.4775 17.2481 53.6066 17.1365 53.7152C17.025 53.8239 16.8924 53.9098 16.7464 53.9682C16.6004 54.0265 16.444 54.056 16.2863 54.055Z" fill="white"/>
<path id="Vector_7" d="M20 20.376H0V31.2381H20V20.376Z" fill="#163138"/>
<path id="Vector_8" d="M9.74856 22.0029H5.66345C3.63378 22.0029 1.9884 23.6049 1.9884 25.581V25.6488C1.9884 27.6249 3.63378 29.2268 5.66345 29.2268H9.74856C11.7782 29.2268 13.4236 27.6249 13.4236 25.6488V25.581C13.4236 23.6049 11.7782 22.0029 9.74856 22.0029Z" fill="#295C69"/>
<path id="Vector_9" d="M3.86848 10.6436C3.6797 10.6436 3.49865 10.7166 3.36516 10.8466C3.23167 10.9765 3.15668 11.1528 3.15668 11.3366V13.8676H4.58801V11.3366C4.58802 11.245 4.56935 11.1542 4.5331 11.0697C4.49685 10.9851 4.44372 10.9083 4.3768 10.8439C4.30988 10.7794 4.2305 10.7286 4.14325 10.6942C4.05599 10.6598 3.9626 10.6426 3.86848 10.6436Z" fill="#212121"/>
<path id="Vector_10" d="M6.28242 10.644C6.09364 10.644 5.91259 10.7171 5.7791 10.847C5.64561 10.977 5.57062 11.1533 5.57062 11.3371V13.868H6.96327V11.3371C6.96344 11.1584 6.89271 10.9865 6.76584 10.8574C6.63898 10.7282 6.46578 10.6518 6.28242 10.644Z" fill="#212121"/>
<path id="Vector_11" d="M8.6886 10.6437C8.49982 10.6437 8.31878 10.7167 8.18529 10.8467C8.0518 10.9767 7.97681 11.1529 7.97681 11.3367V13.8677H9.41588V11.3367C9.4159 11.2444 9.39699 11.1531 9.36025 11.068C9.32352 10.9829 9.2697 10.9058 9.20196 10.8413C9.13421 10.7767 9.05391 10.726 8.96575 10.6921C8.8776 10.6582 8.78337 10.6417 8.6886 10.6437Z" fill="#212121"/>
<path id="Vector_12" d="M11.0948 10.6437C10.906 10.6437 10.725 10.7167 10.5915 10.8467C10.458 10.9767 10.383 11.1529 10.383 11.3367V13.8677H11.8221V11.3367C11.8221 11.2444 11.8032 11.1531 11.7664 11.068C11.7297 10.9829 11.6759 10.9058 11.6081 10.8413C11.5404 10.7767 11.4601 10.726 11.3719 10.6921C11.2838 10.6582 11.1896 10.6417 11.0948 10.6437Z" fill="#212121"/>
<path id="Vector_13" d="M13.501 10.6437C13.4075 10.6437 13.3149 10.6616 13.2286 10.6965C13.1422 10.7313 13.0638 10.7823 12.9977 10.8467C12.9316 10.911 12.8791 10.9874 12.8434 11.0715C12.8076 11.1556 12.7892 11.2457 12.7892 11.3367V13.8677H14.2283V11.3367C14.2283 11.2444 14.2094 11.1531 14.1726 11.068C14.1359 10.9829 14.0821 10.9058 14.0143 10.8413C13.9466 10.7767 13.8663 10.726 13.7781 10.6921C13.69 10.6582 13.5958 10.6417 13.501 10.6437Z" fill="#212121"/>
<path id="Vector_14" d="M15.9072 10.6436C15.8137 10.6436 15.7211 10.6615 15.6348 10.6963C15.5484 10.7312 15.47 10.7822 15.4039 10.8466C15.3378 10.9109 15.2853 10.9873 15.2496 11.0714C15.2138 11.1555 15.1954 11.2456 15.1954 11.3366V13.8676H16.6267V11.3366C16.6267 11.245 16.6081 11.1542 16.5718 11.0697C16.5355 10.9851 16.4824 10.9083 16.4155 10.8439C16.3486 10.7794 16.2692 10.7286 16.1819 10.6942C16.0947 10.6598 16.0013 10.6426 15.9072 10.6436Z" fill="#212121"/>
</g>
</g>
</g>
<defs>
<clipPath id="clip0_1_7596">
<rect width="20" height="57" fill="white"/>
</clipPath>
</defs>
</svg>
