<svg width="123" height="123" viewBox="0 0 123 123" fill="none" xmlns="http://www.w3.org/2000/svg">
<g id="7069791_3304468 1">
<g id="Background_Complete">
<g id="Group">
<path id="Vector" d="M123 94.0703H0V94.1318H123V94.0703Z" fill="#EBEBEB"/>
<path id="Vector_2" d="M106.714 96.689H98.5658V96.7505H106.714V96.689Z" fill="#EBEBEB"/>
<path id="Vector_3" d="M77.0164 96.6582H74.8779V96.7197H77.0164V96.6582Z" fill="#EBEBEB"/>
<path id="Vector_4" d="M110.676 98.0298H105.954V98.0913H110.676V98.0298Z" fill="#EBEBEB"/>
<path id="Vector_5" d="M28.1933 98.8447H17.5679V98.9062H28.1933V98.8447Z" fill="#EBEBEB"/>
<path id="Vector_6" d="M27.2787 96.1587H25.7208V96.2202H27.2787V96.1587Z" fill="#EBEBEB"/>
<path id="Vector_7" d="M61.1173 96.4214H46.1364V96.4829H61.1173V96.4214Z" fill="#EBEBEB"/>
</g>
<g id="Group_2">
<g id="Group_3">
<path id="Vector_8" d="M18.3885 86.763C18.2672 86.3396 18.187 85.9089 18.187 85.5067C18.187 83.8393 19.5255 83.4978 21.5351 83.4978C23.5447 83.4978 24.8831 83.8393 24.8831 85.5067C24.8831 85.8476 24.8258 86.209 24.7348 86.5691C23.8863 85.9231 22.8305 85.5352 21.681 85.5352C20.4214 85.5352 19.2726 85.9999 18.3885 86.763ZM25.6671 87.4909C25.8568 86.8626 25.9911 86.1834 25.9911 85.5067C25.9911 81.9136 22.8686 81.9136 21.5353 81.9136C20.2018 81.9136 17.0795 81.9136 17.0795 85.5067C17.0795 86.2845 17.2559 87.0663 17.4916 87.7691C16.9511 88.5726 16.6355 89.5398 16.6355 90.5806C16.6355 91.9361 17.1664 93.1627 18.0343 94.0699H25.3318C26.196 93.1624 26.7304 91.9361 26.7304 90.5806C26.7301 89.4153 26.3308 88.345 25.6671 87.4909Z" fill="#E6E6E6"/>
<path id="Vector_9" d="M31.7623 87.3348C31.6507 86.9447 31.5766 86.5476 31.5766 86.1769C31.5766 84.6401 32.8103 84.3253 34.6627 84.3253C36.5151 84.3253 37.7487 84.6401 37.7487 86.1769C37.7487 86.491 37.6961 86.8244 37.612 87.1562C36.8299 86.5609 35.8568 86.2032 34.797 86.2032C33.6361 86.203 32.5771 86.6312 31.7623 87.3348ZM38.4712 88.0057C38.6462 87.4266 38.7699 86.8003 38.7699 86.1766C38.7699 82.8647 35.8919 82.8647 34.6627 82.8647C33.4337 82.8647 30.5557 82.8647 30.5557 86.1766C30.5557 86.8937 30.7183 87.6143 30.9355 88.262C30.4374 89.0027 30.1464 89.894 30.1464 90.8536C30.1464 92.103 30.6357 93.2334 31.4356 94.0698H38.162C38.9586 93.2334 39.4511 92.103 39.4511 90.8536C39.4511 89.7796 39.0833 88.7931 38.4712 88.0057Z" fill="#E6E6E6"/>
<path id="Vector_10" d="M45.1361 87.9069C45.034 87.5497 44.9661 87.1864 44.9661 86.8471C44.9661 85.4407 46.095 85.1527 47.7901 85.1527C49.4853 85.1527 50.6142 85.4407 50.6142 86.8471C50.6142 87.1347 50.566 87.4395 50.4893 87.7433C49.7736 87.1984 48.8831 86.8712 47.9134 86.8712C46.8509 86.8712 45.8817 87.2631 45.1361 87.9069ZM51.2752 88.5207C51.4351 87.9908 51.5485 87.4176 51.5485 86.8471C51.5485 83.8164 48.9149 83.8164 47.7901 83.8164C46.6654 83.8164 44.0318 83.8164 44.0318 86.8471C44.0318 87.5032 44.1806 88.1627 44.3794 88.7553C43.9235 89.4331 43.6571 90.2488 43.6571 91.1268C43.6571 92.2702 44.1048 93.3046 44.8369 94.0699H50.9923C51.7212 93.3046 52.1719 92.2702 52.1719 91.1268C52.1719 90.144 51.8354 89.2412 51.2752 88.5207Z" fill="#E6E6E6"/>
<path id="Vector_11" d="M58.5099 88.4785C58.4172 88.1545 58.3559 87.8249 58.3559 87.5171C58.3559 86.2414 59.38 85.9799 60.918 85.9799C62.4557 85.9799 63.4801 86.2411 63.4801 87.5171C63.4801 87.7779 63.4363 88.0546 63.3667 88.3301C62.7175 87.8359 61.9094 87.539 61.0297 87.539C60.0656 87.539 59.1864 87.8945 58.5099 88.4785ZM64.0796 89.0354C64.2247 88.5547 64.3275 88.0347 64.3275 87.5171C64.3275 84.7676 61.9384 84.7676 60.918 84.7676C59.8976 84.7676 57.5084 84.7676 57.5084 87.5171C57.5084 88.1124 57.6432 88.7105 57.8238 89.2482C57.4103 89.863 57.1687 90.6032 57.1687 91.3997C57.1687 92.4371 57.5748 93.3754 58.239 94.0698H63.8232C64.4845 93.3756 64.8933 92.4371 64.8933 91.3997C64.8931 90.508 64.5876 89.6893 64.0796 89.0354Z" fill="#E6E6E6"/>
<path id="Vector_12" d="M71.2861 89.0503C71.2029 88.7596 71.1476 88.4636 71.1476 88.1874C71.1476 87.042 72.0671 86.8073 73.4474 86.8073C74.828 86.8073 75.7473 87.042 75.7473 88.1874C75.7473 88.4216 75.7079 88.6698 75.6454 88.9172C75.0627 88.4735 74.3372 88.207 73.5476 88.207C72.6826 88.2068 71.8935 88.5261 71.2861 89.0503ZM76.286 89.5502C76.4164 89.1187 76.5087 88.6521 76.5087 88.1871C76.5087 85.7187 74.3638 85.7188 73.4477 85.7188C72.5316 85.7188 70.3867 85.7187 70.3867 88.1871C70.3867 88.7214 70.5077 89.2584 70.6698 89.7413C70.2986 90.2934 70.0817 90.9576 70.0817 91.6727C70.0817 92.6038 70.4462 93.4464 71.0425 94.0697H76.0555C76.6491 93.4464 77.0162 92.604 77.0162 91.6727C77.0164 90.8722 76.7421 90.1372 76.286 89.5502Z" fill="#E6E6E6"/>
</g>
<g id="Group_4">
<g id="Group_5">
<path id="Vector_13" d="M39.9893 24.6821H36.1721L24.9954 64.2608H28.8128L39.9893 24.6821Z" fill="white"/>
</g>
<g id="Group_6">
<path id="Vector_14" d="M84.7461 24.6821H78.8391L67.6626 64.2608H73.5693L84.7461 24.6821Z" fill="white"/>
<path id="Vector_15" d="M92.2431 24.6821H86.3362L75.1594 64.2608H81.0664L92.2431 24.6821Z" fill="white"/>
</g>
</g>
<g id="Group_7">
<path id="Vector_16" d="M116.795 69.7822H8.04224V71.9143H116.795V69.7822Z" fill="#EBEBEB"/>
<path id="Vector_17" d="M10.1743 69.7822H8.04224V71.9143H10.1743V69.7822Z" fill="#E0E0E0"/>
</g>
<g id="Group_8">
<g id="Group_9">
<path id="Vector_18" d="M87.0444 75.6313C87.1111 75.6313 87.1775 75.6314 87.2444 75.6338H87.2825C92.2788 75.7598 96.7267 79.8389 97.2765 84.8522C97.8261 89.8632 94.2726 93.9421 89.3042 94.0681H89.2663C89.1999 94.0705 89.1334 94.0705 89.0668 94.0705C83.9775 94.0705 79.3958 89.9417 78.8376 84.8522C78.2789 79.7605 81.9549 75.6313 87.0444 75.6313ZM88.3239 86.383C89.1676 86.383 89.7794 85.6959 89.6867 84.8522C89.594 84.0059 88.8319 83.3213 87.9881 83.3213C87.1418 83.3213 86.5322 84.0059 86.6252 84.8522C86.7177 85.6959 87.4776 86.383 88.3239 86.383Z" fill="#E0E0E0"/>
<path id="Vector_19" d="M87.2442 75.6338H87.2824C87.3488 75.6314 87.4152 75.6313 87.4819 75.6313C92.5736 75.6313 97.1531 79.7605 97.7113 84.8522C98.2695 89.9417 94.5957 94.0705 89.5037 94.0705C89.4371 94.0705 89.3707 94.0705 89.3038 94.0681H89.2659C84.2696 93.9421 79.8217 89.8629 79.2721 84.8522C78.7225 79.8389 82.2758 75.7598 87.2442 75.6338ZM88.6609 86.383C89.5047 86.383 90.1165 85.6959 90.0238 84.8522C89.9311 84.0059 89.1689 83.3213 88.3252 83.3213C87.4789 83.3213 86.8693 84.0059 86.9623 84.8522C87.0546 85.6959 87.8147 86.383 88.6609 86.383Z" fill="#F0F0F0"/>
<path id="Vector_20" d="M82.5128 79.7864C83.7049 78.5409 85.4065 77.7778 87.3701 77.7778C91.4682 77.7778 95.1555 81.0985 95.6049 85.1966C95.8192 87.1506 95.26 88.9238 94.1764 90.248C95.4615 88.8955 96.1449 86.9772 95.9117 84.852C95.462 80.7514 91.7772 77.4307 87.6791 77.4307C85.5396 77.4307 83.7089 78.3364 82.5128 79.7864Z" fill="#E6E6E6"/>
</g>
<g id="Group_10">
<path id="Vector_21" d="M100.928 78.4033C100.985 78.4033 101.042 78.4033 101.098 78.4053H101.131C105.376 78.5123 109.155 81.9782 109.622 86.2377C110.089 90.4952 107.07 93.9611 102.848 94.0681H102.816C102.76 94.0701 102.703 94.0701 102.646 94.0701C98.3223 94.0701 94.4294 90.5619 93.9551 86.2377C93.4808 81.9115 96.6043 78.4033 100.928 78.4033ZM102.016 87.5385C102.733 87.5385 103.252 86.9548 103.174 86.2379C103.095 85.5189 102.447 84.9373 101.731 84.9373C101.012 84.9373 100.494 85.5191 100.572 86.2379C100.651 86.9548 101.297 87.5385 102.016 87.5385Z" fill="#E0E0E0"/>
<path id="Vector_22" d="M101.098 78.4053H101.131C101.187 78.4033 101.244 78.4033 101.3 78.4033C105.626 78.4033 109.517 81.9115 109.992 86.2379C110.466 90.5621 107.345 94.0703 103.018 94.0703C102.962 94.0703 102.905 94.0703 102.848 94.0684H102.816C98.571 93.9613 94.7917 90.4954 94.3248 86.2379C93.8576 81.9782 96.8768 78.5123 101.098 78.4053ZM102.302 87.5385C103.019 87.5385 103.538 86.9548 103.46 86.2379C103.381 85.5189 102.734 84.9373 102.017 84.9373C101.298 84.9373 100.78 85.5191 100.859 86.2379C100.937 86.9548 101.583 87.5385 102.302 87.5385Z" fill="#F5F5F5"/>
<path id="Vector_23" d="M97.0782 81.9338C98.0913 80.8755 99.537 80.2271 101.205 80.2271C104.687 80.2271 107.82 83.0487 108.202 86.5306C108.384 88.1908 107.909 89.6976 106.988 90.8225C108.08 89.6732 108.661 88.0435 108.463 86.2378C108.081 82.7537 104.95 79.9321 101.468 79.9321C99.6502 79.9321 98.0945 80.7016 97.0782 81.9338Z" fill="#E6E6E6"/>
</g>
</g>
</g>
</g>
<g id="Shadow_1_">
<path id="_x3C_Path_x3E__176_" d="M61.5 105.18C87.8422 105.18 109.197 103.933 109.197 102.394C109.197 100.856 87.8422 99.6089 61.5 99.6089C35.1579 99.6089 13.8033 100.856 13.8033 102.394C13.8033 103.933 35.1579 105.18 61.5 105.18Z" fill="#F5F5F5"/>
</g>
<g id="Character_1_">
<g id="Group_11">
<path id="Vector_24" d="M57.8061 49.122C56.9832 48.5938 55.8883 48.8327 55.3601 49.6555L55.3045 49.7421L55.2014 49.9028L55.0797 50.0863C54.9983 50.2108 54.9146 50.3357 54.8283 50.4595C54.6573 50.7082 54.4824 50.9557 54.2999 51.195C53.9407 51.6786 53.5604 52.1389 53.1668 52.5606C52.771 52.9797 52.3636 53.3647 51.9429 53.6649C51.8381 53.7433 51.7326 53.8164 51.6271 53.8833C51.5422 53.7259 51.4593 53.5362 51.3786 53.3377C51.167 52.812 51.0035 52.2083 50.847 51.595C50.5469 50.3645 50.3142 49.0501 50.0947 47.7685L50.0898 47.7385C50.0241 47.3567 49.711 47.0499 49.3068 47.0093C48.8212 46.9609 48.3882 47.3149 48.3398 47.8005C48.1993 49.2036 48.1794 50.5731 48.2891 51.998C48.3432 52.7109 48.4426 53.428 48.6237 54.1874C48.7171 54.5689 48.8394 54.9571 49.0308 55.3802C49.1282 55.5915 49.2436 55.8117 49.4062 56.0454C49.5698 56.2771 49.7813 56.5315 50.109 56.7681C50.4295 57.0028 50.9041 57.2018 51.3889 57.2232C51.6263 57.2355 51.8625 57.2149 52.064 57.1694C52.17 57.148 52.2669 57.1209 52.3555 57.0899L52.4888 57.0437L52.5653 57.0144C52.9788 56.8619 53.3624 56.6744 53.721 56.468C54.4337 56.0461 55.0602 55.561 55.6169 55.0341C56.1781 54.5104 56.6765 53.9505 57.1343 53.3682C57.3606 53.0747 57.579 52.7775 57.7854 52.4705C57.8885 52.317 57.9889 52.1611 58.0885 52.0026L58.2339 51.7591L58.3886 51.487C58.8484 50.6755 58.6009 49.6322 57.8061 49.122Z" fill="#CE7A63"/>
<path id="Vector_25" d="M49.8859 48.1558L51.2591 46.7209L48.5529 46.022C48.5529 46.022 47.4035 47.3196 48.4704 48.4591L49.8859 48.1558Z" fill="#CE7A63"/>
<path id="Vector_26" d="M50.099 49.5625L48.3371 49.6754C48.0724 49.6924 47.8557 49.486 47.8555 49.2171L47.8547 48.4179C47.8545 48.1487 48.0707 47.9148 48.3354 47.8978L50.0973 47.7852C50.362 47.7682 50.5787 47.9746 50.5789 48.2435L50.5797 49.0427C50.5799 49.3116 50.3637 49.5455 50.099 49.5625Z" fill="#263238"/>
<path id="Vector_27" d="M50.9927 45.2534L48.5529 45.3732V46.0219L51.2591 46.7208L50.9927 45.2534Z" fill="#CE7A63"/>
<path id="Vector_28" d="M55.2784 49.7618C55.1953 52.0624 55.7648 57.3725 59.9121 68.1008L72.861 67.1589C72.5511 65.3806 69.8286 57.7091 69.4065 49.241C69.3533 48.1773 68.3408 47.2627 67.174 47.2125C66.4353 47.1808 65.589 47.164 64.7679 47.1918C63.0442 47.2501 60.562 47.3948 59.09 47.64C58.1296 47.8002 57.2142 48.0336 56.5345 48.2285C55.7943 48.4405 55.3048 49.0339 55.2784 49.7618Z" fill="#FF6000"/>
<g id="Group_12">
<path id="Vector_29" opacity="0.3" d="M62.4917 54.0946C62.4332 54.0946 62.3812 54.0527 62.3707 53.993C62.3589 53.9263 62.4034 53.8623 62.4703 53.8505L64.6936 53.4572C64.7608 53.4446 64.8243 53.4899 64.8361 53.5568C64.8479 53.6235 64.8034 53.6874 64.7365 53.6992L62.5134 54.0926C62.506 54.0938 62.4988 54.0946 62.4917 54.0946Z" fill="white"/>
<path id="Vector_30" opacity="0.3" d="M62.5244 54.6209C62.4659 54.6209 62.414 54.579 62.4034 54.5193C62.3916 54.4526 62.4361 54.3886 62.503 54.3768L64.7264 53.9835C64.793 53.9712 64.857 54.0162 64.8688 54.0831C64.8806 54.1498 64.8361 54.2137 64.7692 54.2255L62.5458 54.6189C62.5387 54.6204 62.5316 54.6209 62.5244 54.6209Z" fill="white"/>
<path id="Vector_31" opacity="0.3" d="M62.5571 55.1477C62.4986 55.1477 62.4467 55.1056 62.4361 55.0461C62.4243 54.9795 62.4688 54.9155 62.5357 54.9037L64.7591 54.5103C64.8255 54.498 64.8897 54.543 64.9015 54.61C64.9133 54.6766 64.8688 54.7406 64.8019 54.7524L62.5785 55.1457C62.5714 55.147 62.5643 55.1477 62.5571 55.1477Z" fill="white"/>
</g>
<path id="Vector_32" opacity="0.3" d="M71.4288 67.3629C71.37 67.3629 71.3181 67.3208 71.3078 67.2611C71.2357 66.8478 71.0323 66.1147 70.7508 65.1002C69.8505 61.855 68.1747 55.8139 67.8515 49.3281C67.848 49.2602 67.9004 49.2024 67.9683 49.1992C68.034 49.1928 68.0938 49.2482 68.0972 49.3161C68.4192 55.7748 70.0903 61.7986 70.9877 65.0345C71.2711 66.0559 71.4758 66.7939 71.5501 67.219C71.5617 67.2859 71.5169 67.3496 71.45 67.3614C71.4428 67.3624 71.4357 67.3629 71.4288 67.3629Z" fill="white"/>
<path id="Vector_33" opacity="0.4" d="M69.5571 51.2889C68.3443 50.7383 67.1834 50.3949 67.344 51.2862C67.7664 53.6273 69.189 55.5567 70.2874 56.5351C69.9821 54.8807 69.7234 53.1147 69.5571 51.2889Z" fill="black"/>
<path id="Vector_34" d="M76.7902 48.2033L77.8384 46.5061L74.9373 45.9551C74.9373 45.9551 74.083 47.4822 75.4313 48.6539L76.7902 48.2033Z" fill="#CE7A63"/>
<path id="Vector_35" d="M77.5323 45.1538L75.0573 45.1956L74.937 45.9553L77.8381 46.5063L77.5323 45.1538Z" fill="#CE7A63"/>
<g id="Group_13">
<g id="Group_14">
<path id="Vector_36" d="M36.3419 54.4704C34.3736 54.4704 32.7781 50.8916 32.7781 46.4772C32.7781 42.0627 34.3736 38.4839 36.3419 38.4839H37.6784V54.4704H36.3419Z" fill="#FF6000"/>
<g id="Group_15">
<path id="Vector_37" d="M37.6784 54.4704C39.6467 54.4704 41.2422 50.8917 41.2422 46.4772C41.2422 42.0626 39.6467 38.4839 37.6784 38.4839C35.7102 38.4839 34.1146 42.0626 34.1146 46.4772C34.1146 50.8917 35.7102 54.4704 37.6784 54.4704Z" fill="#FF6000"/>
<path id="Vector_38" opacity="0.2" d="M37.6784 54.4704C39.6467 54.4704 41.2422 50.8917 41.2422 46.4772C41.2422 42.0626 39.6467 38.4839 37.6784 38.4839C35.7102 38.4839 34.1146 42.0626 34.1146 46.4772C34.1146 50.8917 35.7102 54.4704 37.6784 54.4704Z" fill="black"/>
</g>
</g>
<g id="Group_16">
<path id="Vector_39" d="M38.4301 54.4704C36.4619 54.4704 34.8663 50.8916 34.8663 46.4772C34.8663 42.0627 36.4619 38.4839 38.4301 38.4839H39.7667V54.4704H38.4301Z" fill="#FF6000"/>
<g id="Group_17">
<path id="Vector_40" d="M39.7664 54.4704C41.7347 54.4704 43.3302 50.8917 43.3302 46.4772C43.3302 42.0626 41.7347 38.4839 39.7664 38.4839C37.7982 38.4839 36.2026 42.0626 36.2026 46.4772C36.2026 50.8917 37.7982 54.4704 39.7664 54.4704Z" fill="#FF6000"/>
<path id="Vector_41" opacity="0.2" d="M39.7664 54.4704C41.7347 54.4704 43.3302 50.8917 43.3302 46.4772C43.3302 42.0626 41.7347 38.4839 39.7664 38.4839C37.7982 38.4839 36.2026 42.0626 36.2026 46.4772C36.2026 50.8917 37.7982 54.4704 39.7664 54.4704Z" fill="black"/>
<path id="Vector_42" opacity="0.2" d="M40.071 46.7202L43.1879 48.7055C43.274 48.0511 43.3232 47.3623 43.3281 46.6514L40.071 46.7202Z" fill="black"/>
</g>
</g>
</g>
<path id="Vector_43" d="M86.3279 46.9148H40.2725C40.0316 46.9148 39.8348 46.7178 39.8348 46.4772C39.8348 46.2364 40.0319 46.0396 40.2725 46.0396H86.3279C86.5687 46.0396 86.7655 46.2366 86.7655 46.4772C86.7657 46.718 86.5687 46.9148 86.3279 46.9148Z" fill="#263238"/>
<path id="Vector_44" opacity="0.9" d="M64.767 47.1929C63.045 47.2495 60.5629 47.3946 59.0893 47.6406C58.8728 47.6751 58.6564 47.7169 58.4473 47.7587H58.4448C57.8913 48.969 58.5383 50.7673 60.2799 52.7968L60.7916 53.3921L61.1041 52.6713C62.2184 50.1154 63.5641 48.3712 64.9933 47.6283L65.8691 47.1806C65.505 47.1757 65.1335 47.1806 64.767 47.1929Z" fill="white"/>
<path id="Vector_45" d="M62.8801 41.3042C62.9005 43.0274 63.2368 46.1612 64.7677 47.1915C63.1714 48.0198 61.7554 49.9454 60.6536 52.4751C59.0226 50.5759 58.2406 48.6899 59.0898 47.6397C61.0263 47.0276 60.6602 45.6294 60.0113 44.3403L62.8801 41.3042Z" fill="#CE7A63"/>
<path id="Vector_46" opacity="0.2" d="M61.7108 42.543L60.0127 44.3388C60.1674 44.6438 60.3042 44.9545 60.3967 45.26C61.1517 45.0942 62.0437 44.2172 61.9573 43.4546C61.9143 43.0743 61.8164 42.7134 61.7108 42.543Z" fill="black"/>
<path id="Vector_47" d="M57.1211 36.4952C56.4593 36.858 55.9068 39.4905 57.4591 40.5062C59.0111 41.5219 58.5963 35.6863 57.1211 36.4952Z" fill="#263238"/>
<path id="Vector_48" d="M63.5364 38.5831C63.4014 40.9895 63.4447 42.4027 62.237 43.6635C60.4206 45.5597 57.4474 44.5252 56.8612 42.1393C56.3335 39.9917 56.6427 36.4171 58.9908 35.4082C61.3042 34.4141 63.6715 36.1767 63.5364 38.5831Z" fill="#CE7A63"/>
<path id="Vector_49" d="M57.459 36.9711C55.2821 36.0988 53.5318 33.458 54.6824 32.0349C56.2179 30.1355 57.9269 33.2922 62.8737 34.4201C66.8729 35.332 65.3947 38.8147 64.0661 40.2114C63.2144 40.4385 62.4196 40.6203 62.4196 40.6203C62.4196 40.6203 61.5414 38.5384 62.4043 37.2439C61.4732 37.5389 58.9488 37.5679 57.459 36.9711Z" fill="#263238"/>
<path id="Vector_50" d="M54.3179 35.0005C54.3179 35.0005 55.8967 37.0096 62.4044 37.2438C59.5321 38.0504 55.8413 37.5697 54.3179 35.0005Z" fill="#263238"/>
<path id="Vector_51" d="M59.2307 42.1927C59.2024 42.1878 59.1822 42.1625 59.1842 42.1332C59.1864 42.1015 59.2137 42.0771 59.2455 42.0789C60.104 42.1234 60.5456 41.5458 60.55 41.5399C60.5689 41.514 60.6051 41.5084 60.6307 41.5273C60.656 41.546 60.6612 41.5819 60.642 41.6075C60.6226 41.6333 60.1576 42.2415 59.2378 42.1937C59.2354 42.1935 59.2332 42.1932 59.2307 42.1927Z" fill="#263238"/>
<path id="Vector_52" d="M64.6364 41.2079C64.2981 41.768 63.7358 42.1242 63.215 42.2502C62.4317 42.4401 62.537 41.8571 62.7887 41.1351C63.0152 40.4851 63.2393 39.4822 64.0091 39.6138C64.7672 39.7432 65.0228 40.5676 64.6364 41.2079Z" fill="#CE7A63"/>
<path id="Vector_53" d="M59.8936 39.3359C59.8946 39.5315 59.7918 39.6926 59.6639 39.6953C59.536 39.6983 59.4314 39.5418 59.4304 39.3463C59.4294 39.1507 59.5323 38.9896 59.6602 38.9869C59.7881 38.9841 59.8927 39.1401 59.8936 39.3359Z" fill="#263238"/>
<path id="Vector_54" d="M57.6206 39.3857C57.6216 39.5813 57.5187 39.7424 57.3908 39.7451C57.2629 39.7478 57.1583 39.5916 57.1574 39.3961C57.1564 39.2005 57.2592 39.0394 57.3871 39.0367C57.515 39.0337 57.6196 39.1899 57.6206 39.3857Z" fill="#263238"/>
<path id="Vector_55" d="M58.3852 39.4668C58.3852 39.4668 57.9461 40.6055 57.459 41.1612C57.8071 41.4766 58.395 41.3157 58.395 41.3157L58.3852 39.4668Z" fill="#BA4D3C"/>
<path id="Vector_56" d="M60.8759 38.3184C60.8459 38.3196 60.8157 38.3091 60.7928 38.2864C60.4326 37.9349 60.0272 38.0208 60.0103 38.0244C59.9488 38.0385 59.8877 37.9996 59.8747 37.9379C59.8617 37.8761 59.9005 37.8146 59.9623 37.8001C59.9842 37.7949 60.503 37.6796 60.9542 38.1199C60.9992 38.1639 60.9997 38.2367 60.9551 38.2827C60.933 38.3051 60.9045 38.3172 60.8759 38.3184Z" fill="#263238"/>
<path id="Vector_57" d="M57.569 38.2527C57.5734 38.2642 57.5759 38.2768 57.5761 38.2898C57.5776 38.353 57.5269 38.4047 57.4632 38.4054C56.8231 38.4136 56.5161 37.9789 56.5033 37.9604C56.4674 37.9075 56.4807 37.8369 56.5333 37.802C56.586 37.7671 56.6578 37.7809 56.694 37.833C56.705 37.8488 56.9481 38.1836 57.4578 38.1772C57.5085 38.1764 57.5523 38.2079 57.569 38.2527Z" fill="#263238"/>
<path id="Vector_58" d="M77.1712 50.2731C77.0775 49.5533 76.9552 48.869 76.7648 48.1536C76.6684 47.7925 76.3478 47.5172 75.9545 47.4973C75.4662 47.4724 75.0504 47.8481 75.0254 48.3361L75.0234 48.3745C74.9577 49.6611 74.8731 51.0111 74.6229 52.1786C74.5612 52.4684 74.4893 52.7467 74.4003 52.988C74.3366 53.1602 74.264 53.3166 74.1966 53.43C74.1845 53.4249 74.1725 53.4195 74.156 53.4121C73.7922 53.2692 73.3464 52.9693 72.9142 52.6207C72.4815 52.2601 72.0505 51.8419 71.6323 51.3937C71.2173 50.9413 70.8069 50.4667 70.4136 49.972C70.2148 49.7265 70.0232 49.4739 69.8301 49.2234L69.5469 48.8453L69.284 48.4864L69.2416 48.4284C68.6904 47.6793 67.6436 47.4805 66.8527 47.9929C66.0318 48.5248 65.7976 49.6217 66.3295 50.4426C66.4483 50.6261 66.5423 50.7651 66.6488 50.9203C66.7529 51.0711 66.8604 51.218 66.9681 51.3644C67.1824 51.6579 67.4085 51.9415 67.6377 52.2237C68.1 52.7848 68.5888 53.3311 69.1231 53.8514C69.3915 54.1115 69.6677 54.3673 69.958 54.6165C70.252 54.8632 70.5592 55.1021 70.8844 55.3321C71.5432 55.7865 72.2689 56.218 73.2077 56.478C73.6719 56.6199 74.4802 56.7375 75.2354 56.4152C75.6074 56.2622 75.9287 56.0253 76.1661 55.7771C76.4064 55.5277 76.5724 55.2711 76.7004 55.0288C76.955 54.5422 77.0679 54.1019 77.1486 53.6832C77.2266 53.2655 77.264 52.8714 77.2809 52.4864C77.3075 51.7181 77.2605 50.9895 77.1712 50.2731Z" fill="#CE7A63"/>
<path id="Vector_59" d="M63.959 67.8057L59.9121 68.1001C59.9121 68.1001 45.7295 71.3906 46.2746 78.8663C46.6424 83.8837 48.7737 92.0025 50.2372 97.1259H53.5594C53.3604 92.0022 53.7203 84.1319 52.3358 79.0026C54.4858 78.608 61.8705 75.9675 64.4786 75.0954C66.6341 70.9768 63.959 67.8057 63.959 67.8057Z" fill="#263238"/>
<path id="Vector_60" opacity="0.4" d="M59.2551 72.4004C56.462 74.5202 56.0755 77.1849 56.462 77.8144C57.6883 77.4166 59.0157 76.9669 60.2637 76.5389C60.2799 75.0427 60.3994 71.5318 59.2551 72.4004Z" fill="black"/>
<path id="Vector_61" d="M69.3091 67.416L63.9594 67.8057L69.3091 67.4187C69.3091 67.416 69.3091 67.416 69.3091 67.416Z" fill="#263238"/>
<path id="Vector_62" d="M72.86 67.1602L63.959 67.8062C63.959 67.8062 57.3094 72.9382 57.5364 75.4363C57.5729 75.8381 57.6272 76.9352 58.1487 78.3214C59.9389 83.0805 63.5066 91.7383 65.6869 97.1262H69.0635C68.0633 91.5936 66.9779 82.6973 64.7684 78.6838C67.1066 77.64 70.3006 76.321 72.5028 74.642C74.9722 72.7562 72.86 67.1602 72.86 67.1602Z" fill="#263238"/>
<path id="Vector_63" d="M51.6436 101.849L53.7203 101.887C53.7203 101.887 53.6686 99.9574 53.5594 97.126H50.2372C51.0411 99.9385 51.6436 101.849 51.6436 101.849Z" fill="#CE7A63"/>
<path id="Vector_64" d="M51.123 100.293L53.8406 100.315C53.9425 100.315 54.0256 100.387 54.0406 100.486L54.3776 102.703C54.4126 102.933 54.2234 103.149 53.9887 103.143C53.0096 103.119 51.5971 103.051 50.3649 103.041C48.9241 103.03 48.9607 103.099 47.2712 103.086C46.2495 103.078 46.0382 102.042 46.4724 101.952C48.4488 101.541 48.7553 101.507 50.51 100.483C50.7007 100.371 50.9083 100.292 51.123 100.293Z" fill="#263238"/>
<path id="Vector_65" d="M67.5975 101.849L69.8867 101.887C69.8867 101.887 69.5706 99.9412 69.0636 97.126H65.687C66.8208 99.9331 67.5975 101.849 67.5975 101.849Z" fill="#CE7A63"/>
<path id="Vector_66" d="M67.0747 100.293L69.7935 100.314C69.8953 100.315 69.9829 100.386 70.0041 100.486L70.4786 102.703C70.5278 102.933 70.3519 103.149 70.117 103.143C69.1364 103.119 67.7195 103.05 66.4868 103.041C65.0454 103.029 66.2211 103.098 64.5308 103.085C63.5087 103.077 63.2371 102.059 63.6617 101.951C65.2545 101.547 65.8285 101.136 66.4732 100.482C66.6245 100.329 66.8599 100.292 67.0747 100.293Z" fill="#263238"/>
<g id="Group_18">
<g id="Group_19">
<g id="Group_20">
<path id="Vector_67" d="M86.8376 54.4704C84.8694 54.4704 83.2738 50.8916 83.2738 46.4772C83.2738 42.0627 84.8694 38.4839 86.8376 38.4839H88.1741V54.4704H86.8376Z" fill="#FF6000"/>
<path id="Vector_68" opacity="0.2" d="M86.8376 54.4704C84.8694 54.4704 83.2738 50.8916 83.2738 46.4772C83.2738 42.0627 84.8694 38.4839 86.8376 38.4839H88.1741V54.4704H86.8376Z" fill="black"/>
</g>
<path id="Vector_69" d="M88.1742 54.4704C90.1424 54.4704 91.738 50.8917 91.738 46.4772C91.738 42.0626 90.1424 38.4839 88.1742 38.4839C86.2059 38.4839 84.6104 42.0626 84.6104 46.4772C84.6104 50.8917 86.2059 54.4704 88.1742 54.4704Z" fill="#FF6000"/>
</g>
<g id="Group_21">
<g id="Group_22">
<path id="Vector_70" d="M88.9259 54.4704C86.9576 54.4704 85.3621 50.8916 85.3621 46.4772C85.3621 42.0627 86.9576 38.4839 88.9259 38.4839H90.2624V54.4704H88.9259Z" fill="#FF6000"/>
<path id="Vector_71" opacity="0.2" d="M88.9259 54.4704C86.9576 54.4704 85.3621 50.8916 85.3621 46.4772C85.3621 42.0627 86.9576 38.4839 88.9259 38.4839H90.2624V54.4704H88.9259Z" fill="black"/>
</g>
<path id="Vector_72" d="M94.1281 43.0961C93.8031 41.4465 93.2447 40.0824 92.5128 39.152L92.7062 39C93.4619 39.9611 94.037 41.3611 94.3694 43.0487L94.1281 43.0961Z" fill="#FF6000"/>
<path id="Vector_73" d="M94.6872 46.4774H94.4412C94.4412 45.8117 94.4075 45.1541 94.3413 44.5229L94.5858 44.4971C94.653 45.1369 94.6872 45.8031 94.6872 46.4774Z" fill="#FF6000"/>
<path id="Vector_74" d="M90.2622 54.4704C92.2304 54.4704 93.826 50.8917 93.826 46.4772C93.826 42.0626 92.2304 38.4839 90.2622 38.4839C88.2939 38.4839 86.6984 42.0626 86.6984 46.4772C86.6984 50.8917 88.2939 54.4704 90.2622 54.4704Z" fill="#FF6000"/>
</g>
<g id="Group_23">
<g id="Group_24">
<path id="Vector_75" d="M90.6769 50.8424C89.6022 50.8424 88.7308 48.8881 88.7308 46.4776C88.7308 44.067 89.6022 42.1128 90.6769 42.1128H91.4068V50.8424H90.6769Z" fill="#FF6000"/>
<g id="Group_25">
<path id="Vector_76" opacity="0.2" d="M91.4076 50.8421H90.676C89.6034 50.8421 88.7313 48.8876 88.7313 46.4786C88.7313 44.0663 89.6034 42.1118 90.676 42.1118H91.4076C90.3318 42.1118 89.4597 44.0663 89.4597 46.4786C89.4595 48.8876 90.3316 50.8421 91.4076 50.8421Z" fill="black"/>
</g>
<path id="Vector_77" opacity="0.1" d="M91.4068 50.8419C92.4816 50.8419 93.3529 48.8877 93.3529 46.4771C93.3529 44.0665 92.4816 42.1123 91.4068 42.1123C90.332 42.1123 89.4607 44.0665 89.4607 46.4771C89.4607 48.8877 90.332 50.8419 91.4068 50.8419Z" fill="white"/>
</g>
</g>
</g>
</g>
</g>
<g id="Dumbbell">
<g id="Group_26">
<g id="Group_27">
<path id="Vector_78" d="M104.711 78.9658L97.9496 102.394H99.1926L105.954 78.9658H104.711Z" fill="#263238"/>
<path id="Vector_79" d="M84.0922 102.394H85.3352L92.097 78.9658H90.854L84.0922 102.394Z" fill="#263238"/>
</g>
<g id="Group_28">
<g id="Group_29">
<g id="Group_30">
<g id="Group_31">
<g id="Group_32">
<path id="Vector_80" d="M82.9815 100.388C80.2312 100.388 78.002 98.1588 78.002 95.4087C78.002 92.6587 80.2315 90.4292 82.9815 90.4292H83.7394V100.389H82.9815V100.388Z" fill="#FF6000"/>
<path id="Vector_81" opacity="0.2" d="M82.9815 100.388C80.2312 100.388 78.002 98.1588 78.002 95.4087C78.002 92.6587 80.2315 90.4292 82.9815 90.4292H83.7394V100.389H82.9815V100.388Z" fill="black"/>
</g>
<path id="Vector_82" d="M83.7394 100.388C86.4895 100.388 88.719 98.1589 88.719 95.4087C88.719 92.6586 86.4895 90.4292 83.7394 90.4292C80.9893 90.4292 78.7599 92.6586 78.7599 95.4087C78.7599 98.1589 80.9893 100.388 83.7394 100.388Z" fill="#FF6000"/>
</g>
<path id="Vector_83" opacity="0.1" d="M82.9815 90.4287H83.7394C86.4897 90.4287 88.7189 92.6582 88.7189 95.4085C88.7189 98.1585 86.4894 100.388 83.7394 100.388H82.9815C80.2312 100.388 78.002 98.1585 78.002 95.4085C78.0017 92.6582 80.2312 90.4287 82.9815 90.4287Z" fill="black"/>
</g>
<g id="Group_33">
<g id="Group_34">
<g id="Group_35">
<path id="Vector_84" d="M84.2875 100.388C81.5372 100.388 79.308 98.1588 79.308 95.4087C79.308 92.6587 81.5375 90.4292 84.2875 90.4292H85.0454V100.389H84.2875V100.388Z" fill="#FF6000"/>
<path id="Vector_85" opacity="0.2" d="M84.2875 100.388C81.5372 100.388 79.308 98.1588 79.308 95.4087C79.308 92.6587 81.5375 90.4292 84.2875 90.4292H85.0454V100.389H84.2875V100.388Z" fill="black"/>
</g>
<path id="Vector_86" d="M85.0455 100.388C87.7956 100.388 90.025 98.1589 90.025 95.4087C90.025 92.6586 87.7956 90.4292 85.0455 90.4292C82.2953 90.4292 80.0659 92.6586 80.0659 95.4087C80.0659 98.1589 82.2953 100.388 85.0455 100.388Z" fill="#FF6000"/>
</g>
<path id="Vector_87" opacity="0.1" d="M84.2875 90.4287H85.0454C87.7957 90.4287 90.025 92.6582 90.025 95.4085C90.025 98.1585 87.7955 100.388 85.0454 100.388H84.2875C81.5372 100.388 79.308 98.1585 79.308 95.4085C79.308 92.6582 81.5375 90.4287 84.2875 90.4287Z" fill="black"/>
</g>
<path id="Vector_88" d="M85.8297 96.572H94.3406C94.4432 96.572 94.5266 96.4886 94.5266 96.386V94.4316C94.5266 94.329 94.4432 94.2456 94.3406 94.2456H85.8297C85.1872 94.2456 84.6664 94.7664 84.6664 95.4089C84.6666 96.051 85.1874 96.572 85.8297 96.572Z" fill="#263238"/>
<g id="Group_36">
<g id="Group_37">
<path id="Vector_89" d="M95.7979 100.388C93.0476 100.388 90.8184 98.1588 90.8184 95.4087C90.8184 92.6587 93.0479 90.4292 95.7979 90.4292H96.5558V100.389H95.7979V100.388Z" fill="#FF6000"/>
<path id="Vector_90" opacity="0.2" d="M95.7979 100.388C93.0476 100.388 90.8184 98.1588 90.8184 95.4087C90.8184 92.6587 93.0479 90.4292 95.7979 90.4292H96.5558V100.389H95.7979V100.388Z" fill="black"/>
</g>
<path id="Vector_91" d="M96.5558 100.388C99.3059 100.388 101.535 98.1589 101.535 95.4087C101.535 92.6586 99.3059 90.4292 96.5558 90.4292C93.8057 90.4292 91.5763 92.6586 91.5763 95.4087C91.5763 98.1589 93.8057 100.388 96.5558 100.388Z" fill="#FF6000"/>
</g>
<g id="Group_38">
<g id="Group_39">
<path id="Vector_92" d="M97.1018 100.388C94.3516 100.388 92.1223 98.1588 92.1223 95.4087C92.1223 92.6587 94.3518 90.4292 97.1018 90.4292H97.8598V100.389H97.1018V100.388Z" fill="#FF6000"/>
<path id="Vector_93" opacity="0.2" d="M97.1018 100.388C94.3516 100.388 92.1223 98.1588 92.1223 95.4087C92.1223 92.6587 94.3518 90.4292 97.1018 90.4292H97.8598V100.389H97.1018V100.388Z" fill="black"/>
</g>
<path id="Vector_94" d="M97.8598 100.388C100.61 100.388 102.839 98.1589 102.839 95.4087C102.839 92.6586 100.61 90.4292 97.8598 90.4292C95.1097 90.4292 92.8802 92.6586 92.8802 95.4087C92.8802 98.1589 95.1097 100.388 97.8598 100.388Z" fill="#FF6000"/>
</g>
<g id="Group_40">
<g id="Group_41">
<path id="Vector_95" opacity="0.2" d="M97.512 98.0011C96.0801 98.0011 94.9194 96.8402 94.9194 95.4085C94.9194 93.9768 96.0801 92.8159 97.512 92.8159H98.208V98.0011H97.512Z" fill="black"/>
</g>
<path id="Vector_96" d="M98.208 98.0011C99.6398 98.0011 100.801 96.8404 100.801 95.4085C100.801 93.9767 99.6398 92.8159 98.208 92.8159C96.7761 92.8159 95.6154 93.9767 95.6154 95.4085C95.6154 96.8404 96.7761 98.0011 98.208 98.0011Z" fill="#FF6000"/>
</g>
</g>
</g>
<g id="Group_42">
<g id="Group_43">
<g id="Group_44">
<g id="Group_45">
<g id="Group_46">
<path id="Vector_97" d="M87.6103 89.0735C85.1736 89.0735 83.1985 87.0984 83.1985 84.6618C83.1985 82.2251 85.1736 80.25 87.6103 80.25H88.2818V89.0735H87.6103Z" fill="#FF6000"/>
<path id="Vector_98" opacity="0.2" d="M87.6103 89.0735C85.1736 89.0735 83.1985 87.0984 83.1985 84.6618C83.1985 82.2251 85.1736 80.25 87.6103 80.25H88.2818V89.0735H87.6103Z" fill="black"/>
</g>
<path id="Vector_99" d="M92.6958 84.7292C92.7326 82.2929 90.7874 80.2881 88.3511 80.2513C85.9148 80.2145 83.9099 82.1597 83.8731 84.596C83.8363 87.0323 85.7815 89.0372 88.2178 89.0739C90.6542 89.1107 92.659 87.1655 92.6958 84.7292Z" fill="#FF6000"/>
</g>
<path id="Vector_100" opacity="0.1" d="M87.6103 80.25H88.2818C90.7185 80.25 92.6936 82.2251 92.6936 84.6618C92.6936 87.0982 90.7185 89.0735 88.2818 89.0735H87.6103C85.1736 89.0735 83.1985 87.0984 83.1985 84.6618C83.1985 82.2251 85.1736 80.25 87.6103 80.25Z" fill="black"/>
</g>
<g id="Group_47">
<g id="Group_48">
<g id="Group_49">
<path id="Vector_101" d="M88.7675 89.074C86.3308 89.074 84.3557 87.0989 84.3557 84.6623C84.3557 82.2256 86.3308 80.2505 88.7675 80.2505H89.4391V89.074H88.7675Z" fill="#FF6000"/>
<path id="Vector_102" opacity="0.2" d="M88.7675 89.074C86.3308 89.074 84.3557 87.0989 84.3557 84.6623C84.3557 82.2256 86.3308 80.2505 88.7675 80.2505H89.4391V89.074H88.7675Z" fill="black"/>
</g>
<path id="Vector_103" d="M93.853 84.7292C93.8898 82.2929 91.9446 80.2881 89.5083 80.2513C87.072 80.2145 85.0672 82.1597 85.0304 84.596C84.9936 87.0323 86.9388 89.0372 89.3751 89.0739C91.8114 89.1107 93.8162 87.1655 93.853 84.7292Z" fill="#FF6000"/>
</g>
<path id="Vector_104" opacity="0.1" d="M88.7675 80.2505H89.4391C91.8757 80.2505 93.8508 82.2256 93.8508 84.6623C93.8508 87.0986 91.8757 89.074 89.4391 89.074H88.7675C86.3308 89.074 84.3557 87.0989 84.3557 84.6623C84.3557 82.2256 86.3308 80.2505 88.7675 80.2505Z" fill="black"/>
</g>
<path id="Vector_105" d="M90.1254 85.6846H97.6751C97.7654 85.6846 97.8385 85.6116 97.8385 85.5213V83.8035C97.8385 83.7132 97.7654 83.6401 97.6751 83.6401H90.1254C89.5608 83.6401 89.103 84.0979 89.103 84.6625C89.103 85.2268 89.5608 85.6846 90.1254 85.6846Z" fill="#263238"/>
<g id="Group_50">
<g id="Group_51">
<path id="Vector_106" d="M98.9649 89.074C96.5282 89.074 94.5531 87.0989 94.5531 84.6623C94.5531 82.2256 96.5282 80.2505 98.9649 80.2505H99.6364V89.074H98.9649Z" fill="#FF6000"/>
<path id="Vector_107" opacity="0.2" d="M98.9649 89.074C96.5282 89.074 94.5531 87.0989 94.5531 84.6623C94.5531 82.2256 96.5282 80.2505 98.9649 80.2505H99.6364V89.074H98.9649Z" fill="black"/>
</g>
<path id="Vector_108" d="M99.6365 89.074C102.073 89.074 104.048 87.0988 104.048 84.6623C104.048 82.2257 102.073 80.2505 99.6365 80.2505C97.1999 80.2505 95.2247 82.2257 95.2247 84.6623C95.2247 87.0988 97.1999 89.074 99.6365 89.074Z" fill="#FF6000"/>
</g>
<g id="Group_52">
<g id="Group_53">
<path id="Vector_109" d="M100.12 89.074C97.6838 89.074 95.7086 87.0989 95.7086 84.6623C95.7086 82.2256 97.6838 80.2505 100.12 80.2505H100.792V89.074H100.12Z" fill="#FF6000"/>
<path id="Vector_110" opacity="0.2" d="M100.12 89.074C97.6838 89.074 95.7086 87.0989 95.7086 84.6623C95.7086 82.2256 97.6838 80.2505 100.12 80.2505H100.792V89.074H100.12Z" fill="black"/>
</g>
<path id="Vector_111" d="M100.792 89.074C103.228 89.074 105.204 87.0988 105.204 84.6623C105.204 82.2257 103.228 80.2505 100.792 80.2505C98.3552 80.2505 96.38 82.2257 96.38 84.6623C96.38 87.0988 98.3552 89.074 100.792 89.074Z" fill="#FF6000"/>
</g>
<g id="Group_54">
<g id="Group_55">
<path id="Vector_112" opacity="0.2" d="M100.483 86.959C99.2148 86.959 98.1865 85.9308 98.1865 84.6621C98.1865 83.3935 99.2148 82.3652 100.483 82.3652H101.1V86.959H100.483Z" fill="black"/>
</g>
<path id="Vector_113" d="M101.14 86.9614C102.409 86.9409 103.42 85.8959 103.4 84.6275C103.379 83.3591 102.334 82.3475 101.066 82.3681C99.7975 82.3886 98.7859 83.4335 98.8065 84.7019C98.827 85.9704 99.872 86.982 101.14 86.9614Z" fill="#FF6000"/>
</g>
</g>
</g>
</g>
</g>
<g id="Bottle">
<g id="Group_56">
<g id="Group_57">
<path id="Vector_114" d="M36.0062 91.5628C36.0062 89.9501 34.5381 88.6426 32.7271 88.6426C30.916 88.6426 29.4479 89.9501 29.4479 91.5628C29.4479 92.2273 29.6978 92.8386 30.118 93.3284C30.4899 93.7621 30.3541 94.4314 29.8523 94.705C29.6031 94.8408 29.4479 95.102 29.4479 95.3859V101.897C29.4479 102.261 29.7431 102.556 30.1069 102.556H35.3472C35.7113 102.556 36.0062 102.261 36.0062 101.897V95.3859C36.0062 95.102 35.851 94.8408 35.6018 94.705C35.1002 94.4314 34.9642 93.7621 35.3361 93.3284C35.7565 92.8383 36.0062 92.227 36.0062 91.5628Z" fill="#FF6000"/>
<path id="Vector_115" opacity="0.2" d="M36.0062 91.5628C36.0062 89.9501 34.5381 88.6426 32.7271 88.6426C30.916 88.6426 29.4479 89.9501 29.4479 91.5628C29.4479 92.2273 29.6978 92.8386 30.118 93.3284C30.4899 93.7621 30.3541 94.4314 29.8523 94.705C29.6031 94.8408 29.4479 95.102 29.4479 95.3859V101.897C29.4479 102.261 29.7431 102.556 30.1069 102.556H35.3472C35.7113 102.556 36.0062 102.261 36.0062 101.897V95.3859C36.0062 95.102 35.851 94.8408 35.6018 94.705C35.1002 94.4314 34.9642 93.7621 35.3361 93.3284C35.7565 92.8383 36.0062 92.227 36.0062 91.5628Z" fill="white"/>
</g>
<g id="Group_58">
<path id="Vector_116" d="M34.0982 89.2038H31.3558C31.0468 89.2038 30.7939 88.9509 30.7939 88.6419C30.7939 88.333 31.0468 88.0801 31.3558 88.0801H34.0982C34.4072 88.0801 34.6601 88.333 34.6601 88.6419C34.6601 88.9509 34.4072 89.2038 34.0982 89.2038Z" fill="#263238"/>
<path id="Vector_117" d="M33.2641 88.6422H32.1903C31.9957 88.6422 31.8365 88.483 31.8365 88.2884V87.3391C31.8365 87.1445 31.9957 86.9854 32.1903 86.9854H33.2641C33.4587 86.9854 33.6178 87.1445 33.6178 87.3391V88.2884C33.6178 88.483 33.4587 88.6422 33.2641 88.6422Z" fill="#263238"/>
</g>
</g>
</g>
</g>
</svg>
