<svg width="148" height="175" viewBox="0 0 148 175" fill="none" xmlns="http://www.w3.org/2000/svg">
<g id="content-right">
<g id="Rectangle 1005" filter="url(#filter0_d_1_4686)">
<rect x="4" y="4" width="136" height="163" rx="15" fill="#FF8033"/>
</g>
<g id="Vector">
<path id="Vector_2" d="M77.1623 72.0131C77.077 73.7654 76.8578 75.795 76.5413 78.0389C75.969 81.9974 75.0923 86.5105 74.106 90.8975C71.9386 100.957 69.3572 110.236 69.3572 110.236C69.1363 116.162 68.4809 122.062 67.3968 127.885C67.2872 128.528 67.1776 129.145 67.0559 129.776C66.6906 131.805 66.301 133.759 65.9357 135.562C64.5841 141.966 63.3543 146.593 63.3543 146.593L57.4244 145.534C57.1443 142.054 57.0348 138.726 57.0469 135.612C57.0469 133.671 57.0469 131.83 57.1687 130.04C57.1687 129.107 57.2661 128.2 57.327 127.33C58.021 116.715 59.7623 109.681 59.7623 108.282C59.7623 101.184 60.2128 94.9946 60.7607 89.7125C62.2949 75.1521 65.0103 67.563 65.0103 67.563C68.8458 58.436 74.593 59.0663 76.4926 65.7855C77.0417 67.8098 77.2679 69.9133 77.1623 72.0131Z" fill="#FFEDE5"/>
<path id="Vector_3" d="M96.0232 137.553C96.0232 140.075 95.8771 142.735 95.6579 145.483L89.728 146.655C89.728 146.655 88.6809 142.684 87.451 136.986C87.0005 134.893 86.5256 132.574 86.0751 130.128C85.9533 129.435 85.8194 128.716 85.6976 128.01C84.6072 122.145 83.9477 116.203 83.7251 110.235C83.7251 110.235 81.1193 100.869 78.9276 90.7584C77.9778 86.4218 77.1011 81.9339 76.4923 78.0134C76.1636 75.782 75.9566 73.7272 75.8713 71.9875C75.7411 69.8653 75.9509 67.7355 76.4923 65.6843C78.4162 58.9651 84.1512 58.3474 87.9868 67.4618C87.9868 67.4618 90.6899 75.0256 92.212 89.4978C92.8544 95.7036 93.1917 101.939 93.2226 108.18C93.2226 109.58 94.976 116.476 95.6579 126.939C95.6579 127.821 95.7675 128.716 95.8162 129.637C96.011 132.145 96.0597 134.767 96.0232 137.553Z" fill="#FFEDE5"/>
<path id="Vector_4" d="M95.7433 126.989C92.4103 127.512 89.0531 127.853 85.6856 128.01C84.5992 122.145 83.9439 116.203 83.7252 110.235C83.7252 110.235 81.1195 100.869 78.9277 90.7585C77.978 86.4219 77.1013 81.934 76.4925 78.0134C75.9202 81.9718 75.0435 86.4849 74.0572 90.872C71.9385 100.957 69.3571 110.235 69.3571 110.235C69.1362 116.161 68.4809 122.061 67.3967 127.884C63.7438 127.708 60.2492 127.468 57.3269 127.216C58.021 116.602 59.7622 109.567 59.7622 108.168C59.7622 101.071 60.2127 94.8808 60.7606 89.5987C62.2949 75.0383 65.0102 67.4493 65.0102 67.4493C68.8457 58.3222 74.593 58.9525 76.4925 65.6718C77.9536 60.5409 81.6431 58.9651 85.0159 62.5706C86.2748 64.0039 87.2804 65.6553 87.9869 67.4493C88.7444 69.7669 89.3705 72.1283 89.8621 74.5214C90.9358 79.4793 91.7367 84.4964 92.2608 89.5483C92.9033 95.7541 93.2406 101.99 93.2715 108.231C93.2837 109.63 95.0249 116.539 95.7433 126.989Z" fill="#AB8DA8"/>
<path id="Vector_5" d="M89.9107 74.5851C86.5744 70.8158 71.9506 69.8955 71.9506 69.8955L85.0645 62.6973C86.3234 64.1306 87.329 65.782 88.0355 67.5759C88.7907 69.8729 89.4168 72.2132 89.9107 74.5851Z" fill="#826B80"/>
<path id="Vector_6" d="M64.1333 152.845C64.1401 152.908 64.1401 152.971 64.1333 153.034C63.9385 155.871 61.6981 155.442 58.3861 155.556C55.7438 155.556 54.3314 154.03 54.4897 152.379C54.5416 151.879 54.7178 151.401 55.0011 150.992C55.7551 149.772 56.3066 148.43 56.6327 147.021C56.776 146.383 57.1237 145.815 57.619 145.407C59.7011 143.668 61.6981 145.004 62.6965 145.962C63.1428 146.375 63.4535 146.921 63.5854 147.525C63.9607 149.272 64.1445 151.056 64.1333 152.845Z" fill="#3B2645"/>
<path id="Vector_7" d="M94.7326 155.493C91.3354 155.493 89.0219 155.896 88.961 152.845V152.58C88.9545 150.909 89.1343 149.242 89.4967 147.614C89.6368 146.922 89.9866 146.295 90.4952 145.823C91.0672 145.143 91.8551 144.697 92.717 144.565C93.5788 144.433 94.4578 144.625 95.1953 145.105C95.853 145.576 96.321 146.28 96.5103 147.084C96.8398 148.428 97.383 149.706 98.1176 150.866C98.2767 151.103 98.4037 151.362 98.4951 151.635C99.0795 153.551 97.7036 155.543 94.7326 155.493Z" fill="#3B2645"/>
<path id="Vector_8" d="M82.6535 23.2513C82.9783 22.8589 83.1856 22.377 83.2501 21.8646C83.2846 21.0497 83.428 20.2436 83.6763 19.4694C83.8956 19.1267 84.0754 18.7586 84.2121 18.3726C84.257 18.1673 84.2516 17.9536 84.1963 17.751C84.141 17.5485 84.0376 17.3634 83.8955 17.2129C83.6885 16.9985 83.3962 16.8473 83.2988 16.5573C83.2742 16.3733 83.2742 16.1867 83.2988 16.0026C83.2612 15.73 83.1578 15.4716 82.9982 15.2512C82.8386 15.0309 82.6279 14.8558 82.3856 14.742C81.8892 14.4911 81.36 14.317 80.8149 14.2251C80.2786 14.1561 79.7656 13.9574 79.3172 13.6452C79.1328 13.4671 78.933 13.3068 78.7205 13.1662C78.3169 12.9871 77.8672 12.9516 77.442 13.0654C76.6345 13.2103 75.8459 13.4514 75.092 13.7839C74.82 13.9317 74.5288 14.0378 74.2275 14.0991C73.7769 14.0991 73.3021 14.0108 72.8515 14.0991C72.514 14.2105 72.2041 14.3968 71.9433 14.6451C71.6826 14.8933 71.4772 15.1974 71.3417 15.5362C71.2597 15.7316 71.1346 15.9043 70.9764 16.0405C70.7773 16.1454 70.5637 16.2177 70.3432 16.2548C70.0645 16.3682 69.8168 16.5503 69.6215 16.7854C69.4263 17.0205 69.2895 17.3014 69.223 17.6037C69.1078 18.2283 69.1078 18.8699 69.223 19.4946C69.2451 20.1122 69.3102 20.7273 69.4178 21.3351C70.6354 26.3777 70.9885 24.9784 70.9885 24.9784L74.6415 24.5876C76.2974 24.3985 77.9412 24.1968 79.5851 23.9573C80.2426 23.8564 80.9001 23.7178 81.5576 23.6043C81.9524 23.6303 82.3426 23.5046 82.6535 23.2513Z" fill="#3B2645"/>
<path id="Vector_9" d="M70.6479 22.7849C70.527 22.613 70.3686 22.4731 70.1855 22.3767C70.0025 22.2802 69.8 22.23 69.5946 22.23C69.3892 22.23 69.1868 22.2802 69.0037 22.3767C68.8207 22.4731 68.6623 22.613 68.5414 22.7849C67.5307 24.1338 69.3937 26.5668 70.7696 26.6424C70.804 25.3552 70.7634 24.067 70.6479 22.7849Z" fill="#E0855C"/>
<path id="Vector_10" d="M90.7266 37.3452C89.3984 40.9053 88.3279 44.5628 87.5242 48.2875C87.4268 48.7666 87.3538 49.233 87.2685 49.6868C87.1833 50.1407 87.1468 50.481 87.0981 50.8466C87.0494 51.2122 87.0981 51.3635 87.0007 51.7165C86.6232 55.4984 85.917 65.9995 85.783 67.7896C85.783 67.9661 85.783 68.0544 85.783 68.0544C76.322 71.0673 66.3009 68.6721 66.3009 68.6721L66.2278 68.1174C66.0086 66.3777 63.963 47.7707 63.8899 47.0269C63.4638 42.602 63.1594 38.5302 63.135 35.9963C63.135 35.6181 63.4516 35.4038 63.9265 35.2651C64.6936 35.0382 65.7773 35.0004 66.6296 34.8491C68.2169 34.5744 69.8192 34.4018 71.4271 34.3322H71.8167C71.8979 34.3272 71.9792 34.3272 72.0603 34.3322H72.3525L72.6569 29.2897H73.1318C73.442 29.3394 73.7554 29.3647 74.0694 29.3653C74.4437 29.3708 74.818 29.3498 75.1896 29.3023L75.7132 29.2392C75.9689 29.2392 76.2002 29.151 76.4316 29.088C76.8049 28.9988 77.1712 28.8808 77.5275 28.735C77.637 28.7105 77.7433 28.6724 77.844 28.6215H77.9414L78.185 28.5081C78.6319 28.3071 79.0634 28.0711 79.4757 27.8021L80.048 27.3987L80.1454 27.3105C80.2229 27.2578 80.2962 27.1988 80.3645 27.134L80.4985 27.0205C80.4985 27.2096 80.4985 27.2852 80.4985 27.3609C80.3922 28.3404 80.3353 29.3251 80.328 30.3108C80.328 31.0293 80.328 31.7479 80.328 32.3782C80.328 33.4498 80.328 34.2314 80.328 34.2314H81.0099C81.0223 34.2221 81.0372 34.2172 81.0525 34.2172C81.0678 34.2172 81.0827 34.2221 81.0951 34.2314C82.0823 34.2452 83.0671 34.3337 84.0418 34.4961C85.8938 34.748 87.7144 35.2044 89.4724 35.8576C89.7403 35.9711 89.9351 36.0719 90.1056 36.1602C90.2761 36.2484 90.8118 37.1182 90.7266 37.3452Z" fill="#FFEDE5"/>
<path id="Vector_11" d="M80.5472 27.0332C80.4091 27.9407 80.0783 28.8051 79.5788 29.5644C79.0793 30.3236 78.4234 30.9588 77.6583 31.4241C76.8933 31.8895 76.0381 32.1735 75.1544 32.2556C74.2706 32.3378 73.3802 32.2161 72.5474 31.8993L72.7057 29.2898C74.0926 29.5154 75.5101 29.4308 76.8627 29.0415C78.2154 28.6523 79.4717 27.9675 80.5472 27.0332Z" fill="#E0855C"/>
<path id="Vector_12" d="M70.7816 18.9903C70.0997 19.7719 70.0875 21.5116 70.0875 23.3395C70.0875 28.9998 71.7679 30.7142 74.5684 30.9033C77.369 31.0924 80.267 29.92 80.6566 24.6001C80.8879 21.9654 81.1315 19.5576 80.1817 18.423C78.8058 16.8724 72.8516 16.6077 70.7816 18.9903Z" fill="#FFEDE5"/>
<path id="Vector_13" d="M80.3035 23.9449C80.3035 23.9449 81.0828 21.5749 82.4709 22.7725C83.859 23.9702 82.0934 27.5756 80.0356 27.3739C80.0234 27.3739 79.6703 24.7644 80.3035 23.9449Z" fill="#FFEDE5"/>
<path id="Vector_14" d="M81.8744 23.8566C81.5611 23.9716 81.2835 24.172 81.0708 24.4365C80.8223 24.6639 80.6231 24.9431 80.4863 25.2559C80.4863 25.3441 80.5837 25.3946 80.6446 25.3441C80.7055 25.2937 80.949 24.9533 81.1073 24.7769C81.2155 24.91 81.3535 25.0138 81.5091 25.0794C81.5367 25.0921 81.5675 25.0948 81.5967 25.0871C81.6259 25.0794 81.6517 25.0617 81.67 25.037C81.6883 25.0122 81.698 24.9817 81.6976 24.9506C81.6971 24.9194 81.6865 24.8893 81.6674 24.8651C81.5827 24.7353 81.4702 24.6275 81.3387 24.5499C81.5626 24.3906 81.7743 24.2136 81.9718 24.0205C81.9854 24.0043 81.9937 23.984 81.9954 23.9626C81.997 23.9412 81.9921 23.9198 81.9812 23.9015C81.9704 23.8832 81.9541 23.869 81.9349 23.8609C81.9157 23.8529 81.8945 23.8513 81.8744 23.8566Z" fill="#E0855C"/>
<path id="Vector_15" d="M72.4866 23.1255C72.4866 23.1255 72.0239 23.3146 72.0604 22.4574C72.0969 21.6001 72.45 21.764 72.45 21.764C72.45 21.764 72.7788 21.764 72.7423 22.4321C72.7057 23.1003 72.4866 23.1255 72.4866 23.1255Z" fill="#3B2645"/>
<path id="Vector_16" d="M77.2718 22.9741C77.2718 22.9741 76.8091 23.1632 76.8578 22.2933C76.9065 21.4235 77.2353 21.6126 77.2353 21.6126C77.2353 21.6126 77.5641 21.6126 77.5397 22.2807C77.5154 22.9489 77.2718 22.9741 77.2718 22.9741Z" fill="#3B2645"/>
<path id="Vector_17" d="M74.7267 25.3693C74.4831 25.3693 73.9352 25.4953 73.8134 25.2306C73.846 24.6276 73.9482 24.0309 74.1178 23.4531C74.3153 22.6763 74.4738 21.8894 74.5927 21.0957C74.5927 21.0957 74.5927 21.0957 74.5075 21.0957C74.0636 22.4985 73.7297 23.9361 73.509 25.3945C73.503 25.4121 73.5012 25.431 73.5039 25.4496C73.5067 25.4681 73.5138 25.4856 73.5246 25.5006C73.5355 25.5155 73.5497 25.5275 73.5661 25.5354C73.5825 25.5433 73.6006 25.5468 73.6186 25.5458C73.9717 25.5458 74.3127 25.5458 74.6658 25.5458C74.7997 25.5836 74.8241 25.3819 74.7267 25.3693Z" fill="#E0855C"/>
<path id="Vector_18" d="M73.4241 20.5156C73.1324 20.4902 72.8391 20.4902 72.5474 20.5156C72.2477 20.4428 71.9419 20.4006 71.6342 20.3896C71.5991 20.3901 71.5649 20.401 71.5357 20.421C71.5064 20.441 71.4833 20.4693 71.4692 20.5025C71.4551 20.5357 71.4505 20.5724 71.456 20.6082C71.4615 20.644 71.4769 20.6775 71.5003 20.7045C71.7833 20.9113 72.1104 21.0445 72.4538 21.0927C72.7971 21.141 73.1467 21.1028 73.4728 20.9816C73.5235 20.9647 73.567 20.9303 73.596 20.8841C73.625 20.8379 73.6377 20.7828 73.632 20.7281C73.6263 20.6733 73.6025 20.6223 73.5646 20.5836C73.5267 20.5449 73.4771 20.5209 73.4241 20.5156Z" fill="#3B2645"/>
<path id="Vector_19" d="M78.5623 19.8479C78.1523 20.0859 77.7016 20.2399 77.2351 20.3013C76.9307 20.3013 76.5654 20.2383 76.3219 20.4524C76.3067 20.4768 76.2986 20.5052 76.2986 20.5343C76.2986 20.5633 76.3067 20.5917 76.3219 20.6161C76.7968 21.334 78.3553 20.4902 78.7571 19.9864C78.7693 19.8982 78.6476 19.8101 78.5623 19.8479Z" fill="#3B2645"/>
<path id="Vector_20" d="M76.5165 26.8444C76.0036 26.7687 75.483 26.7687 74.9701 26.8444C74.617 26.8444 74.1178 26.7813 73.8621 27.084C74.1421 27.3489 74.617 27.2354 74.9701 27.2228C75.4844 27.2733 76.0022 27.2733 76.5165 27.2228C76.5649 27.2228 76.6114 27.2028 76.6457 27.1673C76.6799 27.1319 76.6991 27.0837 76.6991 27.0336C76.6991 26.9834 76.6799 26.9353 76.6457 26.8998C76.6114 26.8643 76.5649 26.8444 76.5165 26.8444Z" fill="#E0855C"/>
<path id="Vector_21" d="M118.209 92.4855H32.7915C32.5816 92.4855 32.3802 92.3992 32.2318 92.2455C32.0834 92.0918 32 91.8834 32 91.6661C32 91.4488 32.0834 91.2403 32.2318 91.0867C32.3802 90.933 32.5816 90.8467 32.7915 90.8467H118.209C118.418 90.8467 118.62 90.933 118.768 91.0867C118.917 91.2403 119 91.4488 119 91.6661C119 91.8834 118.917 92.0918 118.768 92.2455C118.62 92.3992 118.418 92.4855 118.209 92.4855Z" fill="#3B2645"/>
<path id="Vector_22" d="M35.4946 95.8894C35.1362 95.8894 34.7924 95.742 34.5389 95.4795C34.2855 95.2171 34.1431 94.8612 34.1431 94.4901V88.8046C34.1431 88.4335 34.2855 88.0775 34.5389 87.8151C34.7924 87.5527 35.1362 87.4053 35.4946 87.4053C35.8531 87.4053 36.1969 87.5527 36.4503 87.8151C36.7038 88.0775 36.8462 88.4335 36.8462 88.8046V94.4649C36.8511 94.6512 36.8197 94.8366 36.7538 95.0101C36.688 95.1836 36.589 95.3415 36.4628 95.4745C36.3367 95.6075 36.1859 95.7127 36.0196 95.784C35.8532 95.8553 35.6747 95.8912 35.4946 95.8894Z" fill="#3B2645"/>
<path id="Vector_23" d="M38.1978 100.844C37.8393 100.844 37.4955 100.696 37.2421 100.434C36.9886 100.171 36.8462 99.8155 36.8462 99.4443V83.888C36.8782 83.5382 37.0351 83.2133 37.2862 82.9769C37.5372 82.7404 37.8644 82.6094 38.2039 82.6094C38.5433 82.6094 38.8705 82.7404 39.1215 82.9769C39.3726 83.2133 39.5295 83.5382 39.5615 83.888V99.4443C39.5583 99.8166 39.4132 100.172 39.1578 100.435C38.9024 100.697 38.5574 100.844 38.1978 100.844Z" fill="#291B30"/>
<path id="Vector_24" d="M40.913 103.188C40.7351 103.19 40.5586 103.155 40.3939 103.085C40.2292 103.016 40.0795 102.913 39.9537 102.782C39.8279 102.652 39.7284 102.497 39.661 102.327C39.5937 102.156 39.5598 101.973 39.5615 101.789V82.0097C39.5615 81.6385 39.7039 81.2826 39.9573 81.0202C40.2108 80.7578 40.5546 80.6104 40.913 80.6104C41.2715 80.6104 41.6153 80.7578 41.8687 81.0202C42.1222 81.2826 42.2646 81.6385 42.2646 82.0097V101.789C42.2646 102.16 42.1222 102.516 41.8687 102.779C41.6153 103.041 41.2715 103.188 40.913 103.188Z" fill="#3B2645"/>
<path id="Vector_25" d="M114.324 95.8894C114.683 95.8894 115.026 95.742 115.28 95.4795C115.533 95.2171 115.676 94.8612 115.676 94.4901V88.8046C115.676 88.4335 115.533 88.0775 115.28 87.8151C115.026 87.5527 114.683 87.4053 114.324 87.4053C113.966 87.4053 113.622 87.5527 113.368 87.8151C113.115 88.0775 112.973 88.4335 112.973 88.8046V94.4649C112.969 94.6507 113.002 94.8354 113.068 95.0081C113.135 95.1808 113.234 95.338 113.36 95.4707C113.486 95.6033 113.636 95.7086 113.801 95.7805C113.967 95.8524 114.145 95.8894 114.324 95.8894Z" fill="#3B2645"/>
<path id="Vector_26" d="M111.621 100.844C111.98 100.844 112.323 100.696 112.577 100.434C112.83 100.171 112.973 99.8155 112.973 99.4443V83.888C112.941 83.5382 112.784 83.2133 112.533 82.9769C112.282 82.7404 111.955 82.6094 111.615 82.6094C111.276 82.6094 110.948 82.7404 110.697 82.9769C110.446 83.2133 110.289 83.5382 110.257 83.888V99.4443C110.261 99.8166 110.406 100.172 110.661 100.435C110.917 100.697 111.262 100.844 111.621 100.844Z" fill="#291B30"/>
<path id="Vector_27" d="M108.906 103.188C109.084 103.19 109.26 103.155 109.425 103.085C109.59 103.016 109.739 102.913 109.865 102.782C109.991 102.652 110.09 102.497 110.158 102.327C110.225 102.156 110.259 101.973 110.257 101.789V82.0097C110.257 81.6385 110.115 81.2826 109.861 81.0202C109.608 80.7578 109.264 80.6104 108.906 80.6104C108.547 80.6104 108.204 80.7578 107.95 81.0202C107.697 81.2826 107.554 81.6385 107.554 82.0097V101.789C107.554 102.16 107.697 102.516 107.95 102.779C108.204 103.041 108.547 103.188 108.906 103.188Z" fill="#3B2645"/>
<path id="Vector_28" d="M68.4194 45.514C67.9205 47.3145 67.2304 49.0522 66.3616 50.6952C66.0084 51.4516 64.5838 54.6537 64.5229 54.7797C62.3068 59.8097 59.1775 67.2348 58.8975 68.1173C58.2034 70.9663 56.7179 87.5438 56.7057 87.5438C55.1837 89.9138 52.2857 88.8044 52.2857 88.8044C52.2857 88.8044 52.2857 88.3001 52.1518 87.4429C51.823 83.7744 51.0437 73.4624 51.9448 67.3609C52.2005 65.6717 53.1624 61.5746 54.38 56.948C55.3541 53.1661 55.7803 49.5733 56.9371 45.8922C57.9114 42.7249 59.3798 39.744 61.284 37.0677C61.9973 36.2251 62.9325 35.6162 63.975 35.3154C64.4255 35.3154 64.6203 35.9205 64.9978 36.097C66.0703 36.6154 66.9324 37.508 67.4331 38.6183C68.4941 40.7391 68.8412 43.1659 68.4194 45.514Z" fill="#FFEDE5"/>
<path id="Vector_29" d="M51.9936 90.5066C51.9936 89.9519 52.1031 89.3846 52.1153 88.83C52.1153 87.9601 52.1153 87.3928 52.1153 87.3928C52.6361 86.869 53.3007 86.5248 54.0179 86.4075C54.7351 86.2901 55.4699 86.4053 56.1213 86.7373C56.4146 86.9589 56.6841 87.2125 56.925 87.4937C57.412 87.9727 57.9721 88.3509 58.4348 88.8552C58.6756 89.0956 58.8601 89.3898 58.974 89.7154C59.088 90.041 59.1285 90.3893 59.0924 90.7335C58.5152 90.7994 57.9797 91.0766 57.5825 91.5151C57.132 92.095 57.3268 92.6245 57.1076 93.2674C56.8884 93.9104 56.3527 93.9734 55.89 94.049C54.3314 94.2885 52.1031 94.3642 51.9692 92.2841C51.9352 91.6918 51.9433 91.0977 51.9936 90.5066Z" fill="#FFEDE5"/>
<path id="Vector_30" d="M100.735 87.355C100.662 88.2122 100.601 88.7165 100.601 88.7165C100.601 88.7165 97.7034 89.8636 96.1692 87.4558C96.1692 87.4558 94.6837 70.9288 93.9409 68.0798C93.8191 67.6007 92.8694 65.2686 91.6761 62.4447C90.4828 59.6209 86.6473 50.9855 86.5255 50.6956C85.6516 49.0551 84.9612 47.3168 84.4677 45.5143C84.0056 43.1354 84.3361 40.6645 85.4053 38.5052C85.9127 37.3997 86.7728 36.5093 87.8406 35.9839C88.2174 35.788 88.637 35.6967 89.0582 35.7191C89.1915 35.7187 89.3237 35.7444 89.4478 35.7948C89.6734 35.8594 89.8872 35.9616 90.081 36.0973C90.3791 36.3129 90.6564 36.5578 90.909 36.8285C93.092 39.2366 94.7051 42.1366 95.6212 45.3C96.8389 49.0819 97.5573 53.1538 98.4827 56.7971C99.7003 61.4236 100.65 65.5207 100.918 67.2099C101.843 73.3745 101.052 83.6865 100.735 87.355Z" fill="#FFEDE5"/>
<path id="Vector_31" d="M100.845 90.5194C100.845 89.8891 100.772 89.2588 100.76 88.8301C100.76 87.9603 100.76 87.393 100.76 87.393C100.242 86.8686 99.5793 86.5239 98.8638 86.4064C98.1483 86.289 97.4152 86.4047 96.766 86.7375C96.4715 86.9622 96.1983 87.2154 95.9502 87.4939C95.4753 87.9729 94.903 88.3511 94.4525 88.8554C94.2095 89.094 94.0235 89.388 93.9094 89.7141C93.7952 90.0401 93.7561 90.3893 93.795 90.7337C94.3532 90.8861 94.8988 91.0842 95.4266 91.3262C95.8772 91.8053 95.5362 92.2339 95.5362 92.7886C95.5362 93.5576 96.0476 93.8223 96.7538 93.9484L98.1176 94.2005C98.8409 94.3804 99.601 94.3141 100.285 94.0114C100.383 93.9531 100.47 93.8761 100.541 93.7845C100.599 93.6921 100.64 93.5896 100.662 93.4819C100.895 92.5139 100.957 91.5102 100.845 90.5194Z" fill="#FFEDE5"/>
<path id="Vector_32" d="M87.524 48.2874L88.2059 68.0165C76.9549 72.5674 64.7908 68.319 64.7908 68.319L64.5229 49.4094L64.1576 49.296C63.6097 49.1195 63.0252 48.9304 62.4285 48.6782C62.0876 48.5396 61.7345 48.4009 61.3814 48.2244C59.8576 47.5038 58.3738 46.6957 56.937 45.804C57.9114 42.6367 59.3798 39.6558 61.284 36.9795C62.0005 36.1408 62.9344 35.5326 63.9749 35.2272C64.742 35.0129 65.8257 34.9625 66.6781 34.8112C68.2654 34.5365 69.8676 34.3639 71.4756 34.2943L75.8956 45.6401C77.7882 41.942 79.4516 38.1229 80.8757 34.2061H80.9975C81.0099 34.1969 81.0248 34.1919 81.0401 34.1919C81.0554 34.1919 81.0703 34.1969 81.0827 34.2061C82.0699 34.2199 83.0547 34.3084 84.0294 34.4708C85.8861 34.7317 87.7106 35.1965 89.4722 35.8575C89.6977 35.9221 89.9116 36.0243 90.1054 36.1601C90.4035 36.3757 90.6807 36.6205 90.9334 36.8913C93.1164 39.2993 94.7295 42.1993 95.6456 45.3628C94.1805 46.0583 92.6807 46.6727 91.1525 47.2033C89.1313 47.8588 87.524 48.2874 87.524 48.2874Z" fill="#3B2645"/>
<path id="Vector_33" d="M64.523 42.8921V49.4096L64.1578 49.2961C63.6098 49.1197 63.0254 48.9306 62.4287 48.6784C63.2224 46.7882 63.9214 44.8569 64.523 42.8921Z" fill="#27192E"/>
<path id="Vector_34" d="M61.4181 148.495C60.4562 147.941 58.6541 147.513 57.7652 148.281C57.7481 148.312 57.7391 148.347 57.7391 148.382C57.7391 148.417 57.7481 148.452 57.7652 148.483V148.558C57.7652 148.659 57.8992 148.684 57.9722 148.646C58.0453 148.609 57.9722 148.646 58.0575 148.646C58.2657 148.509 58.505 148.431 58.7515 148.42C59.0665 148.405 59.3819 148.434 59.6891 148.508C60.26 148.682 60.8483 148.787 61.4425 148.823C61.4845 148.819 61.5235 148.799 61.5509 148.766C61.5783 148.733 61.5918 148.69 61.5886 148.646C61.5854 148.603 61.5656 148.563 61.5336 148.534C61.5017 148.506 61.4601 148.492 61.4181 148.495Z" fill="#27192E"/>
<path id="Vector_35" d="M62.0391 150.274C61.4949 149.817 60.8157 149.568 60.1152 149.568C59.4216 149.396 58.6922 149.471 58.0452 149.782C57.96 149.858 57.9113 150.047 58.0452 150.11C58.6135 150.261 59.2002 150.325 59.7864 150.299C60.4862 150.499 61.2046 150.622 61.9295 150.664C61.9697 150.657 62.0072 150.638 62.0376 150.61C62.068 150.582 62.0902 150.545 62.1016 150.504C62.113 150.464 62.1132 150.421 62.1021 150.38C62.0911 150.339 62.0692 150.302 62.0391 150.274Z" fill="#27192E"/>
<path id="Vector_36" d="M94.8176 147.815C94.1636 147.443 93.4151 147.286 92.6727 147.368C91.9304 147.449 91.2299 147.763 90.6655 148.269C90.5437 148.433 90.6655 148.748 90.8481 148.723C91.4691 148.723 92.0658 148.345 92.6746 148.282C93.2834 148.219 93.9531 148.458 94.5863 148.383C94.8298 148.357 95.049 148.055 94.8176 147.815Z" fill="#27192E"/>
<path id="Vector_37" d="M95.3293 149.467C94.532 149.27 93.7072 149.223 92.894 149.328C92.6069 149.289 92.3151 149.314 92.0381 149.401C91.761 149.488 91.5049 149.635 91.2867 149.832C91.1162 150.059 91.2867 150.488 91.5911 150.374C92.8088 149.933 94.1847 150.588 95.3901 150.135C95.4561 150.105 95.5113 150.054 95.5479 149.99C95.5845 149.926 95.6006 149.852 95.5938 149.778C95.587 149.704 95.5578 149.634 95.5103 149.578C95.4628 149.522 95.3994 149.483 95.3293 149.467Z" fill="#27192E"/>
<path id="Vector_38" d="M53.3086 26.1007C49.2051 26.8823 44.9434 26.2268 40.9496 27.8152C40.6817 27.9287 40.6939 28.3951 41.0226 28.3699C43.4579 28.2312 45.8323 27.727 48.2554 27.5757C50.0088 27.4622 52.0666 27.853 53.6617 26.958C54.1244 26.6806 53.7835 26.0125 53.3086 26.1007Z" fill="#F7F8F8"/>
<path id="Vector_39" d="M54.794 20.1884C52.7931 19.121 50.7268 18.1904 48.6084 17.4024C48.2431 17.2763 48.0361 17.8436 48.3527 18.0453C50.2651 19.1865 52.2412 20.2094 54.2704 21.1086C54.8671 21.3734 55.4028 20.4909 54.794 20.1884Z" fill="#F7F8F8"/>
</g>
</g>
<defs>
<filter id="filter0_d_1_4686" x="0" y="0" width="148" height="175" filterUnits="userSpaceOnUse" color-interpolation-filters="sRGB">
<feFlood flood-opacity="0" result="BackgroundImageFix"/>
<feColorMatrix in="SourceAlpha" type="matrix" values="0 0 0 0 0 0 0 0 0 0 0 0 0 0 0 0 0 0 127 0" result="hardAlpha"/>
<feMorphology radius="2" operator="dilate" in="SourceAlpha" result="effect1_dropShadow_1_4686"/>
<feOffset dx="2" dy="2"/>
<feGaussianBlur stdDeviation="2"/>
<feComposite in2="hardAlpha" operator="out"/>
<feColorMatrix type="matrix" values="0 0 0 0 0.501961 0 0 0 0 0.501961 0 0 0 0 0.501961 0 0 0 0.25 0"/>
<feBlend mode="normal" in2="BackgroundImageFix" result="effect1_dropShadow_1_4686"/>
<feBlend mode="normal" in="SourceGraphic" in2="effect1_dropShadow_1_4686" result="shape"/>
</filter>
</defs>
</svg>
