<svg width="145" height="145" viewBox="0 0 145 145" fill="none" xmlns="http://www.w3.org/2000/svg">
<g id="12463942_4944394 1">
<g id="Background_Simple">
<g id="Group">
<path id="Vector" d="M122 38.0469C114.796 27.3761 104.087 18.0598 91.5664 13.9963C87.2494 12.5951 82.7956 11.6297 78.3 11.0201C44.0803 6.38008 24.6503 26.9698 19.43 40.6004C16.4442 48.3979 19.2818 57.1046 21.5322 64.6962C23.5254 71.4201 28.3884 81.6496 25.81 88.7401C22.33 98.3101 17.4 111.65 32.19 118.32C46.98 124.99 59.207 129.416 82.94 120.93C106.673 112.444 120.28 103.912 127.291 91.3678C136.746 74.4547 132.754 53.9766 122 38.0469Z" fill="#FF8033"/>
<path id="Vector_2" opacity="0.7" d="M122 38.0469C114.796 27.3761 104.087 18.0598 91.5664 13.9963C87.2494 12.5951 82.7956 11.6297 78.3 11.0201C44.0803 6.38008 24.6503 26.9698 19.43 40.6004C16.4442 48.3979 19.2818 57.1046 21.5322 64.6962C23.5254 71.4201 28.3884 81.6496 25.81 88.7401C22.33 98.3101 17.4 111.65 32.19 118.32C46.98 124.99 59.207 129.416 82.94 120.93C106.673 112.444 120.28 103.912 127.291 91.3678C136.746 74.4547 132.754 53.9766 122 38.0469Z" fill="white"/>
</g>
</g>
<g id="Picture">
<g id="Group_2">
<path id="Vector_3" d="M95.41 24.0342V13.6299H110.543" stroke="#263238" stroke-miterlimit="10"/>
<path id="Vector_4" d="M111.657 13.6299H118.03V39.4399H95.41V25.6124" stroke="#263238" stroke-miterlimit="10"/>
<path id="Vector_5" d="M109.801 35.9599H98.46V17.1099H114.98V35.9599H111.1" stroke="#263238" stroke-miterlimit="10"/>
<path id="Vector_6" d="M109.897 22.9097H103.543V30.1597H109.897V22.9097Z" stroke="#263238" stroke-miterlimit="10"/>
</g>
</g>
<g id="Furniture">
<g id="Group_3">
<g id="Group_4">
<path id="Vector_7" d="M24.351 82.4775H23.5201V84.719H24.351V82.4775Z" stroke="#263238" stroke-miterlimit="10"/>
<path id="Vector_8" d="M75.0981 82.4775H74.2672V84.719H75.0981V82.4775Z" stroke="#263238" stroke-miterlimit="10"/>
<path id="Vector_9" d="M77.3911 50.3467H21.9216V82.4253H77.3911V50.3467Z" stroke="#263238" stroke-miterlimit="10"/>
<path id="Vector_10" d="M75.0798 51.6836H24.2329V81.089H75.0798V51.6836Z" stroke="#263238" stroke-miterlimit="10"/>
</g>
<g id="Group_5">
<path id="Vector_11" d="M83.9892 86.7539H13.5413V129.488H83.9892V86.7539Z" stroke="#263238" stroke-miterlimit="10"/>
<path id="Vector_12" d="M86.3017 84.7427H11.2288V86.7477H86.3017V84.7427Z" stroke="#263238" stroke-miterlimit="10"/>
<g id="Group_6">
<path id="Vector_13" d="M48.2968 88.3281H15.327V99.9122H48.2968V88.3281Z" stroke="#263238" stroke-miterlimit="10"/>
<path id="Vector_14" d="M82.3806 88.3281H49.4108V99.9122H82.3806V88.3281Z" stroke="#263238" stroke-miterlimit="10"/>
<path id="Vector_15" d="M34.4853 92.5605H28.4705V93.8972H34.4853V92.5605Z" stroke="#263238" stroke-miterlimit="10"/>
<path id="Vector_16" d="M68.877 92.5605H62.8624V93.8972H68.877V92.5605Z" stroke="#263238" stroke-miterlimit="10"/>
</g>
<g id="Group_7">
<path id="Vector_17" d="M48.2968 102.362H15.327V113.946H48.2968V102.362Z" stroke="#263238" stroke-miterlimit="10"/>
<path id="Vector_18" d="M82.3806 102.362H49.4108V113.946H82.3806V102.362Z" stroke="#263238" stroke-miterlimit="10"/>
<path id="Vector_19" d="M34.4853 106.595H28.4705V107.932H34.4853V106.595Z" stroke="#263238" stroke-miterlimit="10"/>
<path id="Vector_20" d="M68.877 106.595H62.8624V107.932H68.877V106.595Z" stroke="#263238" stroke-miterlimit="10"/>
</g>
<g id="Group_8">
<path id="Vector_21" d="M48.2968 116.397H15.327V127.981H48.2968V116.397Z" stroke="#263238" stroke-miterlimit="10"/>
<path id="Vector_22" d="M82.3806 116.397H49.4108V127.981H82.3806V116.397Z" stroke="#263238" stroke-miterlimit="10"/>
<path id="Vector_23" d="M34.4853 120.629H28.4705V121.966H34.4853V120.629Z" stroke="#263238" stroke-miterlimit="10"/>
<path id="Vector_24" d="M68.877 120.629H62.8624V121.966H68.877V120.629Z" stroke="#263238" stroke-miterlimit="10"/>
</g>
</g>
</g>
</g>
<g id="Plants">
<g id="Group_9">
<path id="Vector_25" d="M127.342 78.1663C127.342 78.1663 123.503 76.0339 123.219 80.8673C122.935 85.7011 122.224 117.119 122.224 117.119" stroke="#263238" stroke-width="2" stroke-miterlimit="10" stroke-linecap="round" stroke-linejoin="round"/>
<path id="Vector_26" d="M121.225 81.293C121.225 81.293 124.356 88.2596 122.934 116.692" stroke="#263238" stroke-width="2" stroke-miterlimit="10" stroke-linecap="round" stroke-linejoin="round"/>
<g id="Group_10">
<path id="Vector_27" d="M124.301 79.1391C124.301 79.1391 122.833 80.0799 121.998 79.0031C121.162 77.9263 122.563 75.954 121.328 75.1107C120.094 74.2674 117.963 75.5544 117.963 75.5544C117.963 75.5544 119.604 76.0364 119.551 76.9325C119.498 77.8283 118.708 78.167 118.602 77.7755C118.497 77.384 117.714 75.4114 116.381 76.2318C115.049 77.0523 114.845 78.3245 114.845 78.3245C114.845 78.3245 117.947 77.9939 118.135 79.1608C118.323 80.3278 116.863 78.9573 115.583 78.8819C114.303 78.8065 113.136 78.9944 113.219 79.7698C113.302 80.5453 113.098 81.8175 113.098 81.8175C113.098 81.8175 114.182 80.8542 115.59 80.9371C116.998 81.02 116.945 81.9161 115.665 81.8405C114.386 81.7651 113.286 82.9845 113.286 82.9845C113.286 82.9845 114.453 84.9797 115.936 85.9663C117.419 86.9529 117.953 86.5991 118.127 85.8387C118.3 85.0783 117.901 83.1283 118.797 83.1811C119.693 83.2339 117.313 86.5614 118.458 86.7571C119.602 86.9529 120.521 86.622 120.822 85.8691C121.123 85.1163 121.123 85.1163 121.123 85.1163C121.123 85.1163 120.724 83.1663 120.898 82.4059C121.071 81.6456 121.282 82.4286 121.485 83.3397C121.688 84.2506 121.816 86.4416 122.207 86.3363C122.599 86.2311 123.849 84.6352 124.142 84.0102C124.436 83.3853 122.494 81.4727 122.517 81.0888C122.539 80.7048 124.037 81.4353 124.271 81.8344C124.504 82.2334 124.73 82.7606 124.73 82.7606C124.73 82.7606 125.664 82.1734 125.641 80.3742C125.619 78.5748 124.301 79.1391 124.301 79.1391Z" fill="#FF6000"/>
<path id="Vector_28" opacity="0.3" d="M124.301 79.1391C124.301 79.1391 122.833 80.0799 121.998 79.0031C121.162 77.9263 122.563 75.954 121.328 75.1107C120.094 74.2674 117.963 75.5544 117.963 75.5544C117.963 75.5544 119.604 76.0364 119.551 76.9325C119.498 77.8283 118.708 78.167 118.602 77.7755C118.497 77.384 117.714 75.4114 116.381 76.2318C115.049 77.0523 114.845 78.3245 114.845 78.3245C114.845 78.3245 117.947 77.9939 118.135 79.1608C118.323 80.3278 116.863 78.9573 115.583 78.8819C114.303 78.8065 113.136 78.9944 113.219 79.7698C113.302 80.5453 113.098 81.8175 113.098 81.8175C113.098 81.8175 114.182 80.8542 115.59 80.9371C116.998 81.02 116.945 81.9161 115.665 81.8405C114.386 81.7651 113.286 82.9845 113.286 82.9845C113.286 82.9845 114.453 84.9797 115.936 85.9663C117.419 86.9529 117.953 86.5991 118.127 85.8387C118.3 85.0783 117.901 83.1283 118.797 83.1811C119.693 83.2339 117.313 86.5614 118.458 86.7571C119.602 86.9529 120.521 86.622 120.822 85.8691C121.123 85.1163 121.123 85.1163 121.123 85.1163C121.123 85.1163 120.724 83.1663 120.898 82.4059C121.071 81.6456 121.282 82.4286 121.485 83.3397C121.688 84.2506 121.816 86.4416 122.207 86.3363C122.599 86.2311 123.849 84.6352 124.142 84.0102C124.436 83.3853 122.494 81.4727 122.517 81.0888C122.539 80.7048 124.037 81.4353 124.271 81.8344C124.504 82.2334 124.73 82.7606 124.73 82.7606C124.73 82.7606 125.664 82.1734 125.641 80.3742C125.619 78.5748 124.301 79.1391 124.301 79.1391Z" fill="#263238"/>
<path id="Vector_29" d="M116.858 83.3582C117.815 82.1744 119.226 80.573 120.409 79.8086" stroke="#263238" stroke-miterlimit="10" stroke-linecap="round" stroke-linejoin="round"/>
<path id="Vector_30" d="M115.748 84.7989C115.748 84.7989 115.994 84.457 116.392 83.9448" stroke="#263238" stroke-miterlimit="10" stroke-linecap="round" stroke-linejoin="round"/>
<path id="Vector_31" d="M121.034 80.1021C121.034 80.1021 122.456 82.1123 122.719 84.1829" stroke="#263238" stroke-miterlimit="10" stroke-linecap="round" stroke-linejoin="round"/>
<path id="Vector_32" d="M119.422 81.2917C119.422 81.2917 119.821 81.0582 119.67 83.6181" stroke="#263238" stroke-miterlimit="10" stroke-linecap="round" stroke-linejoin="round"/>
<path id="Vector_33" d="M120.462 78.9127C120.462 78.9127 121.275 78.1901 120.846 76.752" stroke="#263238" stroke-miterlimit="10" stroke-linecap="round" stroke-linejoin="round"/>
<path id="Vector_34" d="M119.362 80.132L118.783 79.0703" stroke="#263238" stroke-miterlimit="10" stroke-linecap="round" stroke-linejoin="round"/>
<path id="Vector_35" d="M118.143 81.2159C118.143 81.2159 116.298 79.8227 115.146 79.7549" stroke="#263238" stroke-miterlimit="10" stroke-linecap="round" stroke-linejoin="round"/>
</g>
<g id="Group_11">
<path id="Vector_36" d="M129.535 75.3459C129.535 75.3459 129.476 77.4571 127.828 77.5597C126.181 77.6624 125.161 74.9155 123.475 75.5767C121.789 76.2379 121.625 79.2484 121.625 79.2484C121.625 79.2484 123.226 77.9338 124.087 78.5973C124.948 79.2609 124.748 80.2834 124.285 80.1219C123.821 79.9603 121.313 79.3995 121.226 81.2929C121.139 83.1863 122.274 84.2573 122.274 84.2573C122.274 84.2573 124.057 80.9263 125.353 81.5336C126.65 82.1408 124.282 82.6686 123.334 83.8985C122.386 85.1284 121.779 86.425 122.612 86.8707C123.445 87.3165 124.58 88.3874 124.58 88.3874C124.58 88.3874 124.354 86.6451 125.397 85.2923C126.44 83.9394 127.301 84.6029 126.353 85.8328C125.405 87.0627 125.877 88.9947 125.877 88.9947C125.877 88.9947 128.669 89.1867 130.668 88.3744C132.666 87.5621 132.677 86.7858 132.034 86.0938C131.39 85.4022 129.166 84.4722 129.83 83.6111C130.493 82.7501 132.203 87.4006 133.179 86.3885C134.155 85.3764 134.45 84.2309 133.901 83.4163C133.353 82.6017 133.353 82.6014 133.353 82.6014C133.353 82.6014 131.129 81.6713 130.486 80.9797C129.842 80.288 130.77 80.6108 131.82 81.0284C132.871 81.446 135.151 82.8116 135.313 82.3479C135.474 81.8842 134.729 79.5448 134.303 78.825C133.878 78.1049 130.639 78.7458 130.27 78.4613C129.901 78.1768 131.654 77.1749 132.212 77.2135C132.771 77.2517 133.452 77.3851 133.452 77.3851C133.452 77.3851 133.501 76.0503 131.684 74.8462C129.868 73.6418 129.535 75.3459 129.535 75.3459Z" fill="#FF6000"/>
<path id="Vector_37" opacity="0.2" d="M129.535 75.3459C129.535 75.3459 129.476 77.4571 127.828 77.5597C126.181 77.6624 125.161 74.9155 123.475 75.5767C121.789 76.2379 121.625 79.2484 121.625 79.2484C121.625 79.2484 123.226 77.9338 124.087 78.5973C124.948 79.2609 124.748 80.2834 124.285 80.1219C123.821 79.9603 121.313 79.3995 121.226 81.2929C121.139 83.1863 122.274 84.2573 122.274 84.2573C122.274 84.2573 124.057 80.9263 125.353 81.5336C126.65 82.1408 124.282 82.6686 123.334 83.8985C122.386 85.1284 121.779 86.425 122.612 86.8707C123.445 87.3165 124.58 88.3874 124.58 88.3874C124.58 88.3874 124.354 86.6451 125.397 85.2923C126.44 83.9394 127.301 84.6029 126.353 85.8328C125.405 87.0627 125.877 88.9947 125.877 88.9947C125.877 88.9947 128.669 89.1867 130.668 88.3744C132.666 87.5621 132.677 86.7858 132.034 86.0938C131.39 85.4022 129.166 84.4722 129.83 83.6111C130.493 82.7501 132.203 87.4006 133.179 86.3885C134.155 85.3764 134.45 84.2309 133.901 83.4163C133.353 82.6017 133.353 82.6014 133.353 82.6014C133.353 82.6014 131.129 81.6713 130.486 80.9797C129.842 80.288 130.77 80.6108 131.82 81.0284C132.871 81.446 135.151 82.8116 135.313 82.3479C135.474 81.8842 134.729 79.5448 134.303 78.825C133.878 78.1049 130.639 78.7458 130.27 78.4613C129.901 78.1768 131.654 77.1749 132.212 77.2135C132.771 77.2517 133.452 77.3851 133.452 77.3851C133.452 77.3851 133.501 76.0503 131.684 74.8462C129.868 73.6418 129.535 75.3459 129.535 75.3459Z" fill="#263238"/>
<path id="Vector_38" d="M128.685 85.6741C128.153 83.9086 127.511 81.4041 127.551 79.6992" stroke="#263238" stroke-miterlimit="10" stroke-linecap="round" stroke-linejoin="round"/>
<path id="Vector_39" d="M129.371 87.7678C129.371 87.7678 129.196 87.2887 128.955 86.5405" stroke="#263238" stroke-miterlimit="10" stroke-linecap="round" stroke-linejoin="round"/>
<path id="Vector_40" d="M128.271 79.2738C128.271 79.2738 131.254 79.2199 133.506 80.3677" stroke="#263238" stroke-miterlimit="10" stroke-linecap="round" stroke-linejoin="round"/>
<path id="Vector_41" d="M128.364 81.6979C128.364 81.6979 128.402 81.1393 130.862 83.0351" stroke="#263238" stroke-miterlimit="10" stroke-linecap="round" stroke-linejoin="round"/>
<path id="Vector_42" d="M126.691 79.0357C126.691 79.0357 126.522 77.7289 124.789 77.1782" stroke="#263238" stroke-miterlimit="10" stroke-linecap="round" stroke-linejoin="round"/>
<path id="Vector_43" d="M127.162 80.9675L125.704 80.8242" stroke="#263238" stroke-miterlimit="10" stroke-linecap="round" stroke-linejoin="round"/>
<path id="Vector_44" d="M127.416 82.9277C127.416 82.9277 124.764 83.8247 123.911 84.9316" stroke="#263238" stroke-miterlimit="10" stroke-linecap="round" stroke-linejoin="round"/>
</g>
<path id="Vector_45" d="M111.846 89.3975C111.846 89.3975 120.233 94.9417 120.091 116.409" stroke="#263238" stroke-width="2" stroke-miterlimit="10" stroke-linecap="round" stroke-linejoin="round"/>
<g id="Group_12">
<path id="Vector_46" d="M122.187 87.9322C122.187 87.9322 121.92 90.363 120.01 90.3259C118.099 90.2888 117.181 87.0231 115.173 87.6268C113.165 88.2306 112.692 91.6892 112.692 91.6892C112.692 91.6892 114.664 90.3236 115.595 91.1704C116.526 92.0174 116.199 93.1783 115.679 92.9481C115.159 92.7181 112.317 91.8339 112.038 94.0106C111.759 96.1874 112.968 97.5303 112.968 97.5303C112.968 97.5303 115.34 93.8549 116.779 94.6779C118.217 95.5009 115.436 95.8866 114.226 97.2166C113.016 98.5462 112.193 99.9852 113.112 100.578C114.031 101.171 115.239 102.514 115.239 102.514C115.239 102.514 115.143 100.483 116.474 99.0198C117.806 97.557 118.736 98.4041 117.526 99.7338C116.316 101.063 116.678 103.337 116.678 103.337C116.678 103.337 119.883 103.822 122.265 103.074C124.648 102.325 124.733 101.43 124.056 100.571C123.38 99.712 120.901 98.4291 121.748 97.4982C122.595 96.5673 124.128 102.095 125.35 101.019C126.572 99.9431 127.02 98.6495 126.464 97.6574C125.908 96.6653 125.908 96.6653 125.908 96.6653C125.908 96.6653 123.43 95.3823 122.753 94.5233C122.076 93.6644 123.116 94.1243 124.289 94.7055C125.462 95.2863 127.964 97.0774 128.194 96.5577C128.424 96.0377 127.784 93.2679 127.362 92.3971C126.939 91.5262 123.141 91.9597 122.742 91.5967C122.343 91.2336 124.46 90.2429 125.101 90.3401C125.742 90.4372 126.516 90.655 126.516 90.655C126.516 90.655 126.698 89.1192 124.715 87.5581C122.733 85.9973 122.187 87.9322 122.187 87.9322Z" fill="#FF6000"/>
<path id="Vector_47" opacity="0.3" d="M122.187 87.9322C122.187 87.9322 121.92 90.363 120.01 90.3259C118.099 90.2888 117.181 87.0231 115.173 87.6268C113.165 88.2306 112.692 91.6892 112.692 91.6892C112.692 91.6892 114.664 90.3236 115.595 91.1704C116.526 92.0174 116.199 93.1783 115.679 92.9481C115.159 92.7181 112.317 91.8339 112.038 94.0106C111.759 96.1874 112.968 97.5303 112.968 97.5303C112.968 97.5303 115.34 93.8549 116.779 94.6779C118.217 95.5009 115.436 95.8866 114.226 97.2166C113.016 98.5462 112.193 99.9852 113.112 100.578C114.031 101.171 115.239 102.514 115.239 102.514C115.239 102.514 115.143 100.483 116.474 99.0198C117.806 97.557 118.736 98.4041 117.526 99.7338C116.316 101.063 116.678 103.337 116.678 103.337C116.678 103.337 119.883 103.822 122.265 103.074C124.648 102.325 124.733 101.43 124.056 100.571C123.38 99.712 120.901 98.4291 121.748 97.4982C122.595 96.5673 124.128 102.095 125.35 101.019C126.572 99.9431 127.02 98.6495 126.464 97.6574C125.908 96.6653 125.908 96.6653 125.908 96.6653C125.908 96.6653 123.43 95.3823 122.753 94.5233C122.076 93.6644 123.116 94.1243 124.289 94.7055C125.462 95.2863 127.964 97.0774 128.194 96.5577C128.424 96.0377 127.784 93.2679 127.362 92.3971C126.939 91.5262 123.141 91.9597 122.742 91.5967C122.343 91.2336 124.46 90.2429 125.101 90.3401C125.742 90.4372 126.516 90.655 126.516 90.655C126.516 90.655 126.698 89.1192 124.715 87.5581C122.733 85.9973 122.187 87.9322 122.187 87.9322Z" fill="#263238"/>
<path id="Vector_48" d="M120.232 99.77C119.784 97.6826 119.28 94.7321 119.488 92.7686" stroke="#263238" stroke-miterlimit="10" stroke-linecap="round" stroke-linejoin="round"/>
<path id="Vector_49" d="M120.826 102.251C120.826 102.251 120.67 101.681 120.463 100.795" stroke="#263238" stroke-miterlimit="10" stroke-linecap="round" stroke-linejoin="round"/>
<path id="Vector_50" d="M120.359 92.3457C120.359 92.3457 123.806 92.5649 126.296 94.1019" stroke="#263238" stroke-miterlimit="10" stroke-linecap="round" stroke-linejoin="round"/>
<path id="Vector_51" d="M120.237 95.1511C120.237 95.1511 120.334 94.5102 122.994 96.9302" stroke="#263238" stroke-miterlimit="10" stroke-linecap="round" stroke-linejoin="round"/>
<path id="Vector_52" d="M118.558 91.9215C118.558 91.9215 118.486 90.3976 116.539 89.5986" stroke="#263238" stroke-miterlimit="10" stroke-linecap="round" stroke-linejoin="round"/>
<path id="Vector_53" d="M118.919 94.1951L117.25 93.8921" stroke="#263238" stroke-miterlimit="10" stroke-linecap="round" stroke-linejoin="round"/>
<path id="Vector_54" d="M119.027 96.481C119.027 96.481 115.882 97.2657 114.793 98.4625" stroke="#263238" stroke-miterlimit="10" stroke-linecap="round" stroke-linejoin="round"/>
</g>
<path id="Vector_55" d="M115.115 106.314C115.115 106.314 120.518 110.437 121.086 116.55L119.949 96.0786" stroke="#263238" stroke-width="2" stroke-miterlimit="10" stroke-linecap="round" stroke-linejoin="round"/>
<path id="Vector_56" d="M128.194 103.329C121.086 102.049 121.086 116.55 121.086 116.55" stroke="#263238" stroke-width="2" stroke-miterlimit="10" stroke-linecap="round" stroke-linejoin="round"/>
<path id="Vector_57" d="M121.939 116.408C121.939 116.408 117.817 86.4116 129.758 86.4116" stroke="#263238" stroke-width="2" stroke-miterlimit="10" stroke-linecap="round" stroke-linejoin="round"/>
<g id="Group_13">
<path id="Vector_58" d="M125.486 102.467C124.515 101.374 122.452 101.374 121.238 104.166C120.024 106.957 121.117 106.472 121.117 106.472C121.117 106.472 123.423 105.744 124.879 105.258C126.336 104.773 128.277 103.559 128.399 104.287C128.52 105.016 127.428 105.744 126.093 105.987C124.758 106.229 121.238 107.2 121.602 107.928C121.966 108.657 122.816 110.841 122.816 110.841C122.816 110.841 124.515 109.385 126.093 108.414C127.671 107.443 128.642 107.807 127.792 108.9C126.942 109.992 124.515 111.206 125 112.662C125.486 114.118 128.399 115.939 128.399 115.939C128.399 115.939 128.763 112.905 129.613 111.934C130.462 110.963 130.462 112.055 130.22 113.754C129.977 115.454 129.977 115.939 129.977 115.939L133.375 117.153C133.375 117.153 134.589 115.332 135.196 114.725C135.803 114.119 135.803 114.119 135.803 114.119C135.803 114.119 133.133 111.813 133.011 110.356C132.89 108.9 134.832 110.356 135.438 110.599C136.045 110.842 137.016 112.541 137.016 112.541C137.016 112.541 137.623 109.749 137.745 108.778C137.866 107.807 137.866 107.807 137.866 107.807C137.866 107.807 135.317 106.837 134.346 106.837C133.375 106.837 132.89 107.565 132.89 106.594C132.89 105.623 133.861 105.016 134.953 105.137C136.046 105.259 137.866 105.866 137.866 105.866C137.866 105.866 138.594 105.259 138.351 103.438C138.109 101.618 137.502 101.618 136.045 102.103C134.589 102.589 133.618 103.681 132.526 103.681C131.433 103.681 132.04 102.346 132.768 101.982C133.497 101.618 135.317 100.889 135.681 100.768C136.045 100.647 133.739 98.9476 132.526 98.7049C131.312 98.4622 129.741 99.3171 129.856 100.526C130.098 103.073 126.457 103.559 125.486 102.467Z" fill="#FF6000"/>
<path id="Vector_59" d="M133.299 114.963C133.335 115.329 133.361 115.695 133.375 116.06" stroke="#263238" stroke-miterlimit="10" stroke-linecap="round" stroke-linejoin="round"/>
<path id="Vector_60" d="M130.861 106.25C131.713 108.22 132.699 110.937 133.145 113.771" stroke="#263238" stroke-miterlimit="10" stroke-linecap="round" stroke-linejoin="round"/>
<path id="Vector_61" d="M130.423 105.276C129.822 103.983 129.37 103.195 129.37 103.195C129.37 103.195 130.462 102.71 130.948 101.739C131.433 100.768 132.161 100.282 132.161 100.282" stroke="#263238" stroke-miterlimit="10" stroke-linecap="round" stroke-linejoin="round"/>
<path id="Vector_62" d="M125.122 107.321C125.122 107.321 129.491 105.501 129.491 105.865" stroke="#263238" stroke-miterlimit="10" stroke-linecap="round" stroke-linejoin="round"/>
<path id="Vector_63" d="M131.919 105.015C131.919 105.015 133.861 104.044 135.56 104.044" stroke="#263238" stroke-miterlimit="10" stroke-linecap="round" stroke-linejoin="round"/>
<path id="Vector_64" d="M131.19 107.928C131.19 107.928 130.098 108.778 128.884 110.234C127.671 111.691 127.185 113.026 127.185 113.026" stroke="#263238" stroke-miterlimit="10" stroke-linecap="round" stroke-linejoin="round"/>
<path id="Vector_65" d="M132.525 108.414C132.525 108.414 135.074 107.686 136.409 108.899" stroke="#263238" stroke-miterlimit="10" stroke-linecap="round" stroke-linejoin="round"/>
</g>
<g id="Group_14">
<path id="Vector_66" d="M137.142 92.0144C135.821 91.2329 134.359 91.2158 133.643 90.391C132.927 89.5663 134.333 89.1492 135.085 89.4604C135.838 89.7716 137.581 90.6688 137.912 90.8643C138.242 91.0598 138.013 88.2044 137.401 87.1288C136.788 86.0532 135.112 85.4271 134.275 86.3061C132.51 88.1603 129.756 85.729 129.945 84.2799C130.133 82.8304 128.78 81.2726 125.877 82.1861C122.973 83.0996 124.056 83.6062 124.056 83.6062C124.056 83.6062 126.118 84.87 127.439 85.6516C128.761 86.4331 130.95 87.1039 130.48 87.6729C130.009 88.2418 128.743 87.8944 127.685 87.0453C126.626 86.1962 123.586 84.1749 123.275 84.9274C122.963 85.6797 121.871 87.7535 121.871 87.7535C121.871 87.7535 124.084 88.0817 125.852 88.6368C127.619 89.1916 127.981 90.1637 126.599 90.2382C125.217 90.3127 122.709 89.2754 121.928 90.5966C121.146 91.9179 121.681 95.3112 121.681 95.3112C121.681 95.3112 124.211 93.597 125.501 93.6019C126.791 93.6068 125.966 94.3231 124.524 95.2537C123.082 96.1844 122.716 96.5025 122.716 96.5025L124.027 99.8645C124.027 99.8645 126.197 99.5875 127.053 99.6478C127.909 99.7081 127.909 99.7081 127.909 99.7081C127.909 99.7081 127.9 96.18 128.921 95.1337C129.941 94.0874 130.114 96.5086 130.329 97.1257C130.543 97.7431 129.896 99.5901 129.896 99.5901C129.896 99.5901 132.402 98.2184 133.215 97.6735C134.028 97.1286 134.028 97.1286 134.028 97.1286C134.028 97.1286 133.09 94.5673 132.454 93.8342C131.817 93.1011 130.949 93.2119 131.682 92.5753C132.415 91.9388 133.51 92.2743 134.135 93.1785C134.759 94.083 135.495 95.8555 135.495 95.8555C135.495 95.8555 136.43 96.0075 137.646 94.6308C138.862 93.2542 138.464 92.796 137.142 92.0144ZM125.656 95.8993C124.685 95.4138 126.991 94.4429 126.991 94.4429C127.841 94.3214 126.627 96.3847 125.656 95.8993ZM127.291 91.3683C126.877 91.1613 128.119 90.7474 128.119 90.7474C129.912 91.0922 127.705 91.5751 127.291 91.3683Z" fill="#FF6000"/>
<path id="Vector_67" d="M125.63 98.3716C125.378 98.6384 125.118 98.8979 124.852 99.1479" stroke="#263238" stroke-miterlimit="10" stroke-linecap="round" stroke-linejoin="round"/>
<path id="Vector_68" d="M130.611 90.8188C129.682 92.754 128.278 95.2788 126.43 97.4743" stroke="#263238" stroke-miterlimit="10" stroke-linecap="round" stroke-linejoin="round"/>
<path id="Vector_69" d="M131.061 89.8497C131.643 88.5479 131.941 87.6895 131.941 87.6895C131.941 87.6895 133.024 88.1961 134.075 87.9261C135.127 87.6561 135.971 87.8878 135.971 87.8878" stroke="#263238" stroke-miterlimit="10" stroke-linecap="round" stroke-linejoin="round"/>
<path id="Vector_70" d="M130.004 89.5317C130.279 89.293 126.04 87.187 126.04 87.187" stroke="#263238" stroke-miterlimit="10" stroke-linecap="round" stroke-linejoin="round"/>
<path id="Vector_71" d="M132.237 90.8081C132.237 90.8081 134.244 91.6381 135.358 92.921" stroke="#263238" stroke-miterlimit="10" stroke-linecap="round" stroke-linejoin="round"/>
<path id="Vector_72" d="M129.56 92.1675C129.56 92.1675 128.203 91.8995 126.307 91.9378C124.412 91.9761 123.085 92.4848 123.085 92.4848" stroke="#263238" stroke-miterlimit="10" stroke-linecap="round" stroke-linejoin="round"/>
<path id="Vector_73" d="M130.069 93.4941C130.069 93.4941 132.29 94.9415 132.249 96.7453" stroke="#263238" stroke-miterlimit="10" stroke-linecap="round" stroke-linejoin="round"/>
</g>
<g id="Group_15">
<path id="Vector_74" d="M118.283 108.832C117.219 108.203 116.043 108.189 115.467 107.526C114.891 106.862 116.022 106.526 116.628 106.777C117.233 107.027 118.636 107.749 118.902 107.907C119.168 108.064 118.983 105.766 118.491 104.901C117.998 104.035 116.649 103.531 115.976 104.238C114.555 105.731 112.339 103.774 112.491 102.608C112.642 101.441 111.554 100.188 109.217 100.923C106.881 101.658 107.752 102.066 107.752 102.066C107.752 102.066 109.411 103.083 110.474 103.712C111.538 104.341 113.3 104.881 112.921 105.338C112.543 105.796 111.524 105.517 110.672 104.834C109.82 104.15 107.373 102.524 107.123 103.129C106.872 103.735 105.993 105.403 105.993 105.403C105.993 105.403 107.774 105.668 109.197 106.114C110.619 106.561 110.91 107.343 109.798 107.403C108.686 107.463 106.668 106.628 106.039 107.691C105.41 108.755 105.841 111.486 105.841 111.486C105.841 111.486 107.877 110.106 108.915 110.11C109.953 110.114 109.289 110.69 108.129 111.439C106.968 112.188 106.673 112.445 106.673 112.445L107.729 115.15C107.729 115.15 109.475 114.927 110.164 114.976C110.853 115.024 110.853 115.024 110.853 115.024C110.853 115.024 110.846 112.185 111.667 111.343C112.488 110.501 112.627 112.45 112.8 112.946C112.972 113.443 112.452 114.93 112.452 114.93C112.452 114.93 114.469 113.826 115.123 113.387C115.777 112.949 115.777 112.949 115.777 112.949C115.777 112.949 115.022 110.888 114.51 110.297C113.998 109.707 113.299 109.797 113.889 109.284C114.479 108.772 115.361 109.042 115.863 109.77C116.365 110.498 116.957 111.924 116.957 111.924C116.957 111.924 117.71 112.047 118.688 110.939C119.666 109.83 119.346 109.461 118.283 108.832ZM109.039 111.958C108.258 111.568 110.114 110.786 110.114 110.786C110.797 110.689 109.821 112.349 109.039 111.958ZM110.355 108.312C110.022 108.145 111.021 107.812 111.021 107.812C112.465 108.09 110.688 108.479 110.355 108.312Z" fill="#FF6000"/>
<path id="Vector_75" d="M109.018 113.948C108.815 114.163 108.607 114.371 108.392 114.573" stroke="#263238" stroke-miterlimit="10" stroke-linecap="round" stroke-linejoin="round"/>
<path id="Vector_76" d="M113.027 107.87C112.28 109.427 111.149 111.459 109.662 113.226" stroke="#263238" stroke-miterlimit="10" stroke-linecap="round" stroke-linejoin="round"/>
<path id="Vector_77" d="M113.389 107.09C113.857 106.042 114.097 105.352 114.097 105.352C114.097 105.352 114.968 105.759 115.815 105.542C116.661 105.325 117.34 105.511 117.34 105.511" stroke="#263238" stroke-miterlimit="10" stroke-linecap="round" stroke-linejoin="round"/>
<path id="Vector_78" d="M109.349 104.947C109.349 104.947 112.76 106.642 112.539 106.834" stroke="#263238" stroke-miterlimit="10" stroke-linecap="round" stroke-linejoin="round"/>
<path id="Vector_79" d="M114.336 107.861C114.336 107.861 115.95 108.529 116.847 109.562" stroke="#263238" stroke-miterlimit="10" stroke-linecap="round" stroke-linejoin="round"/>
<path id="Vector_80" d="M112.181 108.955C112.181 108.955 111.089 108.74 109.563 108.771C108.038 108.801 106.971 109.211 106.971 109.211" stroke="#263238" stroke-miterlimit="10" stroke-linecap="round" stroke-linejoin="round"/>
<path id="Vector_81" d="M112.59 110.023C112.59 110.023 114.378 111.188 114.344 112.639" stroke="#263238" stroke-miterlimit="10" stroke-linecap="round" stroke-linejoin="round"/>
</g>
<g id="Group_16">
<path id="Vector_82" d="M113.947 88.7899C113.947 88.7899 112.612 89.7609 111.762 88.7899C110.913 87.819 112.126 85.8772 110.913 85.149C109.699 84.4208 107.757 85.7557 107.757 85.7557C107.757 85.7557 109.335 86.1196 109.335 86.9693C109.335 87.819 108.607 88.183 108.485 87.819C108.364 87.4551 107.514 85.6345 106.301 86.4839C105.087 87.3336 104.966 88.5472 104.966 88.5472C104.966 88.5472 107.878 88.0618 108.121 89.1539C108.364 90.2463 106.907 89.0327 105.694 89.0327C104.48 89.0327 103.388 89.2754 103.509 90.0036C103.631 90.7318 103.509 91.9454 103.509 91.9454C103.509 91.9454 104.48 90.9745 105.815 90.9745C107.15 90.9745 107.15 91.8242 105.936 91.8242C104.723 91.8242 103.752 93.0379 103.752 93.0379C103.752 93.0379 104.966 94.8585 106.422 95.7079C107.878 96.5576 108.364 96.1934 108.485 95.4652C108.606 94.737 108.121 92.9164 108.971 92.9164C109.82 92.9164 107.757 96.1934 108.849 96.3146C109.942 96.4361 110.791 96.0718 111.034 95.3437C111.277 94.6155 111.277 94.6155 111.277 94.6155C111.277 94.6155 110.791 92.7948 110.913 92.0667C111.034 91.3385 111.277 92.0667 111.52 92.9164C111.762 93.7661 112.005 95.8291 112.369 95.7079C112.733 95.5867 113.826 94.0088 114.068 93.4018C114.311 92.7948 112.369 91.0957 112.369 90.7318C112.369 90.3675 113.826 90.9745 114.068 91.3388C114.311 91.703 114.554 92.1885 114.554 92.1885C114.554 92.1885 115.403 91.5815 115.282 89.8824C115.16 88.183 113.947 88.7899 113.947 88.7899Z" fill="#FF6000"/>
<path id="Vector_83" d="M107.148 93.1921C107.987 92.0203 109.231 90.4279 110.306 89.6396" stroke="#263238" stroke-miterlimit="10" stroke-linecap="round" stroke-linejoin="round"/>
<path id="Vector_84" d="M106.179 94.616C106.179 94.616 106.392 94.2793 106.741 93.7729" stroke="#263238" stroke-miterlimit="10" stroke-linecap="round" stroke-linejoin="round"/>
<path id="Vector_85" d="M110.913 89.8823C110.913 89.8823 112.369 91.7029 112.733 93.6448" stroke="#263238" stroke-miterlimit="10" stroke-linecap="round" stroke-linejoin="round"/>
<path id="Vector_86" d="M109.456 91.0961C109.456 91.0961 109.82 90.8534 109.82 93.2807" stroke="#263238" stroke-miterlimit="10" stroke-linecap="round" stroke-linejoin="round"/>
<path id="Vector_87" d="M110.306 88.7899C110.306 88.7899 111.034 88.0617 110.548 86.7266" stroke="#263238" stroke-miterlimit="10" stroke-linecap="round" stroke-linejoin="round"/>
<path id="Vector_88" d="M109.335 90.0036L108.728 89.0327" stroke="#263238" stroke-miterlimit="10" stroke-linecap="round" stroke-linejoin="round"/>
<path id="Vector_89" d="M108.242 91.096C108.242 91.096 106.422 89.8823 105.33 89.8823" stroke="#263238" stroke-miterlimit="10" stroke-linecap="round" stroke-linejoin="round"/>
</g>
<path id="Vector_90" d="M126.204 115.982H116.822V129.488H126.204V115.982Z" fill="#263238" stroke="#263238" stroke-width="2" stroke-miterlimit="10" stroke-linecap="round" stroke-linejoin="round"/>
</g>
</g>
<g id="Character">
<g id="Group_17">
<path id="Vector_91" d="M91.0597 93.2012L93.38 128.18H92.51L90.0934 92.6064L91.0597 93.2012Z" fill="#263238" stroke="#263238" stroke-miterlimit="10"/>
<g id="Group_18">
<path id="Vector_92" d="M71.63 64.3797C71.63 64.3797 75.69 67.6663 78.7834 71.1463C81.8769 74.6263 84.4869 80.0397 83.81 80.7163C83.1334 81.3928 71.4366 96.6663 70.9534 98.0197C70.47 99.3731 72.21 101.5 73.08 103.046C73.95 104.593 76.1734 105.85 75.7866 106.43C75.4 107.01 74.1431 107.493 72.5 107.01C70.8566 106.526 67.7634 104.4 66.7966 103.723C65.83 103.047 63.9931 102.177 64.38 100.823C64.7666 99.4697 67.0866 96.9566 67.0866 96.9566C67.0866 96.9566 68.44 90.9631 68.6331 89.2231C68.8266 87.4831 70.3731 82.9397 71.1466 82.0697C71.92 81.1997 72.5 80.0397 72.5 80.0397C72.5 80.0397 66.3134 78.7831 63.51 76.1731C60.7066 73.5631 58 70.1797 58 65.3466C58 60.5131 63.3166 60.2231 66.41 60.61C69.5034 60.9963 71.63 64.3797 71.63 64.3797Z" fill="#263238" stroke="#263238" stroke-miterlimit="10"/>
<path id="Vector_93" d="M72.4026 95.7778C70.3262 95.4403 68.7645 94.7237 67.7141 94.0889C67.3806 95.6549 67.0869 96.9567 67.0869 96.9567C67.0869 96.9567 64.7669 99.4701 64.3803 100.823C63.9937 102.177 65.8303 103.047 66.7969 103.723C67.7634 104.4 70.8569 106.527 72.5003 107.01C74.1437 107.493 75.4003 107.01 75.7869 106.43C76.1734 105.85 73.9503 104.593 73.0803 103.046C72.2103 101.5 70.4703 99.373 70.9537 98.0198C71.0497 97.7501 71.592 96.9271 72.4026 95.7778Z" fill="white" stroke="#263238" stroke-miterlimit="10"/>
<path id="Vector_94" d="M73.0801 103.046C72.3568 101.76 71.0364 100.075 70.8879 98.7649C70.5362 98.8235 70.1363 98.9241 70.0835 99.0828C69.9869 99.3728 69.6969 99.7593 69.6969 99.7593L66.7841 97.2949C66.1447 98.0237 64.6805 99.7712 64.38 100.823C63.9935 102.176 65.83 103.046 66.7966 103.723C67.7632 104.399 70.8566 106.526 72.5001 107.009C74.1435 107.493 75.4001 107.009 75.7866 106.429C76.1735 105.85 73.9501 104.593 73.0801 103.046Z" fill="white" stroke="#263238" stroke-miterlimit="10"/>
</g>
<path id="Vector_95" d="M69.8763 23.4844C69.8763 23.4844 68.2207 25.0573 65.0748 25.8023C61.9289 26.5474 57.4585 27.8721 57.1274 30.19C56.7962 32.508 59.3627 33.7498 57.8724 34.5777C56.3821 35.4057 52.9053 37.5581 53.9814 39.7105C55.0576 41.8628 58.2862 44.5949 62.6739 40.5384C67.0616 36.4819 65.6542 34.9089 67.5584 34.2466C69.4625 33.5842 69.2969 30.8524 68.9657 28.5344C68.6346 26.2165 70.4561 24.8091 70.4561 24.8091C70.4561 24.8091 71.1181 23.7329 69.8763 23.4844Z" fill="#263238" stroke="#263238" stroke-miterlimit="10"/>
<path id="Vector_96" d="M98.1893 59.5795C98.1893 59.5795 100.756 58.2547 101.501 57.8409C102.246 57.4271 103.819 57.9236 103.819 57.9236L104.481 58.1718L101.749 61.8145L96.8904 62.2173C96.8904 62.2173 93.3823 62.3066 89.574 62.0584C85.7657 61.8101 79.7453 58.6048 78.9174 57.4459C78.0894 56.2868 76.7473 52.46 76.7473 52.46C76.7473 52.46 76.9958 40.7872 76.9958 39.4625C76.9958 38.1377 76.9958 35.9854 76.9958 35.9854C76.9958 35.9854 79.8932 37.9721 81.0524 41.0354C82.2115 44.0984 83.2816 52.33 83.5298 52.9924C83.7781 53.6548 86.1021 55.4403 89.0825 57.3444C92.0631 59.2483 98.1893 59.5795 98.1893 59.5795Z" fill="white" stroke="#263238" stroke-miterlimit="10"/>
<g id="Group_19">
<g id="Group_20">
<path id="Vector_97" d="M44.9129 129.06L43.8274 127.01C54.4716 121.375 58.4199 111.28 59.0988 109.329L48.198 76.1977L50.402 75.4727L61.5357 109.313L61.4321 109.661C61.2781 110.178 57.5229 122.385 44.9129 129.06Z" fill="#CCCCCC" stroke="#263238" stroke-miterlimit="10"/>
</g>
<g id="Group_21">
<path id="Vector_98" d="M44.2273 129.06L43.1418 127.01C53.786 121.375 57.7344 111.28 58.4132 109.329L47.5124 76.1977L49.7164 75.4727L60.8501 109.313L60.7466 109.661C60.5926 110.178 56.8374 122.385 44.2273 129.06Z" fill="#CCCCCC" stroke="#263238" stroke-miterlimit="10"/>
</g>
<path id="Vector_99" d="M50.605 72.79C50.605 72.79 44.66 72.21 43.645 73.225C42.63 74.24 42.92 76.56 44.37 77.43C45.82 78.3 55.97 77.43 55.97 77.43C55.97 77.43 56.84 77.865 56.84 76.56C56.84 75.255 54.81 75.11 53.795 74.095C52.78 73.08 51.475 72.79 50.605 72.79Z" fill="#FF6000" stroke="#263238" stroke-miterlimit="10"/>
</g>
<g id="Group_22">
<g id="Vector_100">
<path d="M87.5507 67.4477C86.3362 67.4477 85.3589 67.3494 84.9622 67.0846C84.6284 66.8619 83.6122 66.1848 83.3819 64.9607C83.2265 64.1356 83.4602 63.2711 84.0759 62.3913C84.6927 61.5103 86.3481 60.283 88.9981 58.3533C90.8106 57.0335 93.5496 55.0386 93.9003 54.3922C94.3286 53.3731 94.9869 48.9709 95.2995 46.4398C95.3781 45.8041 95.952 45.3526 96.5929 45.4306C97.2286 45.5092 97.6804 46.0883 97.6018 46.724C97.5151 47.4267 96.7341 53.6376 96.0297 55.3106C95.5941 56.3448 93.969 57.6034 90.3634 60.2287C88.5988 61.514 86.4023 63.1134 85.9763 63.7215C85.7423 64.0559 85.6277 64.3511 85.6616 64.5315C85.6915 64.6892 85.8542 64.8748 86.1465 65.0833C87.3605 65.3214 93.7872 64.7997 95.1464 64.4221C96.3049 64.1005 101.157 60.785 102.261 58.2831C102.926 56.7748 103.595 52.8253 104.248 46.5442C104.287 46.1687 104.314 45.9207 104.326 45.8384C104.417 45.2038 105.003 44.7645 105.638 44.8538C106.272 44.9443 106.713 45.5318 106.623 46.1661C106.612 46.2406 106.59 46.4575 106.556 46.7843C106.117 51.0036 105.414 56.883 104.383 59.2195C102.971 62.4194 97.4809 66.1813 95.7673 66.6572C95.1678 66.8245 90.6073 67.4477 87.5507 67.4477Z" fill="#263238"/>
<path d="M86.2492 65.1544H86.2521M87.5507 67.4477C86.3362 67.4477 85.3589 67.3494 84.9622 67.0846C84.6284 66.8619 83.6122 66.1848 83.3819 64.9607C83.2265 64.1356 83.4602 63.2711 84.0759 62.3913C84.6927 61.5103 86.3481 60.283 88.9981 58.3533C90.8106 57.0335 93.5496 55.0386 93.9003 54.3922C94.3286 53.3731 94.9869 48.9709 95.2995 46.4398C95.3781 45.8041 95.952 45.3526 96.5929 45.4306C97.2286 45.5092 97.6804 46.0883 97.6018 46.724C97.5151 47.4267 96.7341 53.6376 96.0297 55.3106C95.5941 56.3448 93.969 57.6034 90.3634 60.2287C88.5988 61.514 86.4023 63.1134 85.9763 63.7215C85.7423 64.0559 85.6277 64.3511 85.6616 64.5315C85.6915 64.6892 85.8542 64.8748 86.1465 65.0833C87.3605 65.3214 93.7872 64.7997 95.1464 64.4221C96.3049 64.1005 101.157 60.785 102.261 58.2831C102.926 56.7748 103.595 52.8253 104.248 46.5442C104.287 46.1687 104.314 45.9207 104.326 45.8384C104.417 45.2038 105.003 44.7645 105.638 44.8538C106.272 44.9443 106.713 45.5318 106.623 46.1661C106.612 46.2406 106.59 46.4575 106.556 46.7843C106.117 51.0036 105.414 56.883 104.383 59.2195C102.971 62.4194 97.4809 66.1813 95.7673 66.6572C95.1678 66.8245 90.6073 67.4477 87.5507 67.4477Z" stroke="#263238" stroke-miterlimit="10"/>
</g>
</g>
<g id="Vector_101">
<path d="M104.15 58.0063C104.15 58.0063 101.666 61.7317 101.998 62.0629C102.329 62.394 103.074 62.2285 103.405 62.0629C103.736 61.8973 105.557 59.7449 105.475 58.7514C105.392 57.7578 104.481 58.1719 104.481 58.1719" fill="white"/>
<path d="M104.15 58.0063C104.15 58.0063 101.666 61.7317 101.998 62.0629C102.329 62.394 103.074 62.2285 103.405 62.0629C103.736 61.8973 105.557 59.7449 105.475 58.7514C105.392 57.7578 104.481 58.1719 104.481 58.1719" stroke="#263238" stroke-miterlimit="10"/>
</g>
<g id="Vector_102">
<path d="M100.59 59.4139L102.411 58.8345C102.411 58.8345 103.322 59.1657 103.653 59.4968C103.984 59.828 104.978 60.3248 104.316 60.656C103.653 60.9871 102.577 60.2421 102.577 60.2421C102.577 60.2421 101.335 61.0701 100.673 61.1527C100.01 61.2357 99.0172 60.9871 99.0172 60.9871" fill="white"/>
<path d="M100.59 59.4139L102.411 58.8345C102.411 58.8345 103.322 59.1657 103.653 59.4968C103.984 59.828 104.978 60.3248 104.316 60.656C103.653 60.9871 102.577 60.2421 102.577 60.2421C102.577 60.2421 101.335 61.0701 100.673 61.1527C100.01 61.2357 99.0172 60.9871 99.0172 60.9871" stroke="#263238" stroke-miterlimit="10"/>
</g>
<path id="Vector_103" d="M90.9633 125.28C99.1316 125.28 105.753 118.658 105.753 110.49C105.753 102.321 99.1316 95.6997 90.9633 95.6997C82.795 95.6997 76.1733 102.321 76.1733 110.49C76.1733 118.658 82.795 125.28 90.9633 125.28Z" fill="white" stroke="#263238" stroke-miterlimit="10"/>
<path id="Vector_104" d="M90.9633 99.5664C84.9305 99.5664 80.0399 104.457 80.0399 110.49C80.0399 116.523 84.9305 121.413 90.9633 121.413C96.9962 121.413 101.887 116.523 101.887 110.49C101.887 104.457 96.9959 99.5664 90.9633 99.5664ZM90.9633 120.446C85.4644 120.446 81.0068 115.989 81.0068 110.49C81.0068 104.991 85.4647 100.533 90.9633 100.533C96.462 100.533 100.92 104.991 100.92 110.49C100.92 115.989 96.462 120.446 90.9633 120.446Z" fill="#FF6000" stroke="#263238" stroke-miterlimit="10"/>
<g id="Group_23">
<g id="Group_24">
<path id="Vector_105" d="M78.9004 88.2012L78.12 88.7632L79.9707 91.333L80.751 90.7711L78.9004 88.2012Z" fill="white" stroke="#263238" stroke-miterlimit="10"/>
<path id="Vector_106" d="M79.0183 86.5555L76.5157 88.3574L77.7925 90.1307L80.2951 88.3288L79.0183 86.5555Z" fill="#FF6000" stroke="#263238" stroke-miterlimit="10"/>
</g>
<path id="Vector_107" d="M70.0961 103.828C72.3937 101.566 75.6449 98.5814 78.8465 96.3844C83.6414 93.0932 90.9534 88.249 91.0268 88.2003L89.2654 85.541C89.1917 85.5894 81.8585 90.4481 77.0416 93.7538C72.8276 96.6457 68.6487 100.703 66.3522 103.063L70.0961 103.828Z" fill="#CCCCCC" stroke="#263238" stroke-miterlimit="10"/>
<path id="Vector_108" d="M69.182 103.486C71.4797 101.223 74.7309 98.2387 77.9325 96.0416C82.7273 92.7504 90.0394 87.9063 90.1128 87.8575L88.3513 85.1982C88.2776 85.2467 80.9444 90.1053 76.1275 93.411C71.9135 96.3029 67.7346 100.36 65.4381 102.72L69.182 103.486Z" fill="#CCCCCC" stroke="#263238" stroke-miterlimit="10"/>
</g>
<g id="Group_25">
<path id="Vector_109" d="M90.1899 114.26L89.7697 107.693L62.5158 102.124L62.5155 102.129C61.9483 102.003 61.3596 101.935 60.7546 101.935C56.2701 101.935 52.6346 105.57 52.6346 110.055C52.6346 114.54 56.2701 118.175 60.7546 118.175C61.2007 118.175 61.638 118.138 62.0643 118.068L62.064 118.079L90.1899 114.26ZM67.7819 106.891L78.09 109.083V111.808L67.7602 113.267C68.2094 112.289 68.4617 111.201 68.4617 110.055C68.4614 108.927 68.2172 107.857 67.7819 106.891Z" fill="#FF6000" stroke="#263238" stroke-miterlimit="10"/>
<path id="Vector_110" d="M89.9762 113.726L89.5563 107.159L62.3024 101.59V101.595C61.7351 101.47 61.1464 101.401 60.5415 101.401C56.0569 101.401 52.4215 105.037 52.4215 109.521C52.4215 114.006 56.0569 117.641 60.5415 117.641C60.9875 117.641 61.4248 117.604 61.8514 117.535L61.8511 117.545L89.9762 113.726ZM67.5682 106.357L77.8763 108.549V111.274L67.5465 112.733C67.9957 111.755 68.248 110.668 68.248 109.521C68.248 108.393 68.0038 107.323 67.5682 106.357Z" fill="#FF6000" stroke="#263238" stroke-miterlimit="10"/>
<path id="Vector_111" d="M60.755 112.955C62.3566 112.955 63.655 111.656 63.655 110.055C63.655 108.453 62.3566 107.155 60.755 107.155C59.1534 107.155 57.855 108.453 57.855 110.055C57.855 111.656 59.1534 112.955 60.755 112.955Z" fill="#263238" stroke="#263238" stroke-miterlimit="10"/>
</g>
<path id="Vector_112" d="M60.8608 110.626L60.6494 109.485L49.8797 111.481L49.1857 108.545L45.3658 109.437C44.6397 109.606 44.1893 110.333 44.361 111.059L45.5091 115.914C45.6799 116.637 46.4031 117.085 47.1264 116.916L50.9538 116.023L50.147 112.611L60.8608 110.626Z" fill="#263238" stroke="#263238" stroke-miterlimit="10"/>
<g id="Group_26">
<g id="Vector_113">
<path d="M71.8637 66.2848C71.8637 66.2848 72.6916 63.8012 73.0228 62.3938C73.354 60.9865 75.0925 54.9432 75.0925 54.9432C75.0925 54.9432 75.7549 54.7776 76.6655 54.4464C77.5761 54.1152 79.8114 52.1284 79.8941 49.3137C79.9767 46.4989 78.3211 42.3598 78.3211 39.9588C78.3211 37.5579 77.7417 36.3162 76.1687 35.5712C74.5958 34.8261 68.8836 32.5908 68.8836 32.5908C68.8836 32.5908 64.0821 33.1702 61.7641 35.6538C59.4462 38.1374 58.9494 45.0913 59.115 45.9192C59.2806 46.7472 57.7076 50.8863 57.0452 51.6313C56.3829 52.3764 51.4158 54.9429 49.429 58.2544C47.4422 61.5659 46.6142 64.5462 47.2766 68.2716C47.939 71.9969 51.0019 75.9708 51.2502 77.047C51.4984 78.1231 54.3975 85.8824 55.9705 87.2898C55.9705 87.2898 52.7385 91.3106 51.9105 93.9598C51.0826 96.6089 48.5181 103.953 47.7731 104.946C47.0281 105.939 44.8757 108.174 44.4616 108.754C44.0477 109.334 46.3657 112.479 46.8625 113.804C47.3592 115.129 50.6708 116.784 51.4158 116.784C52.1608 116.784 52.8231 116.288 52.6575 115.46C52.492 114.632 51.4984 111.155 51.0846 109.582C50.6708 108.009 51.5814 107.098 51.664 106.85C51.7467 106.602 56.4415 100.656 58.0971 99.0832C59.7527 97.5102 62.4897 93.53 63.8971 91.5432C65.3044 89.5564 65.2409 87.1471 65.4065 85.6568C65.5721 84.1667 64.9927 73.156 64.9098 72.9078C64.8271 72.6595 64.6615 71.9972 64.6615 71.9972L67.3107 70.5898" fill="#263238"/>
<path d="M71.8637 66.2848C71.8637 66.2848 72.6916 63.8012 73.0228 62.3938C73.354 60.9865 75.0925 54.9432 75.0925 54.9432C75.0925 54.9432 75.7549 54.7776 76.6655 54.4464C77.5761 54.1152 79.8114 52.1284 79.8941 49.3137C79.9767 46.4989 78.3211 42.3598 78.3211 39.9588C78.3211 37.5579 77.7417 36.3162 76.1687 35.5712C74.5958 34.8261 68.8836 32.5908 68.8836 32.5908C68.8836 32.5908 64.0821 33.1702 61.7641 35.6538C59.4462 38.1374 58.9494 45.0913 59.115 45.9192C59.2806 46.7472 57.7076 50.8863 57.0452 51.6313C56.3829 52.3764 51.4158 54.9429 49.429 58.2544C47.4422 61.5659 46.6142 64.5462 47.2766 68.2716C47.939 71.9969 51.0019 75.9708 51.2502 77.047C51.4984 78.1231 54.3975 85.8824 55.9705 87.2898C55.9705 87.2898 52.7385 91.3106 51.9105 93.9598C51.0826 96.6089 48.5181 103.953 47.7731 104.946C47.0281 105.939 44.8757 108.174 44.4616 108.754C44.0477 109.334 46.3657 112.479 46.8625 113.804C47.3592 115.129 50.6708 116.784 51.4158 116.784C52.1608 116.784 52.8231 116.288 52.6575 115.46C52.492 114.632 51.4984 111.155 51.0846 109.582C50.6708 108.009 51.5814 107.098 51.664 106.85C51.7467 106.602 56.4415 100.656 58.0971 99.0832C59.7527 97.5102 62.4897 93.53 63.8971 91.5432C65.3044 89.5564 65.2409 87.1471 65.4065 85.6568C65.5721 84.1667 64.9927 73.156 64.9098 72.9078C64.8271 72.6595 64.6615 71.9972 64.6615 71.9972L67.3107 70.5898" stroke="#263238" stroke-miterlimit="10"/>
</g>
<path id="Vector_114" d="M53.2894 104.71C51.0405 104.103 49.7033 103.177 48.9299 102.404C48.4357 103.66 48.0108 104.628 47.7725 104.946C47.0275 105.939 44.8748 108.175 44.461 108.754C44.0471 109.334 46.3651 112.48 46.8619 113.804C47.3586 115.129 50.6701 116.785 51.4152 116.785C52.1602 116.785 52.8225 116.288 52.6569 115.46C52.4913 114.632 51.4978 111.155 51.084 109.582C50.6701 108.009 51.5807 107.099 51.6634 106.85C51.6944 106.757 52.3695 105.869 53.2894 104.71Z" fill="white" stroke="#263238" stroke-miterlimit="10"/>
<path id="Vector_115" d="M52.6569 115.46C52.4913 114.632 51.4978 111.155 51.0839 109.582C50.8722 108.777 51.0074 108.147 51.2008 107.689C51.1442 107.303 50.9885 106.747 50.5567 106.623C49.8801 106.43 48.2367 107.783 48.2367 107.783L46.8778 106.017C45.9521 107.068 44.7587 108.338 44.4612 108.754C44.0474 109.334 46.3653 112.48 46.8621 113.804C47.3589 115.129 50.6704 116.785 51.4154 116.785C52.1601 116.784 52.8225 116.288 52.6569 115.46Z" fill="white" stroke="#263238" stroke-miterlimit="10"/>
</g>
<g id="Group_27">
<path id="Vector_116" d="M78.3205 39.9588C78.3205 37.5579 77.7411 36.3162 76.1681 35.5712C74.5951 34.8261 68.883 32.5908 68.883 32.5908C68.883 32.5908 64.0815 33.1702 61.7635 35.6538C59.4456 38.1374 58.9488 45.0913 59.1144 45.9192C59.28 46.7472 57.707 50.8863 57.0446 51.6313C56.5856 52.1478 54.0574 53.5404 51.8876 55.4492C53.7903 57.8417 58.6953 63.3067 64.4768 64.2826C67.4658 64.7872 70.3136 64.4027 72.6527 63.7623C72.7957 63.2737 72.9291 62.7905 73.0225 62.3932C73.3537 60.9859 75.0922 54.9426 75.0922 54.9426C75.0922 54.9426 75.7546 54.777 76.6652 54.4458C77.5758 54.1146 79.8111 52.1278 79.8937 49.3131C79.9764 46.4989 78.3205 42.3595 78.3205 39.9588Z" fill="#FF6000" stroke="#263238" stroke-miterlimit="10"/>
<g id="Vector_117">
<path d="M60.5588 56.0874C60.8816 56.2776 61.2427 56.4496 61.6463 56.5946L60.5588 56.0874Z" fill="#FF6000"/>
<path d="M60.5588 56.0874C60.8816 56.2776 61.2427 56.4496 61.6463 56.5946" stroke="#263238" stroke-miterlimit="10"/>
</g>
<g id="Vector_118">
<path d="M57.9199 52.5366C57.9199 52.5366 58.2111 54.2357 59.7971 55.5523L57.9199 52.5366Z" fill="#FF6000"/>
<path d="M57.9199 52.5366C57.9199 52.5366 58.2111 54.2357 59.7971 55.5523" stroke="#263238" stroke-miterlimit="10"/>
</g>
<g id="Vector_119">
<path d="M59.4932 47.2368C59.4932 47.2368 59.8243 48.2307 61.1494 49.0586L59.4932 47.2368Z" fill="#FF6000"/>
<path d="M59.4932 47.2368C59.4932 47.2368 59.8243 48.2307 61.1494 49.0586" stroke="#263238" stroke-miterlimit="10"/>
</g>
</g>
<path id="Vector_120" d="M92.8371 62.1314C92.155 61.71 91.2621 61.9214 90.8413 62.6032L87.5704 67.8989L88.1603 93.2687C88.1661 93.5213 88.2418 93.7536 88.3598 93.9575L90.19 128.18H91.64L89.9812 94.6332C90.6143 94.4653 91.0757 93.885 91.0597 93.2014L90.4896 68.6912L93.3087 64.1269C93.7295 63.4457 93.5183 62.5522 92.8371 62.1314Z" fill="#CCCCCC" stroke="#263238" stroke-miterlimit="10"/>
<path id="Vector_121" d="M56.2341 126.942H52.3386H39.919C39.1308 126.942 38.4919 127.581 38.4919 128.369V129.488H50.9115H57.4684V128.176C57.4684 127.494 56.9156 126.942 56.2341 126.942Z" fill="#CCCCCC" stroke="#263238" stroke-miterlimit="10"/>
<path id="Vector_122" d="M95.5305 128.061H51.202L52.1703 129.488H96.7648V129.295C96.7648 128.613 96.212 128.061 95.5305 128.061Z" fill="#CCCCCC" stroke="#263238" stroke-miterlimit="10"/>
<path id="Vector_123" d="M99.2782 129.488H81.4589V128.369C81.4589 127.581 82.0977 126.942 82.8859 126.942H98.044C98.7255 126.942 99.2782 127.495 99.2782 128.176V129.488Z" fill="#CCCCCC" stroke="#263238" stroke-miterlimit="10"/>
<path id="Vector_124" d="M87.4758 129.488H80.9189V128.408C80.9189 127.598 81.5752 126.942 82.3846 126.942H86.2416C86.9231 126.942 87.4758 127.495 87.4758 128.176V129.488Z" fill="#263238" stroke="#263238" stroke-miterlimit="10"/>
<path id="Vector_125" d="M44.9717 129.488H38.4148V128.408C38.4148 127.598 39.0711 126.942 39.8805 126.942H43.7375C44.4192 126.942 44.9717 127.495 44.9717 128.176V129.488Z" fill="#263238" stroke="#263238" stroke-miterlimit="10"/>
<g id="Group_28">
<path id="Vector_126" d="M71.2837 50.2245C71.2837 50.2245 70.9525 45.8368 69.6281 41.5321C68.3033 37.2273 67.5583 34.1641 65.2404 34.3296C62.9224 34.4952 59.6109 37.6412 60.1903 43.5189C60.7697 49.3966 63.833 54.0328 65.4886 55.854C67.1442 57.6752 72.691 60.2417 75.5058 61.2353C78.3205 62.2288 81.8803 62.8909 82.5426 62.8909C83.205 62.8909 83.6188 62.7253 83.6188 62.7253L86.8474 61.3179C86.8474 61.3179 87.758 61.9803 87.6753 62.3115C87.5927 62.6426 88.5033 62.9738 88.6689 62.6426C88.8345 62.3115 90.9042 60.7385 90.9042 59.8279C90.9042 58.9173 89.3312 57.427 88.6689 57.2614C88.0065 57.0958 83.3706 60.1588 83.3706 60.1588C83.3706 60.1588 76.6649 56.5161 74.8437 54.6949C73.0222 52.8737 71.2837 50.2245 71.2837 50.2245Z" fill="white" stroke="#263238" stroke-miterlimit="10"/>
<path id="Vector_127" d="M85.9371 60.3244C85.9371 60.3244 87.4272 59.4965 88.0895 60.2418C88.7519 60.9868 89.0001 62.3941 89.0001 62.3941" stroke="#263238" stroke-miterlimit="10"/>
<path id="Vector_128" d="M87.1788 59.1657C87.1788 59.1657 88.1724 58.8346 88.7518 59.1657C89.3312 59.4969 89.7453 61.4011 89.7453 61.4011" stroke="#263238" stroke-miterlimit="10"/>
<path id="Vector_129" d="M88.1721 58.1719C88.1721 58.1719 89.6621 58.5857 89.9933 59.2481C90.3245 59.9104 90.4071 60.7384 90.4071 60.7384" stroke="#263238" stroke-miterlimit="10"/>
</g>
<g id="Group_29">
<path id="Vector_130" d="M83.0412 18.8657C83.0412 18.8657 84.1173 22.1773 84.1173 22.9223C84.1173 23.6673 83.6206 24.4126 83.6206 24.6608C83.6206 24.9091 84.3656 26.3994 84.3656 26.3994C84.3656 26.3994 85.2762 27.6411 84.5312 28.055C83.7862 28.4688 83.5376 28.6344 83.5376 28.6344C83.5376 28.6344 82.7926 32.2771 81.9647 32.6083C81.1367 32.9395 79.0673 33.0221 79.0673 33.0221C79.0673 33.0221 77.5752 34.4947 77.0788 35.4053C76.582 36.3159 78.4032 39.5448 76.7476 41.9454C75.092 44.3463 73.1878 44.0978 71.4493 41.283C69.7107 38.4683 69.7107 35.2397 69.1313 34.3291C68.5519 33.4185 68.2207 33.0047 68.2207 33.0047C68.2207 33.0047 70.4578 32.1942 70.8716 30.4559C71.2854 28.7173 71.6166 26.6476 70.8716 24.247C70.1266 21.8464 71.9478 20.9355 75.8387 19.4455C79.7299 17.9551 83.0412 18.8657 83.0412 18.8657Z" fill="white" stroke="#263238" stroke-miterlimit="10"/>
<path id="Vector_131" d="M82.4618 23.5845C82.4618 23.5845 81.5512 22.3427 80.475 24.0812" stroke="#263238" stroke-miterlimit="10"/>
<path id="Vector_132" d="M82.0479 25.2404C82.0479 25.5148 81.9183 25.7372 81.7582 25.7372C81.5981 25.7372 81.4685 25.5148 81.4685 25.2404C81.4685 24.9661 81.5981 24.7437 81.7582 24.7437C81.918 24.7437 82.0479 24.9661 82.0479 25.2404Z" fill="#263238"/>
<path id="Vector_133" d="M79.9781 28.4692C79.9781 28.4692 80.8888 29.3798 81.8823 29.3798" stroke="#263238" stroke-miterlimit="10"/>
</g>
<path id="Vector_134" d="M70.8716 28.883C70.8716 28.883 72.1134 28.8004 72.3616 27.9724C72.6099 27.1445 74.597 24.4127 74.8452 24.5783C75.0937 24.7439 76.2526 25.1577 76.5837 24.5783C76.9149 23.9989 76.9149 23.4191 76.9149 23.4191C76.9149 23.4191 80.7232 21.598 82.2962 20.77C83.8691 19.9421 84.283 18.7003 83.3724 16.7964C82.4618 14.8923 77.1635 14.4784 73.6037 15.8029C70.044 17.1276 70.2905 17.7723 69.6281 20.1732C68.9657 22.5738 69.7954 27.9724 70.8716 28.883Z" fill="#263238" stroke="#263238" stroke-miterlimit="10"/>
<g id="Vector_135">
<path d="M75.4249 24.992C75.4249 24.992 74.1831 22.5911 73.1069 23.5846C72.0307 24.5782 72.6101 26.7306 73.2725 27.0617C73.9349 27.3929 74.7628 27.2273 74.7628 27.2273C74.7628 27.2273 74.266 29.3797 76.0046 30.7044" fill="white"/>
<path d="M75.4249 24.992C75.4249 24.992 74.1831 22.5911 73.1069 23.5846C72.0307 24.5782 72.6101 26.7306 73.2725 27.0617C73.9349 27.3929 74.7628 27.2273 74.7628 27.2273C74.7628 27.2273 74.266 29.3797 76.0046 30.7044" stroke="#263238" stroke-miterlimit="10"/>
</g>
</g>
</g>
<g id="Floor">
<g id="Group_30">
<path id="Vector_136" d="M8.72085 129.488H5.21997" stroke="#263238" stroke-miterlimit="10"/>
<path id="Vector_137" d="M138.62 129.488H10.7538" stroke="#263238" stroke-miterlimit="10"/>
</g>
</g>
</g>
</svg>
