<svg width="100" height="87" viewBox="0 0 100 87" fill="none" xmlns="http://www.w3.org/2000/svg">
<g id="2075182 1">
<path id="Vector" d="M81.1484 27.0039H29.375V67.8735H81.1484V27.0039Z" fill="#F2B15A"/>
<path id="Vector_2" d="M39.8984 28.2887V58.7115H18.8516V28.2887C18.8516 25.8605 19.9603 23.5318 21.9338 21.8149C23.9073 20.0979 26.584 19.1333 29.375 19.1333C32.166 19.1333 34.8427 20.0979 36.8162 21.8149C38.7897 23.5318 39.8984 25.8605 39.8984 28.2887Z" fill="#F6B863"/>
<path id="Vector_3" d="M39.8984 58.7115C39.8969 60.5217 39.2786 62.2909 38.1217 63.7954C36.9647 65.3 35.3211 66.4724 33.3985 67.1645C31.476 67.8566 29.3607 68.0373 27.3201 67.6838C25.2794 67.3304 23.4051 66.4585 21.9338 65.1785C20.4626 63.8985 19.4605 62.2678 19.0542 60.4925C18.6479 58.7172 18.8556 56.8769 19.6511 55.2042C20.4466 53.5316 21.7943 52.1016 23.5236 51.0951C25.253 50.0886 27.2865 49.5507 29.3672 49.5493C30.7505 49.5484 32.1204 49.7848 33.3985 50.2449C34.6767 50.7051 35.8381 51.3799 36.8162 52.2309C37.7943 53.0818 38.57 54.0922 39.0989 55.2042C39.6278 56.3162 39.8995 57.5081 39.8984 58.7115Z" fill="#EAA14E"/>
<path id="Vector_4" d="M29.3672 65.3181C27.8653 65.3181 26.3971 64.9306 25.1483 64.2047C23.8995 63.4788 22.9262 62.447 22.3515 61.2398C21.7767 60.0326 21.6263 58.7042 21.9194 57.4227C22.2124 56.1411 22.9356 54.9639 23.9976 54.04C25.0596 53.1161 26.4127 52.4868 27.8857 52.2319C29.3588 51.977 30.8856 52.1078 32.2732 52.6079C33.6608 53.1079 34.8468 53.9547 35.6812 55.0411C36.5156 56.1276 36.9609 57.4049 36.9609 58.7115C36.9609 60.4637 36.1609 62.1441 34.7368 63.3831C33.3127 64.6221 31.3812 65.3181 29.3672 65.3181Z" fill="#F6B863"/>
<path id="Vector_5" d="M29.3672 62.7622C28.4401 62.7622 27.5338 62.523 26.763 62.0749C25.9921 61.6268 25.3913 60.9899 25.0365 60.2447C24.6817 59.4995 24.5889 58.6796 24.7698 57.8885C24.9506 57.0974 25.3971 56.3707 26.0526 55.8004C26.7082 55.2301 27.5434 54.8417 28.4527 54.6843C29.362 54.527 30.3045 54.6077 31.161 54.9164C32.0175 55.225 32.7496 55.7478 33.2647 56.4184C33.7798 57.089 34.0547 57.8775 34.0547 58.6841C34.0547 59.7657 33.5608 60.803 32.6818 61.5678C31.8027 62.3325 30.6104 62.7622 29.3672 62.7622Z" fill="#EAA14E"/>
<path id="Vector_6" d="M29.3672 60.2069C29.0273 60.2069 28.6949 60.1192 28.4123 59.9549C28.1297 59.7906 27.9094 59.5571 27.7793 59.2839C27.6492 59.0106 27.6151 58.71 27.6815 58.4199C27.7478 58.1298 27.9115 57.8634 28.1518 57.6543C28.3922 57.4452 28.6985 57.3027 29.0319 57.245C29.3653 57.1873 29.7109 57.217 30.0249 57.3301C30.339 57.4433 30.6074 57.635 30.7963 57.8809C30.9851 58.1268 31.0859 58.4159 31.0859 58.7116C31.0859 59.1082 30.9049 59.4885 30.5825 59.769C30.2602 60.0494 29.823 60.2069 29.3672 60.2069Z" fill="#F6B863"/>
</g>
</svg>
