<svg width="64" height="19" viewBox="0 0 64 19" fill="none" xmlns="http://www.w3.org/2000/svg">
<g id="Group 10108">
<path id="Vector" d="M33.8066 18.7392C50.482 18.7392 64 16.9452 64 14.7322C64 12.5191 50.482 10.7251 33.8066 10.7251C17.1313 10.7251 3.61322 12.5191 3.61322 14.7322C3.61322 16.9452 17.1313 18.7392 33.8066 18.7392Z" fill="#F2F2F2"/>
<path id="Vector_2" d="M53.7583 3.11842C51.3757 3.4792 51.4955 2.93557 49.761 2.46739C48.0264 1.9992 47.7024 2.35178 43.7283 4.45493C39.7543 6.55808 38.0545 7.26241 36.7878 6.67041C35.5211 6.07841 33.949 4.13351 32.0706 4.05561C30.1922 3.97772 28.7708 5.6832 27.9705 6.08251C27.1701 6.48182 23.6283 6.91804 21.0299 7.80275C18.4316 8.68747 18.2429 8.32505 16.697 7.84785C15.1512 7.37064 14.2015 8.02496 10.6288 8.91131C6.63928 9.90099 5.16844 9.29997 5.22025 8.71863C5.24268 8.46854 3.7958 8.12089 2.62964 7.89131C1.46348 7.66172 0.850232 7.01069 0.499146 7.93968C0.14806 8.86868 -0.259476 11.6024 0.216114 11.8549C0.691704 12.1075 1.25236 12.3928 0.719545 12.7077C0.185956 13.0225 0.643761 14.7395 0.663094 15.748C0.682427 16.7557 2.95675 18.0971 3.62489 17.9044C4.29227 17.7118 5.01068 16.6237 4.31624 16.3892C3.32176 16.053 3.16555 13.954 4.15694 13.626C5.14833 13.298 4.59541 12.9758 4.58226 12.4895C4.56912 12.0033 7.5286 11.9582 10.6195 12.2837C13.7105 12.6101 17.3714 12.4412 18.396 12.5847C19.4207 12.7281 19.6774 12.2993 20.5667 12.6937C21.456 13.0873 26.2421 14.013 29.2024 13.5645C32.1618 13.116 34.846 11.8098 36.4097 12.3469C37.9733 12.8839 41.6613 12.7577 43.4817 12.4945C45.302 12.2313 47.7264 11.5245 49.0611 10.5815C50.3966 9.63861 50.9434 7.22387 51.8134 6.70239C52.6834 6.1809 53.7374 6.45149 54.4048 6.63024C55.0721 6.80898 53.7583 3.11842 53.7583 3.11842Z" fill="#FFD1A3"/>
<path id="Vector_3" d="M5.22562 8.78102C5.2233 8.76052 5.21866 8.7392 5.22098 8.71871C5.24341 8.46862 3.79653 8.12097 2.63037 7.89138C1.46421 7.6618 0.850965 7.01077 0.499879 7.93976C0.148793 8.86876 -0.258743 11.6024 0.216847 11.855C0.692437 12.1075 1.25309 12.3929 0.720277 12.7077C0.186688 13.0226 0.644493 14.7395 0.663826 15.7481C0.683159 16.7558 2.95748 18.0972 3.62563 17.9045C4.293 17.7118 5.01141 16.6238 4.31698 16.3893C3.32249 16.0531 3.16628 13.954 4.15767 13.6261C4.57604 13.4875 4.71756 13.3497 4.74307 13.2013C4.81035 13.0111 4.53041 12.2576 4.46004 12.1206C4.22882 11.6713 3.56995 12.3978 3.3078 12.4995C3.04564 12.5987 4.90005 9.53619 5.22562 8.78102Z" fill="#C9C9C9"/>
<path id="Vector_4" d="M39.0095 6.64601C38.0568 6.93709 37.3739 6.94447 36.7885 6.67061C35.5219 6.07861 33.9497 4.1337 32.0713 4.05581C30.1929 3.97791 28.7716 5.68339 27.9712 6.08271C27.1708 6.48202 23.629 6.91823 21.0307 7.80295C20.7569 7.89642 20.5156 7.97267 20.2914 8.03909C20.3656 9.78721 20.4708 11.4369 20.562 12.6898C20.5644 12.6906 20.5659 12.6906 20.5675 12.6914C21.4568 13.085 26.2428 14.0107 29.2031 13.5622C32.1626 13.1137 34.8468 11.8075 36.4104 12.3446C36.8999 12.5127 37.599 12.616 38.3831 12.6701C38.5795 11.0081 38.8788 8.37444 39.0095 6.64601Z" fill="#2D2D3D"/>
<path id="Vector_5" d="M49.3998 2.46981C48.096 1.86551 47.6815 2.3624 43.7283 4.45489C39.7542 6.55805 36.3323 6.41948 36.091 6.24975L36.3145 12.3214C36.3454 12.3304 36.3787 12.3354 36.4088 12.346C37.9725 12.8831 41.6604 12.7568 43.4808 12.4936C45.3012 12.2304 48.1895 12.0385 49.3472 10.8603C52.9601 7.18284 51.1065 3.26106 49.3998 2.46981Z" fill="#5D5D5D"/>
<path id="Vector_6" d="M60.1837 6.33184C59.466 7.05421 58.586 7.69704 58.3578 7.80035C58.1297 7.90367 57.9155 7.55847 57.624 7.78395C57.3324 8.00944 56.945 8.45221 56.6712 8.87202C56.4037 9.28199 56.1647 9.15982 56.0155 8.83676C55.8662 8.51452 55.86 8.52846 55.6335 8.6203C55.4069 8.71131 55.4192 8.68261 55.352 8.58996C55.2847 8.49731 55.096 8.69327 55.0017 8.5875C54.9073 8.48173 54.748 8.41449 54.4936 8.49321C54.2399 8.57192 54.0304 8.77527 53.8154 8.39563C53.6004 8.016 53.6862 6.82872 53.3189 6.63358C52.7761 6.34414 51.7096 6.35808 51.7096 6.35808L51.6718 3.25541C51.6718 3.25541 52.7838 3.18818 53.0916 3.04059C53.3993 2.89218 55.154 1.14488 55.8902 0.931696C56.6264 0.718511 58.0207 0.515985 59.2564 1.38184C60.4914 2.2477 61.2207 5.28805 60.1837 6.33184Z" fill="#FFD1A3"/>
<path id="Vector_7" d="M60.7445 4.29837C60.8311 5.30443 60.2705 6.41546 60.1011 6.69916C59.9318 6.98286 59.9078 7.13619 59.9078 7.13619C59.9078 7.13619 59.8869 7.36003 59.8328 6.9271C59.7794 6.49417 59.7176 7.14111 59.6719 7.07551C59.6263 7.00992 59.6209 6.4294 59.416 6.10962C59.211 5.78984 58.9821 5.65455 58.9643 5.79394C58.9466 5.93333 58.8267 5.59797 58.5777 5.47088C58.3287 5.34379 57.9822 5.60371 57.7348 5.51188C57.4873 5.42005 56.8501 5.84478 56.7279 5.63077C56.6057 5.41677 56.5184 5.14127 57.0024 4.79033C57.4865 4.44022 56.8532 3.96547 56.325 4.19013C55.7961 4.4148 55.7814 4.71982 55.2169 4.27787C54.6523 3.8351 53.5604 3.2882 53.2186 3.20456C52.8768 3.12175 52.7067 2.79623 52.7067 2.79623C52.7067 2.79623 53.0183 2.79295 53.0933 2.73309C53.1676 2.67324 54.9949 0.466773 56.4774 0.0920592C57.9598 -0.281835 59.9998 0.443815 60.6177 2.99466C60.8443 3.92857 60.9293 4.62224 60.8342 4.54435C60.7368 4.46645 60.7445 4.29837 60.7445 4.29837Z" fill="#3D311E"/>
<path id="Vector_8" d="M36.177 8.56271C34.1331 7.86903 31.5618 7.32213 28.941 8.59714C26.3203 9.87215 26.1803 10.2821 26.1803 10.2821C26.1803 10.2821 29.8296 8.00105 31.8595 8.49711C33.8895 8.99318 36.2342 10.137 36.2342 10.137L36.177 8.56271Z" fill="#595959"/>
<path id="Vector_9" d="M52.6733 14.3369C55.2779 13.9392 58.4237 13.2324 59.32 13.6523C60.2163 14.0721 61.1953 13.895 61.5495 13.6523C61.9036 13.4096 61.8201 11.9296 61.7992 11.5319C61.7784 11.1342 61.0074 11.0678 61.0074 11.0678C61.0074 11.0678 60.9656 10.8251 60.7993 10.7587C60.6323 10.6923 59.7368 10.6037 59.2156 11.0678C58.6944 11.5319 58.4446 11.8853 56.6737 11.7082C54.9028 11.5311 50.9442 10.8464 50.59 10.5594C50.5057 10.4914 50.4779 10.3175 50.4787 10.0781L49.2491 14.7247C50.0564 14.737 51.177 14.5657 52.6733 14.3369Z" fill="#FFD1A3"/>
<path id="Vector_10" d="M52.6733 14.3369C55.2779 13.9392 58.4237 13.2324 59.32 13.6523C60.2163 14.0721 61.1953 13.895 61.5495 13.6523C61.9036 13.4096 61.8201 11.9296 61.7992 11.5319C61.7784 11.1342 61.0074 11.0678 61.0074 11.0678C61.0074 11.0678 60.9656 10.8251 60.7993 10.7587C60.6323 10.6923 59.7368 10.6037 59.2156 11.0678C58.6944 11.5319 58.4446 11.8853 56.6737 11.7082C54.9028 11.5311 50.9442 10.8464 50.59 10.5594C50.5057 10.4914 50.4779 10.3175 50.4787 10.0781L49.2491 14.7247C50.0564 14.737 51.177 14.5657 52.6733 14.3369Z" fill="#E6E6E6"/>
<path id="Vector_11" d="M47.707 3.60474C49.3936 3.70149 51.3114 4.22297 51.3741 6.38844C51.4367 8.55309 50.9155 9.2607 51.1034 10.8727C51.2905 12.4855 50.6866 14.5395 51.0408 14.8273C51.3949 15.1143 55.3535 15.7997 57.1244 15.976C58.8953 16.1523 59.1451 15.7997 59.6663 15.3357C60.1876 14.8716 61.0831 14.9601 61.2501 15.0265C61.4171 15.093 61.4589 15.3357 61.4589 15.3357C61.4589 15.3357 62.2299 15.4021 62.2508 15.7997C62.2716 16.1974 62.3552 17.6774 62.001 17.9209C61.6468 18.1636 60.6678 18.3407 59.7715 17.9209C58.8752 17.5011 55.7294 18.2079 53.1249 18.6056C50.5203 19.0033 49.0201 19.246 48.4161 18.6056C47.8122 17.9652 47.4371 14.0549 47.2492 12.265C47.0613 10.4759 47.6034 9.43699 46.6452 8.66378C45.6871 7.89058 45.5201 5.81367 45.8742 4.84203C46.2276 3.86958 47.4023 3.58752 47.707 3.60474Z" fill="#FFD1A3"/>
</g>
</svg>
