<svg width="52" height="38" viewBox="0 0 52 38" fill="none" xmlns="http://www.w3.org/2000/svg">
<g id="Group">
<path id="Vector" d="M50.3019 16.6616C47.3675 13.7039 44.5714 10.8334 41.637 7.8757C41.1249 7.36819 40.8894 7.03528 40.2952 6.84438C39.3833 6.63719 38.3331 6.34269 37.3726 6.0127C28.2388 3.37858 18.7495 -0.677372 10.0219 -6.73951C4.2957 -10.7227 -1.14313 -15.8141 -5.21845 -22.4397C-5.21845 -22.4397 -5.82346 -21.3478 -5.91313 -21.3123C-8.5645 -15.4329 -11.2645 -9.67623 -13.9159 -3.79679C-14.3005 -2.93426 -14.5955 -2.10724 -15.0287 -1.3675C-14.8569 -1.71962 -14.5058 -2.14274 -14.334 -2.49485C-11.6827 -8.37429 -8.98264 -14.1309 -6.33127 -20.0103C-5.94664 -20.8729 -5.6517 -21.6999 -5.21845 -22.4397L-5.91313 -21.3123C1.33643 -9.55116 12.6689 -2.67363 22.9469 2.06443C27.1216 3.96292 31.3785 5.5448 35.6278 6.84556C36.8162 7.22736 37.956 7.48634 39.1445 7.86813C39.6004 7.97173 39.9181 7.98804 40.2433 8.28544C40.8937 8.88025 41.5927 9.59786 42.2917 10.3155L45.413 13.4833C46.8111 14.9185 48.2092 16.3537 49.6072 17.789L50.3019 16.6616Z" fill="#FFA066"/>
<path id="Vector_2" d="M50.4738 16.3096C48.5636 14.3668 46.7021 12.5469 44.8816 10.5687C43.9956 9.64096 42.9714 8.62595 42.0854 7.69824C41.5733 7.19073 41.1509 6.64772 40.5566 6.45682C38.587 5.67403 36.584 5.33066 34.5733 4.70617C32.5627 4.08169 30.7314 3.38619 28.7618 2.6034C20.932 -0.404961 12.844 -4.58953 5.65599 -10.693C1.76109 -13.9807 -1.8799 -17.9372 -4.81862 -22.7399C-4.96447 -23.1083 -5.37177 -23.0891 -5.45389 -22.7725C-5.57706 -22.2976 -5.88713 -22.0328 -6.05892 -21.6806C-6.53323 -20.7826 -6.95895 -19.7618 -7.38464 -18.7409C-8.19496 -16.8576 -9.14354 -15.0615 -9.95386 -13.1781C-11.6642 -9.37586 -13.4642 -5.53809 -15.1745 -1.73584C-15.3873 -1.22542 -14.7369 -0.630612 -14.5241 -1.14103C-12.709 -4.41657 -11.2677 -8.1123 -9.6395 -11.5979C-8.0113 -15.0836 -6.34201 -18.7276 -4.76242 -22.336C-4.54958 -22.8464 -5.20001 -23.4412 -5.41286 -22.9308L-6.10754 -21.8035C-6.28689 -21.7325 -6.14105 -21.364 -6.09243 -21.2412C-1.16467 -13.2486 5.5598 -7.52981 12.5641 -3.2003C20.1216 1.47842 28.0973 4.85519 35.953 7.14303C37.2312 7.48931 38.868 7.69359 40.064 8.35649C41.1217 8.93209 42.0638 10.2637 42.9498 11.1914C45.0468 13.3443 47.2823 15.5844 49.5176 17.8245C49.7045 18.0346 49.8839 17.9636 50.0146 17.7698C50.2761 17.3822 50.5375 16.9946 50.7093 16.6425C50.9222 16.132 50.2717 15.5373 50.0589 16.0477C49.7974 16.4353 49.6743 16.9102 49.3642 17.175L49.8126 16.9975C47.9996 15.3004 46.2277 13.4449 44.3176 11.5022C43.4803 10.6973 42.7326 9.85689 41.8953 9.05198C41.1963 8.33437 40.5869 7.58127 39.8544 7.30307C37.7951 6.55579 35.564 6.16061 33.4151 5.44882C31.2661 4.73704 29.2069 3.98974 27.099 3.11965C19.4486 0.0402876 11.6858 -3.84689 4.72573 -9.89856C0.920509 -13.2218 -2.58217 -17.0909 -5.47227 -21.7708L-5.45716 -21.2086L-4.76242 -22.336L-5.41286 -22.9308C-6.99244 -19.3224 -8.7103 -15.8012 -10.2899 -12.1928C-11.8695 -8.58432 -13.3594 -5.01138 -15.1745 -1.73584L-14.5241 -1.14103C-12.683 -5.13709 -10.9317 -9.09768 -9.09063 -13.0937C-8.19063 -15.0126 -7.29064 -16.9315 -6.43927 -18.9732C-6.05463 -19.8357 -5.75968 -20.6627 -5.32642 -21.4024C-5.15464 -21.7546 -4.84456 -22.0194 -4.72139 -22.4943L-5.35665 -22.5269C-0.290591 -14.4469 6.66183 -8.67636 13.7148 -4.22404C21.1826 0.490173 29.061 3.62133 36.8271 5.94467C38.0155 6.32646 39.2861 6.39164 40.4335 6.93174C41.5323 7.34903 42.523 8.80347 43.5473 9.81848C45.7826 12.0586 48.018 14.2987 50.2534 16.5389C50.6272 16.9591 51.0604 16.2194 50.6866 15.7991L50.4738 16.3096Z" fill="#FFA066"/>
</g>
</svg>
