<svg width="308" height="297" viewBox="0 0 308 297" fill="none" xmlns="http://www.w3.org/2000/svg">
<path d="M493.925 123.888C495.639 116.835 496.897 109.97 497.838 103C506.931 41.6613 494.516 -19.5147 471.653 -75.6816C447.426 -135.518 408.298 -193.682 344.363 -220.939C304.992 -237.865 258.434 -241.252 213.742 -233.184C131.448 -218.088 57.6332 -162.761 21.3181 -93.499C-6.92245 -40.022 -9.90144 22.3242 36.3653 63.2078C79.9372 101.675 142.235 117.384 187.644 153.919C218.262 178.447 239.621 211.256 257.296 244.878C265.425 260.099 273.225 276.397 288.447 286.346C304.567 297.101 326.96 298.924 347.205 294.11C367.45 289.296 386.218 278.743 402.557 266.371C450.294 230.015 480.926 177.668 493.609 123.783L493.925 123.888Z" fill="#FF8033"/>
</svg>
