<svg width="132" height="132" viewBox="0 0 132 132" fill="none" xmlns="http://www.w3.org/2000/svg">
<g id="24487819_6961923 1">
<g id="Background_Complete">
<path id="Vector" d="M5.45398 124.413L13.6105 107.749H118.24C118.24 107.749 126.854 124.135 127.41 124.413C127.965 124.691 5.45398 124.413 5.45398 124.413Z" fill="#E0E0E0"/>
</g>
<g id="Floor">
<g id="Group">
<path id="Vector_2" d="M125.49 103.803C125.49 103.841 98.6169 103.872 65.4749 103.872C32.3215 103.872 5.45398 103.841 5.45398 103.803C5.45398 103.765 32.3213 103.734 65.4749 103.734C98.6169 103.734 125.49 103.765 125.49 103.803Z" fill="#263238"/>
</g>
</g>
<g id="Plant">
<g id="Group_2">
<g id="Group_3">
<g id="Group_4">
<g id="Group_5">
<g id="Group_6">
<g id="Group_7">
<g id="Group_8">
<path id="Vector_3" d="M104.845 83.4666C104.929 83.6733 104.965 83.8987 104.95 84.121C105.003 83.8583 105.104 83.6057 105.248 83.3794C105.301 83.295 105.386 83.2041 105.483 83.2287C105.581 83.2535 105.612 83.3755 105.615 83.4758C105.625 83.7511 105.562 84.0286 105.434 84.2728C105.612 84.0474 105.846 83.8663 106.108 83.7504C106.155 83.7298 106.211 83.7118 106.255 83.7387C106.305 83.7704 106.307 83.8425 106.298 83.9014C106.232 84.3647 105.904 84.7813 105.47 84.9547L105.327 84.9756C105.023 84.8919 104.754 84.6907 104.587 84.4236C104.42 84.1564 104.358 83.8256 104.416 83.5159C104.438 83.3979 104.505 83.2606 104.625 83.2585C104.732 83.2569 104.805 83.3665 104.845 83.4666Z" fill="#FF6000"/>
</g>
</g>
</g>
</g>
</g>
</g>
<g id="Group_9">
<g id="Group_10">
<g id="Group_11">
<g id="Group_12">
<g id="Group_13">
<g id="Group_14">
<g id="Group_15">
<g id="Group_16">
<path id="Vector_4" d="M108.047 89.8604C107.716 89.6212 107.092 89.3926 106.69 89.3134C106.975 88.3416 106.991 87.2925 106.728 86.3144C106.624 85.9276 106.475 85.5456 106.222 85.2351C105.969 84.9244 105.602 84.691 105.203 84.6662C104.772 84.6396 104.358 84.8632 104.071 85.1905L103.57 86.349C103.541 86.5176 103.519 86.6879 103.51 86.8579C103.448 87.9776 103.705 89.1128 104.241 90.0978C103.719 90.6733 103.154 91.6654 103.324 92.8151H109.271C109.375 91.7121 108.955 90.5159 108.047 89.8604Z" fill="#455A64"/>
</g>
</g>
</g>
</g>
</g>
</g>
<g id="Group_17">
<g id="Group_18">
<g id="Group_19">
<g id="Group_20">
<g id="Group_21">
<g id="Group_22">
<g id="Group_23">
<path id="Vector_5" d="M103.976 90.4673C103.973 90.4654 103.989 90.4433 104.02 90.4026C104.054 90.3638 104.097 90.2994 104.168 90.2315C104.301 90.0877 104.52 89.9007 104.827 89.7276C105.133 89.5536 105.535 89.4065 106 89.3532C106.463 89.2986 106.991 89.3506 107.491 89.5612C107.988 89.7801 108.389 90.1286 108.667 90.5027C108.947 90.8775 109.116 91.2706 109.2 91.6125C109.285 91.9547 109.299 92.2424 109.286 92.438C109.286 92.5363 109.268 92.6115 109.263 92.6624C109.255 92.7134 109.25 92.7398 109.247 92.7395C109.22 92.7411 109.322 92.3005 109.138 91.6292C109.049 91.2965 108.877 90.9153 108.601 90.5531C108.326 90.1914 107.936 89.8561 107.456 89.6444C106.973 89.4409 106.461 89.3873 106.009 89.4361C105.556 89.4836 105.161 89.6206 104.858 89.7841C104.243 90.1112 103.993 90.4876 103.976 90.4673Z" fill="#263238"/>
</g>
</g>
</g>
</g>
</g>
</g>
</g>
<g id="Group_24">
<g id="Group_25">
<g id="Group_26">
<g id="Group_27">
<g id="Group_28">
<g id="Group_29">
<g id="Group_30">
<path id="Vector_6" d="M103.479 87.2843C103.467 87.2837 103.458 87.1335 103.468 86.8901C103.479 86.6478 103.508 86.3072 103.628 85.9495C103.748 85.5912 103.952 85.3037 104.137 85.1401C104.321 84.9732 104.469 84.9201 104.472 84.9286C104.48 84.9421 104.347 85.0144 104.182 85.186C104.015 85.3549 103.83 85.634 103.714 85.9788C103.598 86.3238 103.558 86.6562 103.532 86.8954C103.506 87.1348 103.492 87.2848 103.479 87.2843Z" fill="#263238"/>
</g>
</g>
</g>
</g>
</g>
</g>
</g>
<g id="Group_31">
<g id="Group_32">
<g id="Group_33">
<g id="Group_34">
<g id="Group_35">
<g id="Group_36">
<g id="Group_37">
<path id="Vector_7" d="M106.917 92.0584C106.901 92.0386 107.162 91.7981 107.473 91.4905C107.784 91.1838 108.027 90.925 108.047 90.9417C108.065 90.957 107.851 91.2445 107.536 91.5547C107.223 91.8657 106.932 92.0771 106.917 92.0584Z" fill="#263238"/>
</g>
</g>
</g>
</g>
</g>
</g>
</g>
<g id="Group_38">
<g id="Group_39">
<g id="Group_40">
<g id="Group_41">
<g id="Group_42">
<g id="Group_43">
<g id="Group_44">
<path id="Vector_8" d="M106.254 91.7122C106.23 91.7064 106.273 91.4422 106.351 91.1225C106.429 90.8025 106.511 90.548 106.535 90.5538C106.56 90.5596 106.516 90.8236 106.439 91.1436C106.361 91.4636 106.279 91.718 106.254 91.7122Z" fill="#263238"/>
</g>
</g>
</g>
</g>
</g>
</g>
</g>
<g id="Group_45">
<g id="Group_46">
<g id="Group_47">
<g id="Group_48">
<g id="Group_49">
<g id="Group_50">
<g id="Group_51">
<path id="Vector_9" d="M104.489 91.0513C104.508 91.0379 104.682 91.2676 104.827 91.5888C104.974 91.9099 105.032 92.1916 105.009 92.1976C104.984 92.205 104.888 91.9402 104.745 91.6261C104.603 91.3116 104.467 91.0653 104.489 91.0513Z" fill="#263238"/>
</g>
</g>
</g>
</g>
</g>
</g>
</g>
<g id="Group_52">
<g id="Group_53">
<g id="Group_54">
<g id="Group_55">
<g id="Group_56">
<g id="Group_57">
<g id="Group_58">
<path id="Vector_10" d="M106.398 88.2744C106.379 88.2593 106.559 87.9877 106.801 87.6674C107.043 87.3472 107.255 87.1001 107.275 87.1149C107.295 87.1299 107.115 87.4016 106.873 87.7218C106.631 88.0421 106.418 88.2894 106.398 88.2744Z" fill="#263238"/>
</g>
</g>
</g>
</g>
</g>
</g>
</g>
<g id="Group_59">
<g id="Group_60">
<g id="Group_61">
<g id="Group_62">
<g id="Group_63">
<g id="Group_64">
<g id="Group_65">
<path id="Vector_11" d="M105.978 86.4145C105.958 86.4005 106.162 86.0671 106.434 85.6701C106.706 85.273 106.943 84.9625 106.964 84.9765C106.984 84.9905 106.78 85.3239 106.508 85.721C106.236 86.1181 105.999 86.4288 105.978 86.4145Z" fill="#263238"/>
</g>
</g>
</g>
</g>
</g>
</g>
</g>
<g id="Group_66">
<g id="Group_67">
<g id="Group_68">
<g id="Group_69">
<g id="Group_70">
<g id="Group_71">
<g id="Group_72">
<path id="Vector_12" d="M105.309 86.9024C105.333 86.9008 105.371 87.183 105.393 87.5323C105.415 87.8818 105.413 88.1664 105.388 88.168C105.363 88.1696 105.325 87.8876 105.303 87.5381C105.281 87.1885 105.284 86.9039 105.309 86.9024Z" fill="#263238"/>
</g>
</g>
</g>
</g>
</g>
</g>
</g>
<g id="Group_73">
<g id="Group_74">
<g id="Group_75">
<g id="Group_76">
<g id="Group_77">
<g id="Group_78">
<g id="Group_79">
<path id="Vector_13" d="M102.637 87.7488C102.648 87.7272 103.034 87.907 103.481 88.18C103.928 88.4524 104.264 88.713 104.25 88.7328C104.236 88.7536 103.878 88.5276 103.434 88.257C102.99 87.9856 102.625 87.7713 102.637 87.7488Z" fill="#263238"/>
</g>
</g>
</g>
</g>
</g>
</g>
</g>
<g id="Group_80" opacity="0.3">
<g id="Group_81">
<g id="Group_82">
<g id="Group_83">
<g id="Group_84">
<g id="Group_85">
<g id="Group_86">
<path id="Vector_14" d="M104.778 89.3495C105.066 89.1802 105.408 89.128 105.742 89.1116C106.088 89.0944 106.476 89.1295 106.71 89.3851V89.3975C105.878 89.3384 104.907 89.623 104.268 90.1594C104.263 89.8252 104.489 89.5187 104.778 89.3495Z" fill="black"/>
</g>
</g>
</g>
</g>
</g>
</g>
</g>
</g>
<g id="Group_87">
<g id="Group_88">
<g id="Group_89">
<g id="Group_90">
<g id="Group_91">
<g id="Group_92">
<path id="Vector_15" d="M107.604 77.6697C107.774 77.6242 107.953 77.6171 108.126 77.6493C107.926 77.5836 107.738 77.4806 107.574 77.347C107.513 77.2971 107.45 77.2219 107.479 77.1485C107.507 77.0749 107.605 77.0619 107.684 77.0688C107.901 77.087 108.111 77.1625 108.29 77.2855C108.131 77.1253 108.011 76.9254 107.946 76.7092C107.934 76.6707 107.925 76.625 107.95 76.5939C107.98 76.5574 108.036 76.563 108.082 76.5751C108.438 76.6704 108.733 76.9661 108.827 77.3222L108.83 77.4355C108.736 77.6652 108.554 77.8571 108.329 77.9622C108.104 78.0675 107.84 78.0849 107.604 78.0105C107.513 77.982 107.412 77.9168 107.422 77.8228C107.43 77.7383 107.522 77.6916 107.604 77.6697Z" fill="#FF6000"/>
</g>
</g>
</g>
</g>
</g>
</g>
<g id="Group_93">
<g id="Group_94">
<g id="Group_95">
<g id="Group_96">
<g id="Group_97">
<g id="Group_98">
<path id="Vector_16" d="M119.599 70.0685C119.63 70.2412 119.622 70.4207 119.576 70.5899C119.658 70.3956 119.776 70.2169 119.923 70.0656C119.978 70.0091 120.058 69.9524 120.129 69.987C120.2 70.0215 120.204 70.1205 120.191 70.1984C120.155 70.4123 120.062 70.6163 119.924 70.7842C120.098 70.6388 120.307 70.5363 120.528 70.4888C120.567 70.4804 120.613 70.4754 120.642 70.5031C120.676 70.5356 120.666 70.5915 120.65 70.6356C120.525 70.9822 120.206 71.2515 119.843 71.3159L119.73 71.3093C119.509 71.1963 119.333 70.9983 119.247 70.7655C119.161 70.5329 119.166 70.2679 119.26 70.0384C119.296 69.9511 119.369 69.8557 119.462 69.8732C119.545 69.889 119.584 69.9851 119.599 70.0685Z" fill="#FF6000"/>
</g>
</g>
</g>
</g>
</g>
</g>
<g id="Group_99">
<g id="Group_100">
<g id="Group_101">
<g id="Group_102">
<g id="Group_103">
<g id="Group_104">
<path id="Vector_17" d="M111.248 85.6201C111.336 85.6233 111.419 85.6336 111.503 85.6415C111.657 83.9427 111.142 82.2177 111.661 80.5936L111.592 80.682C110.967 80.7641 110.317 80.7393 109.728 80.5149C109.139 80.2905 108.616 79.8496 108.379 79.2654C108.143 78.6812 108.231 77.9551 108.667 77.4997C109.255 76.8854 110.291 76.9176 111.029 77.3408C111.74 77.7492 112.239 78.4351 112.708 79.1104C112.956 78.9164 113.227 78.7548 113.521 78.6434C112.701 77.5148 111.908 76.3297 111.65 74.9664C111.367 73.4748 111.924 71.7076 113.308 71.0851C114.487 70.5547 115.966 71.0339 116.797 72.0244C116.862 72.102 116.917 72.1857 116.975 72.2678L116.947 72.1873C117.153 71.6696 117.556 71.2263 118.068 71.0067C118.58 70.787 119.196 70.8044 119.678 71.084C120.159 71.3636 120.485 71.9088 120.468 72.4653C120.449 73.0928 120.008 73.6607 119.444 73.9355C118.903 74.1992 118.27 74.2201 117.679 74.0986C117.755 74.6227 117.752 75.1618 117.671 75.6829C117.486 76.8696 116.957 77.9731 116.328 78.9995C116.502 79.117 116.666 79.2472 116.812 79.399C117.88 80.5175 117.949 82.3138 117.389 83.7558C116.829 85.198 115.313 86.2614 114.261 87.3955L114.259 87.3947C114.712 88.1601 114.95 89.074 115.068 89.9318C115.433 89.1667 116.25 88.6184 117.104 88.6247C117.563 88.6281 118.077 88.8325 118.219 89.2689C118.344 89.6535 118.134 90.0704 117.86 90.3684C117.223 91.0625 116.083 91.3798 115.167 91.157L115.156 90.8761C115.214 91.9783 115.109 92.8147 115.109 92.8147H108.323C108.323 92.8152 106.51 85.4446 111.248 85.6201Z" fill="#455A64"/>
</g>
</g>
</g>
</g>
</g>
</g>
<g id="Group_105">
<g id="Group_106">
<g id="Group_107">
<g id="Group_108">
<g id="Group_109">
<g id="Group_110">
<g id="Group_111">
<g id="Group_112">
<path id="Vector_18" d="M100.545 95.6611H116.602V92.8152H100.545V95.6611Z" fill="#FF6000"/>
</g>
</g>
</g>
</g>
</g>
</g>
</g>
<g id="Group_113">
<g id="Group_114">
<g id="Group_115">
<g id="Group_116">
<g id="Group_117">
<g id="Group_118">
<g id="Group_119">
<path id="Vector_19" d="M115.402 95.0967L113.45 103.601H103.88L101.744 95.0967H115.402Z" fill="#FF6000"/>
</g>
</g>
</g>
</g>
</g>
</g>
</g>
<g id="Group_120">
<g id="Group_121">
<g id="Group_122">
<g id="Group_123">
<g id="Group_124">
<g id="Group_125">
<g id="Group_126">
<g id="Group_127">
<path id="Vector_20" d="M100.554 95.6649C100.554 95.696 104.175 95.7214 108.642 95.7214C113.11 95.7214 116.731 95.696 116.731 95.6649C116.731 95.6337 113.11 95.6084 108.642 95.6084C104.175 95.6084 100.554 95.6337 100.554 95.6649Z" fill="#263238"/>
</g>
</g>
</g>
</g>
</g>
</g>
</g>
</g>
</g>
<g id="Group_128">
<g id="Group_129">
<g id="Group_130">
<g id="Group_131">
<g id="Group_132">
<g id="Group_133">
<g id="Group_134">
<path id="Vector_21" d="M109.989 85.8999C109.988 85.8972 110.02 85.879 110.082 85.8468C110.143 85.812 110.239 85.7721 110.364 85.7259C110.615 85.6372 111.003 85.5596 111.481 85.5971C111.957 85.6353 112.522 85.7988 113.054 86.1475C113.586 86.4955 114.058 87.0343 114.404 87.6755C114.751 88.3189 114.949 88.9934 115.051 89.6149C115.15 90.2382 115.16 90.8063 115.16 91.2805C115.157 91.7551 115.142 92.1385 115.133 92.4033C115.128 92.5279 115.123 92.6287 115.12 92.7082C115.116 92.7779 115.112 92.8146 115.109 92.8146C115.106 92.8146 115.104 92.7779 115.102 92.7082C115.101 92.6287 115.099 92.5276 115.098 92.403C115.097 92.1263 115.097 91.7459 115.096 91.281C115.088 90.8084 115.072 90.2435 114.969 89.6286C114.864 89.0159 114.666 88.3506 114.325 87.7186C113.985 87.0884 113.524 86.5601 113.008 86.2169C112.492 85.8729 111.941 85.7061 111.476 85.6607C111.008 85.6161 110.625 85.6821 110.375 85.7594C110.123 85.837 109.994 85.9104 109.989 85.8999Z" fill="#263238"/>
</g>
</g>
</g>
</g>
</g>
</g>
</g>
<g id="Group_135">
<g id="Group_136">
<g id="Group_137">
<g id="Group_138">
<g id="Group_139">
<g id="Group_140">
<g id="Group_141">
<path id="Vector_22" d="M111.424 82.2974C111.421 82.2977 111.417 82.27 111.413 82.2169C111.411 82.1639 111.4 82.0857 111.404 81.9846C111.402 81.7826 111.425 81.4885 111.504 81.1348C111.585 80.7823 111.725 80.3676 111.976 79.9558C112.097 79.7485 112.249 79.5442 112.431 79.3549C112.61 79.1643 112.822 78.9877 113.066 78.8512C113.309 78.7126 113.567 78.6165 113.824 78.5597C114.082 78.5077 114.336 78.494 114.577 78.504C115.059 78.5317 115.48 78.655 115.813 78.7973C116.146 78.9394 116.399 79.0909 116.564 79.2068C116.649 79.2617 116.708 79.3134 116.751 79.3454C116.792 79.3784 116.813 79.3969 116.811 79.3995C116.807 79.4059 116.715 79.342 116.545 79.2364C116.375 79.1302 116.12 78.989 115.789 78.8565C115.458 78.7237 115.043 78.6096 114.573 78.5872C114.338 78.5798 114.092 78.5948 113.842 78.6463C113.593 78.7026 113.345 78.7957 113.111 78.9296C112.875 79.0613 112.67 79.2319 112.494 79.4161C112.317 79.5994 112.167 79.7976 112.046 79.9991C111.798 80.3995 111.653 80.8045 111.566 81.1498C111.48 81.4965 111.447 81.7855 111.439 81.9857C111.43 82.1858 111.432 82.2972 111.424 82.2974Z" fill="#263238"/>
</g>
</g>
</g>
</g>
</g>
</g>
</g>
<g id="Group_142">
<g id="Group_143">
<g id="Group_144">
<g id="Group_145">
<g id="Group_146">
<g id="Group_147">
<g id="Group_148">
<path id="Vector_23" d="M117.732 75.1171C117.719 75.1182 117.699 74.9088 117.675 74.5722C117.662 74.4041 117.644 74.2047 117.608 73.9864C117.572 73.7662 117.517 73.5331 117.415 73.2976C117.219 72.8253 116.98 72.4238 116.795 72.1434C116.61 71.8628 116.469 71.7084 116.479 71.6986C116.484 71.6944 116.524 71.7284 116.591 71.7963C116.656 71.8654 116.747 71.9692 116.847 72.1067C117.048 72.3813 117.299 72.7818 117.499 73.2633C117.602 73.5028 117.659 73.7515 117.69 73.9732C117.723 74.1966 117.733 74.3996 117.738 74.5688C117.746 74.9078 117.744 75.1163 117.732 75.1171Z" fill="#263238"/>
</g>
</g>
</g>
</g>
</g>
</g>
</g>
<g id="Group_149">
<g id="Group_150">
<g id="Group_151">
<g id="Group_152">
<g id="Group_153">
<g id="Group_154">
<g id="Group_155">
<path id="Vector_24" d="M116.856 90.3761C116.873 90.3573 117.08 90.5104 117.319 90.7182C117.558 90.926 117.739 91.1097 117.722 91.1285C117.706 91.1472 117.499 90.9941 117.26 90.7863C117.021 90.5785 116.84 90.3948 116.856 90.3761Z" fill="#263238"/>
</g>
</g>
</g>
</g>
</g>
</g>
</g>
<g id="Group_156">
<g id="Group_157">
<g id="Group_158">
<g id="Group_159">
<g id="Group_160">
<g id="Group_161">
<g id="Group_162">
<path id="Vector_25" d="M117.426 89.8091C117.424 89.7843 117.681 89.7389 118.001 89.7074C118.322 89.6763 118.583 89.671 118.586 89.6958C118.588 89.7206 118.331 89.7661 118.01 89.7975C117.69 89.8286 117.429 89.8339 117.426 89.8091Z" fill="#263238"/>
</g>
</g>
</g>
</g>
</g>
</g>
</g>
<g id="Group_163">
<g id="Group_164">
<g id="Group_165">
<g id="Group_166">
<g id="Group_167">
<g id="Group_168">
<g id="Group_169">
<path id="Vector_26" d="M116.994 88.8076C116.976 88.7889 117.14 88.6057 117.317 88.3617C117.495 88.1186 117.618 87.9061 117.642 87.9174C117.664 87.9272 117.573 88.164 117.39 88.4148C117.208 88.6664 117.01 88.8253 116.994 88.8076Z" fill="#263238"/>
</g>
</g>
</g>
</g>
</g>
</g>
</g>
<g id="Group_170">
<g id="Group_171">
<g id="Group_172">
<g id="Group_173">
<g id="Group_174">
<g id="Group_175">
<g id="Group_176">
<path id="Vector_27" d="M116.235 88.3482C116.259 88.3538 116.212 88.6481 116.129 89.0056C116.047 89.363 115.961 89.6484 115.936 89.6429C115.912 89.6373 115.959 89.343 116.042 88.9855C116.124 88.6281 116.21 88.3427 116.235 88.3482Z" fill="#263238"/>
</g>
</g>
</g>
</g>
</g>
</g>
</g>
<g id="Group_177">
<g id="Group_178">
<g id="Group_179">
<g id="Group_180">
<g id="Group_181">
<g id="Group_182">
<g id="Group_183">
<path id="Vector_28" d="M115.727 90.6424C115.71 90.6239 115.817 90.5001 115.966 90.366C116.115 90.2319 116.249 90.1381 116.266 90.1566C116.283 90.1751 116.175 90.2989 116.026 90.433C115.878 90.5671 115.743 90.6609 115.727 90.6424Z" fill="#263238"/>
</g>
</g>
</g>
</g>
</g>
</g>
</g>
<g id="Group_184">
<g id="Group_185">
<g id="Group_186">
<g id="Group_187">
<g id="Group_188">
<g id="Group_189">
<g id="Group_190">
<path id="Vector_29" d="M113.367 90.1982C113.349 90.181 113.479 90.0158 113.658 89.8297C113.837 89.6433 113.996 89.5063 114.014 89.5234C114.032 89.5406 113.902 89.7056 113.723 89.892C113.544 90.0784 113.385 90.2156 113.367 90.1982Z" fill="#263238"/>
</g>
</g>
</g>
</g>
</g>
</g>
</g>
<g id="Group_191">
<g id="Group_192">
<g id="Group_193">
<g id="Group_194">
<g id="Group_195">
<g id="Group_196">
<g id="Group_197">
<path id="Vector_30" d="M112.855 88.0191C112.833 88.0062 112.931 87.8082 113.072 87.5775C113.214 87.3465 113.345 87.1699 113.367 87.1828C113.388 87.1957 113.291 87.3937 113.149 87.6247C113.008 87.8555 112.876 88.0323 112.855 88.0191Z" fill="#263238"/>
</g>
</g>
</g>
</g>
</g>
</g>
</g>
<g id="Group_198">
<g id="Group_199">
<g id="Group_200">
<g id="Group_201">
<g id="Group_202">
<g id="Group_203">
<g id="Group_204">
<path id="Vector_31" d="M111.352 86.2451C111.377 86.2449 111.401 86.498 111.405 86.8109C111.409 87.1237 111.392 87.3777 111.367 87.3779C111.342 87.3782 111.318 87.125 111.314 86.8122C111.31 86.4994 111.327 86.2454 111.352 86.2451Z" fill="#263238"/>
</g>
</g>
</g>
</g>
</g>
</g>
</g>
<g id="Group_205">
<g id="Group_206">
<g id="Group_207">
<g id="Group_208">
<g id="Group_209">
<g id="Group_210">
<g id="Group_211">
<path id="Vector_32" d="M108.199 86.8463C108.221 86.832 108.406 87.0781 108.648 87.3698C108.888 87.6623 109.095 87.8909 109.077 87.9094C109.06 87.9268 108.822 87.7241 108.578 87.4274C108.333 87.1314 108.179 86.8595 108.199 86.8463Z" fill="#263238"/>
</g>
</g>
</g>
</g>
</g>
</g>
</g>
<g id="Group_212">
<g id="Group_213">
<g id="Group_214">
<g id="Group_215">
<g id="Group_216">
<g id="Group_217">
<g id="Group_218">
<path id="Vector_33" d="M107.795 89.9435C107.8 89.9189 108.051 89.9469 108.357 90.006C108.662 90.0652 108.906 90.1328 108.901 90.1573C108.897 90.1819 108.645 90.1539 108.34 90.0947C108.034 90.0356 107.79 89.9678 107.795 89.9435Z" fill="#263238"/>
</g>
</g>
</g>
</g>
</g>
</g>
</g>
<g id="Group_219">
<g id="Group_220">
<g id="Group_221">
<g id="Group_222">
<g id="Group_223">
<g id="Group_224">
<g id="Group_225">
<path id="Vector_34" d="M111.065 91.0218C111.043 91.0147 111.117 90.7269 111.283 90.402C111.447 90.0764 111.635 89.8462 111.654 89.8605C111.676 89.8753 111.524 90.124 111.363 90.4429C111.201 90.7613 111.09 91.0303 111.065 91.0218Z" fill="#263238"/>
</g>
</g>
</g>
</g>
</g>
</g>
</g>
<g id="Group_226">
<g id="Group_227">
<g id="Group_228">
<g id="Group_229">
<g id="Group_230">
<g id="Group_231">
<g id="Group_232">
<path id="Vector_35" d="M109.975 89.5363C109.95 89.5368 109.926 89.3319 109.92 89.0788C109.914 88.8253 109.93 88.6197 109.955 88.6191C109.979 88.6186 110.004 88.8235 110.01 89.0769C110.016 89.3301 110 89.5357 109.975 89.5363Z" fill="#263238"/>
</g>
</g>
</g>
</g>
</g>
</g>
</g>
<g id="Group_233">
<g id="Group_234">
<g id="Group_235">
<g id="Group_236">
<g id="Group_237">
<g id="Group_238">
<g id="Group_239">
<path id="Vector_36" d="M113.494 92.1555C113.472 92.1476 113.535 91.9213 113.686 91.6766C113.836 91.4313 114.009 91.2724 114.026 91.2888C114.046 91.3062 113.908 91.4865 113.763 91.7236C113.617 91.9604 113.518 92.165 113.494 92.1555Z" fill="#263238"/>
</g>
</g>
</g>
</g>
</g>
</g>
</g>
<g id="Group_240">
<g id="Group_241">
<g id="Group_242">
<g id="Group_243">
<g id="Group_244">
<g id="Group_245">
<g id="Group_246">
<path id="Vector_37" d="M109.761 92.3706C109.738 92.3807 109.629 92.1835 109.517 91.9303C109.406 91.6768 109.334 91.4635 109.356 91.4535C109.379 91.4435 109.488 91.6407 109.6 91.8938C109.712 92.147 109.784 92.3606 109.761 92.3706Z" fill="#263238"/>
</g>
</g>
</g>
</g>
</g>
</g>
</g>
<g id="Group_247">
<g id="Group_248">
<g id="Group_249">
<g id="Group_250">
<g id="Group_251">
<g id="Group_252">
<g id="Group_253">
<path id="Vector_38" d="M115.564 85.4661C115.565 85.4413 115.844 85.4302 116.186 85.4413C116.529 85.4527 116.807 85.482 116.806 85.507C116.805 85.5319 116.526 85.543 116.184 85.5316C115.841 85.5205 115.564 85.4909 115.564 85.4661Z" fill="#263238"/>
</g>
</g>
</g>
</g>
</g>
</g>
</g>
<g id="Group_254">
<g id="Group_255">
<g id="Group_256">
<g id="Group_257">
<g id="Group_258">
<g id="Group_259">
<g id="Group_260">
<path id="Vector_39" d="M116.918 83.1493C116.904 83.129 117.171 82.9149 117.515 82.6709C117.859 82.427 118.15 82.2459 118.164 82.2662C118.179 82.2865 117.912 82.5006 117.567 82.7446C117.223 82.9885 116.932 83.1696 116.918 83.1493Z" fill="#263238"/>
</g>
</g>
</g>
</g>
</g>
</g>
</g>
<g id="Group_261">
<g id="Group_262">
<g id="Group_263">
<g id="Group_264">
<g id="Group_265">
<g id="Group_266">
<g id="Group_267">
<path id="Vector_40" d="M116.778 80.1735C116.767 80.1498 116.999 80.0288 117.264 79.8517C117.531 79.6759 117.732 79.5098 117.75 79.5288C117.767 79.5455 117.589 79.7458 117.314 79.9269C117.041 80.1091 116.787 80.1954 116.778 80.1735Z" fill="#263238"/>
</g>
</g>
</g>
</g>
</g>
</g>
</g>
<g id="Group_268">
<g id="Group_269">
<g id="Group_270">
<g id="Group_271">
<g id="Group_272">
<g id="Group_273">
<g id="Group_274">
<path id="Vector_41" d="M115.261 79.1218C115.237 79.116 115.296 78.791 115.393 78.3961C115.489 78.0011 115.588 77.6859 115.612 77.692C115.636 77.6978 115.577 78.0228 115.48 78.4177C115.383 78.8127 115.285 79.1279 115.261 79.1218Z" fill="#263238"/>
</g>
</g>
</g>
</g>
</g>
</g>
</g>
<g id="Group_275">
<g id="Group_276">
<g id="Group_277">
<g id="Group_278">
<g id="Group_279">
<g id="Group_280">
<g id="Group_281">
<path id="Vector_42" d="M112.726 78.3711C112.748 78.359 112.88 78.5546 113.021 78.8081C113.163 79.0615 113.259 79.2769 113.237 79.2891C113.216 79.3012 113.084 79.1056 112.942 78.8522C112.801 78.5987 112.704 78.3833 112.726 78.3711Z" fill="#263238"/>
</g>
</g>
</g>
</g>
</g>
</g>
</g>
<g id="Group_282">
<g id="Group_283">
<g id="Group_284">
<g id="Group_285">
<g id="Group_286">
<g id="Group_287">
<g id="Group_288">
<path id="Vector_43" d="M110.541 83.3924C110.558 83.3721 110.847 83.5933 111.228 83.8272C111.607 84.0627 111.934 84.2222 111.924 84.2462C111.915 84.2681 111.567 84.1438 111.18 83.904C110.793 83.6662 110.526 83.4101 110.541 83.3924Z" fill="#263238"/>
</g>
</g>
</g>
</g>
</g>
</g>
</g>
<g id="Group_289">
<g id="Group_290">
<g id="Group_291">
<g id="Group_292">
<g id="Group_293">
<g id="Group_294">
<g id="Group_295">
<path id="Vector_44" d="M114.083 84.522C114.07 84.5008 114.265 84.357 114.518 84.2007C114.771 84.0444 114.987 83.9351 115.001 83.9562C115.013 83.9773 114.819 84.1212 114.565 84.2775C114.312 84.4338 114.096 84.5431 114.083 84.522Z" fill="#263238"/>
</g>
</g>
</g>
</g>
</g>
</g>
</g>
<g id="Group_296">
<g id="Group_297">
<g id="Group_298">
<g id="Group_299">
<g id="Group_300">
<g id="Group_301">
<g id="Group_302">
<path id="Vector_45" d="M114.677 82.1202C114.658 82.1004 114.887 81.8758 115.1 81.5476C115.315 81.221 115.43 80.9214 115.455 80.9304C115.477 80.9359 115.399 81.2588 115.176 81.597C114.955 81.9367 114.691 82.1384 114.677 82.1202Z" fill="#263238"/>
</g>
</g>
</g>
</g>
</g>
</g>
</g>
<g id="Group_303">
<g id="Group_304">
<g id="Group_305">
<g id="Group_306">
<g id="Group_307">
<g id="Group_308">
<g id="Group_309">
<path id="Vector_46" d="M113.513 81.578C113.488 81.5769 113.48 81.3161 113.495 80.9959C113.51 80.6754 113.542 80.4167 113.567 80.418C113.592 80.419 113.6 80.6796 113.585 81.0001C113.571 81.3206 113.538 81.5793 113.513 81.578Z" fill="#263238"/>
</g>
</g>
</g>
</g>
</g>
</g>
</g>
<g id="Group_310">
<g id="Group_311">
<g id="Group_312">
<g id="Group_313">
<g id="Group_314">
<g id="Group_315">
<g id="Group_316">
<path id="Vector_47" d="M112.871 83.9518C112.846 83.9547 112.796 83.6913 112.758 83.3636C112.72 83.0358 112.709 82.7681 112.734 82.7652C112.759 82.7623 112.809 83.0257 112.847 83.3534C112.885 83.681 112.896 83.9489 112.871 83.9518Z" fill="#263238"/>
</g>
</g>
</g>
</g>
</g>
</g>
</g>
<g id="Group_317">
<g id="Group_318">
<g id="Group_319">
<g id="Group_320">
<g id="Group_321">
<g id="Group_322">
<g id="Group_323">
<path id="Vector_48" d="M111.076 76.8013C111.102 76.7979 111.16 77.1012 111.265 77.4655C111.368 77.8304 111.478 78.1192 111.455 78.1297C111.433 78.14 111.284 77.8626 111.178 77.4903C111.071 77.1186 111.052 76.8039 111.076 76.8013Z" fill="#263238"/>
</g>
</g>
</g>
</g>
</g>
</g>
</g>
<g id="Group_324">
<g id="Group_325">
<g id="Group_326">
<g id="Group_327">
<g id="Group_328">
<g id="Group_329">
<g id="Group_330">
<path id="Vector_49" d="M109.81 80.97C109.798 80.947 110.044 80.7965 110.329 80.5879C110.615 80.3804 110.834 80.1927 110.852 80.2112C110.869 80.2279 110.675 80.4488 110.382 80.6608C110.091 80.8741 109.821 80.9913 109.81 80.97Z" fill="#263238"/>
</g>
</g>
</g>
</g>
</g>
</g>
</g>
<g id="Group_331">
<g id="Group_332">
<g id="Group_333">
<g id="Group_334">
<g id="Group_335">
<g id="Group_336">
<g id="Group_337">
<path id="Vector_50" d="M108.092 79.6901C108.091 79.6643 108.377 79.6289 108.725 79.5616C109.073 79.4956 109.352 79.4227 109.36 79.4473C109.368 79.47 109.096 79.5829 108.742 79.6503C108.387 79.7186 108.093 79.7139 108.092 79.6901Z" fill="#263238"/>
</g>
</g>
</g>
</g>
</g>
</g>
</g>
<g id="Group_338">
<g id="Group_339">
<g id="Group_340">
<g id="Group_341">
<g id="Group_342">
<g id="Group_343">
<g id="Group_344">
<path id="Vector_51" d="M109.765 78.2602C109.778 78.2391 109.94 78.3188 110.126 78.4379C110.313 78.557 110.453 78.6707 110.439 78.6919C110.426 78.713 110.264 78.6333 110.078 78.5142C109.891 78.3949 109.751 78.2813 109.765 78.2602Z" fill="#263238"/>
</g>
</g>
</g>
</g>
</g>
</g>
</g>
<g id="Group_345">
<g id="Group_346">
<g id="Group_347">
<g id="Group_348">
<g id="Group_349">
<g id="Group_350">
<g id="Group_351">
<path id="Vector_52" d="M108.93 76.7156C108.944 76.6966 109.146 76.8313 109.341 77.0559C109.536 77.2798 109.642 77.4981 109.621 77.51C109.599 77.5235 109.463 77.3321 109.273 77.1153C109.084 76.8975 108.913 76.7357 108.93 76.7156Z" fill="#263238"/>
</g>
</g>
</g>
</g>
</g>
</g>
</g>
<g id="Group_352">
<g id="Group_353">
<g id="Group_354">
<g id="Group_355">
<g id="Group_356">
<g id="Group_357">
<g id="Group_358">
<path id="Vector_53" d="M107.792 78.1872C107.802 78.1634 108.058 78.2474 108.377 78.3327C108.696 78.419 108.959 78.4744 108.956 78.5C108.953 78.5241 108.679 78.5079 108.354 78.42C108.028 78.3329 107.783 78.2094 107.792 78.1872Z" fill="#263238"/>
</g>
</g>
</g>
</g>
</g>
</g>
</g>
<g id="Group_359">
<g id="Group_360">
<g id="Group_361">
<g id="Group_362">
<g id="Group_363">
<g id="Group_364">
<g id="Group_365">
<path id="Vector_54" d="M115.673 76.2071C115.653 76.1908 115.902 75.8544 116.186 75.4252C116.472 74.9964 116.685 74.6366 116.708 74.6487C116.729 74.6598 116.55 75.0421 116.262 75.4751C115.975 75.9085 115.692 76.2224 115.673 76.2071Z" fill="#263238"/>
</g>
</g>
</g>
</g>
</g>
</g>
</g>
<g id="Group_366">
<g id="Group_367">
<g id="Group_368">
<g id="Group_369">
<g id="Group_370">
<g id="Group_371">
<g id="Group_372">
<path id="Vector_55" d="M115.167 74.4053C115.142 74.4021 115.162 74.1007 115.21 73.7324C115.259 73.3638 115.318 73.0679 115.343 73.0713C115.367 73.0745 115.348 73.3757 115.3 73.7443C115.251 74.1125 115.192 74.4085 115.167 74.4053Z" fill="#263238"/>
</g>
</g>
</g>
</g>
</g>
</g>
</g>
<g id="Group_373">
<g id="Group_374">
<g id="Group_375">
<g id="Group_376">
<g id="Group_377">
<g id="Group_378">
<g id="Group_379">
<path id="Vector_56" d="M113.416 74.6856C113.442 74.6806 113.516 75.0275 113.689 75.424C113.859 75.8219 114.061 76.1131 114.04 76.1289C114.022 76.1439 113.782 75.8696 113.606 75.4597C113.428 75.051 113.393 74.6877 113.416 74.6856Z" fill="#263238"/>
</g>
</g>
</g>
</g>
</g>
</g>
</g>
<g id="Group_380">
<g id="Group_381">
<g id="Group_382">
<g id="Group_383">
<g id="Group_384">
<g id="Group_385">
<g id="Group_386">
<path id="Vector_57" d="M111.359 75.1217C111.379 75.1054 111.635 75.4069 111.99 75.7387C112.343 76.0721 112.659 76.3089 112.644 76.3309C112.631 76.3507 112.287 76.1437 111.928 75.8047C111.567 75.4668 111.34 75.1355 111.359 75.1217Z" fill="#263238"/>
</g>
</g>
</g>
</g>
</g>
</g>
</g>
<g id="Group_387">
<g id="Group_388">
<g id="Group_389">
<g id="Group_390">
<g id="Group_391">
<g id="Group_392">
<g id="Group_393">
<path id="Vector_58" d="M112.155 71.3853C112.18 71.3811 112.26 71.7607 112.401 72.2156C112.541 72.6712 112.689 73.0297 112.665 73.0406C112.644 73.0511 112.457 72.7048 112.315 72.2422C112.172 71.7802 112.131 71.3885 112.155 71.3853Z" fill="#263238"/>
</g>
</g>
</g>
</g>
</g>
</g>
</g>
<g id="Group_394">
<g id="Group_395">
<g id="Group_396">
<g id="Group_397">
<g id="Group_398">
<g id="Group_399">
<g id="Group_400">
<path id="Vector_59" d="M114.524 70.1563C114.549 70.1547 114.588 70.4525 114.61 70.8213C114.633 71.1901 114.631 71.4902 114.606 71.4918C114.581 71.4934 114.543 71.1956 114.52 70.8268C114.498 70.458 114.5 70.1578 114.524 70.1563Z" fill="#263238"/>
</g>
</g>
</g>
</g>
</g>
</g>
</g>
<g id="Group_401">
<g id="Group_402">
<g id="Group_403">
<g id="Group_404">
<g id="Group_405">
<g id="Group_406">
<g id="Group_407">
<path id="Vector_60" d="M119.416 73.3156C119.422 73.2905 119.647 73.3304 119.925 73.3523C120.203 73.3758 120.432 73.3729 120.434 73.3985C120.437 73.4223 120.206 73.4664 119.918 73.4423C119.631 73.4196 119.409 73.3386 119.416 73.3156Z" fill="#263238"/>
</g>
</g>
</g>
</g>
</g>
</g>
</g>
<g id="Group_408">
<g id="Group_409">
<g id="Group_410">
<g id="Group_411">
<g id="Group_412">
<g id="Group_413">
<g id="Group_414">
<path id="Vector_61" d="M119.272 72.0817C119.26 72.0595 119.573 71.8702 119.972 71.659C120.37 71.4476 120.703 71.2939 120.714 71.3161C120.726 71.338 120.413 71.5273 120.014 71.7388C119.616 71.9502 119.283 72.1039 119.272 72.0817Z" fill="#263238"/>
</g>
</g>
</g>
</g>
</g>
</g>
</g>
<g id="Group_415">
<g id="Group_416">
<g id="Group_417">
<g id="Group_418">
<g id="Group_419">
<g id="Group_420">
<g id="Group_421">
<path id="Vector_62" d="M117.949 72.1258C117.925 72.1184 117.992 71.8372 118.098 71.498C118.205 71.1585 118.31 70.8895 118.334 70.8971C118.358 70.9045 118.291 71.1857 118.185 71.5252C118.078 71.8642 117.972 72.1335 117.949 72.1258Z" fill="#263238"/>
</g>
</g>
</g>
</g>
</g>
</g>
</g>
<g id="Group_422" opacity="0.3">
<g id="Group_423">
<g id="Group_424">
<g id="Group_425">
<g id="Group_426">
<g id="Group_427">
<g id="Group_428">
<path id="Vector_63" d="M114.245 87.402C114.232 86.7584 113.875 86.1 113.341 85.7409C112.806 85.3821 111.844 85.3465 111.465 85.6158C112.026 85.6097 112.66 85.8502 113.111 86.1834C113.561 86.5163 113.942 86.9308 114.245 87.402Z" fill="black"/>
</g>
</g>
</g>
</g>
</g>
</g>
</g>
<g id="Group_429" opacity="0.3">
<g id="Group_430">
<g id="Group_431">
<g id="Group_432">
<g id="Group_433">
<g id="Group_434">
<g id="Group_435">
<path id="Vector_64" d="M116.338 79.1217C116.105 78.6151 115.595 78.2154 115.046 78.1151C114.498 78.0148 113.721 78.3194 113.513 78.664C113.956 78.4654 114.543 78.4369 115.016 78.5459C115.489 78.6547 115.935 78.8524 116.338 79.1217Z" fill="black"/>
</g>
</g>
</g>
</g>
</g>
</g>
</g>
<g id="Group_436" opacity="0.3">
<g id="Group_437">
<g id="Group_438">
<g id="Group_439">
<g id="Group_440">
<g id="Group_441">
<g id="Group_442">
<path id="Vector_65" d="M117.723 74.1977C117.94 73.8231 117.973 73.3476 117.811 72.9461C117.649 72.5445 117.335 72.3471 116.918 72.2285C117.344 72.8457 117.679 73.4725 117.711 74.2214" fill="black"/>
</g>
</g>
</g>
</g>
</g>
</g>
</g>
<g id="Group_443">
<g id="Group_444">
<g id="Group_445">
<g id="Group_446">
<g id="Group_447">
<g id="Group_448">
<g id="Group_449">
<path id="Vector_66" d="M109.157 86.2894C109.162 86.296 109.086 86.3548 108.974 86.4866C108.862 86.6178 108.71 86.8187 108.563 87.089C108.291 87.6374 108.044 88.4724 107.974 89.4122C107.901 90.3544 108.001 91.2111 108.093 91.8231C108.141 92.1296 108.187 92.3767 108.219 92.5475C108.252 92.718 108.267 92.8133 108.26 92.8149C108.253 92.8165 108.226 92.7244 108.181 92.5557C108.138 92.387 108.081 92.1412 108.024 91.8347C107.913 91.2227 107.801 90.3589 107.875 89.4046C107.947 88.4505 108.206 87.6102 108.502 87.0547C108.66 86.783 108.823 86.5861 108.945 86.4604C109.068 86.3343 109.154 86.2846 109.157 86.2894Z" fill="#263238"/>
</g>
</g>
</g>
</g>
</g>
</g>
</g>
</g>
<g id="Group_450">
<g id="Group_451">
<g id="Group_452">
<g id="Group_453">
<g id="Group_454">
<g id="Group_455">
<g id="Group_456">
<path id="Vector_67" d="M116.601 92.8152C116.601 92.8167 116.585 92.8183 116.553 92.8199C116.515 92.8212 116.468 92.8226 116.409 92.8244C116.277 92.8265 116.092 92.8292 115.859 92.8329C115.373 92.8363 114.683 92.8413 113.833 92.8471C112.116 92.8505 109.756 92.8553 107.149 92.8603C104.579 92.8553 102.249 92.8508 100.545 92.8474L100.577 92.8149C100.574 93.6903 100.571 94.4007 100.569 94.9C100.566 95.141 100.564 95.3306 100.562 95.4668C100.56 95.5272 100.559 95.5758 100.558 95.6141C100.557 95.6474 100.555 95.6643 100.554 95.6643C100.552 95.6643 100.55 95.6474 100.549 95.6141C100.548 95.5758 100.546 95.5272 100.544 95.4668C100.541 95.3306 100.538 95.141 100.534 94.9C100.529 94.4007 100.521 93.6903 100.513 92.8152L100.512 92.783H100.545C102.249 92.7795 104.579 92.775 107.149 92.77C109.756 92.7753 112.116 92.7798 113.833 92.7832C114.683 92.7893 115.374 92.794 115.859 92.7975C116.093 92.8012 116.277 92.8038 116.409 92.8059C116.468 92.8078 116.515 92.8094 116.553 92.8104C116.585 92.8123 116.601 92.8138 116.601 92.8152Z" fill="#263238"/>
</g>
</g>
</g>
</g>
</g>
</g>
</g>
</g>
</g>
<g id="Table">
<g id="Group_457">
<g id="Group_458">
<g id="Group_459">
<g id="Group_460">
<g id="Group_461">
<path id="Vector_68" d="M28.2695 45.9062H27.4844V53.4838H28.2695V45.9062Z" fill="#263238"/>
</g>
</g>
<g id="Group_462">
<g id="Group_463">
<g id="Group_464">
<path id="Vector_69" d="M32.7134 55.4917H23.0404V73.4775H32.7134V55.4917Z" fill="#455A64"/>
</g>
</g>
<g id="Group_465">
<g id="Group_466">
<path id="Vector_70" d="M30.9028 52.9741H25.0127V55.4919H30.9028V52.9741Z" fill="#455A64"/>
</g>
</g>
</g>
<g id="Group_467">
<g id="Group_468">
<g id="Group_469">
<path id="Vector_71" d="M32.6703 55.4921C32.6703 55.534 30.524 55.5678 27.8769 55.5678C25.2289 55.5678 23.0829 55.5338 23.0829 55.4921C23.0829 55.4501 25.2287 55.416 27.8769 55.416C30.524 55.416 32.6703 55.4501 32.6703 55.4921Z" fill="#263238"/>
</g>
</g>
</g>
</g>
<g id="Group_470">
<g id="Group_471">
<path id="Vector_72" d="M42.1566 73.4224H12.6438V83.1827H42.1566V73.4224Z" fill="#AE7461"/>
</g>
</g>
<g id="Group_472">
<g id="Group_473">
<path id="Vector_73" d="M13.7146 103.792L15.8467 83.1826H18.7063L15.3778 103.803L13.7146 103.792Z" fill="#AE7461"/>
</g>
</g>
<g id="Group_474">
<g id="Group_475">
<path id="Vector_74" d="M43.0917 103.787L39.8888 83.1826H37.0289L41.4285 103.797L43.0917 103.787Z" fill="#AE7461"/>
</g>
</g>
<g id="Group_476">
<g id="Group_477">
<path id="Vector_75" d="M40.4765 93.9033H15.6428V96.1236H40.4765V93.9033Z" fill="#AE7461"/>
</g>
</g>
<g id="Group_478">
<g id="Group_479">
<path id="Vector_76" d="M25.6823 74.1821C25.6823 75.2373 26.5344 76.093 27.5857 76.093C28.6369 76.093 29.4891 75.2376 29.4891 74.1821H25.6823Z" fill="#263238"/>
</g>
</g>
<g id="Group_480">
<path id="Vector_77" d="M42.0762 83.1608C42.0762 83.2011 35.4915 83.2336 27.3708 83.2336C19.2473 83.2336 12.6642 83.2009 12.6642 83.1608C12.6642 83.1206 19.2473 83.0879 27.3708 83.0879C35.4917 83.0879 42.0762 83.1204 42.0762 83.1608Z" fill="#263238"/>
</g>
</g>
<g id="Group_481">
<path id="Vector_78" d="M40.4465 82.156C40.4465 82.156 40.442 82.1053 40.4396 82.0113C40.438 81.912 40.4356 81.7742 40.4327 81.5963C40.429 81.2277 40.4235 80.6942 40.4166 80.0091C40.4082 78.6316 40.3963 76.645 40.3813 74.1821L40.4465 74.2328C33.8755 74.2383 24.6252 74.2463 14.3854 74.255C14.3007 74.3202 14.4976 74.166 14.4776 74.1826V74.1847V74.189V74.1971V74.2135V74.2463V74.3115V74.4421V74.7027V75.2223C14.4776 75.5678 14.4773 75.9116 14.4773 76.2534C14.477 76.9372 14.4768 77.6136 14.4765 78.2804C14.4755 79.6142 14.4747 80.9107 14.4736 82.156L14.3836 82.086C21.9166 82.0992 28.4189 82.1108 33.0468 82.119C35.3592 82.1272 37.203 82.1338 38.4773 82.1385C39.1069 82.1425 39.5956 82.1454 39.9351 82.1475C40.0967 82.1494 40.2215 82.1507 40.3142 82.1517C40.4 82.1531 40.4446 82.1546 40.4465 82.156C40.4483 82.1575 40.4074 82.1589 40.3253 82.1602C40.2353 82.1612 40.1138 82.1628 39.957 82.1644C39.622 82.1665 39.1397 82.1694 38.5182 82.1734C37.2489 82.1779 35.4122 82.1845 33.1083 82.1929C28.4654 82.2011 21.9414 82.2125 14.3839 82.2259L14.2938 82.2262V82.156C14.2928 80.9107 14.292 79.6142 14.2909 78.2804C14.2907 77.6136 14.2904 76.9372 14.2901 76.2534C14.2901 75.9116 14.2899 75.5676 14.2899 75.2223V74.7027V74.4421V74.3115V74.2463V74.2135V74.1971V74.189V74.1847V74.1826C14.269 74.1974 14.4686 74.0438 14.3854 74.109C24.6255 74.1177 33.8755 74.1256 40.4465 74.1311H40.5119L40.5117 74.1818C40.4966 76.6576 40.4847 78.6548 40.4763 80.0395C40.4694 80.7198 40.4639 81.2491 40.4602 81.6153C40.4573 81.7893 40.4549 81.9239 40.4531 82.0213C40.451 82.1121 40.4465 82.156 40.4465 82.156Z" fill="#263238"/>
</g>
</g>
</g>
<g id="Speech_Bubble">
<g id="Group_482">
<g id="Group_483">
<g id="Group_484">
<g id="Group_485">
<path id="Vector_79" d="M74.893 26.4316C74.2982 26.1805 74.0195 25.4947 74.2705 24.8999C74.5216 24.3051 75.2075 24.0263 75.8022 24.2774C76.397 24.5284 76.6758 25.2143 76.4248 25.8091C76.1737 26.4039 75.4878 26.6827 74.893 26.4316Z" fill="white"/>
</g>
<g id="Group_486">
<g id="Group_487">
<path id="Vector_80" d="M74.8931 26.4318C74.8978 26.4189 74.9942 26.4598 75.1748 26.4807C75.3522 26.501 75.6278 26.487 75.9029 26.3223C76.1753 26.1657 76.4298 25.8304 76.4462 25.4112C76.4723 24.9993 76.2207 24.5297 75.7738 24.3457C75.33 24.1535 74.8178 24.3011 74.5409 24.607C74.2518 24.9112 74.1893 25.3278 74.2671 25.6319C74.3411 25.9439 74.5235 26.1512 74.6615 26.2639C74.8025 26.3787 74.8989 26.4191 74.8931 26.4318C74.8912 26.4379 74.7862 26.416 74.627 26.3101C74.4715 26.2061 74.2605 25.9957 74.1658 25.658C74.067 25.3291 74.1214 24.8623 74.4408 24.5144C74.7455 24.1646 75.3271 23.9909 75.8313 24.2095C76.3393 24.4183 76.6204 24.9561 76.5824 25.4183C76.556 25.8898 76.2595 26.2544 75.9549 26.4131C75.6468 26.5807 75.349 26.5765 75.1658 26.5374C74.9791 26.4973 74.8899 26.4374 74.8931 26.4318Z" fill="#263238"/>
</g>
</g>
</g>
<g id="Group_488">
<g id="Group_489">
<g id="Group_490">
<g id="Group_491">
<g id="Group_492">
<g id="Group_493">
<g id="Group_494">
<g id="Group_495">
<g id="Group_496">
<g id="Group_497">
<g id="Group_498">
<g id="Group_499">
<g id="Group_500">
<path id="Vector_81" d="M76.8837 16.8753C75.4402 21.3947 77.9339 26.2286 82.4533 27.6719C86.9727 29.1154 91.8066 26.6217 93.2499 22.1023C94.6934 17.5828 92.1999 12.749 87.6805 11.3055C83.1611 9.86217 78.3273 12.3559 76.8837 16.8753Z" fill="white"/>
</g>
<g id="Group_501">
<g id="Group_502">
<path id="Vector_82" d="M76.8837 16.8754C76.8805 16.8743 76.894 16.8292 76.9235 16.7418C76.9571 16.646 77.0019 16.5179 77.0587 16.3553C77.0896 16.2695 77.1234 16.1747 77.1609 16.071C77.2034 15.9683 77.2601 15.8606 77.3161 15.7412C77.4302 15.5036 77.5553 15.2254 77.7464 14.9397C78.087 14.3449 78.6187 13.6815 79.3399 13.0263C80.0638 12.3758 81.0116 11.7554 82.1708 11.3398C83.3247 10.9301 84.6936 10.7025 86.1337 10.8905C87.5617 11.0837 89.0786 11.6088 90.3625 12.6244C90.6959 12.861 90.9871 13.1546 91.2909 13.4407C91.566 13.7536 91.8636 14.0569 92.0988 14.4144C92.3617 14.7523 92.5645 15.134 92.7839 15.5102C92.9647 15.9065 93.1609 16.3012 93.29 16.727C93.5653 17.5676 93.7527 18.4647 93.7469 19.3834C93.7522 20.3002 93.6157 21.229 93.3409 22.13C93.0426 23.0239 92.6154 23.8603 92.0798 24.6048C91.552 25.3572 90.8788 25.9797 90.1674 26.5053C89.8152 26.7775 89.4266 26.9858 89.0496 27.2038C88.6528 27.3834 88.266 27.5771 87.856 27.7002C87.4574 27.8551 87.0387 27.9298 86.6332 28.0254C86.2195 28.0824 85.8119 28.1529 85.4032 28.1524C83.7683 28.2358 82.2276 27.7844 80.9517 27.1138C79.6694 26.4319 78.6857 25.4533 77.983 24.4501C77.2794 23.4395 76.8668 22.3845 76.654 21.4349C76.4462 20.4832 76.3976 19.6344 76.4647 18.9523C76.4745 18.6088 76.5339 18.3097 76.5785 18.0499C76.602 17.9203 76.6184 17.7996 76.6432 17.6914C76.673 17.5853 76.7002 17.4881 76.725 17.4005C76.7728 17.2349 76.8105 17.1048 76.8388 17.0071C76.8655 16.9189 76.8805 16.8743 76.8837 16.8754C76.8868 16.8764 76.8779 16.9229 76.8573 17.0129C76.8335 17.1114 76.8021 17.2429 76.762 17.41C76.7401 17.4979 76.716 17.595 76.6896 17.7014C76.6677 17.8097 76.6545 17.9303 76.6342 18.0597C76.5956 18.3187 76.5423 18.6165 76.5384 18.9573C76.4829 19.6342 76.5423 20.4734 76.7572 21.4112C76.9771 22.3468 77.3929 23.3832 78.0928 24.3732C78.7919 25.3558 79.7639 26.3118 81.0261 26.9752C82.2819 27.6273 83.7947 28.0645 85.3961 27.9776C85.7966 27.9771 86.1957 27.9064 86.6007 27.8501C86.9975 27.7551 87.4072 27.6817 87.7974 27.5286C88.1987 27.4077 88.5768 27.2165 88.9651 27.0407C89.3337 26.8261 89.7141 26.6223 90.0581 26.3551C90.7534 25.8395 91.4116 25.2304 91.9272 24.4939C92.4504 23.7652 92.8678 22.9474 93.1598 22.0727C93.4285 21.191 93.5621 20.2826 93.5579 19.386C93.5645 18.4874 93.3816 17.6096 93.1136 16.7867C92.9882 16.3696 92.7963 15.9833 92.6204 15.5947C92.4061 15.2262 92.2086 14.8516 91.9517 14.5205C91.7226 14.1699 91.4314 13.8726 91.1632 13.5651C90.8659 13.2844 90.5818 12.9956 90.2558 12.763C89.0015 11.7643 87.5155 11.2435 86.1144 11.0468C84.7015 10.8556 83.3554 11.0711 82.2162 11.4665C81.072 11.8676 80.1322 12.4711 79.4107 13.106C78.6918 13.7454 78.1569 14.3951 77.8098 14.9788C77.6155 15.2589 77.4861 15.5321 77.3676 15.7658C77.3092 15.883 77.2501 15.9889 77.2052 16.0897C77.1651 16.1919 77.1284 16.2851 77.0951 16.3693C77.031 16.5287 76.9806 16.6541 76.9425 16.7481C76.9066 16.8331 76.8868 16.8762 76.8837 16.8754Z" fill="#263238"/>
</g>
</g>
</g>
</g>
</g>
</g>
</g>
</g>
</g>
</g>
</g>
</g>
</g>
</g>
</g>
<path id="Vector_83" d="M87.7604 18.9567L85.1595 15.6118L82.4226 18.8667C82.4392 18.8669 83.0451 18.8772 83.8419 18.8904L83.7872 23.3652H86.3097L86.3847 18.9332C87.1709 18.9467 87.7604 18.9567 87.7604 18.9567Z" fill="#FF6000"/>
</g>
</g>
<g id="Character_00000089570201192527544590000012395684144865449400_">
<g id="Group_503">
<g id="Group_504">
<path id="Vector_84" d="M77.4444 56.9268L81.0853 59.6858L84.5027 50.3188L88.9767 51.9984C88.9767 51.9984 87.11 62.8628 86.4495 65.0691C85.8489 67.0752 83.0991 69.0415 80.6116 68.6816C78.124 68.3218 72.9221 63.4373 72.9221 63.4373L77.4444 56.9268Z" fill="#FFBF9D"/>
<g id="Group_505">
<path id="Vector_85" d="M88.2895 56.1153C88.2895 56.1153 88.8278 52.418 89.1979 50.9689C89.4986 49.7914 89.2415 48.0921 89.2415 48.0921C89.2415 48.0921 89.892 46.516 88.3901 46.0854C88.3901 46.0854 88.186 45.6921 87.1994 45.6472C87.1994 45.6472 87.2295 45.2871 86.4207 45.087C86.3005 45.0571 86.1728 45.0632 86.0574 45.1076L85.7588 45.2221C85.7588 45.2221 85.4061 44.48 84.64 44.4597C83.5657 44.4315 83.6521 44.9024 83.2772 45.6147C82.9023 46.327 82.4348 48.3553 82.4812 49.1821C82.5277 50.009 83.5401 50.7244 83.6207 51.9877C83.7012 53.2512 83.1552 55.785 83.1552 55.785L88.2895 56.1153Z" fill="#FFBF9D"/>
<g id="Group_506">
<g id="Group_507">
<path id="Vector_86" d="M90.1589 46.2917L81.9097 45.5771L81.6593 48.468L89.9085 49.1826L90.1589 46.2917Z" fill="#FF6000"/>
<path id="Vector_87" d="M78.2859 49.9736L80.781 50.1899C80.9671 50.206 81.1311 50.0681 81.1474 49.882L81.658 43.988C81.6741 43.8018 81.5363 43.6379 81.3502 43.6218L78.8551 43.4056C78.669 43.3895 78.5051 43.5273 78.489 43.7134C78.0468 45.3927 77.854 47.8366 77.9784 49.6075C77.9618 49.7936 78.0998 49.9575 78.2859 49.9736Z" fill="#FF6000"/>
<path id="Vector_88" d="M82.5574 45.6659C82.5141 45.6622 81.6361 45.2279 81.6625 43.9341L79.2194 44.2467L78.7498 49.6671L81.1471 49.8815C81.1471 49.8815 81.3713 48.6797 81.9843 48.4949L83.0242 46.8917L82.5574 45.6659Z" fill="#FF6000"/>
</g>
<g id="Group_508">
<path id="Vector_89" d="M81.6625 43.9342C81.6752 43.9384 81.6353 44.1015 81.5556 44.3816C81.4759 44.6617 81.3563 45.0583 81.2092 45.5295L81.2119 45.516C81.1815 45.9234 81.1482 46.3928 81.1205 46.891C81.0817 47.661 81.0284 48.3662 80.97 48.8913L80.9693 48.877C81.0244 49.1907 81.0669 49.4457 81.0928 49.6228C81.1187 49.8 81.1284 49.899 81.1181 49.9011C81.1081 49.9029 81.0793 49.8076 81.0363 49.6339C80.9933 49.4602 80.9357 49.2083 80.8681 48.8971L80.8668 48.8908L80.8674 48.8826C80.904 48.3559 80.9442 47.655 80.983 46.8836C81.0107 46.3838 81.0495 45.9128 81.0896 45.5057L81.0904 45.4981L81.0925 45.492C81.2504 45.0245 81.3864 44.633 81.4862 44.3595C81.5862 44.0857 81.6498 43.9302 81.6625 43.9342Z" fill="#263238"/>
</g>
<g id="Group_509">
<path id="Vector_90" d="M81.151 45.5108C81.1478 45.5486 80.4799 45.5216 79.6596 45.4506C78.8391 45.3796 78.1768 45.2912 78.1802 45.2534C78.1834 45.2157 78.851 45.2426 79.6715 45.3136C80.4918 45.3846 81.1542 45.4731 81.151 45.5108Z" fill="#263238"/>
</g>
<g id="Group_510">
<path id="Vector_91" d="M80.9189 48.8869C80.9157 48.9247 80.2254 48.8959 79.3777 48.8225C78.5294 48.7491 77.8449 48.6589 77.848 48.6211C77.8512 48.5833 78.5413 48.6121 79.3895 48.6855C80.2375 48.7589 80.922 48.8492 80.9189 48.8869Z" fill="#263238"/>
</g>
<g id="Group_511">
<path id="Vector_92" d="M93.781 44.7522L91.286 44.5359C91.0999 44.5198 90.9359 44.6577 90.9198 44.8438L90.4092 50.7376C90.3931 50.9237 90.5309 51.0876 90.7171 51.1037L93.2121 51.32C93.3982 51.3361 93.5622 51.1982 93.5783 51.0121C94.0205 49.3326 94.2132 46.889 94.0889 45.1181C94.105 44.9325 93.9672 44.7685 93.781 44.7522Z" fill="#FF6000"/>
<path id="Vector_93" d="M89.5095 49.0601C89.5528 49.0637 90.4308 49.4978 90.4044 50.7916L92.8475 50.4791L93.3172 45.0586L90.9198 44.8442C90.9198 44.8442 90.6645 46.0972 90.0517 46.2817L89.0427 47.834L89.5095 49.0601Z" fill="#FF6000"/>
</g>
<g id="Group_512">
<path id="Vector_94" d="M90.4044 50.7919C90.3917 50.7877 90.4316 50.6246 90.5113 50.3445C90.5911 50.0644 90.7109 49.6676 90.8577 49.1966L90.8551 49.21C90.8854 48.8027 90.9187 48.3333 90.9464 47.8349C90.9852 47.0648 91.0385 46.3596 91.0969 45.8345L91.0977 45.8488C91.0422 45.5352 91 45.2801 90.9741 45.103C90.9483 44.9259 90.9385 44.8269 90.9488 44.8247C90.9588 44.8226 90.9876 44.9182 91.0306 45.0919C91.0736 45.2656 91.1312 45.5177 91.1988 45.829L91.2001 45.8353L91.1996 45.8435C91.1629 46.3702 91.1228 47.0711 91.0837 47.8425C91.056 48.3423 91.0172 48.8133 90.977 49.2203L90.9762 49.228L90.9741 49.2341C90.8163 49.7016 90.6803 50.0931 90.5805 50.3666C90.4807 50.6404 90.4171 50.7959 90.4044 50.7919Z" fill="#263238"/>
</g>
<g id="Group_513">
<path id="Vector_95" d="M90.916 49.2153C90.9192 49.1776 91.5871 49.2045 92.4074 49.2755C93.2279 49.3465 93.8902 49.435 93.8868 49.4727C93.8836 49.5105 93.216 49.4835 92.3955 49.4125C91.5752 49.3413 90.9129 49.2531 90.916 49.2153Z" fill="#263238"/>
</g>
<g id="Group_514">
<path id="Vector_96" d="M91.1481 45.8394C91.1513 45.8016 91.8416 45.8304 92.6893 45.9038C93.5376 45.9772 94.2221 46.0675 94.2189 46.1052C94.2158 46.143 93.5257 46.1142 92.6774 46.0408C91.8297 45.9674 91.1447 45.8771 91.1481 45.8394Z" fill="#263238"/>
</g>
</g>
<g id="Group_515">
<path id="Vector_97" d="M82.694 49.6734C82.355 49.3209 82.3645 48.7673 82.4247 48.2821C82.5805 47.0291 82.5926 45.6817 83.1217 44.5351C83.5103 44.3487 84.0282 44.6758 84.2231 45.2149C84.4179 45.7543 84.2062 46.7794 84.1732 47.4824C85.2999 47.7897 86.5423 48.9141 86.7007 50.0712" fill="#FFBF9D"/>
<g id="Group_516">
<path id="Vector_98" d="M86.7007 50.0716C86.6754 50.0803 86.6548 49.6706 86.2855 49.1146C86.1038 48.839 85.8404 48.5317 85.4842 48.2473C85.1321 47.962 84.6843 47.6927 84.1566 47.5433L84.108 47.5295L84.1104 47.4796C84.1291 47.0783 84.1896 46.6623 84.2202 46.2291C84.2426 45.8022 84.2812 45.3272 84.0153 44.9608C83.9129 44.8127 83.7777 44.6881 83.6228 44.615C83.4686 44.5403 83.2933 44.5294 83.151 44.596L83.1832 44.5632C82.8746 45.2396 82.7516 45.94 82.6674 46.5675C82.586 47.1974 82.5398 47.7642 82.4752 48.2349C82.4039 48.7004 82.4173 49.0813 82.5066 49.3231C82.5913 49.5663 82.7054 49.6648 82.694 49.6732C82.6914 49.6758 82.6634 49.6529 82.6169 49.6014C82.5721 49.5489 82.5119 49.4636 82.4614 49.34C82.3537 49.0935 82.3265 48.6954 82.3867 48.2241C82.4393 47.7545 82.4752 47.1882 82.5491 46.5527C82.6262 45.9199 82.7442 45.2061 83.0599 44.5067L83.07 44.4848L83.0921 44.4743C83.2772 44.3855 83.5011 44.4038 83.6806 44.4911C83.863 44.5769 84.014 44.7177 84.1286 44.8829C84.2701 45.0833 84.3448 45.3275 84.3617 45.5603C84.3805 45.7929 84.3702 46.0192 84.3541 46.2388C84.3208 46.6779 84.2574 47.0939 84.2355 47.4854L84.1893 47.4221C84.7398 47.5839 85.1944 47.8674 85.5502 48.1663C85.9098 48.4643 86.172 48.7854 86.3488 49.0737C86.5252 49.3627 86.6213 49.6162 86.6606 49.7944C86.6868 49.8818 86.6886 49.9536 86.6968 49.9995C86.7031 50.0468 86.7042 50.0711 86.7007 50.0716Z" fill="#FF9A6C"/>
</g>
</g>
<g id="Group_517">
<path id="Vector_99" d="M88.364 47.3072C88.4276 47.4178 88.5068 47.5229 88.6134 47.5934C88.7201 47.6636 88.8576 47.6953 88.9783 47.6536C89.1488 47.5945 89.2412 47.4136 89.3054 47.2449C89.3814 47.0443 89.4416 46.8349 89.4471 46.6206C89.4524 46.4062 89.3988 46.185 89.2663 46.0165C89.1338 45.8478 88.9154 45.7404 88.7032 45.7707C88.4909 45.8008 88.3014 45.9854 88.295 46.1997" fill="#FFBF9D"/>
<g id="Group_518">
<path id="Vector_100" d="M88.2948 46.1994C88.2876 46.2002 88.2707 46.1416 88.3045 46.0413C88.3375 45.9447 88.4334 45.8058 88.6179 45.7403C88.8019 45.6743 89.0564 45.7247 89.2425 45.8977C89.4331 46.0706 89.526 46.3541 89.515 46.635C89.5023 46.9196 89.4128 47.1667 89.3146 47.3853C89.2613 47.4938 89.1902 47.5981 89.0883 47.6617C88.9872 47.7272 88.8658 47.7351 88.7729 47.7116C88.5801 47.6633 88.4801 47.5316 88.4262 47.4505C88.3724 47.365 88.3563 47.3114 88.3637 47.3072C88.3726 47.3019 88.4048 47.3465 88.4687 47.4178C88.5321 47.4862 88.6348 47.5896 88.7919 47.616C88.8692 47.629 88.954 47.6174 89.0255 47.5662C89.0978 47.5163 89.1549 47.4305 89.1997 47.3307C89.2847 47.1261 89.3674 46.8819 89.3771 46.6297C89.3869 46.3787 89.3075 46.1353 89.1551 45.9893C89.0041 45.8401 88.7969 45.7902 88.6461 45.8327C88.4917 45.875 88.3956 45.9832 88.3531 46.0624C88.3093 46.1442 88.3061 46.2002 88.2948 46.1994Z" fill="#FF9A6C"/>
</g>
</g>
<g id="Group_519">
<path id="Vector_101" d="M88.3448 46.0258C88.4546 46.2954 88.4683 46.822 88.3915 47.1027C88.3456 47.2703 88.2803 47.4372 88.1663 47.5686C88.0523 47.6998 87.882 47.7914 87.7085 47.7767C87.5353 47.7619 87.3709 47.6212 87.3616 47.4475L87.1792 45.8677" fill="#FFBF9D"/>
<g id="Group_520">
<path id="Vector_102" d="M87.1793 45.8682C87.1981 45.8661 87.2424 46.1 87.2989 46.4807C87.3274 46.6879 87.3583 46.9115 87.3911 47.1499C87.3992 47.2135 87.4074 47.2779 87.4159 47.3437L87.4283 47.4435C87.4304 47.4728 87.437 47.4971 87.4475 47.5224C87.4903 47.6225 87.6054 47.704 87.725 47.7093C87.8488 47.7167 87.9724 47.6592 88.0643 47.5768C88.1569 47.4944 88.2216 47.3843 88.2683 47.2734C88.3665 47.0475 88.3861 46.8276 88.3914 46.6375C88.4027 46.2578 88.3288 46.0326 88.3449 46.0263C88.3631 46.0158 88.475 46.2439 88.4885 46.6369C88.4967 46.8289 88.4848 47.0757 88.3858 47.3212C88.3375 47.4445 88.2678 47.5731 88.1545 47.6768C88.0437 47.7782 87.8895 47.8558 87.7174 47.8466C87.5436 47.8363 87.3897 47.7288 87.3235 47.5749C87.3076 47.5367 87.2979 47.4936 87.2957 47.4551L87.2852 47.355C87.2783 47.2896 87.2717 47.2251 87.2651 47.1615C87.2427 46.9226 87.2218 46.6985 87.2026 46.491C87.1706 46.1082 87.1603 45.8703 87.1793 45.8682Z" fill="#FF9A6C"/>
</g>
</g>
<g id="Group_521">
<path id="Vector_103" d="M85.6688 45.2568C85.6921 45.7592 85.7874 46.2582 85.951 46.7339C86.0244 46.947 86.1126 47.1579 86.2486 47.3374C86.3843 47.5172 86.5725 47.6648 86.7916 47.7165C86.9128 47.745 87.0488 47.7413 87.1517 47.6714C87.2774 47.5861 87.326 47.4235 87.3349 47.2717C87.3698 46.6674 87.2534 46.0473 87.054 45.4414" fill="#FFBF9D"/>
<g id="Group_522">
<path id="Vector_104" d="M87.054 45.4409C87.0624 45.438 87.0967 45.5087 87.1445 45.6415C87.1923 45.7743 87.2535 45.9699 87.3071 46.2178C87.3597 46.4655 87.4043 46.7667 87.4038 47.1046C87.4006 47.2657 87.4117 47.4697 87.2784 47.6437C87.2134 47.7298 87.1041 47.7857 86.9983 47.7968C86.8916 47.8103 86.7857 47.791 86.6881 47.757C86.2873 47.6091 86.0748 47.2403 85.9573 46.9317C85.8377 46.6154 85.7659 46.3216 85.7216 46.0719C85.6772 45.8221 85.6616 45.6175 85.6574 45.4763C85.6534 45.3348 85.6603 45.2566 85.6693 45.2564C85.6917 45.2548 85.7073 45.5666 85.8169 46.0526C85.8723 46.2947 85.9531 46.5816 86.075 46.8844C86.1938 47.1799 86.3953 47.5038 86.7343 47.6271C86.8977 47.6875 87.0843 47.6786 87.1736 47.5592C87.2707 47.4396 87.2733 47.2662 87.2773 47.1028C87.285 46.7759 87.2514 46.481 87.2118 46.2355C87.1287 45.7445 87.032 45.4475 87.054 45.4409Z" fill="#FF9A6C"/>
</g>
</g>
<g id="Group_523">
<path id="Vector_105" d="M84.3098 45.0293C84.3341 45.5549 84.4339 46.0771 84.6052 46.5748C84.6818 46.7976 84.7742 47.0183 84.9165 47.2062C85.0585 47.3942 85.2555 47.5486 85.4846 47.6028C85.6113 47.6326 85.7536 47.6286 85.8613 47.5555C85.9928 47.4663 86.0438 47.296 86.053 47.1373C86.0894 46.5051 85.9677 45.8564 85.7592 45.2223" fill="#FFBF9D"/>
<g id="Group_524">
<path id="Vector_106" d="M85.7588 45.2222C85.7672 45.2196 85.8026 45.2935 85.8522 45.4327C85.9018 45.5718 85.9657 45.7764 86.0212 46.0356C86.0758 46.2949 86.1223 46.6098 86.1215 46.9631C86.1181 47.1318 86.1294 47.3445 85.9908 47.5251C85.9235 47.6146 85.81 47.6727 85.6996 47.6843C85.5885 47.6983 85.4784 47.678 85.3765 47.6429C84.9586 47.4887 84.7366 47.104 84.6135 46.7814C84.4884 46.4509 84.4132 46.1436 84.3664 45.8825C84.3197 45.6214 84.3031 45.4073 84.2983 45.2597C84.2938 45.1119 84.3004 45.0301 84.3097 45.0298C84.3324 45.0282 84.3477 45.3545 84.462 45.8632C84.5198 46.1167 84.604 46.4171 84.7315 46.7342C84.8556 47.0436 85.0668 47.3836 85.423 47.5132C85.5943 47.5766 85.7915 47.5674 85.886 47.4412C85.9884 47.3147 85.9908 47.1326 85.995 46.9615C86.0027 46.6193 85.9673 46.3107 85.9259 46.0536C85.8385 45.5393 85.7368 45.2288 85.7588 45.2222Z" fill="#FF9A6C"/>
</g>
</g>
</g>
</g>
<g id="Group_525">
<g id="Group_526">
<g id="Group_527">
<g id="Group_528">
<path id="Vector_107" d="M42.8102 35.7955C43.5394 35.5238 44.3707 35.7057 45.1561 35.6339C46.6303 35.4993 47.8349 34.4673 48.547 33.3023C49.259 32.1372 49.5898 30.822 50.0898 29.572C50.59 28.3219 50.8971 27.1875 52.1532 26.1753C54.3679 24.391 58.1199 24.8904 58.2244 27.3694L56.7061 29.3816C57.6304 32.7336 57.3234 36.3507 55.8434 39.543C55.5498 40.176 55.1731 40.831 54.5046 41.1652C53.8365 41.4997 52.8135 41.331 52.5695 40.6821C51.7234 41.537 50.8448 42.4042 49.7162 42.9362C48.5876 43.4681 47.1412 43.6051 46.0698 42.989C44.9985 42.3728 44.583 40.8748 45.4513 40.0377C44.1653 40.0871 42.7741 39.6964 42.0541 38.742C41.3342 37.7879 41.6209 36.2382 42.8102 35.7955Z" fill="#263238"/>
</g>
<g id="Group_529">
<path id="Vector_108" d="M59.4538 26.2122C59.0795 25.8014 57.9137 25.483 57.3727 25.6105C56.8318 25.738 56.3669 26.0986 56.0237 26.5358C55.6805 26.973 55.4471 27.4854 55.2401 28.0013C54.9936 28.6156 54.7826 29.3239 55.0709 29.9198C55.336 30.4678 55.9479 30.7519 56.5324 30.9217C56.8616 31.0172 57.2806 31.0632 57.4884 30.7905C57.5818 30.6677 57.6064 30.5077 57.632 30.3556C57.8836 28.8522 58.5159 27.4139 59.4538 26.2122Z" fill="#FF725E"/>
<g id="Group_530">
<g id="Group_531">
<path id="Vector_109" d="M65.7703 23.3138C63.7911 22.9698 62.0474 23.7259 60.3731 24.8357C58.6988 25.9458 57.4348 27.6259 56.7014 29.4961C55.9292 31.4661 55.7349 33.6853 56.3149 35.7199C56.8952 37.7548 58.2801 39.5793 60.1632 40.5445C62.7343 41.8624 66.0309 41.4186 68.3422 39.6847C70.6533 37.9507 71.9817 35.0742 72.1031 32.1876C72.1868 30.1986 71.7188 28.1619 70.6137 26.5063C69.508 24.8508 67.7387 23.6102 65.7703 23.3138Z" fill="#263238"/>
</g>
</g>
<g id="Group_532">
<g id="Group_533">
<path id="Vector_110" d="M60.1131 30.0275C60.4056 29.2709 60.2963 28.4245 60.414 27.6219C60.673 25.8545 61.3327 24.2517 62.983 23.5685C64.5184 22.9328 67.1603 23.2702 69.0046 23.8742C70.2689 24.2882 71.4574 25.006 72.2974 26.0374C73.4123 27.4065 73.7996 29.3356 73.2999 31.0289L64.2579 29.6775C63.4083 30.3749 62.5384 31.0846 61.5096 31.4713C61.2076 31.5849 60.8829 31.6699 60.5648 31.6184C60.2464 31.5666 59.9378 31.3488 59.8633 31.0352C59.7817 30.6923 59.9858 30.3562 60.1131 30.0275Z" fill="#263238"/>
</g>
</g>
<g id="Group_534">
<g id="Group_535">
<path id="Vector_111" d="M59.9328 46.5489L59.9016 29.4552C59.919 28.6896 60.5194 28.0647 61.2839 28.0164L69.1886 26.3724C71.7045 26.214 73.2384 29.3691 73.2901 31.8892C73.3471 34.6892 73.3065 38.1101 72.887 40.1796C72.0432 44.3411 68.8092 44.7376 68.8092 44.7376C68.809 44.7233 68.8055 44.8976 68.7229 46.4193C68.7229 46.4193 68.6099 49.5646 65.0882 49.2018C62.7951 48.9663 59.9328 46.5489 59.9328 46.5489Z" fill="#FFBF9D"/>
</g>
</g>
<g id="Group_536">
<g id="Group_537">
<path id="Vector_112" d="M72.1203 35.5393C72.1184 35.8236 71.8758 36.0562 71.5791 36.0593C71.2829 36.0625 71.0437 35.8355 71.0458 35.5511C71.0479 35.2671 71.2903 35.0342 71.5865 35.0308C71.8832 35.0276 72.1224 35.2552 72.1203 35.5393Z" fill="#263238"/>
</g>
</g>
<g id="Group_538">
<g id="Group_539">
<path id="Vector_113" d="M72.4669 33.3841C72.3975 33.4514 72.0031 33.1328 71.4246 33.1095C70.8473 33.0781 70.4104 33.3577 70.3507 33.2841C70.3211 33.2513 70.3945 33.128 70.5849 33.001C70.7726 32.8749 71.0883 32.7579 71.4484 32.7745C71.8085 32.7917 72.1058 32.9374 72.2742 33.0805C72.4461 33.2247 72.501 33.354 72.4669 33.3841Z" fill="#263238"/>
</g>
</g>
<g id="Group_540">
<g id="Group_541">
<path id="Vector_114" d="M67.0454 35.1542C67.0436 35.4383 66.8012 35.6712 66.5042 35.6743C66.208 35.6775 65.9691 35.4507 65.971 35.1664C65.9731 34.8823 66.2154 34.6492 66.5116 34.646C66.8086 34.6423 67.0476 34.8702 67.0454 35.1542Z" fill="#263238"/>
</g>
</g>
<g id="Group_542">
<g id="Group_543">
<path id="Vector_115" d="M66.924 33.2015C66.8543 33.2688 66.4596 32.9502 65.8818 32.9272C65.3046 32.8958 64.8675 33.1754 64.8078 33.1017C64.7785 33.069 64.8508 32.9454 65.0422 32.819C65.2299 32.6925 65.5457 32.5756 65.9058 32.5925C66.2659 32.6099 66.5631 32.7553 66.7316 32.8984C66.9026 33.0423 66.9578 33.1717 66.924 33.2015Z" fill="#263238"/>
</g>
</g>
<g id="Group_544">
<g id="Group_545">
<path id="Vector_116" d="M68.701 37.8786C68.6997 37.8456 69.0619 37.7989 69.6475 37.7493C69.7956 37.7403 69.9368 37.7171 69.9658 37.6173C70.0052 37.5119 69.95 37.3504 69.8858 37.1753C69.7623 36.8121 69.6329 36.4314 69.497 36.0325C68.9589 34.406 68.5759 33.0709 68.6416 33.0501C68.7074 33.0289 69.1971 34.3302 69.7351 35.9567C69.8642 36.3577 69.9877 36.74 70.1052 37.1056C70.1541 37.2756 70.242 37.4702 70.1572 37.6885C70.1129 37.797 70.001 37.8725 69.9054 37.8939C69.8096 37.9187 69.7264 37.9169 69.6533 37.9182C69.0656 37.9243 68.7018 37.9116 68.701 37.8786Z" fill="#263238"/>
</g>
</g>
<g id="Group_546">
<g id="Group_547">
<path id="Vector_117" d="M68.8089 44.738C68.8089 44.738 65.9825 44.7998 63.2615 43.0024C63.2615 43.0024 64.5487 45.9629 68.759 45.7494L68.8089 44.738Z" fill="#FF9A6C"/>
</g>
</g>
<g id="Group_548">
<g id="Group_549">
<path id="Vector_118" d="M68.3971 39.2616C68.2009 38.9778 67.843 38.8112 67.4797 38.8347C67.2276 38.8511 66.9688 38.9614 66.8078 39.1592C66.6465 39.3569 66.6024 39.6457 66.7326 39.8464C66.8794 40.0726 67.2033 40.137 67.4823 40.0702C67.7619 40.0034 68.0069 39.8318 68.2403 39.6608C68.3047 39.6133 68.3707 39.5636 68.4127 39.4968C68.4546 39.43 68.4665 39.3405 68.4209 39.2817" fill="#FF9A6C"/>
</g>
</g>
<g id="Group_550">
<g id="Group_551">
<path id="Vector_119" d="M66.9821 38.2062C67.0763 38.2046 67.0507 38.8324 67.5692 39.3007C68.0864 39.7704 68.7585 39.7284 68.7596 39.8163C68.7667 39.8559 68.6054 39.932 68.3227 39.9275C68.0452 39.9251 67.6445 39.819 67.3274 39.5325C67.0111 39.2456 66.8857 38.8749 66.8754 38.6165C66.8627 38.3532 66.9393 38.2007 66.9821 38.2062Z" fill="#263238"/>
</g>
</g>
<g id="Group_552">
<g id="Group_553">
<path id="Vector_120" d="M66.6582 30.894C66.5945 31.0487 66.0203 30.9497 65.3387 31.0025C64.6555 31.0416 64.1 31.2172 64.0161 31.0722C63.9788 31.0031 64.0805 30.8592 64.308 30.7166C64.5338 30.5741 64.8899 30.4444 65.2988 30.4164C65.708 30.3893 66.0782 30.4698 66.321 30.5807C66.5658 30.6918 66.6859 30.8206 66.6582 30.894Z" fill="#263238"/>
</g>
</g>
<g id="Group_554">
<g id="Group_555">
<path id="Vector_121" d="M72.4131 31.0993C72.3059 31.2261 71.9133 31.0729 71.4344 31.046C70.9568 31.0027 70.546 31.0967 70.4587 30.9555C70.4206 30.8871 70.4901 30.7582 70.6725 30.6413C70.8526 30.5249 71.149 30.4362 71.4777 30.4599C71.8064 30.4845 72.0865 30.6154 72.2473 30.7572C72.4107 30.8995 72.4606 31.0373 72.4131 31.0993Z" fill="#263238"/>
</g>
</g>
<g id="Group_556">
<g id="Group_557">
<path id="Vector_122" d="M60.7899 36.5252C60.8023 36.2132 60.4731 35.4624 60.1671 35.4011C59.3498 35.2377 57.8637 35.2409 57.7611 37.3299C57.6206 40.1859 60.5169 39.7379 60.5259 39.656C60.5328 39.5921 60.7466 37.6029 60.7899 36.5252Z" fill="#FFBF9D"/>
</g>
</g>
<g id="Group_558">
<g id="Group_559">
<path id="Vector_123" d="M59.7067 38.5308C59.6946 38.521 59.6552 38.5633 59.5694 38.5976C59.4855 38.6311 59.3432 38.6501 59.1972 38.5868C58.901 38.4614 58.6705 37.9698 58.6819 37.4545C58.6874 37.1942 58.7539 36.9494 58.8561 36.749C58.9535 36.5444 59.0958 36.4051 59.2492 36.3858C59.4018 36.3581 59.505 36.4544 59.5359 36.5363C59.5702 36.6181 59.5494 36.6743 59.5644 36.6799C59.5721 36.6875 59.6278 36.6353 59.6109 36.5162C59.6019 36.4589 59.5718 36.3897 59.5074 36.3317C59.4417 36.2725 59.3424 36.2393 59.2357 36.2453C59.0148 36.2498 58.8065 36.4425 58.6943 36.6625C58.5699 36.8829 58.4889 37.1577 58.4828 37.45C58.4728 38.0265 58.741 38.5794 59.1481 38.719C59.3464 38.7813 59.5169 38.729 59.6067 38.666C59.698 38.5997 59.7162 38.5366 59.7067 38.5308Z" fill="#FF9A6C"/>
</g>
</g>
</g>
</g>
</g>
<path id="Vector_124" d="M71.0247 26.2478C70.9244 25.8663 70.4426 25.7565 70.0487 25.7333C67.2323 25.5672 64.4313 26.2269 61.739 27.0704C60.828 27.3558 59.8942 27.6797 59.1917 28.3265C58.2497 29.194 57.8624 30.5362 57.878 31.8166C57.8936 33.097 58.141 34.1374 58.5092 35.3637L59.6764 35.3642C60.0666 35.695 60.461 36.0306 60.7588 36.4466C61.0566 36.8627 61.2525 37.3743 61.1931 37.8823C61.1279 38.4377 60.7667 38.9544 60.8372 39.5093C60.8876 39.9072 61.0365 41.0292 61.3665 41.2572L61.4399 40.0194C61.5384 39.5484 61.8855 38.6233 62.1485 38.2205C62.5102 37.6658 62.677 36.4963 62.4397 35.8782C62.2026 35.26 62.0885 35.2396 61.6585 34.7362C61.1888 34.1863 61.1656 33.6023 61.4051 32.9199C61.6957 32.0917 62.3438 31.867 62.959 31.2411C63.6161 30.5726 63.5342 29.4982 63.4075 28.5694C65.7806 28.7513 68.2009 28.2692 70.3235 27.1921C70.7029 26.9994 71.1329 26.6596 71.0247 26.2478Z" fill="#263238"/>
<g id="Group_560">
<path id="Vector_125" d="M57.7856 38.647C57.7819 38.6499 57.7563 38.6251 57.7104 38.5744C57.6637 38.5245 57.6006 38.4464 57.5203 38.3442C57.3624 38.1386 57.1526 37.8262 56.9329 37.417C56.717 37.0068 56.4883 36.4999 56.3189 35.9078C56.1399 35.3169 56.0707 34.6353 56.0549 33.9296C56.0348 32.513 56.2175 31.2379 56.4316 30.3368C56.5425 29.8867 56.6631 29.5303 56.7621 29.2906C56.8091 29.17 56.8593 29.0815 56.8886 29.02C56.9197 28.9593 56.9382 28.9287 56.9424 28.9308C56.9527 28.9358 56.8983 29.068 56.8123 29.3096C56.7296 29.553 56.6246 29.9097 56.5266 30.3585C56.3384 31.2566 56.1726 32.5246 56.1924 33.927C56.2085 34.6271 56.2719 35.2918 56.4408 35.8734C56.6005 36.4571 56.8168 36.9614 57.0192 37.3727C57.2254 37.7827 57.4205 38.0998 57.5639 38.3133C57.7078 38.5264 57.7944 38.6399 57.7856 38.647Z" fill="#455A64"/>
</g>
</g>
<g id="Group_561">
<path id="Vector_126" d="M57.1842 72.9375C57.1842 72.9375 49.585 78.6732 53.4758 89.6318L48.6845 108.121C45.6421 107.782 42.8023 107.525 40.5493 107.5C40.5493 107.5 39.242 114.844 41.3722 117.444C41.3722 117.444 48.8962 117.744 53.3993 117.875C58.2146 118.016 62.4434 111.305 65.1024 105.635C67.7614 99.965 70.9526 91.2588 72.4308 88.9359C73.9089 86.613 76.8401 80.1252 76.8401 80.1252L57.1842 72.9375Z" fill="#263238"/>
<path id="Vector_127" d="M69.3491 93.3608C69.5611 93.3555 72.8321 95.1914 78.6171 94.0583C84.4024 92.9252 88.8682 91.8798 88.8682 91.8798C88.6346 92.0141 87.3407 94.3484 86.9239 96.4805L96.8315 97.419C96.8315 97.419 98.7022 89.919 99.0929 86.5792C99.4837 83.2393 96.9749 80.1848 93.1569 79.7004C89.3389 79.2159 77.3927 77.0884 77.3927 77.0884L72.2265 84.0907L69.3491 93.3608Z" fill="#263238"/>
<path id="Vector_128" d="M85.8182 112.75C85.8182 112.75 86.1799 105.648 86.1865 103.043C86.1973 98.7474 86.9241 96.4805 86.9241 96.4805L96.8318 97.419L92.2683 113.39C92.0368 113.585 85.8182 112.75 85.8182 112.75Z" fill="#FFBF9D"/>
<g id="Group_562">
<path id="Vector_129" d="M94.171 87.9653C94.1791 87.9703 94.1335 88.0553 94.0435 88.2058C93.9566 88.3581 93.8082 88.5648 93.6118 88.809C93.2174 89.2964 92.5883 89.9049 91.7997 90.4477C91.0133 90.9936 90.2376 91.3862 89.6626 91.6309C89.3757 91.7555 89.1378 91.8424 88.9723 91.8981C88.8062 91.9525 88.713 91.9783 88.7096 91.9694C88.7019 91.9488 89.0615 91.8091 89.6225 91.5422C90.1832 91.2766 90.9441 90.8743 91.7213 90.3347C92.5009 89.7982 93.1295 89.2111 93.5379 88.7462C93.9466 88.2808 94.1491 87.9513 94.171 87.9653Z" fill="#455A64"/>
</g>
<g id="Group_563">
<path id="Vector_130" d="M74.7205 84.1651C74.7289 84.1694 74.683 84.2847 74.5927 84.4901C74.4892 84.7193 74.3583 85.0094 74.202 85.3553C73.8606 86.1111 73.4108 87.1069 72.9136 88.2083C72.4305 89.3163 71.9936 90.3182 71.662 91.0782C71.5102 91.4262 71.3832 91.7179 71.2827 91.9484C71.1911 92.153 71.1364 92.2647 71.1277 92.2612C71.119 92.2578 71.157 92.1395 71.2333 91.9283C71.3093 91.7174 71.4252 91.4141 71.5725 91.041C71.8672 90.295 72.2917 89.2714 72.7883 88.1526C73.2848 87.0343 73.759 86.0327 74.1146 85.3138C74.2923 84.9542 74.4396 84.6652 74.5449 84.4672C74.6497 84.2686 74.712 84.1612 74.7205 84.1651Z" fill="#455A64"/>
</g>
<g id="Group_564">
<path id="Vector_131" d="M49.928 112.716C49.9111 112.722 49.8045 112.48 49.6616 112.077C49.5185 111.674 49.343 111.109 49.1872 110.475C49.0317 109.841 48.9256 109.259 48.8657 108.836C48.8055 108.412 48.7878 108.148 48.8055 108.146C48.8253 108.143 48.877 108.402 48.9612 108.819C49.0455 109.236 49.1658 109.812 49.3205 110.442C49.4755 111.072 49.6352 111.638 49.754 112.047C49.8728 112.456 49.9467 112.71 49.928 112.716Z" fill="#455A64"/>
</g>
<path id="Vector_132" d="M50.2667 102.016L53.4036 110.329L55.6214 107.973L51.5252 97.1592L50.2667 102.016Z" fill="#455A64"/>
<g id="Group_565">
<path id="Vector_133" d="M83.8124 118.525C83.8124 118.525 84.3475 115.8 84.7348 114.31C84.7348 114.31 85.2403 113.064 85.5218 112.687C85.8032 112.31 92.702 113.364 92.7031 113.403C92.7042 113.442 95.7452 116.841 97.7046 117.309C99.664 117.777 101.315 118.45 101.2 119.217C101.085 119.985 102.556 120.613 98.3445 120.473C94.1327 120.334 92.2939 120.208 89.5816 120.055C86.8692 119.902 84.2598 120.289 83.9467 119.409C83.6334 118.53 83.8124 118.525 83.8124 118.525Z" fill="#263238"/>
<g id="Group_566">
<path id="Vector_134" d="M89.6129 119.278C90.5517 117.308 91.6669 115.421 92.9407 113.648L94.871 115.281L92.0964 119.617L91.3556 120.42C91.3556 120.42 89.3054 119.254 89.459 119.266" fill="#263238"/>
<g id="Group_567">
<path id="Vector_135" d="M89.4591 119.266C89.4242 119.265 89.622 119.381 89.9485 119.571C90.297 119.768 90.7799 120.041 91.3781 120.38L91.3221 120.388C91.5428 120.146 91.7907 119.873 92.0568 119.581L92.051 119.588C92.8092 118.395 93.7678 116.888 94.813 115.244L94.8265 115.333C94.7541 115.272 94.6762 115.206 94.5978 115.14C94.0067 114.639 93.4336 114.153 92.8974 113.699L92.9943 113.687C91.8916 115.216 91.0536 116.623 90.4918 117.641C90.2104 118.151 89.9953 118.562 89.8479 118.845C89.7788 118.977 89.7228 119.084 89.6782 119.169C89.6386 119.242 89.6161 119.28 89.6125 119.278C89.6088 119.276 89.6241 119.235 89.6571 119.159C89.6964 119.071 89.746 118.961 89.8073 118.825C89.9419 118.535 90.1457 118.117 90.4174 117.601C90.9599 116.569 91.7857 115.148 92.8863 113.609L92.928 113.551L92.9832 113.597C93.5202 114.05 94.0941 114.535 94.6865 115.035C94.7649 115.101 94.8428 115.167 94.9152 115.228L94.9614 115.267L94.9289 115.317C93.8739 116.956 92.9066 118.457 92.1416 119.646L92.1389 119.65L92.1358 119.653C91.8652 119.942 91.6133 120.21 91.3889 120.45L91.3638 120.477L91.3329 120.459C90.7276 120.106 90.2482 119.818 89.9229 119.613C89.7603 119.51 89.6365 119.428 89.5552 119.368C89.5142 119.338 89.4847 119.314 89.4657 119.296C89.457 119.286 89.449 119.279 89.4482 119.268C89.453 119.263 89.4604 119.265 89.4591 119.266Z" fill="#455A64"/>
</g>
</g>
<g id="Group_568">
<path id="Vector_136" d="M89.1061 119.275C89.076 119.275 89.2093 118.902 89.0121 118.352C88.9173 118.081 88.7383 117.78 88.4719 117.51C88.2032 117.241 87.8481 117.007 87.4487 116.814C87.0492 116.618 86.6477 116.475 86.2857 116.328C85.9238 116.183 85.6033 116.046 85.324 115.965C84.7633 115.808 84.395 115.782 84.3992 115.756C84.4003 115.747 84.4916 115.746 84.6566 115.76C84.8211 115.774 85.0605 115.799 85.3496 115.871C85.64 115.942 85.9695 116.072 86.332 116.21C86.6936 116.349 87.1007 116.491 87.5091 116.69C87.9178 116.887 88.2853 117.133 88.5627 117.421C88.8378 117.711 89.0166 118.032 89.1042 118.321C89.194 118.609 89.1987 118.859 89.1752 119.025C89.1512 119.192 89.1121 119.277 89.1061 119.275Z" fill="#455A64"/>
</g>
<g id="Group_569">
<path id="Vector_137" d="M97.4741 117.248C97.5026 117.276 96.9477 117.88 96.3014 118.656C95.653 119.431 95.158 120.086 95.1256 120.063C95.1105 120.052 95.2153 119.874 95.4046 119.6C95.5939 119.327 95.8703 118.959 96.1956 118.568C96.5211 118.178 96.8339 117.841 97.0691 117.605C97.3046 117.37 97.4609 117.235 97.4741 117.248Z" fill="#455A64"/>
</g>
<path id="Vector_138" d="M83.901 118.538C83.901 118.538 83.6584 118.545 83.5153 118.968C83.3723 119.391 83.5254 120.151 83.5563 120.471C83.5871 120.791 83.9816 121.495 85.3301 121.557C86.6786 121.619 91.419 121.367 93.0964 121.346C94.7739 121.325 96.9395 121.394 98.7679 121.231C100.596 121.069 101.185 120.812 101.374 120.434C101.562 120.056 101.499 119.096 101.189 119.179C100.878 119.261 101.267 119.769 100.633 119.983C99.9987 120.197 99.4269 120.287 98.0116 120.202C96.5963 120.117 95.8732 120.32 94.3583 119.826C92.8435 119.331 92.6336 119.584 91.6843 119.659C90.7347 119.734 89.6819 119.171 88.3946 118.934C87.1068 118.698 83.901 118.538 83.901 118.538Z" fill="#F5F5F5"/>
</g>
<g id="Group_570">
<path id="Vector_139" d="M24 109.86C24 109.86 36.7747 107.103 41.3287 107.678C41.6643 107.72 41.3723 117.443 41.3723 117.443L23.5938 116.072L24 109.86Z" fill="#FFBF9D"/>
<g id="Group_571">
<path id="Vector_140" d="M21.8835 106.16C21.8835 106.16 24.3905 107.356 25.7366 108.102C25.7366 108.102 26.8174 108.902 27.1126 109.268C27.4077 109.634 24.6708 116.054 24.6331 116.045C24.5951 116.037 20.5461 118.137 19.6052 119.918C18.6643 121.699 17.6017 123.131 16.8871 122.829C16.1724 122.527 15.198 123.795 16.381 119.75C17.564 115.706 18.1432 113.956 18.9663 111.367C19.7892 108.778 20.0638 106.155 20.9936 106.07C21.9237 105.985 21.8835 106.16 21.8835 106.16Z" fill="#263238"/>
<g id="Group_572">
<path id="Vector_141" d="M19.7116 111.591C21.3867 112.991 22.9363 114.54 24.3363 116.215L22.275 117.678L18.7654 113.912L18.1727 112.995C18.1727 112.995 19.8119 111.299 19.7617 111.445" fill="#263238"/>
<g id="Group_573">
<path id="Vector_142" d="M19.7617 111.445C19.7709 111.411 19.6099 111.574 19.3448 111.843C19.0671 112.132 18.6822 112.531 18.2057 113.026L18.2112 112.97C18.3913 113.244 18.5935 113.552 18.8108 113.883L18.805 113.875C19.7715 114.906 20.993 116.21 22.3254 117.631L22.2354 117.622C22.3127 117.567 22.3959 117.508 22.4796 117.449C23.1119 117.001 23.7249 116.566 24.298 116.16L24.2856 116.257C23.0794 114.809 21.9249 113.647 21.078 112.85C20.6545 112.451 20.3098 112.14 20.0724 111.927C19.9618 111.827 19.8723 111.746 19.801 111.682C19.7401 111.625 19.7094 111.594 19.7118 111.591C19.7142 111.588 19.7501 111.613 19.8161 111.664C19.8913 111.724 19.9856 111.8 20.102 111.892C20.3488 112.095 20.7031 112.396 21.1356 112.788C22.0002 113.57 23.171 114.724 24.3878 116.172L24.434 116.227L24.3751 116.269C23.8027 116.676 23.1905 117.112 22.559 117.561C22.4754 117.621 22.3922 117.68 22.3148 117.734L22.2657 117.769L22.2248 117.725C20.9006 116.296 19.6867 114.985 18.7263 113.949L18.7229 113.945L18.7205 113.941C18.5082 113.607 18.3105 113.296 18.1347 113.02L18.1149 112.989L18.1402 112.963C18.632 112.465 19.0304 112.072 19.3103 111.808C19.4502 111.676 19.5605 111.576 19.6387 111.513C19.6772 111.48 19.7089 111.458 19.7311 111.444C19.743 111.438 19.7514 111.432 19.762 111.434C19.7662 111.439 19.762 111.446 19.7617 111.445Z" fill="#455A64"/>
</g>
</g>
<g id="Group_574">
<path id="Vector_143" d="M19.8409 111.101C19.8483 111.072 20.176 111.294 20.7581 111.239C21.0437 111.215 21.3801 111.116 21.7085 110.926C22.0353 110.732 22.3508 110.447 22.6367 110.108C22.9255 109.769 23.1647 109.416 23.3968 109.102C23.6278 108.788 23.84 108.512 23.9876 108.261C24.2788 107.757 24.3955 107.407 24.4203 107.417C24.4285 107.42 24.4066 107.509 24.3527 107.665C24.298 107.821 24.2141 108.047 24.0721 108.309C23.9314 108.572 23.7236 108.859 23.4994 109.176C23.275 109.492 23.0364 109.851 22.7415 110.197C22.449 110.544 22.1193 110.838 21.7716 111.036C21.4226 111.23 21.0664 111.323 20.7652 111.336C20.4634 111.351 20.22 111.294 20.0659 111.23C19.9101 111.165 19.8375 111.106 19.8409 111.101Z" fill="#455A64"/>
</g>
<g id="Group_575">
<path id="Vector_144" d="M19.7221 119.71C19.688 119.731 19.2408 119.043 18.6497 118.224C18.0602 117.403 17.5499 116.761 17.58 116.735C17.594 116.723 17.7403 116.869 17.9583 117.12C18.1764 117.372 18.4641 117.731 18.7611 118.143C19.0579 118.556 19.3071 118.943 19.4763 119.229C19.6461 119.516 19.7377 119.701 19.7221 119.71Z" fill="#455A64"/>
</g>
<path id="Vector_145" d="M21.8494 106.242C21.8494 106.242 21.9036 106.006 21.5292 105.762C21.1551 105.518 20.3805 105.477 20.0632 105.427C19.7459 105.378 18.9655 105.585 18.57 106.875C18.1743 108.166 17.2389 112.82 16.8419 114.45C16.4448 116.08 15.8397 118.16 15.5422 119.972C15.2447 121.783 15.3469 122.417 15.666 122.694C15.9852 122.971 16.9306 123.148 16.928 122.827C16.9253 122.506 16.3371 122.756 16.2872 122.089C16.2373 121.421 16.2928 120.845 16.7273 119.495C17.1616 118.145 17.145 117.394 18.0006 116.05C18.8565 114.706 18.6643 114.44 18.8277 113.502C18.9911 112.563 19.7987 111.683 20.3478 110.496C20.8972 109.308 21.8494 106.242 21.8494 106.242Z" fill="#F5F5F5"/>
</g>
</g>
</g>
<g id="Group_576">
<path id="Vector_146" d="M69.2934 46.9294C69.2934 46.9294 77.5603 52.5808 78.7752 55.6366C79.9902 58.6924 79.2127 63.2612 79.0002 64.4851C78.7877 65.709 78.0149 67.2719 78.2517 70.1901C78.4883 73.1084 78.5406 81.5551 77.027 82.7307C75.5135 83.9063 70.6623 81.5928 66.5909 81.209C62.5197 80.8251 52.3232 81.0836 52.3232 81.0836C52.3232 81.0836 52.5585 75.9897 57.9546 71.5376L59.7438 67.4926C59.7438 67.4926 56.8041 60.5003 56.9609 57.0847C57.1177 53.669 57.8192 48.3962 59.9035 45.9637C59.9035 45.9637 61.6818 45.3866 63.7077 45.3351C65.1534 45.2986 69.2934 46.9294 69.2934 46.9294Z" fill="#FF6000"/>
<g id="Group_577">
<path id="Vector_147" d="M71.746 70.5108C71.7437 70.52 71.5987 70.4936 71.3387 70.4379C71.0546 70.3785 70.684 70.3007 70.2375 70.2072C69.3069 70.0177 68.0155 69.7861 66.578 69.6087C65.14 69.4329 63.8305 69.345 62.8817 69.3035C62.4258 69.2864 62.0475 69.2719 61.7576 69.2608C61.492 69.2518 61.345 69.2423 61.345 69.2328C61.345 69.2233 61.4918 69.2146 61.7579 69.2072C62.024 69.1985 62.4089 69.1977 62.8849 69.2061C63.8366 69.2228 65.1516 69.2956 66.5946 69.472C68.0368 69.6499 69.3304 69.8978 70.2579 70.1119C70.7217 70.2188 71.0953 70.3131 71.3511 70.3857C71.608 70.4575 71.7484 70.5016 71.746 70.5108Z" fill="#263238"/>
</g>
<path id="Vector_148" opacity="0.3" d="M67.3734 87.3244C67.3734 87.3244 68.0962 79.4865 67.555 76.3339C67.0138 73.1812 65.7788 69.8521 65.8643 69.656C65.9499 69.4598 68.5891 58.7174 68.5891 58.7174L64.4205 58.3687L60.5714 71.6647L67.3734 87.3244Z" fill="black"/>
<path id="Vector_149" d="M73.6481 54.53C73.6589 54.9579 73.3207 55.3138 72.8928 55.3246C72.4649 55.3354 72.109 54.9973 72.0982 54.5693C72.0873 54.1414 72.4255 53.7855 72.8535 53.7747C73.2814 53.7636 73.6373 54.1018 73.6481 54.53Z" fill="white"/>
</g>
<g id="Group_578">
<path id="Vector_150" d="M57.3052 56.8773C57.3052 56.8773 57.4628 67.3064 57.6154 69.077C57.768 70.8479 58.6038 74.107 58.6038 74.107L63.2626 88.1323L67.8116 87.2637C67.8116 87.2637 66.0298 74.2947 65.2698 71.8939C64.5097 69.4931 65.0802 68.672 65.523 67.0474C65.9657 65.4227 68.15 58.2686 68.15 58.2686C68.15 58.2686 64.4627 57.0716 61.5511 56.7693C58.6392 56.467 57.3052 56.8773 57.3052 56.8773Z" fill="#FFBF9D"/>
<g id="Group_579">
<g id="Group_580">
<path id="Vector_151" d="M71.5264 92.3238L63.5929 92.5254L63.6635 95.3055L71.597 95.104L71.5264 92.3238Z" fill="#FF6000"/>
<path id="Vector_152" d="M60.4563 90.8838L62.8558 90.8229C63.0348 90.8184 63.1837 90.9599 63.1882 91.1389L63.3323 96.8072C63.3368 96.9862 63.1956 97.1351 63.0163 97.1396L60.6168 97.2006C60.4378 97.2051 60.2889 97.0636 60.2844 96.8846C59.9594 95.252 59.918 92.9032 60.1403 91.2162C60.1358 91.0372 60.2773 90.8886 60.4563 90.8838Z" fill="#FF6000"/>
<path id="Vector_153" d="M64.2912 95.2544C64.2495 95.2555 63.3844 95.6195 63.3339 96.8588L61.015 96.4168L60.8824 91.2039L63.1885 91.1387C63.1885 91.1387 63.3329 92.3016 63.9084 92.5139L64.8094 94.1084L64.2912 95.2544Z" fill="#FF6000"/>
</g>
<g id="Group_581">
<path id="Vector_154" d="M63.3336 96.8588C63.3206 96.8623 63.2683 96.7097 63.1886 96.4425C63.1086 96.1751 63.0009 95.7928 62.8771 95.3363L62.8755 95.3303L62.8752 95.3226C62.8605 94.9308 62.8507 94.4778 62.8533 93.9981C62.8613 93.2576 62.8642 92.5849 62.8602 92.0788V92.0706L62.862 92.0646C63.0284 91.4772 63.1422 91.1142 63.162 91.1192C63.1818 91.1245 63.1036 91.4967 62.9616 92.0907L62.9632 92.0765C62.9885 92.582 62.9988 93.2597 62.9909 93.9989C62.9882 94.4773 62.9925 94.9282 62.9975 95.3197L62.9956 95.306C63.1084 95.7653 63.1994 96.1521 63.2588 96.4245C63.3182 96.697 63.3465 96.8557 63.3336 96.8588Z" fill="#263238"/>
</g>
<g id="Group_582">
<path id="Vector_155" d="M62.9362 95.3208C62.9373 95.3588 62.2984 95.4058 61.5096 95.4259C60.7205 95.4459 60.0803 95.4314 60.0792 95.3934C60.0782 95.3554 60.717 95.3084 61.5061 95.2883C62.295 95.2683 62.9354 95.2828 62.9362 95.3208Z" fill="#263238"/>
</g>
<g id="Group_583">
<path id="Vector_156" d="M62.9117 92.0773C62.9128 92.1153 62.2523 92.1629 61.437 92.1835C60.6213 92.2043 59.9594 92.1903 59.9586 92.1523C59.9576 92.1143 60.6178 92.0668 61.4336 92.0462C62.2488 92.0256 62.9107 92.0393 62.9117 92.0773Z" fill="#263238"/>
</g>
<g id="Group_584">
<path id="Vector_157" d="M74.9747 96.7841L72.5753 96.8451C72.3963 96.8496 72.2474 96.7083 72.2429 96.5291L72.0987 90.8608C72.0942 90.6818 72.2355 90.5329 72.4147 90.5284L74.8142 90.4674C74.9932 90.4629 75.1421 90.6041 75.1466 90.7834C75.4716 92.416 75.513 94.7648 75.2908 96.4517C75.2952 96.6307 75.1537 96.7796 74.9747 96.7841Z" fill="#FF6000"/>
<path id="Vector_158" d="M71.1398 92.4139C71.1815 92.4128 72.0467 92.0488 72.0971 90.8096L74.4161 91.2515L74.5486 96.4644L72.2426 96.5297C72.2426 96.5297 72.0718 95.316 71.496 95.1035L70.6213 93.5597L71.1398 92.4139Z" fill="#FF6000"/>
</g>
<g id="Group_585">
<path id="Vector_159" d="M72.0973 90.8096C72.1103 90.8062 72.1625 90.9588 72.2423 91.226C72.3222 91.4934 72.43 91.8757 72.5538 92.3321L72.5554 92.3382L72.5556 92.3458C72.5704 92.7376 72.5802 93.1906 72.5775 93.6703C72.5696 94.4109 72.5667 95.0835 72.5707 95.5896V95.5978L72.5688 95.6039C72.4025 96.1913 72.2887 96.5545 72.2689 96.5493C72.2491 96.544 72.3273 96.1717 72.4693 95.578L72.4677 95.5923C72.4424 95.0867 72.4321 94.409 72.44 93.6698C72.4426 93.1914 72.4384 92.7405 72.4334 92.349L72.4352 92.3627C72.3225 91.9034 72.2314 91.5166 72.172 91.2442C72.1126 90.9715 72.0844 90.8128 72.0973 90.8096Z" fill="#263238"/>
</g>
<g id="Group_586">
<path id="Vector_160" d="M72.4946 92.3475C72.4936 92.3095 73.1325 92.2625 73.9213 92.2424C74.7104 92.2224 75.3506 92.2369 75.3516 92.2749C75.3527 92.3129 74.7138 92.3599 73.9247 92.38C73.1359 92.4 72.4954 92.3855 72.4946 92.3475Z" fill="#263238"/>
</g>
<g id="Group_587">
<path id="Vector_161" d="M72.5192 95.5909C72.5181 95.5529 73.1786 95.5054 73.9939 95.4848C74.8096 95.4639 75.4715 95.4779 75.4723 95.5159C75.4733 95.5539 74.8131 95.6015 73.9973 95.622C73.1821 95.6426 72.5202 95.6287 72.5192 95.5909Z" fill="#263238"/>
</g>
</g>
<g id="Group_588">
<path id="Vector_162" d="M62.7757 46.7251C59.779 46.8014 57.4793 50.0676 57.0662 54.3951L56.9656 57.7442L68.589 58.7168L68.7624 55.118C68.7624 55.118 70.066 46.5398 62.7757 46.7251Z" fill="#FF6000"/>
<g id="Group_589">
<path id="Vector_163" d="M62.7757 46.7253C62.7757 46.7234 62.7947 46.7221 62.8325 46.7208C62.876 46.72 62.931 46.719 63.0004 46.7176C63.1485 46.7219 63.3692 46.701 63.6543 46.7332C64.2206 46.7681 65.0762 46.8842 66.024 47.3834C66.4892 47.6419 66.9636 48.0075 67.3751 48.4988C67.7912 48.9864 68.1278 49.6013 68.3775 50.2911C68.6307 50.981 68.7854 51.7511 68.8617 52.5644C68.9356 53.3791 68.9348 54.2385 68.8242 55.1276L68.8248 55.1213C68.7714 56.2575 68.7147 57.4661 68.6555 58.7201L68.6524 58.7893L68.5835 58.7835C67.0348 58.6547 65.3896 58.5176 63.6963 58.3764C61.3229 58.1763 59.0441 57.9844 56.9601 57.8088L56.8986 57.8035L56.9004 57.742C56.9321 56.7385 56.9625 55.771 56.9918 54.8459C56.9899 54.3837 57.0638 53.9312 57.1251 53.4935C57.1655 53.2762 57.2056 53.0616 57.2449 52.8501C57.2964 52.641 57.3468 52.4348 57.3967 52.2318C57.6161 51.4245 57.9031 50.6874 58.2368 50.0364C58.5776 49.3883 58.9739 48.836 59.3817 48.3798C59.7915 47.922 60.2371 47.5917 60.6408 47.3343C60.8533 47.2243 61.0476 47.1134 61.2369 47.0381C61.4301 46.9732 61.6004 46.895 61.763 46.8599C61.9246 46.8248 62.0682 46.7937 62.1939 46.7665C62.3198 46.7496 62.4275 46.7464 62.5133 46.7388C62.5946 46.7335 62.659 46.7293 62.7087 46.7261C62.7533 46.7237 62.7757 46.7234 62.7757 46.7253C62.7757 46.7271 62.7536 46.7311 62.71 46.7369C62.6606 46.743 62.5967 46.7506 62.516 46.7604C62.4307 46.7715 62.324 46.7784 62.1999 46.7984C62.0761 46.8283 61.9344 46.8626 61.7752 46.9011C61.6149 46.9391 61.4478 47.0199 61.258 47.0867C61.0721 47.1641 60.8818 47.2765 60.6735 47.3877C60.2783 47.6474 59.8422 47.9777 59.4417 48.4336C59.043 48.8885 58.6555 49.4371 58.3226 50.0807C57.9968 50.7273 57.717 51.4591 57.5034 52.2601C57.4548 52.4617 57.4057 52.6661 57.3558 52.8736C57.3175 53.0835 57.279 53.2965 57.2399 53.5122C57.181 53.946 57.1098 54.3887 57.1129 54.8531C57.0865 55.7773 57.0591 56.7438 57.0303 57.746L56.9709 57.6794C59.0552 57.8526 61.334 58.0422 63.7076 58.2394C65.4009 58.3817 67.0459 58.52 68.5943 58.6504L68.5222 58.7138C68.584 57.4598 68.6437 56.2515 68.6999 55.1152V55.1134L68.7004 55.1086C68.9092 53.3617 68.7574 51.6922 68.2793 50.326C68.037 49.6446 67.7099 49.0379 67.3052 48.5564C66.905 48.0709 66.4427 47.7082 65.9873 47.4489C65.0599 46.9481 64.2135 46.8198 63.6509 46.7728C63.3679 46.7345 63.1477 46.7491 63.0001 46.738C62.9307 46.7351 62.8758 46.7327 62.8322 46.7308C62.795 46.7293 62.7757 46.7271 62.7757 46.7253Z" fill="#263238"/>
</g>
</g>
<g id="Group_590">
<path id="Vector_164" d="M62.8375 86.8533C62.8375 86.8533 63.6528 90.3403 63.8302 91.7627C63.9746 92.9185 64.7993 94.3443 64.7993 94.3443C64.7993 94.3443 64.7713 95.9782 66.2619 95.8362C66.2619 95.8362 66.5818 96.1158 67.4773 95.8101C67.4773 95.8101 67.5887 96.0957 68.5571 95.907L69.243 95.5519C69.243 95.5519 69.0846 96.1586 70.0862 95.9186C71.0878 95.6786 70.9027 95.2317 70.9875 94.465C71.0722 93.6983 70.7789 91.7249 70.4479 91.0037C70.1168 90.2824 68.9629 89.9989 68.4483 88.9001C67.9338 87.8011 67.5333 85.3496 67.5333 85.3496L62.8375 86.8533Z" fill="#FFBF9D"/>
<g id="Group_591">
<path id="Vector_165" d="M66.6563 94.4781C66.6928 94.481 66.6904 94.8083 66.5711 95.1901C66.4533 95.5724 66.2701 95.8435 66.2384 95.8253C66.2036 95.8068 66.3269 95.5169 66.4396 95.1492C66.5547 94.7822 66.617 94.4736 66.6563 94.4781Z" fill="#FF9A6C"/>
</g>
<g id="Group_592">
<path id="Vector_166" d="M68.1603 94.3298C68.1955 94.3374 68.1295 94.7361 67.9143 95.1812C67.7015 95.6274 67.4317 95.9283 67.4037 95.9056C67.3718 95.8818 67.5846 95.5537 67.7905 95.1215C67.9988 94.6912 68.1218 94.3198 68.1603 94.3298Z" fill="#FF9A6C"/>
</g>
<g id="Group_593">
<path id="Vector_167" d="M69.5352 94.2892C69.5721 94.2974 69.537 94.5955 69.4565 94.9545C69.376 95.3136 69.2807 95.5981 69.2435 95.5897C69.2065 95.5815 69.2416 95.2835 69.3221 94.9244C69.4027 94.5654 69.4982 94.2811 69.5352 94.2892Z" fill="#FF9A6C"/>
</g>
</g>
</g>
</g>
</g>
</g>
</svg>
